<?xml version="1.0" standalone="no"?>
<!DOCTYPE svg PUBLIC "-//W3C//DTD SVG 1.1//EN" "http://www.w3.org/Graphics/SVG/1.1/DTD/svg11.dtd">
<svg width="244px" height="244px" version="1.1" xmlns="http://www.w3.org/2000/svg" xmlns:xlink="http://www.w3.org/1999/xlink" xml:space="preserve" style="fill-rule:evenodd;clip-rule:evenodd;stroke-linejoin:round;stroke-miterlimit:1.41421;">
    <g>
        <g id="achievements">
            <path d="M0,193.127L0,50.8029C0,22.7606 22.8168,0 50.8546,0L193.195,0C221.238,0 244,22.7617 244,50.8029L244,193.127C244,221.229 221.239,244 193.195,244L50.8546,244C22.8168,244 0,221.229 0,193.127Z" style="fill:rgb(193,198,5);fill-rule:nonzero;"/>
            <g>
                <path d="M54.673,195.222L60.647,208.697L58.064,208.697L56.942,206.226L49.755,206.226L48.654,208.697L46.116,208.697L52.09,195.222ZM50.675,204.047L56.043,204.047L53.46,197.647L53.19,197.647Z" style="fill:rgb(223,227,73);fill-rule:nonzero;"/>
                <path d="M63.611,203.878C63.85,204.455 64.165,204.939 64.554,205.327C64.988,205.776 65.5,206.128 66.092,206.383C66.684,206.638 67.309,206.765 67.967,206.765C68.761,206.765 69.479,206.622 70.123,206.338C70.767,206.054 71.388,205.65 71.987,205.125L73.424,206.72C72.631,207.498 71.808,208.064 70.954,208.415C70.1,208.766 69.104,208.942 67.967,208.942C66.934,208.942 65.99,208.766 65.137,208.415C64.284,208.063 63.535,207.573 62.892,206.944C62.233,206.299 61.728,205.555 61.375,204.71C61.023,203.864 60.848,202.939 60.848,201.937C60.848,200.949 61.024,200.035 61.375,199.197C61.728,198.359 62.218,197.617 62.847,196.973C63.476,196.344 64.224,195.854 65.092,195.502C65.961,195.149 66.919,194.974 67.967,194.974C69.105,194.974 70.101,195.154 70.954,195.513C71.807,195.872 72.631,196.419 73.424,197.153L71.987,198.77C71.387,198.231 70.766,197.824 70.123,197.546C69.478,197.269 68.761,197.13 67.967,197.13C67.309,197.13 66.695,197.246 66.125,197.478C65.557,197.71 65.055,198.044 64.621,198.478C64.201,198.898 63.868,199.406 63.621,200.005C63.374,200.604 63.251,201.247 63.251,201.937C63.252,202.655 63.371,203.302 63.611,203.878Z" style="fill:rgb(223,227,73);fill-rule:nonzero;"/>
                <path d="M86.519,195.222L86.519,208.697L84.138,208.697L84.138,202.566L77.041,202.566L77.041,208.697L74.638,208.697L74.638,195.222L77.041,195.222L77.041,200.431L84.138,200.431L84.138,195.222Z" style="fill:rgb(223,227,73);fill-rule:nonzero;"/>
                <rect x="88.203" y="195.221" width="2.358" height="13.475" style="fill:rgb(223,227,73);"/>
                <path d="M92.245,195.222L102.71,195.222L102.71,197.422L94.67,197.422L94.67,200.544L101.857,200.544L101.857,202.722L94.67,202.722L94.67,206.518L103.024,206.518L103.024,208.697L92.245,208.697Z" style="fill:rgb(223,227,73);fill-rule:nonzero;"/>
                <path d="M109.335,208.696L103.9,195.221L106.504,195.221L110.884,206.36L111.064,206.36L115.42,195.221L117.936,195.221L112.5,208.696Z" style="fill:rgb(223,227,73);fill-rule:nonzero;"/>
                <path d="M119.081,195.222L129.547,195.222L129.547,197.422L121.507,197.422L121.507,200.544L128.694,200.544L128.694,202.722L121.507,202.722L121.507,206.518L129.861,206.518L129.861,208.697L119.081,208.697Z" style="fill:rgb(223,227,73);fill-rule:nonzero;"/>
                <path d="M133.926,195.222L138.687,201.892L143.336,195.222L145.919,195.222L145.919,208.697L143.538,208.697L143.538,198.815L143.448,198.815L139.024,205.081L138.148,205.081L133.678,198.815L133.588,198.815L133.588,208.697L131.32,208.697L131.32,195.222Z" style="fill:rgb(223,227,73);fill-rule:nonzero;"/>
                <path d="M147.603,195.222L158.069,195.222L158.069,197.422L150.029,197.422L150.029,200.544L157.216,200.544L157.216,202.722L150.029,202.722L150.029,206.518L158.383,206.518L158.383,208.697L147.603,208.697Z" style="fill:rgb(223,227,73);fill-rule:nonzero;"/>
                <path d="M172.352,195.222L172.352,208.697L170.128,208.697L162.2,199.017L162.2,208.697L159.842,208.697L159.842,195.222L162.066,195.222L170.039,204.923L170.039,195.222Z" style="fill:rgb(223,227,73);fill-rule:nonzero;"/>
                <path d="M173.452,195.222L185.826,195.222L185.826,197.377L180.817,197.377L180.817,208.696L178.46,208.696L178.46,197.377L173.452,197.377Z" style="fill:rgb(223,227,73);fill-rule:nonzero;"/>
                <path d="M186.635,197.231C186.889,196.774 187.226,196.396 187.646,196.096C188.155,195.707 188.776,195.422 189.509,195.242C190.243,195.062 191.036,194.972 191.89,194.972C192.744,194.972 193.609,195.07 194.484,195.265C195.36,195.458 196.299,195.811 197.302,196.32L196.404,198.229C195.64,197.855 194.9,197.582 194.181,197.41C193.462,197.238 192.743,197.151 192.025,197.151C191.471,197.151 190.943,197.189 190.442,197.263C189.94,197.338 189.525,197.495 189.195,197.735C188.791,198.019 188.59,198.402 188.59,198.881C188.59,199.076 188.635,199.236 188.725,199.363C188.815,199.49 188.942,199.607 189.106,199.711C189.301,199.861 189.534,199.97 189.803,200.037C190.072,200.104 190.326,200.16 190.566,200.205L193.306,200.699C193.98,200.82 194.642,201 195.293,201.238C195.944,201.478 196.494,201.815 196.943,202.25C197.243,202.549 197.474,202.896 197.639,203.293C197.804,203.69 197.886,204.166 197.886,204.72C197.886,205.439 197.743,206.053 197.459,206.562C197.175,207.071 196.8,207.483 196.337,207.797C195.737,208.216 195.012,208.512 194.158,208.684C193.304,208.856 192.429,208.942 191.53,208.942C190.961,208.942 190.444,208.921 189.981,208.876C189.516,208.831 189.067,208.759 188.633,208.662C188.198,208.565 187.772,208.437 187.353,208.28C186.933,208.123 186.492,207.94 186.028,207.729L186.769,205.753C188.415,206.412 189.988,206.741 191.485,206.741C192.294,206.741 192.975,206.688 193.529,206.584C194.083,206.479 194.562,206.277 194.967,205.978C195.326,205.694 195.505,205.297 195.505,204.788C195.505,204.534 195.457,204.316 195.359,204.137C195.261,203.958 195.13,203.8 194.966,203.665C194.726,203.501 194.434,203.362 194.09,203.249C193.745,203.138 193.379,203.044 192.989,202.97L190.002,202.452C189.389,202.348 188.83,202.194 188.329,201.992C187.827,201.79 187.404,201.516 187.06,201.173C186.805,200.903 186.607,200.581 186.464,200.206C186.321,199.833 186.251,199.384 186.251,198.859C186.253,198.23 186.38,197.688 186.635,197.231Z" style="fill:rgb(223,227,73);fill-rule:nonzero;"/>
            </g>
            <g>
                <path d="M87.583,121.999C87.583,121.999 88.271,124.423 93.456,124.423C105.384,124.683 101.548,134.468 111.214,134.704C111.214,134.444 92.544,173.409 92.544,173.409L83.576,159.925L67.36,161.739Z" style="fill:rgb(223,227,73);"/>
                <path d="M156.952,123.997C142.175,125.554 145.177,129.206 141.807,132.058C137.916,136.206 133.063,135.408 133.063,135.408L155.879,174.629L161.477,160.109L177.434,162.183Z" style="fill:rgb(223,227,73);"/>
                <path d="M167.567,79.966C169.971,75.671 169.057,72.265 164.829,69.747C160.599,67.229 158.452,63.511 158.387,58.589C158.324,53.667 155.828,51.175 150.908,51.109C145.986,51.045 142.267,48.896 139.75,44.668C137.233,40.44 133.826,39.525 129.531,41.93C125.238,44.334 120.943,44.334 116.648,41.93C112.351,39.526 108.947,40.44 106.429,44.668C103.911,48.896 100.193,51.045 95.271,51.109C90.351,51.175 87.857,53.668 87.791,58.589C87.727,63.511 85.578,67.23 81.35,69.747C77.12,72.265 76.207,75.671 78.612,79.966C81.016,84.259 81.016,88.554 78.612,92.851C76.208,97.146 77.12,100.55 81.35,103.068C85.579,105.586 87.727,109.304 87.791,114.226C87.857,119.148 90.352,121.64 95.271,121.706C100.193,121.77 103.912,123.919 106.429,128.147C108.946,132.375 112.351,133.29 116.648,130.885C120.943,128.481 125.238,128.481 129.531,130.885C133.826,133.289 137.232,132.375 139.75,128.147C142.268,123.919 145.986,121.77 150.908,121.706C155.829,121.64 158.324,119.147 158.387,114.226C158.452,109.304 160.599,105.585 164.829,103.068C169.058,100.55 169.972,97.146 167.567,92.851C165.162,88.554 165.162,84.259 167.567,79.966ZM128.696,107.149L121.305,107.149L121.305,79.247C118.602,81.774 115.414,83.642 111.744,84.851L111.744,78.144C113.674,77.513 115.771,76.316 118.035,74.554C120.299,72.792 121.851,70.738 122.693,68.388L128.695,68.388L128.695,107.149Z" style="fill:rgb(223,227,73);fill-rule:nonzero;"/>
            </g>
        </g>
    </g>
</svg>
