<?xml version="1.0" standalone="no"?>
<!DOCTYPE svg PUBLIC "-//W3C//DTD SVG 1.1//EN" "http://www.w3.org/Graphics/SVG/1.1/DTD/svg11.dtd">
<svg width="244px" height="244px" version="1.1" xmlns="http://www.w3.org/2000/svg" xmlns:xlink="http://www.w3.org/1999/xlink" xml:space="preserve" style="fill-rule:evenodd;clip-rule:evenodd;stroke-linejoin:round;stroke-miterlimit:1.41421;">
    <g>
        <g id="chose mode">
            <g>
                <path d="M0,193.127L0,50.8029C0,22.7606 22.8186,0 50.8562,0L193.193,0C221.238,0 244,22.7617 244,50.8029L244,193.127C244,221.229 221.239,244 193.193,244L50.8562,244C22.8186,244 0,221.229 0,193.127Z" style="fill:rgb(255,151,32);fill-rule:nonzero;"/>
                <g>
                    <path d="M59.3661,204.45C59.6077,205.03 59.9248,205.516 60.3154,205.908C60.7534,206.36 61.2688,206.716 61.8648,206.972C62.4598,207.227 63.089,207.356 63.7524,207.356C64.5507,207.356 65.2746,207.212 65.9229,206.926C66.5713,206.64 67.1964,206.233 67.7985,205.705L69.2462,207.311C68.4478,208.094 67.6183,208.664 66.7585,209.018C65.8998,209.372 64.8971,209.549 63.7524,209.549C62.7125,209.549 61.7621,209.371 60.9034,209.018C60.0446,208.664 59.2906,208.169 58.6432,207.535C57.9798,206.888 57.4704,206.138 57.116,205.286C56.7617,204.434 56.5855,203.504 56.5855,202.494C56.5855,201.499 56.7627,200.58 57.116,199.735C57.4694,198.891 57.9647,198.145 58.5979,197.496C59.2302,196.863 59.9842,196.369 60.8581,196.015C61.7319,195.66 62.6974,195.484 63.7524,195.484C64.8981,195.484 65.9008,195.665 66.7585,196.027C67.6183,196.387 68.4478,196.938 69.2462,197.677L67.7985,199.305C67.1954,198.763 66.5703,198.352 65.9229,198.072C65.2736,197.794 64.5507,197.654 63.7524,197.654C63.089,197.654 62.4718,197.771 61.898,198.005C61.3242,198.24 60.8208,198.573 60.3839,199.011C59.9611,199.433 59.6258,199.947 59.3771,200.548C59.1285,201.152 59.0036,201.801 59.0036,202.494C59.0047,203.217 59.1255,203.87 59.3661,204.45Z" style="fill:rgb(255,179,92);fill-rule:nonzero;"/>
                    <path d="M82.4273,195.732L82.4273,209.301L80.0313,209.301L80.0313,203.127L72.8855,203.127L72.8855,209.301L70.4673,209.301L70.4673,195.732L72.8855,195.732L72.8855,200.979L80.0313,200.979L80.0313,195.732Z" style="fill:rgb(255,179,92);fill-rule:nonzero;"/>
                    <path d="M93.6987,196.003C94.5655,196.35 95.3155,196.839 95.9488,197.473C96.5961,198.136 97.0934,198.898 97.4397,199.758C97.786,200.618 97.9602,201.537 97.9602,202.517C97.9602,203.496 97.7941,204.405 97.4629,205.241C97.1317,206.078 96.6565,206.813 96.0394,207.445C95.39,208.109 94.6299,208.625 93.7551,208.995C92.8802,209.364 91.9007,209.549 90.8154,209.549C89.7302,209.549 88.7365,209.341 87.8315,208.927C86.9264,208.513 86.1583,207.966 85.525,207.288C84.9522,206.67 84.4972,205.946 84.1569,205.117C83.8186,204.288 83.6485,203.421 83.6485,202.517C83.6485,201.567 83.8146,200.677 84.1458,199.848C84.477,199.019 84.9452,198.287 85.5482,197.654C86.1814,196.975 86.9465,196.444 87.8425,196.06C88.7395,195.675 89.7302,195.484 90.8154,195.484C91.8705,195.484 92.8319,195.656 93.6987,196.003ZM86.418,204.393C86.6516,204.966 86.9647,205.463 87.3573,205.885C87.7791,206.353 88.2875,206.719 88.8835,206.983C89.4785,207.246 90.1228,207.378 90.8164,207.378C91.495,207.378 92.1312,207.25 92.7262,206.994C93.3212,206.737 93.8376,206.375 94.2756,205.908C94.6672,205.486 94.9763,204.989 95.2018,204.416C95.4283,203.843 95.542,203.21 95.542,202.517C95.542,201.808 95.4242,201.163 95.1907,200.582C94.9571,200.002 94.644,199.509 94.2524,199.101C93.8145,198.649 93.299,198.294 92.7041,198.038C92.1081,197.782 91.4789,197.653 90.8154,197.653C90.1369,197.653 89.5006,197.782 88.9056,198.038C88.3097,198.294 87.7942,198.656 87.3573,199.123C86.9647,199.546 86.6526,200.043 86.418,200.616C86.1844,201.187 86.0677,201.821 86.0677,202.516C86.0687,203.195 86.1844,203.821 86.418,204.393Z" style="fill:rgb(255,179,92);fill-rule:nonzero;"/>
                    <path d="M99.1361,197.755C99.3918,197.296 99.7321,196.915 100.154,196.613C100.666,196.22 101.291,195.935 102.03,195.754C102.768,195.573 103.568,195.482 104.426,195.482C105.286,195.482 106.157,195.581 107.039,195.775C107.92,195.971 108.865,196.326 109.876,196.838L108.972,198.761C108.203,198.384 107.457,198.109 106.733,197.935C106.009,197.762 105.285,197.675 104.562,197.675C104.005,197.675 103.474,197.712 102.969,197.788C102.463,197.863 102.046,198.022 101.714,198.263C101.308,198.55 101.104,198.934 101.104,199.417C101.104,199.613 101.15,199.775 101.24,199.904C101.331,200.031 101.459,200.147 101.625,200.254C101.82,200.404 102.055,200.514 102.325,200.581C102.596,200.649 102.852,200.706 103.094,200.751L105.852,201.249C106.531,201.369 107.197,201.55 107.853,201.792C108.508,202.032 109.062,202.372 109.514,202.809C109.816,203.111 110.049,203.461 110.214,203.861C110.38,204.26 110.464,204.739 110.464,205.297C110.464,206.021 110.32,206.639 110.033,207.152C109.747,207.664 109.371,208.078 108.903,208.394C108.3,208.817 107.569,209.115 106.71,209.289C105.85,209.462 104.969,209.549 104.065,209.549C103.491,209.549 102.972,209.526 102.504,209.481C102.036,209.436 101.584,209.365 101.148,209.266C100.71,209.168 100.281,209.04 99.8589,208.882C99.4361,208.724 98.9921,208.538 98.525,208.328L99.271,206.337C100.928,207 102.512,207.332 104.02,207.332C104.833,207.332 105.519,207.279 106.076,207.174C106.634,207.069 107.116,206.864 107.524,206.564C107.886,206.278 108.067,205.877 108.067,205.365C108.067,205.109 108.017,204.89 107.92,204.71C107.822,204.53 107.689,204.371 107.524,204.235C107.283,204.068 106.99,203.928 106.642,203.817C106.295,203.704 105.926,203.609 105.534,203.534L102.528,203.014C101.91,202.908 101.348,202.753 100.842,202.55C100.337,202.346 99.9123,202.072 99.5649,201.724C99.3082,201.452 99.1089,201.129 98.9659,200.752C98.822,200.375 98.7505,199.923 98.7505,199.395C98.7515,198.762 98.8794,198.216 99.1361,197.755Z" style="fill:rgb(255,179,92);fill-rule:nonzero;"/>
                    <path d="M111.706,195.732L122.243,195.732L122.243,197.948L114.148,197.948L114.148,201.091L121.384,201.091L121.384,203.286L114.148,203.286L114.148,207.107L122.559,207.107L122.559,209.301L111.706,209.301Z" style="fill:rgb(255,179,92);fill-rule:nonzero;"/>
                    <path d="M132.869,195.732L137.662,202.448L142.341,195.732L144.941,195.732L144.941,209.301L142.545,209.301L142.545,199.351L142.455,199.351L138,205.66L137.118,205.66L132.619,199.351L132.528,199.351L132.528,209.301L130.244,209.301L130.244,195.732Z" style="fill:rgb(255,179,92);fill-rule:nonzero;"/>
                    <path d="M156.212,196.003C157.078,196.35 157.828,196.839 158.461,197.473C159.109,198.136 159.607,198.898 159.953,199.758C160.299,200.618 160.473,201.537 160.473,202.517C160.473,203.496 160.307,204.405 159.976,205.241C159.645,206.078 159.17,206.813 158.551,207.445C157.903,208.109 157.143,208.625 156.267,208.995C155.393,209.364 154.414,209.549 153.329,209.549C152.243,209.549 151.249,209.341 150.344,208.927C149.441,208.513 148.671,207.966 148.038,207.288C147.465,206.67 147.009,205.946 146.67,205.117C146.332,204.288 146.162,203.421 146.162,202.517C146.162,201.567 146.328,200.677 146.659,199.848C146.99,199.019 147.457,198.287 148.061,197.654C148.694,196.975 149.459,196.444 150.356,196.06C151.253,195.675 152.243,195.484 153.329,195.484C154.385,195.484 155.345,195.656 156.212,196.003ZM148.932,204.393C149.166,204.966 149.479,205.463 149.87,205.885C150.293,206.353 150.802,206.719 151.398,206.983C151.993,207.246 152.637,207.378 153.331,207.378C154.009,207.378 154.645,207.25 155.24,206.994C155.835,206.737 156.352,206.375 156.79,205.908C157.181,205.486 157.489,204.989 157.716,204.416C157.942,203.843 158.055,203.21 158.055,202.517C158.055,201.808 157.938,201.163 157.705,200.582C157.471,200.002 157.158,199.509 156.766,199.101C156.329,198.649 155.813,198.294 155.217,198.038C154.621,197.782 153.993,197.653 153.33,197.653C152.651,197.653 152.014,197.782 151.42,198.038C150.824,198.294 150.308,198.656 149.87,199.123C149.479,199.546 149.167,200.043 148.932,200.616C148.699,201.187 148.582,201.821 148.582,202.516C148.582,203.195 148.699,203.821 148.932,204.393Z" style="fill:rgb(255,179,92);fill-rule:nonzero;"/>
                    <path d="M167.393,195.732C168.433,195.732 169.382,195.917 170.241,196.287C171.099,196.656 171.846,197.165 172.48,197.813C173.052,198.417 173.493,199.113 173.801,199.906C174.111,200.696 174.266,201.567 174.266,202.518C174.266,203.513 174.088,204.431 173.735,205.276C173.38,206.121 172.886,206.852 172.253,207.47C171.65,208.042 170.934,208.491 170.105,208.815C169.276,209.14 168.371,209.301 167.393,209.301L161.741,209.301L161.741,195.732ZM164.114,197.925L164.114,207.13L167.302,207.13C168.01,207.13 168.643,207.017 169.201,206.79C169.759,206.564 170.233,206.256 170.626,205.863C171.454,205.003 171.869,203.887 171.869,202.517C171.869,201.159 171.462,200.059 170.647,199.215C170.256,198.823 169.781,198.511 169.224,198.276C168.665,198.043 168.026,197.925 167.302,197.925Z" style="fill:rgb(255,179,92);fill-rule:nonzero;"/>
                    <path d="M175.623,195.732L186.158,195.732L186.158,197.948L178.064,197.948L178.064,201.091L185.299,201.091L185.299,203.286L178.064,203.286L178.064,207.107L186.474,207.107L186.474,209.301L175.623,209.301Z" style="fill:rgb(255,179,92);fill-rule:nonzero;"/>
                </g>
            </g>
            <g>
                <path d="M121.659,40.058C88.518,40.058 61.555,64.162 61.555,93.779C61.555,111.48 71.229,127.154 86.048,136.955L80.154,168.068L111.392,146.703L111.298,146.644C114.66,147.173 118.111,147.509 121.658,147.509C154.799,147.509 181.758,123.405 181.758,93.779C181.759,64.161 154.8,40.058 121.659,40.058M121.659,140.173C92.082,140.173 68.02,119.355 68.02,93.778C68.02,68.196 92.082,47.389 121.659,47.389C151.23,47.389 175.289,68.196 175.289,93.778C175.289,119.354 151.23,140.173 121.659,140.173" style="fill:rgb(255,179,92);fill-rule:nonzero;"/>
                <g>
                    <path d="M95.754,83.006L95.754,90.334C96.382,89.61 96.994,89.037 97.591,88.615C98.188,88.193 98.849,87.877 99.572,87.665C100.296,87.454 101.074,87.349 101.906,87.349C103.16,87.349 104.273,87.614 105.244,88.145C106.215,88.676 106.978,89.448 107.533,90.461C107.883,91.052 108.118,91.712 108.239,92.441C108.359,93.171 108.42,94.013 108.42,94.965L108.42,104.428C108.42,105.417 108.193,106.165 107.741,106.671C107.289,107.179 106.689,107.431 105.941,107.431C104.312,107.431 103.498,106.431 103.498,104.428L103.498,96.087C103.498,94.507 103.264,93.291 102.793,92.441C102.322,91.591 101.43,91.166 100.115,91.166C99.234,91.166 98.441,91.416 97.736,91.917C97.03,92.418 96.502,93.102 96.152,93.971C95.886,94.707 95.754,96.016 95.754,97.897L95.754,104.429C95.754,105.407 95.534,106.151 95.094,106.664C94.654,107.176 94.041,107.432 93.258,107.432C91.629,107.432 90.815,106.432 90.815,104.429L90.815,83.006C90.815,82.005 91.03,81.254 91.458,80.754C91.886,80.253 92.486,80.002 93.259,80.002C94.042,80.002 94.655,80.256 95.095,80.762C95.534,81.27 95.754,82.018 95.754,83.006Z" style="fill:rgb(255,179,92);fill-rule:nonzero;"/>
                    <path d="M114.876,85.051C114.188,85.051 113.6,84.84 113.111,84.418C112.623,83.995 112.379,83.398 112.379,82.626C112.379,81.927 112.629,81.351 113.13,80.898C113.63,80.445 114.212,80.219 114.876,80.219C115.515,80.219 116.082,80.424 116.576,80.834C117.071,81.244 117.318,81.841 117.318,82.625C117.318,83.385 117.077,83.979 116.594,84.407C116.111,84.835 115.539,85.051 114.876,85.051ZM117.318,90.152L117.318,104.428C117.318,105.417 117.083,106.165 116.613,106.671C116.142,107.179 115.545,107.431 114.821,107.431C114.097,107.431 113.509,107.172 113.057,106.654C112.605,106.136 112.378,105.394 112.378,104.428L112.378,90.298C112.378,89.32 112.605,88.585 113.057,88.09C113.509,87.596 114.097,87.349 114.821,87.349C115.545,87.349 116.142,87.596 116.613,88.09C117.083,88.585 117.318,89.272 117.318,90.152Z" style="fill:rgb(255,179,92);fill-rule:nonzero;"/>
                    <path d="M125.981,90.08L125.981,90.678C126.849,89.532 127.799,88.691 128.831,88.155C129.862,87.618 131.048,87.349 132.387,87.349C133.69,87.349 134.854,87.632 135.879,88.2C136.904,88.766 137.67,89.569 138.177,90.606C138.502,91.21 138.713,91.86 138.81,92.56C138.907,93.26 138.956,94.153 138.956,95.238L138.956,104.429C138.956,105.418 138.729,106.166 138.277,106.672C137.825,107.18 137.236,107.432 136.512,107.432C135.777,107.432 135.179,107.173 134.721,106.655C134.262,106.136 134.033,105.395 134.033,104.429L134.033,96.197C134.033,94.569 133.806,93.323 133.354,92.461C132.902,91.599 132,91.167 130.649,91.167C129.769,91.167 128.966,91.43 128.243,91.954C127.519,92.479 126.988,93.2 126.65,94.116C126.409,94.852 126.289,96.227 126.289,98.241L126.289,104.429C126.289,105.43 126.057,106.182 125.593,106.682C125.128,107.182 124.528,107.432 123.792,107.432C123.08,107.432 122.495,107.173 122.037,106.655C121.578,106.136 121.349,105.395 121.349,104.429L121.349,90.152C121.349,89.212 121.554,88.509 121.964,88.045C122.374,87.581 122.935,87.349 123.647,87.349C124.082,87.349 124.473,87.452 124.823,87.657C125.174,87.862 125.453,88.17 125.665,88.579C125.876,88.989 125.981,89.49 125.981,90.08Z" style="fill:rgb(255,179,92);fill-rule:nonzero;"/>
                    <path d="M143.221,87.783L143.764,87.783L143.764,84.815C143.764,84.019 143.785,83.394 143.827,82.943C143.869,82.49 143.986,82.101 144.18,81.775C144.373,81.437 144.651,81.164 145.012,80.952C145.374,80.742 145.779,80.636 146.225,80.636C146.852,80.636 147.419,80.871 147.926,81.342C148.263,81.655 148.478,82.038 148.568,82.49C148.659,82.943 148.704,83.585 148.704,84.418L148.704,87.783L150.514,87.783C151.213,87.783 151.747,87.949 152.116,88.28C152.484,88.612 152.668,89.037 152.668,89.555C152.668,90.218 152.405,90.683 151.881,90.949C151.356,91.215 150.606,91.347 149.628,91.347L148.705,91.347L148.705,100.429C148.705,101.201 148.732,101.796 148.787,102.212C148.841,102.628 148.986,102.966 149.221,103.225C149.456,103.484 149.839,103.615 150.37,103.615C150.659,103.615 151.051,103.563 151.546,103.461C152.041,103.359 152.427,103.307 152.704,103.307C153.101,103.307 153.461,103.467 153.78,103.787C154.099,104.106 154.259,104.501 154.259,104.972C154.259,105.768 153.825,106.377 152.956,106.799C152.088,107.221 150.839,107.432 149.211,107.432C147.667,107.432 146.497,107.173 145.701,106.655C144.905,106.137 144.383,105.419 144.136,104.502C143.889,103.585 143.765,102.361 143.765,100.829L143.765,91.349L143.114,91.349C142.402,91.349 141.859,91.179 141.486,90.841C141.112,90.504 140.924,90.075 140.924,89.557C140.924,89.039 141.12,88.614 141.513,88.282C141.903,87.949 142.473,87.783 143.221,87.783Z" style="fill:rgb(255,179,92);fill-rule:nonzero;"/>
                </g>
            </g>
        </g>
    </g>
</svg>
