<?xml version="1.0" standalone="no"?>
<!DOCTYPE svg PUBLIC "-//W3C//DTD SVG 1.1//EN" "http://www.w3.org/Graphics/SVG/1.1/DTD/svg11.dtd">
<svg width="244px" height="244px" version="1.1" xmlns="http://www.w3.org/2000/svg" xmlns:xlink="http://www.w3.org/1999/xlink" xml:space="preserve" style="fill-rule:evenodd;clip-rule:evenodd;stroke-linejoin:round;stroke-miterlimit:1.41421;">
    <g>
        <g id="hint mode">
            <path d="M0,193.127L0,50.8029C0,22.7627 22.8176,0 50.8562,0L193.193,0C221.237,0 244,22.7627 244,50.8029L244,193.127C244,221.229 221.238,244 193.193,244L50.8562,244C22.8176,244 0,221.229 0,193.127Z" style="fill:rgb(255,151,32);fill-rule:nonzero;"/>
            <g>
                <path d="M81.7911,195.733L81.7911,209.302L79.394,209.302L79.394,203.128L72.2492,203.128L72.2492,209.302L69.8301,209.302L69.8301,195.733L72.2492,195.733L72.2492,200.978L79.394,200.978L79.394,195.733Z" style="fill:rgb(255,180,93);fill-rule:nonzero;"/>
                <rect x="83.4864" y="195.732" width="2.37388" height="13.569" style="fill:rgb(255,180,93);"/>
                <path d="M100.149,195.733L100.149,209.302L97.9099,209.302L89.9285,199.554L89.9285,209.302L87.5556,209.302L87.5556,195.733L89.7936,195.733L97.8203,205.501L97.8203,195.733Z" style="fill:rgb(255,180,93);fill-rule:nonzero;"/>
                <path d="M101.257,195.733L113.715,195.733L113.715,197.903L108.673,197.903L108.673,209.301L106.299,209.301L106.299,197.903L101.257,197.903Z" style="fill:rgb(255,180,93);fill-rule:nonzero;"/>
                <path d="M123.684,195.733L128.478,202.449L133.158,195.733L135.757,195.733L135.757,209.302L133.361,209.302L133.361,199.351L133.27,199.351L128.816,205.66L127.935,205.66L123.435,199.351L123.344,199.351L123.344,209.302L121.06,209.302L121.06,195.733Z" style="fill:rgb(255,180,93);fill-rule:nonzero;"/>
                <path d="M147.027,196.004C147.894,196.35 148.644,196.839 149.277,197.473C149.926,198.136 150.423,198.898 150.768,199.758C151.116,200.617 151.29,201.537 151.29,202.516C151.29,203.496 151.123,204.404 150.793,205.242C150.46,206.077 149.985,206.813 149.368,207.446C148.72,208.108 147.959,208.626 147.084,208.995C146.209,209.363 145.229,209.548 144.144,209.548C143.059,209.548 142.065,209.342 141.16,208.927C140.255,208.512 139.487,207.965 138.854,207.288C138.281,206.669 137.826,205.945 137.487,205.117C137.147,204.288 136.977,203.42 136.977,202.516C136.977,201.566 137.143,200.677 137.475,199.848C137.807,199.019 138.274,198.287 138.877,197.654C139.51,196.975 140.275,196.445 141.171,196.06C142.067,195.675 143.059,195.483 144.144,195.483C145.201,195.483 146.162,195.656 147.027,196.004ZM139.749,204.393C139.981,204.966 140.294,205.463 140.687,205.885C141.109,206.352 141.617,206.718 142.213,206.982C142.809,207.245 143.452,207.378 144.146,207.378C144.825,207.378 145.462,207.249 146.057,206.994C146.652,206.738 147.168,206.376 147.605,205.908C147.998,205.486 148.306,204.989 148.532,204.416C148.759,203.844 148.872,203.21 148.872,202.516C148.872,201.808 148.755,201.162 148.52,200.582C148.286,200.002 147.974,199.509 147.582,199.101C147.144,198.649 146.629,198.294 146.034,198.038C145.438,197.781 144.809,197.653 144.145,197.653C143.467,197.653 142.83,197.781 142.235,198.038C141.64,198.294 141.124,198.656 140.687,199.123C140.294,199.545 139.982,200.043 139.749,200.615C139.515,201.188 139.397,201.822 139.397,202.515C139.397,203.194 139.514,203.82 139.749,204.393Z" style="fill:rgb(255,180,93);fill-rule:nonzero;"/>
                <path d="M158.208,195.733C159.248,195.733 160.198,195.918 161.057,196.287C161.916,196.655 162.663,197.165 163.296,197.813C163.868,198.416 164.31,199.114 164.618,199.905C164.927,200.696 165.082,201.566 165.082,202.517C165.082,203.512 164.904,204.432 164.551,205.276C164.195,206.121 163.702,206.851 163.07,207.469C162.466,208.043 161.75,208.492 160.921,208.815C160.093,209.14 159.188,209.302 158.208,209.302L152.556,209.302L152.556,195.733ZM154.93,197.925L154.93,207.13L158.118,207.13C158.826,207.13 159.46,207.017 160.017,206.79C160.575,206.564 161.049,206.256 161.442,205.863C162.27,205.003 162.685,203.888 162.685,202.516C162.685,201.158 162.278,200.06 161.464,199.215C161.071,198.822 160.597,198.51 160.039,198.275C159.482,198.043 158.841,197.925 158.118,197.925Z" style="fill:rgb(255,180,93);fill-rule:nonzero;"/>
                <path d="M166.438,195.733L176.975,195.733L176.975,197.948L168.881,197.948L168.881,201.092L176.116,201.092L176.116,203.285L168.881,203.285L168.881,207.107L177.291,207.107L177.291,209.302L166.438,209.302Z" style="fill:rgb(255,180,93);fill-rule:nonzero;"/>
            </g>
            <g>
                <path d="M121.996,76.4102C105.818,76.4102 92.696,88.9763 92.696,104.49C92.696,122.91 105.48,127.601 105.48,138.316C105.48,140.965 107.504,143.425 110.549,145.238C109.905,145.778 109.556,146.343 109.556,146.96C109.556,147.775 110.189,148.528 111.299,149.198C110.259,149.83 109.666,150.569 109.666,151.354C109.666,152.161 110.272,152.907 111.334,153.539C110.249,154.194 109.635,154.947 109.635,155.756C109.635,156.745 110.555,157.652 112.098,158.368C111.492,158.923 111.153,159.525 111.153,160.157C111.153,162.037 114.077,163.628 118.18,164.262C118.904,165.601 120.365,166.538 122.079,166.538C123.788,166.538 125.253,165.601 125.973,164.286C130.125,163.652 133.069,162.045 133.069,160.157C133.069,159.532 132.749,158.938 132.155,158.406C133.747,157.668 134.68,156.753 134.68,155.756C134.68,154.956 134.078,154.216 133.017,153.569C134.093,152.916 134.721,152.168 134.721,151.362C134.721,150.546 134.078,149.792 132.977,149.124C134.013,148.49 134.615,147.744 134.615,146.961C134.615,146.327 134.227,145.741 133.545,145.193C136.541,143.389 138.532,140.944 138.532,138.317C138.532,127.602 151.299,122.911 151.299,104.491C151.3,88.9763 138.178,76.4102 121.996,76.4102M137.306,121.867C134.384,126.153 131.072,131.004 130.869,137.659C129.876,138.787 126.29,140.607 122.003,140.607C117.716,140.607 114.137,138.787 113.137,137.659C112.926,131.005 109.634,126.147 106.699,121.867C103.44,117.076 100.361,112.568 100.361,104.489C100.361,93.2237 110.061,84.0773 121.994,84.0773C133.931,84.0773 143.631,93.2237 143.631,104.489C143.633,112.568 140.565,117.084 137.306,121.867" style="fill:rgb(255,180,93);fill-rule:nonzero;"/>
                <path d="M122,66.556C124.101,66.556 125.834,64.2722 125.834,61.4919L125.834,52.4533C125.834,49.6579 124.101,47.3812 122,47.3812C119.886,47.3812 118.159,49.6579 118.159,52.4533L118.159,61.4919C118.159,64.2732 119.886,66.556 122,66.556" style="fill:rgb(255,180,93);fill-rule:nonzero;"/>
                <path d="M102.347,71.8184C104.178,70.7671 104.524,67.9275 103.138,65.5138L98.6277,57.6916C97.2203,55.2789 94.5917,54.1571 92.7645,55.2174C90.9382,56.2677 90.5879,59.1074 91.9782,61.5231L96.4884,69.3513C97.8847,71.7641 100.518,72.8778 102.347,71.8184" style="fill:rgb(255,180,93);fill-rule:nonzero;"/>
                <path d="M85.4888,80.3566L77.6655,75.8332C75.2564,74.4396 72.4123,74.8051 71.3653,76.6167C70.3073,78.4443 71.4116,81.0866 73.8288,82.4803L81.6541,86.9966C84.0683,88.3892 86.9043,88.0388 87.9593,86.2041C89.0184,84.3835 87.8949,81.7492 85.4888,80.3566" style="fill:rgb(255,180,93);fill-rule:nonzero;"/>
                <path d="M170.166,129.253L162.343,124.737C159.922,123.336 157.082,123.703 156.029,125.521C154.985,127.357 156.097,129.984 158.506,131.377L166.329,135.893C168.739,137.294 171.586,136.935 172.641,135.109C173.688,133.273 172.575,130.647 170.166,129.253" style="fill:rgb(255,180,93);fill-rule:nonzero;"/>
                <path d="M82.7001,105.866C82.7001,103.75 80.4229,102.029 77.6333,102.029L68.5958,102.029C65.8132,102.029 63.5289,103.758 63.5289,105.866C63.5289,107.977 65.8142,109.698 68.5958,109.698L77.6333,109.698C80.4229,109.697 82.7001,107.976 82.7001,105.866" style="fill:rgb(255,180,93);fill-rule:nonzero;"/>
                <path d="M175.396,102.029L166.367,102.029C163.577,102.029 161.3,103.758 161.3,105.866C161.3,107.977 163.577,109.698 166.367,109.698L175.396,109.698C178.186,109.698 180.471,107.977 180.471,105.866C180.471,103.758 178.187,102.029 175.396,102.029" style="fill:rgb(255,180,93);fill-rule:nonzero;"/>
                <path d="M81.6562,124.737L73.8308,129.253C71.4106,130.647 70.3093,133.273 71.3563,135.109C72.4143,136.935 75.2584,137.294 77.6675,135.893L85.4908,131.377C87.8969,129.983 89.0174,127.348 87.9623,125.521C86.9063,123.702 84.0663,123.336 81.6562,124.737" style="fill:rgb(255,180,93);fill-rule:nonzero;"/>
                <path d="M162.343,86.9966L170.166,82.4803C172.576,81.0866 173.684,78.4443 172.641,76.6167C171.586,74.8051 168.743,74.4396 166.329,75.8332L158.509,80.3566C156.092,81.7502 154.984,84.3764 156.028,86.2051C157.083,88.0388 159.922,88.3811 162.343,86.9966" style="fill:rgb(255,180,93);fill-rule:nonzero;"/>
                <path d="M151.232,55.2185C149.407,54.1581 146.77,55.2799 145.373,57.6926L140.855,65.5148C139.466,67.9275 139.812,70.7611 141.651,71.8124C143.467,72.8788 146.105,71.7651 147.505,69.3534L152.023,61.5171C153.417,59.1084 153.063,56.2607 151.232,55.2185" style="fill:rgb(255,180,93);fill-rule:nonzero;"/>
            </g>
        </g>
    </g>
</svg>
