<?xml version="1.0" standalone="no"?>
<!DOCTYPE svg PUBLIC "-//W3C//DTD SVG 1.1//EN" "http://www.w3.org/Graphics/SVG/1.1/DTD/svg11.dtd">
<svg width="244px" height="244px" version="1.1" xmlns="http://www.w3.org/2000/svg" xmlns:xlink="http://www.w3.org/1999/xlink" xml:space="preserve" style="fill-rule:evenodd;clip-rule:evenodd;stroke-linejoin:round;stroke-miterlimit:1.41421;">
    <g>
        <g id="standard mode">
            <g>
                <path d="M0,193.127L0,50.8029C0,22.7627 22.8176,0 50.8562,0L193.193,0C221.237,0 244,22.7627 244,50.8029L244,193.127C244,221.229 221.238,244 193.193,244L50.8562,244C22.8176,244 0,221.229 0,193.127Z" style="fill:rgb(255,151,32);fill-rule:nonzero;"/>
                <g>
                    <path d="M36.4971,197.756C36.7528,197.296 37.0921,196.915 37.5149,196.613C38.0273,196.221 38.6525,195.934 39.3915,195.753C40.1284,195.572 40.9277,195.481 41.7875,195.481C42.6472,195.481 43.5171,195.58 44.399,195.776C45.2809,195.97 46.2262,196.326 47.2369,196.838L46.3329,198.761C45.5638,198.384 44.8178,198.109 44.0939,197.936C43.3701,197.763 42.6462,197.675 41.9234,197.675C41.3657,197.675 40.8341,197.713 40.3297,197.788C39.8244,197.863 39.4056,198.022 39.0754,198.263C38.6686,198.549 38.4643,198.935 38.4643,199.417C38.4643,199.614 38.5096,199.775 38.6002,199.903C38.6908,200.03 38.8186,200.148 38.9858,200.253C39.1801,200.404 39.4146,200.514 39.6854,200.581C39.9562,200.649 40.213,200.705 40.4546,200.75L43.213,201.248C43.8916,201.37 44.558,201.551 45.2134,201.791C45.8688,202.032 46.4235,202.372 46.8755,202.81C47.1765,203.111 47.4101,203.46 47.5752,203.86C47.7413,204.26 47.8239,204.739 47.8239,205.297C47.8239,206.021 47.6809,206.639 47.394,207.152C47.1081,207.664 46.7316,208.079 46.2634,208.395C45.6604,208.817 44.9305,209.115 44.0708,209.289C43.211,209.462 42.3301,209.548 41.4251,209.548C40.8522,209.548 40.3328,209.527 39.8646,209.482C39.3975,209.437 38.9455,209.364 38.5076,209.266C38.0706,209.169 37.6418,209.04 37.2199,208.882C36.7971,208.724 36.3531,208.539 35.886,208.327L36.632,206.337C38.2891,207.001 39.8727,207.332 41.3798,207.332C42.1942,207.332 42.8788,207.279 43.4375,207.174C43.9953,207.068 44.4775,206.865 44.8852,206.564C45.2466,206.278 45.4278,205.878 45.4278,205.365C45.4278,205.11 45.3785,204.89 45.2809,204.71C45.1832,204.53 45.0503,204.371 44.8852,204.235C44.6436,204.069 44.3496,203.929 44.0033,203.816C43.656,203.704 43.2865,203.609 42.8949,203.535L39.8878,203.013C39.2697,202.908 38.7089,202.753 38.2035,202.55C37.6981,202.346 37.2723,202.071 36.926,201.725C36.6693,201.453 36.4699,201.129 36.326,200.751C36.183,200.376 36.1115,199.924 36.1115,199.395C36.1135,198.762 36.2404,198.216 36.4971,197.756Z" style="fill:rgb(255,180,94);fill-rule:nonzero;"/>
                    <path d="M48.0272,195.733L60.4856,195.733L60.4856,197.903L55.4428,197.903L55.4428,209.301L53.069,209.301L53.069,197.903L48.0272,197.903Z" style="fill:rgb(255,180,94);fill-rule:nonzero;"/>
                    <path d="M67.7431,195.733L73.7573,209.302L71.1569,209.302L70.0264,206.813L62.791,206.813L61.6826,209.302L59.1295,209.302L65.1437,195.733ZM63.7182,204.619L69.1213,204.619L66.5219,198.175L66.2501,198.175Z" style="fill:rgb(255,180,94);fill-rule:nonzero;"/>
                    <path d="M87.4811,195.733L87.4811,209.302L85.2421,209.302L77.2608,199.554L77.2608,209.302L74.8869,209.302L74.8869,195.733L77.1259,195.733L85.1525,205.501L85.1525,195.733Z" style="fill:rgb(255,180,94);fill-rule:nonzero;"/>
                    <path d="M94.8293,195.733C95.8692,195.733 96.8186,195.918 97.6773,196.287C98.5361,196.655 99.2831,197.165 99.9163,197.813C100.488,198.416 100.93,199.114 101.238,199.905C101.547,200.696 101.702,201.566 101.702,202.517C101.702,203.512 101.524,204.432 101.171,205.276C100.816,206.121 100.323,206.851 99.6898,207.469C99.0857,208.043 98.3699,208.492 97.5414,208.815C96.7129,209.14 95.8078,209.302 94.8293,209.302L89.1765,209.302L89.1765,195.733ZM91.5503,197.925L91.5503,207.13L94.7387,207.13C95.4464,207.13 96.0796,207.017 96.6374,206.79C97.1951,206.564 97.6693,206.256 98.0619,205.863C98.8904,205.003 99.3052,203.888 99.3052,202.516C99.3052,201.158 98.8985,200.06 98.084,199.215C97.6914,198.822 97.2172,198.51 96.6595,198.275C96.1018,198.043 95.4625,197.925 94.7387,197.925Z" style="fill:rgb(255,180,94);fill-rule:nonzero;"/>
                    <path d="M110.655,195.733L116.669,209.302L114.069,209.302L112.938,206.813L105.703,206.813L104.595,209.302L102.041,209.302L108.055,195.733ZM106.63,204.619L112.033,204.619L109.434,198.175L109.162,198.175Z" style="fill:rgb(255,180,94);fill-rule:nonzero;"/>
                    <path d="M128.629,203.692C128.388,203.994 128.116,204.265 127.815,204.506C127.513,204.748 127.167,204.951 126.775,205.117C127.182,205.78 127.608,206.474 128.053,207.197C128.497,207.92 128.923,208.622 129.331,209.301L126.573,209.301L124.379,205.614L120.219,205.614L120.219,209.301L117.777,209.301L117.777,195.732L124.469,195.732C125.177,195.732 125.844,195.856 126.47,196.104C127.095,196.353 127.649,196.711 128.131,197.178C128.583,197.63 128.941,198.15 129.204,198.739C129.467,199.327 129.601,199.982 129.601,200.705C129.602,201.868 129.278,202.864 128.629,203.692ZM120.218,203.42L124.514,203.42C124.906,203.42 125.272,203.349 125.611,203.205C125.95,203.061 126.224,202.863 126.436,202.605C126.676,202.35 126.857,202.055 126.978,201.724C127.099,201.392 127.16,201.054 127.16,200.705C127.16,199.968 126.933,199.356 126.481,198.874C126.254,198.588 125.956,198.362 125.588,198.196C125.219,198.031 124.822,197.947 124.401,197.947L120.218,197.947Z" style="fill:rgb(255,180,94);fill-rule:nonzero;"/>
                    <path d="M136.496,195.733C137.536,195.733 138.486,195.918 139.345,196.287C140.204,196.655 140.951,197.165 141.584,197.813C142.156,198.416 142.598,199.114 142.906,199.905C143.215,200.696 143.37,201.566 143.37,202.517C143.37,203.512 143.192,204.432 142.838,205.276C142.484,206.121 141.991,206.851 141.357,207.469C140.754,208.043 140.038,208.492 139.209,208.815C138.381,209.14 137.476,209.302 136.496,209.302L130.844,209.302L130.844,195.733ZM133.219,197.925L133.219,207.13L136.406,207.13C137.115,207.13 137.748,207.017 138.306,206.79C138.864,206.564 139.338,206.256 139.731,205.863C140.559,205.003 140.974,203.888 140.974,202.516C140.974,201.158 140.567,200.06 139.753,199.215C139.36,198.822 138.886,198.51 138.328,198.275C137.77,198.043 137.13,197.925 136.406,197.925Z" style="fill:rgb(255,180,94);fill-rule:nonzero;"/>
                    <path d="M153.566,195.733L158.359,202.449L163.039,195.733L165.639,195.733L165.639,209.302L163.243,209.302L163.243,199.351L163.152,199.351L158.697,205.66L157.816,205.66L153.316,199.351L153.226,199.351L153.226,209.302L150.942,209.302L150.942,195.733Z" style="fill:rgb(255,180,94);fill-rule:nonzero;"/>
                    <path d="M176.91,196.004C177.777,196.35 178.527,196.839 179.16,197.473C179.808,198.136 180.305,198.898 180.651,199.758C180.999,200.617 181.172,201.537 181.172,202.516C181.172,203.496 181.006,204.404 180.674,205.242C180.343,206.077 179.868,206.813 179.251,207.446C178.602,208.108 177.841,208.626 176.967,208.995C176.092,209.363 175.112,209.548 174.027,209.548C172.942,209.548 171.948,209.342 171.043,208.927C170.138,208.512 169.37,207.965 168.737,207.288C168.164,206.669 167.709,205.945 167.368,205.117C167.03,204.288 166.86,203.42 166.86,202.516C166.86,201.566 167.026,200.677 167.357,199.848C167.689,199.019 168.157,198.287 168.76,197.654C169.393,196.975 170.158,196.445 171.054,196.06C171.95,195.675 172.942,195.483 174.027,195.483C175.083,195.483 176.044,195.656 176.91,196.004ZM169.631,204.393C169.864,204.966 170.177,205.463 170.57,205.885C170.992,206.352 171.5,206.718 172.096,206.982C172.691,207.245 173.335,207.378 174.029,207.378C174.708,207.378 175.344,207.249 175.939,206.994C176.534,206.738 177.05,206.376 177.488,205.908C177.88,205.486 178.189,204.989 178.414,204.416C178.641,203.844 178.755,203.21 178.755,202.516C178.755,201.808 178.637,201.162 178.403,200.582C178.17,200.002 177.857,199.509 177.465,199.101C177.027,198.649 176.512,198.294 175.917,198.038C175.321,197.781 174.691,197.653 174.028,197.653C173.349,197.653 172.713,197.781 172.118,198.038C171.523,198.294 171.007,198.656 170.57,199.123C170.177,199.545 169.865,200.043 169.631,200.615C169.397,201.188 169.28,201.822 169.28,202.515C169.28,203.194 169.396,203.82 169.631,204.393Z" style="fill:rgb(255,180,94);fill-rule:nonzero;"/>
                    <path d="M188.09,195.733C189.13,195.733 190.08,195.918 190.939,196.287C191.798,196.655 192.545,197.165 193.178,197.813C193.75,198.416 194.191,199.114 194.5,199.905C194.809,200.696 194.963,201.566 194.963,202.517C194.963,203.512 194.786,204.432 194.432,205.276C194.077,206.121 193.584,206.851 192.952,207.469C192.348,208.043 191.632,208.492 190.803,208.815C189.975,209.14 189.07,209.302 188.09,209.302L182.438,209.302L182.438,195.733ZM184.812,197.925L184.812,207.13L188,207.13C188.709,207.13 189.342,207.017 189.9,206.79C190.458,206.564 190.932,206.256 191.325,205.863C192.153,205.003 192.567,203.888 192.567,202.516C192.567,201.158 192.16,200.06 191.347,199.215C190.954,198.822 190.48,198.51 189.922,198.275C189.364,198.043 188.724,197.925 188,197.925Z" style="fill:rgb(255,180,94);fill-rule:nonzero;"/>
                    <path d="M196.32,195.733L206.856,195.733L206.856,197.948L198.762,197.948L198.762,201.092L205.997,201.092L205.997,203.285L198.762,203.285L198.762,207.107L207.173,207.107L207.173,209.302L196.321,209.302L196.321,195.733Z" style="fill:rgb(255,180,94);fill-rule:nonzero;"/>
                </g>
            </g>
            <g>
                <path d="M62.1563,143.657L101.416,143.657L101.569,143.656L101.711,143.654L101.854,143.649L101.995,143.643L102.136,143.635L102.277,143.625L102.417,143.614L102.556,143.6L102.695,143.585L102.833,143.569L102.971,143.55L103.108,143.53L103.245,143.508L103.38,143.485L103.516,143.46L103.65,143.433L103.784,143.405L103.918,143.375L104.05,143.344L104.183,143.311L104.314,143.276L104.445,143.24L104.575,143.202L104.705,143.162L104.833,143.122L104.961,143.079L105.089,143.035L105.216,142.99L105.341,142.943L105.467,142.894L105.591,142.844L105.715,142.793L105.838,142.74L105.96,142.686L106.082,142.63L106.202,142.573L106.322,142.514L106.441,142.454L106.56,142.392L106.677,142.33L106.794,142.265L106.909,142.2L107.024,142.133L107.138,142.064L107.251,141.995L107.364,141.924L107.475,141.851L107.585,141.778L107.695,141.703L107.803,141.627L107.911,141.549L108.018,141.471L108.123,141.391L108.228,141.309L108.332,141.227L108.434,141.143L108.536,141.058L108.636,140.972L108.736,140.885L108.835,140.797L108.932,140.707L109.124,140.525L109.218,140.432L109.311,140.337L109.403,140.242L109.493,140.146L109.583,140.049L109.759,139.851L109.845,139.75L109.93,139.648L110.013,139.546L110.096,139.442L110.177,139.338L110.257,139.232L110.336,139.126L110.413,139.018L110.489,138.91L110.564,138.8L110.638,138.69L110.71,138.579L110.781,138.466L110.851,138.353L110.919,138.239L110.986,138.125L111.052,138.009L111.116,137.893L111.179,137.775L111.24,137.657L111.3,137.538L111.359,137.419L111.416,137.298L111.472,137.177L111.526,137.055L111.579,136.932L111.63,136.808L111.68,136.684L111.729,136.559L111.776,136.433L111.821,136.306L111.865,136.179L111.907,136.051L111.948,135.923L111.988,135.794L112.025,135.664L112.062,135.533L112.096,135.402L112.129,135.27L112.161,135.138L112.191,135.004L112.219,134.871L112.246,134.736L112.271,134.601L112.294,134.466L112.316,134.329L112.336,134.193L112.354,134.055L112.371,133.917L112.386,133.779L112.399,133.64L112.41,133.5L112.42,133.36L112.428,133.219L112.435,133.078L112.439,132.936L112.442,132.794L112.443,132.641L112.443,93.3551L112.442,93.2026L112.439,93.0602L112.435,92.9183L112.428,92.777L112.42,92.6362L112.41,92.496L112.399,92.3563L112.386,92.2172L112.371,92.0787L112.354,91.9408L112.336,91.8034L112.316,91.6665L112.294,91.5304L112.271,91.3947L112.246,91.2598L112.219,91.1254L112.191,90.9916L112.161,90.8584L112.129,90.7259L112.096,90.594L112.062,90.4628L112.025,90.3322L111.988,90.2022L111.948,90.073L111.907,89.9444L111.865,89.8165L111.821,89.6894L111.776,89.5628L111.729,89.437L111.68,89.3119L111.63,89.1876L111.579,89.064L111.526,88.9412L111.472,88.8191L111.416,88.6978L111.359,88.5773L111.3,88.4575L111.24,88.3386L111.179,88.2205L111.116,88.1032L111.052,87.9866L110.986,87.871L110.919,87.7564L110.851,87.6424L110.781,87.5294L110.71,87.4173L110.638,87.306L110.564,87.1957L110.489,87.0863L110.413,86.9779L110.336,86.8704L110.257,86.7638L110.177,86.6582L110.096,86.5537L110.013,86.4501L109.93,86.3474L109.845,86.2459L109.759,86.1454L109.671,86.0459L109.583,85.9474L109.493,85.85L109.403,85.7537L109.311,85.6585L109.218,85.5644L109.124,85.4714L109.028,85.3796L108.932,85.2889L108.835,85.1993L108.736,85.1108L108.636,85.0236L108.536,84.9376L108.434,84.8527L108.332,84.769L108.228,84.6866L108.123,84.6054L108.018,84.5254L107.911,84.4467L107.803,84.3692L107.695,84.2931L107.585,84.2182L107.475,84.1446L107.364,84.0723L107.251,84.0013L107.138,83.9317L107.024,83.8634L106.909,83.7964L106.794,83.7308L106.677,83.6666L106.56,83.6037L106.441,83.5423L106.322,83.4823L106.202,83.4236L106.082,83.3664L105.96,83.3106L105.838,83.2563L105.715,83.2034L105.591,83.152L105.467,83.102L105.342,83.0535L105.216,83.0066L105.089,82.9611L104.962,82.9171L104.833,82.8747L104.705,82.8338L104.575,82.7944L104.445,82.7566L104.314,82.7203L104.183,82.6856L104.051,82.6526L103.918,82.6211L103.784,82.5912L103.65,82.5629L103.516,82.5362L103.381,82.5112L103.245,82.4878L103.108,82.4661L102.971,82.446L102.833,82.4277L102.695,82.411L102.556,82.396L102.417,82.3828L102.277,82.3712L102.136,82.3614L101.995,82.3534L101.854,82.3471L101.711,82.3426L101.569,82.3399L101.416,82.3389L62.1562,82.3389L62.0037,82.3399L61.8613,82.3426L61.7194,82.3471L61.578,82.3534L61.4373,82.3614L61.2971,82.3712L61.1574,82.3827L61.0183,82.396L60.8797,82.411L60.7418,82.4276L60.6044,82.446L60.4676,82.466L60.3314,82.4877L60.1957,82.5111L60.0607,82.5361L59.9264,82.5627L59.7925,82.591L59.6594,82.6209L59.5268,82.6524L59.395,82.6855L59.2637,82.7201L59.1331,82.7564L59.0032,82.7942L58.8739,82.8335L58.7453,82.8744L58.6174,82.9169L58.4902,82.9608L58.3637,83.0063L58.2379,83.0533L58.1129,83.1017L57.9885,83.1517L57.8649,83.2031L57.742,83.256L57.6199,83.3103L57.4986,83.3661L57.3781,83.4233L57.2583,83.4819L57.1394,83.542L57.0212,83.6034L56.9039,83.6663L56.7874,83.7305L56.6718,83.7961L56.557,83.863L56.4431,83.9313L56.3301,84.001L56.218,84.0719L56.1067,84.1442L55.9964,84.2178L55.887,84.2927L55.7785,84.3689L55.671,84.4464L55.5644,84.5251L55.4589,84.605L55.3543,84.6863L55.2507,84.7687L55.1481,84.8524L55.0465,84.9373L54.9459,85.0233L54.8464,85.1106L54.748,85.199L54.6506,85.2886L54.5543,85.3793L54.4591,85.4712L54.365,85.5642L54.272,85.6583L54.1802,85.7536L54.0895,85.8498L53.9999,85.9473L53.9114,86.0457L53.8242,86.1452L53.7381,86.2458L53.6533,86.3474L53.5696,86.45L53.4872,86.5536L53.406,86.6582L53.326,86.7638L53.2473,86.8704L53.1699,86.9779L53.0937,87.0864L53.0188,87.1958L52.9453,87.3061L52.873,87.4174L52.802,87.5295L52.7324,87.6426L52.6641,87.7565L52.5971,87.8713L52.5316,87.9869L52.4674,88.1034L52.4045,88.2207L52.3431,88.3388L52.2831,88.4578L52.2244,88.5775L52.1673,88.6981L52.1115,88.8194L52.0572,88.9415L52.0043,89.0644L51.9529,89.188L51.903,89.3123L51.8545,89.4374L51.8076,89.5632L51.7621,89.6897L51.7182,89.8169L51.6757,89.9448L51.6349,90.0734L51.5955,90.2026L51.5577,90.3325L51.5215,90.4631L51.4868,90.5944L51.4538,90.7263L51.4223,90.8588L51.3924,90.9919L51.3641,91.1257L51.3375,91.2601L51.3125,91.3951L51.2891,91.5307L51.2674,91.6669L51.2474,91.8036L51.2291,91.941L51.2124,92.0789L51.1974,92.2174L51.1842,92.3565L51.1727,92.4962L51.1629,92.6364L51.1549,92.7771L51.1486,92.9184L51.1441,93.0602L51.1414,93.2026L51.1404,93.3551L51.1404,132.641L51.1414,132.794L51.1441,132.936L51.1486,133.078L51.1549,133.219L51.1629,133.36L51.1727,133.5L51.1842,133.64L51.1974,133.779L51.2124,133.918L51.2291,134.056L51.2474,134.193L51.2674,134.33L51.2892,134.466L51.3125,134.602L51.3375,134.737L51.3642,134.871L51.3924,135.005L51.4223,135.138L51.4538,135.27L51.4868,135.402L51.5215,135.534L51.5577,135.664L51.5955,135.794L51.6349,135.923L51.6758,136.052L51.7182,136.18L51.7621,136.307L51.8076,136.434L51.8545,136.559L51.903,136.684L51.9529,136.809L52.0043,136.932L52.0572,137.055L52.1115,137.177L52.1673,137.299L52.2244,137.419L52.2831,137.539L52.3431,137.658L52.4045,137.776L52.4674,137.893L52.5316,138.01L52.5971,138.125L52.6641,138.24L52.7324,138.354L52.802,138.467L52.873,138.579L52.9453,138.691L53.0188,138.801L53.0937,138.91L53.1699,139.019L53.2473,139.126L53.326,139.233L53.406,139.338L53.4872,139.443L53.5696,139.547L53.6532,139.649L53.7381,139.751L53.8242,139.851L53.9114,139.951L53.9998,140.049L54.0894,140.147L54.1801,140.243L54.2719,140.338L54.3649,140.432L54.4591,140.525L54.5543,140.617L54.6506,140.708L54.7479,140.798L54.8463,140.886L54.9459,140.973L55.0464,141.059L55.148,141.144L55.2506,141.228L55.3542,141.31L55.4588,141.391L55.5644,141.471L55.6709,141.55L55.7784,141.628L55.8869,141.704L55.9963,141.779L56.1066,141.852L56.2179,141.925L56.3301,141.996L56.443,142.065L56.5569,142.133L56.6717,142.2L56.7873,142.266L56.9038,142.33L57.0211,142.393L57.1393,142.454L57.2582,142.515L57.3779,142.573L57.4985,142.63L57.6198,142.686L57.7419,142.74L57.8647,142.793L57.9884,142.845L58.1127,142.895L58.2378,142.943L58.3636,142.99L58.4901,143.036L58.6173,143.08L58.7453,143.122L58.8738,143.163L59.003,143.202L59.133,143.24L59.2636,143.276L59.3948,143.311L59.5268,143.344L59.6594,143.375L59.7924,143.405L59.9263,143.434L60.0607,143.46L60.1956,143.485L60.3313,143.509L60.4676,143.53L60.6043,143.55L60.7417,143.569L60.8797,143.585L61.0182,143.6L61.1574,143.614L61.2969,143.625L61.4373,143.635L61.578,143.643L61.7193,143.649L61.8613,143.654L62.0038,143.656ZM62.137,149.698L61.9271,149.697L61.7082,149.693L61.4899,149.686L61.272,149.676L61.0548,149.664L60.8384,149.649L60.6225,149.631L60.4074,149.611L60.1931,149.587L59.9794,149.562L59.7666,149.533L59.5544,149.502L59.3432,149.468L59.1328,149.432L58.9231,149.393L58.7144,149.352L58.5067,149.308L58.2997,149.262L58.0937,149.213L57.8888,149.161L57.6848,149.107L57.4817,149.051L57.2797,148.992L57.0787,148.931L56.8787,148.868L56.6799,148.802L56.4822,148.733L56.2856,148.663L56.0901,148.59L55.8957,148.514L55.7025,148.437L55.5106,148.357L55.3197,148.275L55.1301,148.19L54.9418,148.104L54.7547,148.015L54.5689,147.924L54.3844,147.831L54.2011,147.736L54.0193,147.638L53.8388,147.539L53.6596,147.437L53.4817,147.333L53.3052,147.228L53.1302,147.12L52.9566,147.01L52.7845,146.898L52.6138,146.784L52.4445,146.668L52.2768,146.551L52.1105,146.431L51.9457,146.309L51.7826,146.185L51.6209,146.06L51.4608,145.932L51.3023,145.803L51.1454,145.672L50.9901,145.539L50.8364,145.404L50.6844,145.268L50.534,145.13L50.3853,144.989L50.2383,144.848L50.093,144.704L49.9494,144.559L49.8075,144.412L49.6674,144.263L49.5291,144.113L49.3926,143.961L49.2578,143.807L49.125,143.652L48.9938,143.495L48.8646,143.336L48.7372,143.176L48.6117,143.014L48.4881,142.851L48.3665,142.686L48.2467,142.52L48.1289,142.352L48.013,142.183L47.8992,142.012L47.7873,141.84L47.6775,141.667L47.5697,141.492L47.4639,141.315L47.3602,141.137L47.2586,140.958L47.1591,140.778L47.0617,140.596L46.9664,140.412L46.8733,140.228L46.7823,140.042L46.6935,139.855L46.607,139.667L46.5227,139.477L46.4405,139.286L46.3607,139.094L46.2831,138.901L46.2078,138.707L46.1349,138.511L46.0642,138.315L45.9959,138.117L45.93,137.918L45.8664,137.718L45.8052,137.517L45.7465,137.315L45.6902,137.112L45.6363,136.908L45.5849,136.703L45.536,136.497L45.4896,136.29L45.4457,136.083L45.4043,135.874L45.3655,135.664L45.3292,135.454L45.2956,135.243L45.2645,135.031L45.2361,134.818L45.2103,134.604L45.1871,134.39L45.1667,134.175L45.1489,133.959L45.1338,133.742L45.1214,133.525L45.1117,133.308L45.1048,133.089L45.1006,132.87L45.0993,132.66L45.0993,93.336L45.1006,93.1261L45.1048,92.9071L45.1117,92.6888L45.1214,92.471L45.1338,92.254L45.1489,92.0375L45.1667,91.8217L45.1871,91.6067L45.2103,91.3923L45.2361,91.1787L45.2645,90.9659L45.2956,90.7538L45.3293,90.5426L45.3655,90.3322L45.4043,90.1226L45.4457,89.9139L45.4896,89.7061L45.536,89.4993L45.5849,89.2933L45.6363,89.0884L45.6902,88.8844L45.7465,88.6814L45.8053,88.4794L45.8664,88.2784L45.93,88.0785L45.9959,87.8797L46.0642,87.682L46.1349,87.4854L46.2078,87.2899L46.2831,87.0955L46.3607,86.9024L46.4406,86.7104L46.5227,86.5196L46.607,86.33L46.6935,86.1417L46.7823,85.9546L46.8733,85.7688L46.9664,85.5843L47.0617,85.4011L47.1591,85.2192L47.2586,85.0387L47.3602,84.8595L47.4639,84.6816L47.5697,84.5052L47.6775,84.3302L47.7873,84.1566L47.8992,83.9844L48.013,83.8137L48.1289,83.6444L48.2467,83.4767L48.3664,83.3104L48.4881,83.1456L48.6117,82.9825L48.7372,82.8208L48.8646,82.6607L48.9938,82.5022L49.1249,82.3452L49.2578,82.1899L49.3925,82.0362L49.5291,81.8842L49.6674,81.7338L49.8075,81.5851L49.9493,81.438L50.0929,81.2927L50.2382,81.1491L50.3852,81.0073L50.5339,80.8671L50.6843,80.7288L50.8363,80.5922L50.99,80.4575L51.1453,80.3245L51.3022,80.1934L51.4607,80.0642L51.6208,79.9368L51.7824,79.8113L51.9457,79.6876L52.1104,79.5659L52.2767,79.4461L52.4444,79.3283L52.6137,79.2125L52.7844,79.0986L52.9565,78.9867L53.1302,78.8768L53.3051,78.769L53.4816,78.6632L53.6594,78.5595L53.8386,78.4578L54.0192,78.3583L54.2011,78.2608L54.3843,78.1655L54.5688,78.0724L54.7546,77.9814L54.9417,77.8926L55.13,77.806L55.3196,77.7217L55.5104,77.6395L55.7024,77.5597L55.8956,77.4821L56.09,77.4068L56.2855,77.3338L56.4821,77.2631L56.6799,77.1948L56.8787,77.1288L57.0786,77.0652L57.2796,77.004L57.4816,76.9453L57.6846,76.8889L57.8887,76.835L58.0937,76.7836L58.2997,76.7347L58.5066,76.6882L58.7143,76.6443L58.9231,76.6029L59.1327,76.5641L59.3431,76.5279L59.5544,76.4942L59.7664,76.4631L59.9793,76.4347L60.193,76.4089L60.4074,76.3857L60.6225,76.3652L60.8383,76.3474L61.0548,76.3323L61.272,76.3199L61.4897,76.3102L61.7081,76.3033L61.9272,76.2991L62.1371,76.2978L101.435,76.2978L101.645,76.2991L101.864,76.3033L102.083,76.3102L102.301,76.3199L102.518,76.3323L102.735,76.3474L102.951,76.3652L103.166,76.3857L103.381,76.4088L103.595,76.4346L103.808,76.463L104.02,76.4941L104.232,76.5277L104.442,76.564L104.652,76.6028L104.861,76.6441L105.069,76.688L105.276,76.7344L105.482,76.7833L105.687,76.8347L105.891,76.8886L106.095,76.9449L106.297,77.0037L106.498,77.0648L106.698,77.1284L106.897,77.1943L107.095,77.2626L107.292,77.3333L107.487,77.4062L107.682,77.4815L107.875,77.5591L108.067,77.639L108.258,77.7211L108.448,77.8054L108.637,77.892L108.824,77.9807L109.01,78.0717L109.194,78.1648L109.378,78.2601L109.56,78.3575L109.74,78.457L109.92,78.5587L110.098,78.6624L110.274,78.7681L110.449,78.876L110.623,78.9858L110.795,79.0977L110.966,79.2116L111.136,79.3274L111.304,79.4453L111.47,79.565L111.635,79.6867L111.798,79.8103L111.96,79.9358L112.12,80.0632L112.279,80.1925L112.436,80.3236L112.591,80.4566L112.745,80.5913L112.897,80.7278L113.047,80.8662L113.196,81.0063L113.343,81.1482L113.489,81.2917L113.632,81.4371L113.774,81.5841L113.914,81.7329L114.053,81.8832L114.189,82.0353L114.324,82.189L114.457,82.3443L114.588,82.5013L114.718,82.6597L114.845,82.8199L114.971,82.9816L115.094,83.1448L115.216,83.3096L115.336,83.4758L115.454,83.6437L115.57,83.8129L115.683,83.9836L115.795,84.1558L115.905,84.3294L116.013,84.5045L116.119,84.6808L116.223,84.8588L116.324,85.038L116.424,85.2185L116.521,85.4004L116.617,85.5837L116.71,85.7682L116.801,85.954L116.889,86.1411L116.976,86.3294L117.06,86.519L117.143,86.7098L117.222,86.9019L117.3,87.0951L117.375,87.2894L117.448,87.4849L117.519,87.6815L117.587,87.8793L117.653,88.0782L117.717,88.2781L117.778,88.4791L117.837,88.681L117.893,88.8841L117.947,89.0881L117.998,89.2931L118.047,89.499L118.094,89.7059L118.137,89.9137L118.179,90.1224L118.218,90.332L118.254,90.5424L118.288,90.7537L118.319,90.9657L118.347,91.1786L118.373,91.3922L118.396,91.6066L118.416,91.8217L118.434,92.0374L118.449,92.2539L118.462,92.471L118.471,92.6888L118.478,92.9071L118.483,93.1261L118.484,93.336L118.484,132.66L118.483,132.87L118.478,133.089L118.471,133.307L118.462,133.525L118.449,133.742L118.434,133.959L118.416,134.175L118.396,134.39L118.373,134.604L118.347,134.818L118.319,135.03L118.288,135.242L118.254,135.454L118.218,135.664L118.179,135.874L118.137,136.082L118.094,136.29L118.047,136.497L117.998,136.703L117.947,136.908L117.893,137.112L117.837,137.315L117.778,137.517L117.717,137.718L117.653,137.918L117.587,138.117L117.519,138.314L117.448,138.511L117.375,138.707L117.3,138.901L117.222,139.094L117.142,139.286L117.06,139.477L116.976,139.666L116.889,139.855L116.801,140.042L116.71,140.228L116.617,140.412L116.521,140.596L116.424,140.777L116.324,140.958L116.223,141.137L116.119,141.315L116.013,141.491L115.905,141.666L115.795,141.84L115.683,142.012L115.57,142.183L115.454,142.352L115.336,142.52L115.216,142.686L115.094,142.851L114.971,143.014L114.845,143.176L114.718,143.336L114.588,143.495L114.457,143.652L114.324,143.807L114.189,143.961L114.053,144.113L113.914,144.263L113.774,144.412L113.632,144.559L113.489,144.704L113.343,144.848L113.196,144.99L113.047,145.13L112.897,145.268L112.745,145.405L112.591,145.539L112.436,145.672L112.279,145.803L112.12,145.933L111.96,146.06L111.798,146.186L111.635,146.309L111.47,146.431L111.304,146.551L111.136,146.669L110.966,146.784L110.795,146.898L110.623,147.01L110.45,147.12L110.274,147.228L110.098,147.334L109.92,147.437L109.741,147.539L109.56,147.639L109.378,147.736L109.195,147.831L109.01,147.924L108.824,148.015L108.637,148.104L108.448,148.191L108.259,148.275L108.067,148.357L107.875,148.437L107.682,148.515L107.488,148.59L107.292,148.663L107.095,148.734L106.897,148.802L106.698,148.868L106.498,148.931L106.297,148.993L106.095,149.051L105.892,149.108L105.687,149.161L105.482,149.213L105.276,149.262L105.069,149.308L104.861,149.352L104.652,149.393L104.442,149.432L104.232,149.469L104.02,149.502L103.808,149.533L103.595,149.562L103.381,149.587L103.166,149.611L102.951,149.631L102.735,149.649L102.518,149.664L102.301,149.676L102.083,149.686L101.864,149.693L101.645,149.697L101.435,149.698Z" style="fill:rgb(255,180,94);"/>
                <path d="M142.114,143.657L181.388,143.657L181.54,143.656L181.683,143.654L181.824,143.649L181.966,143.643L182.107,143.635L182.247,143.625L182.386,143.614L182.525,143.6L182.664,143.585L182.802,143.569L182.939,143.55L183.076,143.53L183.212,143.509L183.348,143.485L183.483,143.46L183.617,143.434L183.751,143.405L183.884,143.375L184.016,143.344L184.148,143.311L184.279,143.276L184.41,143.24L184.54,143.202L184.669,143.163L184.798,143.122L184.925,143.08L185.053,143.036L185.179,142.99L185.305,142.943L185.43,142.895L185.554,142.845L185.678,142.793L185.8,142.74L185.923,142.686L186.044,142.63L186.164,142.573L186.284,142.515L186.403,142.454L186.521,142.393L186.638,142.33L186.755,142.266L186.87,142.2L186.985,142.133L187.099,142.065L187.212,141.996L187.324,141.925L187.435,141.852L187.545,141.779L187.655,141.704L187.763,141.628L187.871,141.55L187.977,141.472L188.083,141.391L188.187,141.31L188.291,141.228L188.393,141.144L188.495,141.059L188.596,140.973L188.695,140.886L188.793,140.798L188.891,140.708L188.987,140.617L189.082,140.525L189.176,140.432L189.269,140.338L189.361,140.243L189.452,140.147L189.63,139.951L189.717,139.851L189.803,139.751L189.888,139.649L189.971,139.547L190.054,139.443L190.135,139.339L190.215,139.233L190.371,139.019L190.447,138.91L190.522,138.801L190.595,138.691L190.668,138.579L190.739,138.467L190.808,138.354L190.876,138.24L190.943,138.126L191.009,138.01L191.073,137.893L191.136,137.776L191.197,137.658L191.257,137.539L191.316,137.419L191.373,137.299L191.429,137.177L191.483,137.055L191.536,136.932L191.587,136.809L191.637,136.684L191.686,136.559L191.733,136.433L191.778,136.307L191.822,136.18L191.864,136.052L191.905,135.923L191.945,135.794L191.982,135.664L192.019,135.533L192.053,135.402L192.086,135.27L192.118,135.138L192.148,135.005L192.176,134.871L192.202,134.737L192.227,134.602L192.251,134.466L192.273,134.33L192.293,134.193L192.311,134.055L192.328,133.918L192.343,133.779L192.356,133.64L192.367,133.5L192.377,133.36L192.385,133.219L192.391,133.078L192.396,132.936L192.399,132.794L192.4,132.641L192.4,93.3551L192.399,93.2026L192.396,93.0602L192.391,92.9183L192.385,92.7769L192.377,92.6362L192.367,92.496L192.356,92.3563L192.342,92.2172L192.328,92.0786L192.311,91.9406L192.293,91.8033L192.272,91.6664L192.251,91.5302L192.227,91.3946L192.202,91.2596L192.176,91.1251L192.148,90.9915L192.118,90.8582L192.086,90.7257L192.053,90.5938L192.019,90.4626L191.982,90.332L191.944,90.2019L191.905,90.0727L191.864,89.9442L191.822,89.8161L191.778,89.6889L191.733,89.5625L191.686,89.4367L191.637,89.3115L191.587,89.1872L191.536,89.0636L191.483,88.9407L191.429,88.8186L191.373,88.6973L191.316,88.5768L191.257,88.457L191.197,88.3381L191.136,88.2199L191.073,88.1026L191.009,87.9861L190.943,87.8705L190.876,87.7558L190.808,87.6417L190.738,87.5287L190.667,87.4166L190.595,87.3053L190.522,87.195L190.447,87.0856L190.371,86.9772L190.293,86.8696L190.214,86.763L190.135,86.6575L190.053,86.5529L189.971,86.4492L189.887,86.3467L189.803,86.2451L189.716,86.1445L189.629,86.045L189.541,85.9466L189.451,85.8492L189.361,85.7529L189.269,85.6577L189.176,85.5635L189.082,85.4706L188.987,85.3787L188.89,85.288L188.793,85.1984L188.695,85.11L188.595,85.0228L188.495,84.9367L188.393,84.8518L188.291,84.7682L188.187,84.6858L188.082,84.6045L187.977,84.5246L187.87,84.4459L187.763,84.3684L187.655,84.2923L187.545,84.2174L187.435,84.1438L187.324,84.0715L187.212,84.0006L187.099,83.9309L186.985,83.8627L186.87,83.7957L186.754,83.7301L186.638,83.6659L186.521,83.6031L186.403,83.5417L186.284,83.4817L186.164,83.423L186.044,83.3658L185.922,83.31L185.8,83.2557L185.677,83.2029L185.554,83.1515L185.43,83.1015L185.305,83.0531L185.179,83.0061L185.052,82.9607L184.925,82.9167L184.797,82.8743L184.669,82.8334L184.54,82.7941L184.41,82.7563L184.279,82.7201L184.148,82.6854L184.016,82.6523L183.884,82.6208L183.75,82.591L183.617,82.5627L183.482,82.5361L183.348,82.5111L183.212,82.4877L183.076,82.466L182.939,82.446L182.802,82.4276L182.664,82.4109L182.525,82.396L182.386,82.3827L182.247,82.3712L182.106,82.3614L181.966,82.3534L181.824,82.3471L181.683,82.3426L181.54,82.3399L181.388,82.3389L142.114,82.3389L141.961,82.3399L141.819,82.3426L141.677,82.3471L141.536,82.3534L141.395,82.3614L141.255,82.3712L141.115,82.3827L140.976,82.396L140.838,82.4109L140.7,82.4276L140.562,82.446L140.425,82.466L140.289,82.4877L140.154,82.5111L140.019,82.5361L139.884,82.5627L139.75,82.591L139.617,82.6209L139.485,82.6524L139.353,82.6855L139.222,82.7201L139.091,82.7564L138.961,82.7942L138.832,82.8335L138.703,82.8744L138.575,82.9169L138.448,82.9608L138.322,83.0063L138.196,83.0532L138.071,83.1017L137.946,83.1517L137.823,83.2031L137.7,83.2559L137.578,83.3103L137.457,83.366L137.336,83.4232L137.216,83.4819L137.097,83.5419L136.979,83.6034L136.862,83.6662L136.746,83.7304L136.63,83.796L136.515,83.863L136.401,83.9313L136.288,84.0009L136.176,84.0718L136.065,84.1442L135.955,84.2178L135.845,84.2927L135.737,84.3689L135.629,84.4463L135.523,84.525L135.417,84.605L135.313,84.6862L135.209,84.7686L135.106,84.8523L135.005,84.9372L134.904,85.0233L134.805,85.1104L134.706,85.1989L134.609,85.2885L134.513,85.3792L134.417,85.4712L134.323,85.5641L134.23,85.6582L134.139,85.7534L134.048,85.8497L133.958,85.9472L133.87,86.0456L133.783,86.1451L133.697,86.2457L133.612,86.3473L133.528,86.4498L133.446,86.5535L133.365,86.6581L133.285,86.7637L133.206,86.8702L133.128,86.9778L133.052,87.0862L132.977,87.1956L132.904,87.306L132.832,87.4172L132.761,87.5293L132.691,87.6424L132.623,87.7564L132.556,87.8711L132.49,87.9867L132.426,88.1033L132.363,88.2205L132.302,88.3387L132.242,88.4577L132.183,88.5774L132.126,88.6979L132.07,88.8193L132.016,88.9414L131.963,89.0642L131.912,89.1879L131.862,89.3122L131.813,89.4372L131.766,89.5631L131.721,89.6895L131.677,89.8168L131.634,89.9447L131.594,90.0732L131.554,90.2025L131.516,90.3324L131.48,90.4629L131.446,90.5943L131.413,90.7263L131.381,90.8588L131.351,90.9918L131.323,91.1256L131.296,91.26L131.271,91.395L131.248,91.5306L131.226,91.6668L131.206,91.8037L131.188,91.9409L131.171,92.0788L131.156,92.2174L131.143,92.3565L131.131,92.4961L131.122,92.6364L131.114,92.7771L131.107,92.9185L131.103,93.0603L131.1,93.2026L131.099,93.3551L131.099,132.641L131.1,132.794L131.103,132.936L131.107,133.078L131.114,133.219L131.122,133.36L131.131,133.5L131.143,133.64L131.156,133.779L131.171,133.918L131.188,134.056L131.206,134.193L131.226,134.33L131.248,134.466L131.271,134.602L131.296,134.737L131.323,134.871L131.351,135.005L131.381,135.138L131.413,135.27L131.446,135.402L131.48,135.534L131.516,135.664L131.554,135.794L131.594,135.924L131.634,136.052L131.677,136.18L131.721,136.307L131.766,136.434L131.813,136.56L131.862,136.685L131.912,136.809L131.963,136.933L132.016,137.055L132.07,137.177L132.126,137.299L132.183,137.419L132.242,137.539L132.302,137.658L132.363,137.776L132.426,137.893L132.49,138.01L132.556,138.126L132.623,138.24L132.691,138.354L132.761,138.467L132.832,138.579L132.904,138.691L132.977,138.801L133.052,138.91L133.128,139.019L133.206,139.126L133.285,139.233L133.364,139.339L133.528,139.547L133.612,139.649L133.697,139.751L133.783,139.852L133.87,139.951L133.958,140.05L134.048,140.147L134.139,140.243L134.23,140.338L134.323,140.432L134.417,140.525L134.513,140.617L134.609,140.708L134.706,140.798L134.805,140.886L134.904,140.973L135.005,141.059L135.106,141.144L135.209,141.228L135.312,141.31L135.417,141.392L135.523,141.472L135.629,141.55L135.737,141.628L135.845,141.704L135.955,141.779L136.065,141.852L136.176,141.925L136.288,141.996L136.401,142.065L136.515,142.134L136.745,142.266L136.862,142.33L136.979,142.393L137.097,142.455L137.216,142.515L137.336,142.573L137.457,142.63L137.578,142.686L137.7,142.74L137.823,142.793L137.946,142.845L138.071,142.895L138.196,142.943L138.322,142.99L138.448,143.036L138.575,143.08L138.703,143.122L138.832,143.163L138.961,143.202L139.091,143.24L139.222,143.276L139.353,143.311L139.485,143.344L139.617,143.375L139.75,143.405L139.884,143.434L140.019,143.46L140.153,143.485L140.289,143.509L140.425,143.53L140.562,143.55L140.7,143.569L140.838,143.585L140.976,143.6L141.115,143.614L141.255,143.625L141.395,143.635L141.536,143.643L141.677,143.649L141.819,143.654L141.962,143.656ZM142.095,149.698L141.885,149.697L141.666,149.693L141.448,149.686L141.23,149.676L141.013,149.664L140.796,149.649L140.58,149.631L140.365,149.611L140.151,149.587L139.937,149.562L139.724,149.533L139.512,149.502L139.301,149.468L139.091,149.432L138.881,149.393L138.672,149.352L138.464,149.308L138.257,149.262L138.052,149.213L137.847,149.161L137.643,149.107L137.44,149.051L137.238,148.992L137.037,148.931L136.837,148.868L136.638,148.802L136.44,148.733L136.243,148.663L136.048,148.59L135.854,148.514L135.66,148.437L135.468,148.357L135.278,148.275L135.088,148.19L134.9,148.104L134.713,148.015L134.527,147.924L134.342,147.831L134.159,147.736L133.977,147.638L133.797,147.539L133.617,147.437L133.44,147.333L133.263,147.228L133.088,147.12L132.915,147.01L132.743,146.898L132.572,146.784L132.403,146.668L132.235,146.55L132.069,146.431L131.904,146.309L131.741,146.185L131.579,146.06L131.419,145.932L131.26,145.803L131.104,145.672L130.948,145.539L130.795,145.404L130.643,145.268L130.492,145.129L130.343,144.989L130.196,144.848L130.051,144.704L129.908,144.559L129.766,144.412L129.626,144.263L129.487,144.112L129.351,143.96L129.216,143.807L129.083,143.651L128.952,143.495L128.823,143.336L128.696,143.176L128.57,143.014L128.446,142.851L128.325,142.686L128.205,142.52L128.087,142.352L127.971,142.183L127.858,142.012L127.746,141.84L127.636,141.666L127.528,141.491L127.422,141.315L127.319,141.137L127.217,140.958L127.118,140.777L127.02,140.595L126.925,140.412L126.832,140.228L126.741,140.042L126.652,139.855L126.566,139.667L126.481,139.477L126.399,139.286L126.319,139.094L126.242,138.901L126.166,138.707L126.094,138.511L126.023,138.315L125.955,138.117L125.889,137.918L125.825,137.718L125.764,137.517L125.705,137.315L125.649,137.112L125.595,136.908L125.544,136.703L125.495,136.497L125.448,136.29L125.404,136.082L125.363,135.874L125.324,135.664L125.288,135.454L125.254,135.243L125.223,135.031L125.195,134.818L125.169,134.604L125.146,134.39L125.125,134.175L125.108,133.959L125.093,133.742L125.08,133.525L125.071,133.308L125.064,133.089L125.059,132.87L125.058,132.66L125.058,93.336L125.059,93.1261L125.064,92.9071L125.071,92.6887L125.08,92.471L125.093,92.254L125.108,92.0375L125.125,91.8218L125.146,91.6067L125.169,91.3925L125.195,91.1788L125.223,90.9659L125.254,90.7539L125.288,90.5427L125.324,90.3322L125.363,90.1227L125.404,89.9141L125.448,89.7063L125.495,89.4993L125.544,89.2934L125.595,89.0885L125.649,88.8846L125.705,88.6815L125.764,88.4795L125.825,88.2786L125.889,88.0786L125.955,87.8798L126.023,87.6821L126.094,87.4854L126.166,87.29L126.242,87.0957L126.319,86.9025L126.399,86.7106L126.481,86.5197L126.566,86.3301L126.652,86.1418L126.741,85.9548L126.832,85.7689L126.925,85.5845L127.02,85.4013L127.118,85.2193L127.217,85.0388L127.319,84.8596L127.422,84.6817L127.528,84.5053L127.636,84.3304L127.746,84.1567L127.858,83.9845L127.971,83.8139L128.087,83.6446L128.205,83.4768L128.325,83.3106L128.446,83.1458L128.57,82.9826L128.696,82.8209L128.823,82.6609L128.952,82.5023L129.083,82.3453L129.216,82.1901L129.351,82.0363L129.487,81.8843L129.626,81.734L129.766,81.5852L129.908,81.4382L130.051,81.2928L130.196,81.1492L130.343,81.0074L130.492,80.8672L130.642,80.7289L130.794,80.5924L130.948,80.4575L131.103,80.3246L131.26,80.1935L131.419,80.0643L131.579,79.9368L131.741,79.8113L131.904,79.6877L132.068,79.566L132.235,79.4462L132.402,79.3284L132.572,79.2125L132.742,79.0986L132.914,78.9868L133.088,78.8769L133.263,78.769L133.44,78.6632L133.617,78.5595L133.797,78.4579L133.977,78.3583L134.159,78.2609L134.342,78.1656L134.527,78.0724L134.713,77.9815L134.9,77.8927L135.088,77.8061L135.277,77.7217L135.468,77.6396L135.66,77.5597L135.853,77.4821L136.048,77.4068L136.243,77.3338L136.44,77.2631L136.638,77.1948L136.837,77.1288L137.036,77.0652L137.237,77.004L137.439,76.9453L137.642,76.8889L137.847,76.835L138.052,76.7836L138.257,76.7347L138.464,76.6882L138.672,76.6443L138.881,76.603L139.09,76.5641L139.301,76.5279L139.512,76.4942L139.724,76.4631L139.937,76.4347L140.151,76.4089L140.365,76.3857L140.58,76.3652L140.796,76.3474L141.013,76.3323L141.23,76.3199L141.448,76.3102L141.666,76.3033L141.885,76.2991L142.095,76.2978L181.407,76.2978L181.617,76.2991L181.836,76.3033L182.054,76.3102L182.272,76.3199L182.489,76.3323L182.705,76.3474L182.921,76.3652L183.136,76.3857L183.351,76.4089L183.564,76.4347L183.777,76.4631L183.989,76.4942L184.2,76.5279L184.411,76.5641L184.62,76.6029L184.829,76.6443L185.037,76.6882L185.244,76.7346L185.45,76.7836L185.654,76.835L185.858,76.8889L186.061,76.9452L186.263,77.004L186.464,77.0652L186.664,77.1288L186.863,77.1947L187.061,77.263L187.257,77.3337L187.453,77.4067L187.647,77.482L187.84,77.5596L188.032,77.6395L188.223,77.7216L188.413,77.806L188.601,77.8926L188.788,77.9813L188.974,78.0723L189.158,78.1655L189.341,78.2608L189.523,78.3582L189.704,78.4577L189.883,78.5594L190.061,78.6631L190.237,78.7689L190.412,78.8767L190.586,78.9866L190.758,79.0985L190.928,79.2123L191.098,79.3282L191.265,79.4461L191.431,79.5658L191.596,79.6875L191.759,79.8112L191.921,79.9367L192.081,80.064L192.24,80.1933L192.396,80.3245L192.552,80.4574L192.705,80.5921L192.857,80.7287L193.008,80.867L193.156,81.0071L193.303,81.149L193.449,81.2926L193.592,81.4379L193.734,81.5849L193.874,81.7337L194.012,81.884L194.149,82.0361L194.283,82.1898L194.416,82.3451L194.547,82.502L194.677,82.6606L194.804,82.8207L194.929,82.9823L195.053,83.1456L195.175,83.3103L195.294,83.4765L195.412,83.6443L195.528,83.8136L195.642,83.9843L195.753,84.1564L195.863,84.3301L195.971,84.5052L196.077,84.6815L196.18,84.8593L196.282,85.0385L196.382,85.2191L196.479,85.401L196.574,85.5841L196.667,85.7688L196.758,85.9545L196.847,86.1416L196.933,86.33L197.018,86.5195L197.1,86.7102L197.18,86.9023L197.257,87.0955L197.332,87.2897L197.405,87.4852L197.476,87.682L197.544,87.8797L197.61,88.0784L197.674,88.2784L197.735,88.4794L197.794,88.6812L197.85,88.8843L197.904,89.0883L197.955,89.2933L198.004,89.4993L198.05,89.706L198.094,89.9139L198.136,90.1226L198.175,90.3321L198.211,90.5426L198.244,90.7538L198.275,90.9658L198.304,91.1787L198.33,91.3923L198.353,91.6066L198.373,91.8217L198.391,92.0374L198.406,92.2539L198.419,92.4711L198.428,92.6888L198.435,92.9071L198.439,93.1261L198.441,93.336L198.441,132.66L198.439,132.87L198.435,133.089L198.428,133.307L198.419,133.525L198.406,133.742L198.391,133.959L198.373,134.175L198.353,134.389L198.33,134.604L198.304,134.817L198.275,135.03L198.244,135.242L198.211,135.453L198.175,135.664L198.136,135.873L198.094,136.082L198.051,136.29L198.004,136.497L197.955,136.703L197.904,136.908L197.85,137.112L197.794,137.315L197.735,137.517L197.674,137.718L197.61,137.917L197.544,138.116L197.476,138.314L197.406,138.511L197.333,138.706L197.257,138.9L197.18,139.094L197.1,139.285L197.018,139.476L196.934,139.666L196.847,139.854L196.758,140.041L196.668,140.227L196.574,140.412L196.479,140.595L196.382,140.777L196.282,140.957L196.181,141.136L196.077,141.314L195.971,141.491L195.864,141.666L195.754,141.839L195.642,142.011L195.528,142.182L195.412,142.351L195.295,142.519L195.175,142.686L195.053,142.85L194.93,143.013L194.804,143.175L194.677,143.335L194.548,143.494L194.417,143.651L194.284,143.806L194.149,143.96L194.013,144.112L193.874,144.262L193.734,144.411L193.593,144.558L193.449,144.703L193.304,144.847L193.157,144.989L193.008,145.129L192.858,145.267L192.706,145.404L192.552,145.539L192.397,145.671L192.24,145.803L192.082,145.932L191.921,146.059L191.76,146.185L191.597,146.308L191.432,146.43L191.266,146.55L191.098,146.668L190.929,146.784L190.758,146.898L190.586,147.009L190.413,147.119L190.238,147.227L190.061,147.333L189.883,147.437L189.704,147.538L189.524,147.638L189.342,147.735L189.159,147.831L188.974,147.924L188.788,148.015L188.601,148.104L188.413,148.19L188.224,148.274L188.033,148.357L187.841,148.437L187.648,148.514L187.453,148.589L187.258,148.662L187.061,148.733L186.864,148.801L186.665,148.867L186.465,148.931L186.264,148.992L186.062,149.051L185.859,149.107L185.655,149.161L185.45,149.213L185.244,149.262L185.037,149.308L184.829,149.352L184.62,149.393L184.411,149.432L184.201,149.468L183.989,149.502L183.777,149.533L183.564,149.562L183.351,149.587L183.136,149.611L182.921,149.631L182.705,149.649L182.489,149.664L182.272,149.676L182.054,149.686L181.836,149.693L181.617,149.697L181.407,149.698Z" style="fill:rgb(255,180,94);"/>
            </g>
        </g>
    </g>
</svg>
