<?xml version="1.0" standalone="no"?>
<!DOCTYPE svg PUBLIC "-//W3C//DTD SVG 1.1//EN" "http://www.w3.org/Graphics/SVG/1.1/DTD/svg11.dtd">
<svg width="330px" height="330px" version="1.1" xmlns="http://www.w3.org/2000/svg" xmlns:xlink="http://www.w3.org/1999/xlink" xml:space="preserve" style="fill-rule:evenodd;clip-rule:evenodd;stroke-linejoin:round;stroke-miterlimit:1.41421;">
    <g>
        <g id="start">
            <path d="M0,261.196L0,68.7102C0,30.7856 30.8587,0 68.7784,0L261.286,0C299.215,0 330,30.7856 330,68.7102L330,261.196C330,299.202 299.216,330 261.286,330L68.7784,330C30.8587,330 0,299.202 0,261.196Z" style="fill:rgb(233,90,78);fill-rule:nonzero;"/>
            <g>
                <path d="M98.2233,258.118C98.7766,257.125 99.5096,256.301 100.421,255.649C101.53,254.803 102.88,254.183 104.479,253.791C106.074,253.401 107.802,253.205 109.658,253.205C111.515,253.205 113.397,253.418 115.302,253.841C117.206,254.264 119.253,255.031 121.435,256.137L119.48,260.293C117.819,259.478 116.206,258.884 114.642,258.509C113.078,258.135 111.516,257.946 109.95,257.946C108.747,257.946 107.597,258.029 106.506,258.19C105.414,258.354 104.51,258.697 103.794,259.217C102.914,259.836 102.475,260.667 102.475,261.71C102.475,262.134 102.573,262.484 102.767,262.76C102.963,263.037 103.24,263.29 103.598,263.518C104.022,263.844 104.526,264.08 105.113,264.227C105.699,264.373 106.254,264.496 106.775,264.593L112.738,265.668C114.203,265.929 115.645,266.32 117.063,266.841C118.478,267.363 119.677,268.095 120.653,269.04C121.304,269.692 121.81,270.45 122.17,271.313C122.526,272.177 122.707,273.213 122.707,274.417C122.707,275.982 122.397,277.318 121.777,278.425C121.157,279.534 120.343,280.429 119.333,281.114C118.031,282.026 116.45,282.671 114.593,283.044C112.737,283.419 110.831,283.607 108.876,283.607C107.639,283.607 106.512,283.557 105.505,283.46C104.495,283.362 103.517,283.207 102.573,282.995C101.628,282.784 100.698,282.507 99.7887,282.164C98.875,281.822 97.914,281.424 96.9039,280.967L98.5175,276.667C102.1,278.101 105.521,278.817 108.779,278.817C110.538,278.817 112.021,278.703 113.227,278.475C114.431,278.247 115.474,277.808 116.353,277.156C117.135,276.537 117.526,275.673 117.526,274.565C117.526,274.011 117.42,273.539 117.208,273.148C116.996,272.757 116.712,272.415 116.353,272.122C115.831,271.764 115.198,271.462 114.449,271.218C113.698,270.974 112.9,270.771 112.054,270.607L105.554,269.483C104.217,269.255 103.005,268.921 101.912,268.482C100.822,268.042 99.9022,267.448 99.1531,266.698C98.5978,266.112 98.1671,265.412 97.8568,264.596C97.5465,263.782 97.3939,262.804 97.3939,261.663C97.3939,260.293 97.67,259.112 98.2233,258.118Z" style="fill:white;fill-rule:nonzero;"/>
                <path d="M123.146,253.743L150.07,253.743L150.07,258.435L139.173,258.435L139.173,283.069L134.041,283.069L134.041,258.435L123.145,258.435L123.145,253.743Z" style="fill:white;fill-rule:nonzero;"/>
                <path d="M165.759,253.743L178.755,283.069L173.136,283.069L170.692,277.692L155.056,277.692L152.661,283.069L147.138,283.069L160.137,253.743ZM157.059,272.951L168.738,272.951L163.119,259.022L162.532,259.022Z" style="fill:white;fill-rule:nonzero;"/>
                <path d="M204.605,270.948C204.083,271.6 203.497,272.186 202.846,272.707C202.195,273.23 201.445,273.67 200.599,274.027C201.479,275.461 202.399,276.96 203.36,278.524C204.321,280.088 205.241,281.603 206.121,283.069L200.159,283.069L195.418,275.102L186.426,275.102L186.426,283.069L181.149,283.069L181.149,253.743L195.614,253.743C197.143,253.743 198.585,254.012 199.939,254.55C201.291,255.087 202.486,255.862 203.53,256.872C204.507,257.85 205.281,258.974 205.852,260.243C206.421,261.515 206.708,262.932 206.708,264.496C206.708,267.006 206.006,269.156 204.605,270.948ZM186.427,270.361L195.712,270.361C196.559,270.361 197.349,270.208 198.082,269.897C198.815,269.587 199.41,269.156 199.865,268.602C200.387,268.048 200.776,267.412 201.037,266.696C201.299,265.98 201.43,265.247 201.43,264.497C201.43,262.901 200.942,261.581 199.963,260.538C199.475,259.92 198.831,259.43 198.033,259.071C197.235,258.714 196.38,258.534 195.468,258.534L186.426,258.534L186.426,270.361Z" style="fill:white;fill-rule:nonzero;"/>
                <path d="M206.171,253.743L233.095,253.743L233.095,258.435L222.196,258.435L222.196,283.069L217.066,283.069L217.066,258.435L206.17,258.435L206.17,253.743Z" style="fill:white;fill-rule:nonzero;"/>
            </g>
            <g>
                <path d="M132.126,120.58L132.126,82.2288C132.126,74.673 138.274,68.5394 145.828,68.5394L184.182,68.5394C191.74,68.5394 197.874,74.672 197.874,82.2288L197.874,120.581C197.874,128.154 191.741,134.291 184.182,134.291L145.828,134.291C138.274,134.291 132.126,128.153 132.126,120.58Z" style="fill:white;fill-rule:nonzero;"/>
                <g>
                    <path d="M95.0724,194.747L95.0724,156.38C95.0724,148.82 101.205,142.689 108.764,142.689L147.105,142.689C154.677,142.689 160.807,148.82 160.807,156.38L160.807,194.747C160.807,202.305 154.677,208.437 147.105,208.437L108.764,208.437C101.206,208.437 95.0724,202.306 95.0724,194.747Z" style="fill:white;fill-rule:nonzero;"/>
                    <path d="M169.192,194.747L169.192,156.38C169.192,148.82 175.323,142.689 182.882,142.689L221.238,142.689C228.795,142.689 234.927,148.82 234.927,156.38L234.927,194.747C234.927,202.305 228.796,208.437 221.238,208.437L182.882,208.437C175.323,208.437 169.192,202.306 169.192,194.747Z" style="fill:white;fill-rule:nonzero;"/>
                </g>
            </g>
        </g>
    </g>
</svg>
