<?xml version="1.0" standalone="no"?>
<!DOCTYPE svg PUBLIC "-//W3C//DTD SVG 1.1//EN" "http://www.w3.org/Graphics/SVG/1.1/DTD/svg11.dtd">
<svg width="152px" height="152px" version="1.1" xmlns="http://www.w3.org/2000/svg" xmlns:xlink="http://www.w3.org/1999/xlink" xml:space="preserve" style="fill-rule:evenodd;clip-rule:evenodd;stroke-linejoin:round;stroke-miterlimit:1.41421;">
    <g>
        <g id="notebook">
            <path d="M76,0C117.974,0 152,34.0264 152,76C152,117.974 117.974,152 76,152C34.0264,152 0,117.974 0,76C0,34.0264 34.0264,0 76,0Z" style="fill:rgb(82,194,209);"/>
            <path d="M76,9.31648C112.828,9.31648 142.684,39.1717 142.684,76C142.684,112.828 112.828,142.684 76,142.684C39.1717,142.684 9.31648,112.828 9.31648,76C9.31648,39.1717 39.1717,9.31648 76,9.31648Z" style="fill:rgb(90,127,163);"/>
            <g>
                <path d="M97.2592,39.4636L51.84,39.4636C50.4174,39.4636 49.2472,40.6288 49.2472,42.0665L49.2472,48.0779L42.03,48.0779C40.8618,48.0779 39.9205,49.0222 39.9205,50.1834C39.9205,51.3526 40.8618,52.2929 42.03,52.2929L49.2472,52.2929L49.2472,58.1067L42.03,58.1067C40.8618,58.1067 39.9205,59.054 39.9205,60.2202C39.9205,61.3854 40.8618,62.3328 42.03,62.3328L49.2472,62.3328L49.2472,68.1425L42.03,68.1425C40.8618,68.1425 39.9205,69.0869 39.9205,70.2561C39.9205,71.4183 40.8618,72.3656 42.03,72.3656L49.2472,72.3656L49.2472,78.1744L42.03,78.1744C40.8618,78.1744 39.9205,79.1227 39.9205,80.2879C39.9205,81.4531 40.8618,82.3974 42.03,82.3974L49.2472,82.3974L49.2472,88.2112L42.03,88.2112C40.8618,88.2112 39.9205,89.1545 39.9205,90.3207C39.9205,91.4869 40.8618,92.4262 42.03,92.4262L49.2472,92.4262L49.2472,98.24L42.03,98.24C40.8618,98.24 39.9205,99.1874 39.9205,100.353C39.9205,101.527 40.8618,102.466 42.03,102.466L49.2472,102.466L49.2472,108.35C49.2472,109.779 50.4164,110.949 51.84,110.949L97.2592,110.949C98.703,110.949 99.8632,109.779 99.8632,108.35L99.8632,42.0675C99.8642,40.6298 98.703,39.4636 97.2592,39.4636ZM88.8526,60.5019C88.8526,61.2071 88.2842,61.7745 87.584,61.7745L61.6985,61.7745C60.9883,61.7745 60.4198,61.2071 60.4198,60.5019L60.4198,53.2412C60.4198,52.532 60.9883,51.9686 61.6985,51.9686L87.584,51.9686C88.2842,51.9686 88.8526,52.532 88.8526,53.2412Z" style="fill:white;fill-rule:nonzero;"/>
                <g>
                    <path d="M108.499,104.165C107.868,104.163 107.272,104.033 106.701,103.841L107.575,107.317C107.729,107.818 107.972,108.226 108.472,108.219C108.96,108.231 109.215,107.936 109.374,107.335L110.305,103.865C109.73,104.05 109.135,104.172 108.499,104.165Z" style="fill:white;fill-rule:nonzero;"/>
                    <path d="M108.515,103.135C109.839,103.142 111.052,102.584 111.905,101.746C112.686,100.981 113.144,100.001 113.148,99.0506L113.294,80.9637L104.089,80.8908L103.946,98.4903C103.937,99.7659 104.437,100.909 105.266,101.751C106.088,102.598 107.242,103.118 108.515,103.135Z" style="fill:white;fill-rule:nonzero;"/>
                    <path d="M113.987,59.1584C114.012,56.3285 111.742,54.0174 108.908,53.99C106.078,53.9626 103.77,56.2403 103.746,59.0753L103.585,78.7681L113.829,78.8512ZM108.74,74.0182C108.042,74.008 107.48,73.4538 107.48,72.7851L107.594,59.1564C107.598,58.4856 108.171,57.9405 108.882,57.9476C109.58,57.9537 110.148,58.5018 110.145,59.1797L110.033,72.8074C110.028,73.4801 109.451,74.0151 108.74,74.0182Z" style="fill:white;fill-rule:nonzero;"/>
                </g>
            </g>
        </g>
    </g>
</svg>
