<?xml version="1.0" standalone="no"?>
<!DOCTYPE svg PUBLIC "-//W3C//DTD SVG 1.1//EN" "http://www.w3.org/Graphics/SVG/1.1/DTD/svg11.dtd">
<svg width="152px" height="152px" version="1.1" xmlns="http://www.w3.org/2000/svg" xmlns:xlink="http://www.w3.org/1999/xlink" xml:space="preserve" style="fill-rule:evenodd;clip-rule:evenodd;stroke-linejoin:round;stroke-miterlimit:1.41421;">
    <g>
        <g id="tv">
            <path d="M76,0C117.974,0 152,34.0264 152,76C152,117.974 117.974,152 76,152C34.0264,152 0,117.974 0,76C0,34.0264 34.0264,0 76,0Z" style="fill:rgb(82,194,209);"/>
            <path d="M76,9.31648C112.828,9.31648 142.684,39.1717 142.684,76C142.684,112.828 112.828,142.684 76,142.684C39.1717,142.684 9.31648,112.828 9.31648,76C9.31648,39.1717 39.1717,9.31648 76,9.31648Z" style="fill:rgb(88,150,175);"/>
            <g>
                <g>
                    <path d="M49.005,58.4897C44.3463,58.824 40.6359,62.7381 40.6359,67.491L40.6359,102.307C40.6359,107.299 44.7009,111.382 49.7092,111.382L101.489,111.382C106.498,111.382 110.545,107.299 110.545,102.307L110.545,67.491C110.545,62.4797 106.499,58.4167 101.489,58.4167L72.2045,58.4167ZM97.705,63.8536L104.125,63.8536L104.125,87.5354L97.705,87.5354ZM92.3978,96.627C92.3978,101.637 88.3511,105.685 83.3215,105.685L55.7236,105.685C50.7133,105.685 46.63,101.637 46.63,96.627L46.63,72.9279C46.63,67.9176 50.7123,63.8536 55.7236,63.8536L83.3205,63.8536C88.35,63.8536 92.3968,67.9176 92.3968,72.9279L92.3968,96.627ZM104.125,104.626C103.273,105.425 102.158,105.851 100.915,105.851C99.6696,105.851 98.5581,105.425 97.705,104.626C96.7415,103.735 96.1082,102.475 96.1082,101.063C96.1082,99.6342 96.7415,98.3352 97.705,97.4993C98.5581,96.7192 99.6696,96.2369 100.915,96.2369C102.158,96.2369 103.273,96.7202 104.125,97.4993C105.128,98.3342 105.722,99.6332 105.722,101.063C105.722,102.475 105.128,103.735 104.125,104.626Z" style="fill:rgb(245,245,245);fill-rule:nonzero;"/>
                    <path d="M78.4084,84.1989L65.338,77.5918C65.1141,77.4773 64.8658,77.4195 64.6156,77.4195L63.733,77.4195C62.8475,77.4195 62.1301,78.1379 62.1301,79.0204L62.1301,93.023C62.1301,93.9065 62.8475,94.6259 63.733,94.6259L64.6156,94.6259C64.8901,94.6259 65.1617,94.5539 65.4048,94.4171L78.4732,87.0237C78.989,86.7319 79.3,86.1818 79.2889,85.5921C79.2717,85.0004 78.9343,84.4644 78.4084,84.1989Z" style="fill:white;fill-rule:nonzero;"/>
                </g>
                <rect x="62.0055" y="55.3295" width="26.6779" height="6.07724" style="fill:rgb(245,245,245);"/>
                <path d="M78.2301,63.3501C77.5259,64.0542 76.386,64.0552 75.6788,63.3501L50.6342,38.3045C49.9301,37.6013 49.9321,36.4594 50.6342,35.7562C51.3384,35.0521 52.4783,35.051 53.1835,35.7562L78.2311,60.8028C78.9332,61.505 78.9332,62.6479 78.2301,63.3501Z" style="fill:rgb(245,245,245);fill-rule:nonzero;"/>
                <path d="M72.472,63.3501C73.1762,64.0542 74.3171,64.0552 75.0212,63.3501L100.067,38.3045C100.772,37.6013 100.769,36.4594 100.067,35.7562C99.3647,35.0521 98.2248,35.051 97.5176,35.7562L72.472,60.8028C71.7688,61.505 71.7688,62.6479 72.472,63.3501Z" style="fill:rgb(245,245,245);fill-rule:nonzero;"/>
            </g>
        </g>
    </g>
</svg>
