<?xml version="1.0" standalone="no"?>
<!DOCTYPE svg PUBLIC "-//W3C//DTD SVG 1.1//EN" "http://www.w3.org/Graphics/SVG/1.1/DTD/svg11.dtd">
<svg width="152px" height="152px" version="1.1" xmlns="http://www.w3.org/2000/svg" xmlns:xlink="http://www.w3.org/1999/xlink" xml:space="preserve" style="fill-rule:evenodd;clip-rule:evenodd;stroke-linejoin:round;stroke-miterlimit:1.41421;">
    <g>
        <g id="noodles">
            <path d="M76,0C117.974,0 152,34.0264 152,76C152,117.974 117.974,152 76,152C34.0264,152 0,117.974 0,76C0,34.0264 34.0264,0 76,0Z" style="fill:rgb(82,194,209);"/>
            <path d="M76,9.31547C112.829,9.31547 142.685,39.1712 142.685,76C142.685,112.829 112.829,142.685 76,142.685C39.1712,142.685 9.31547,112.829 9.31547,76C9.31547,39.1712 39.1712,9.31547 76,9.31547Z" style="fill:rgb(71,134,209);"/>
            <g>
                <path d="M39.7554,93.3989C42.9592,87.963 48.2319,84.4097 53.9859,84.1189C55.0306,84.0702 55.9333,84.0945 56.7672,84.2019C57.7358,84.3215 58.7298,84.5616 59.7977,84.9315C61.2487,85.4198 62.6256,86.1108 63.9053,86.9933C63.3024,87.9042 62.7604,88.8404 62.274,89.801C61.354,89.1697 60.4016,88.6226 59.3864,88.2386C58.4248,87.8789 57.4288,87.6256 56.4116,87.4908C55.0123,87.3085 53.5776,87.3733 52.1429,87.6681C48.7152,88.3551 45.6239,90.4048 43.331,93.3999L48.8642,93.3999C50.0709,92.5508 51.4023,91.9469 52.8106,91.6622C53.8877,91.4424 54.9576,91.4049 55.9708,91.5265C56.7277,91.6349 57.4785,91.8203 58.1918,92.0857C59.0074,92.3917 59.7663,92.8619 60.509,93.3999L64.6753,93.3999C66.4697,89.036 69.6624,85.1523 74.008,82.1644C74.2968,82.5068 74.5856,82.8878 74.8824,83.3245C75.2857,83.9274 75.5988,84.5039 75.8744,85.0784C72.7456,87.3541 70.3797,90.2123 68.8508,93.3999L73.1488,93.3999C74.1539,91.8568 75.4326,90.4291 76.9656,89.1799C77.0041,89.6014 77.0081,90.0421 77.0041,90.5001C76.9828,91.5214 76.8106,92.4809 76.5583,93.3999L80.3963,93.3999C80.5726,92.487 80.6831,91.5467 80.6993,90.5872C80.7266,89.421 80.6405,88.2781 80.448,87.199C80.2737,86.2598 80.0458,85.3955 79.7469,84.5819C79.3102,83.3468 78.6921,82.1461 77.8501,80.8877C77.0963,79.7874 76.3597,78.911 75.5947,78.2058C74.5602,77.2513 73.3879,76.4661 72.0991,75.8774C70.6979,75.2452 69.2439,74.9138 67.7666,74.9007C66.4018,74.9007 65.2792,75.1013 64.2356,75.5309C62.0623,76.4154 60.2658,78.1399 58.9993,80.4946C58.3924,80.3467 57.7926,80.2403 57.1968,80.1643C56.5342,80.0762 55.8199,80.0468 55.0762,80.0417C56.8047,76.4458 59.588,73.7172 63.04,72.3008C65.9459,71.1092 69.1162,70.939 72.1832,71.8023C74.3079,72.4061 76.3141,73.47 78.0822,74.9919C78.0913,74.9919 78.2493,75.1378 78.2534,75.1428C79.7347,76.4255 81.0296,78.0173 82.1542,79.9363C82.1542,79.9373 82.2627,80.145 82.2627,80.1491C82.7987,81.141 83.2141,82.056 83.5292,82.9375C84.4806,85.6245 84.8301,88.4524 84.5627,91.3248L84.3762,93.3533L84.4998,93.3675C84.4573,93.3979 90.1708,93.3979 90.1708,93.3979C91.9044,91.5133 93.8599,88.9438 95.5317,85.6326C96.3585,86.0227 97.1528,86.4807 97.9067,87.0045C96.3656,89.6044 95.0008,91.718 93.8619,93.3979L98.4234,93.3979C99.1691,92.2398 99.9493,90.9895 100.808,89.5517C101.84,90.6895 102.703,91.9895 103.435,93.3979L107.594,93.3979C104.077,84.5768 95.6614,79.064 86.4746,80.2231C86.1737,79.5229 85.8393,78.8066 85.431,78.0487C85.3469,77.8836 85.2638,77.7225 85.2324,77.6819C85.0824,77.4246 84.9153,77.1885 84.7562,76.9382C90.6784,75.6879 96.7668,77.0223 101.975,80.7854C106.151,83.8048 109.47,88.2244 111.633,93.3989L115.692,93.3989C113.297,86.7958 109.225,81.1613 104.01,77.3891C97.7456,72.8631 90.3714,71.3443 83.2333,73.1053L83.0124,73.162C82.7379,73.237 82.4623,73.3069 82.1887,73.3981L82.0762,73.4356C81.5858,72.9127 81.0833,72.4112 80.5524,71.9502C80.5473,71.9431 80.2575,71.6928 80.2535,71.6868C78.1906,69.9217 75.7173,68.6025 73.1083,67.8629C69.2915,66.7879 65.3633,67.0077 61.7512,68.4931C57.0165,70.4283 53.2747,74.3282 51.2047,79.4743L50.8075,80.4622C44.3128,81.8624 38.6338,86.66 35.4918,93.3989ZM65.5224,79.3416C66.1455,79.0832 66.8558,78.9677 67.7565,78.9677C68.7403,78.9758 69.7252,79.2038 70.6817,79.6374C70.709,79.6486 70.7313,79.6668 70.7587,79.68C69.1041,80.9435 67.6086,82.3447 66.2823,83.8656C65.1404,83.0357 63.9377,82.3174 62.6742,81.7459C63.4463,80.6253 64.4119,79.7955 65.5224,79.3416ZM91.8943,84.4401C90.7625,86.5333 89.5051,88.274 88.3237,89.6571C88.3409,87.7978 88.1575,85.97 87.7502,84.1746C89.1667,84.0773 90.5517,84.1746 91.8943,84.4401ZM90.2924,110.485L60.6964,110.485C50.2877,110.485 39.4231,105.745 28.2848,99.1904C27.7022,98.85 27.7063,97.0596 29.0984,97.0596L122.12,97.0596C123.387,97.0596 123.552,98.3818 122.968,98.7263C112.01,105.195 97.9989,110.485 90.2924,110.485Z" style="fill:rgb(245,245,245);fill-rule:nonzero;"/>
                <g>
                    <path d="M82.5079,55.1714C83.3255,55.1714 83.979,54.5108 83.979,53.6931L83.979,40.0198C83.979,39.2052 83.3245,38.5466 82.5079,38.5466C81.6882,38.5466 81.0316,39.2052 81.0316,40.0198L81.0316,53.6931C81.0316,54.5108 81.6882,55.1714 82.5079,55.1714Z" style="fill:rgb(245,245,245);fill-rule:nonzero;"/>
                    <path d="M71.6331,69.254C72.4487,69.254 73.1042,68.6542 73.1042,67.9125L73.1042,41.0087C73.1042,40.2701 72.4487,39.6703 71.6331,39.6703C70.8134,39.6703 70.1588,40.2701 70.1588,41.0087L70.1588,67.9125C70.1588,68.6542 70.8144,69.254 71.6331,69.254Z" style="fill:rgb(245,245,245);fill-rule:nonzero;"/>
                    <path d="M120.654,41.7909C120.596,40.6592 119.633,39.7959 118.505,39.8547L86.3226,41.6025L86.3226,44.5945L118.714,43.942C119.843,43.8863 120.715,42.9186 120.654,41.7909Z" style="fill:rgb(245,245,245);fill-rule:nonzero;"/>
                    <path d="M120.845,49.542C120.883,48.4153 120.001,47.4669 118.871,47.4315L86.3236,47.6372L86.3236,50.5745L118.731,51.5127C119.858,51.5502 120.805,50.6697 120.845,49.542Z" style="fill:rgb(245,245,245);fill-rule:nonzero;"/>
                    <path d="M76.9899,54.7094C77.8238,54.7094 78.5006,54.0326 78.5006,53.1997L78.5006,40.5092C78.5006,39.6764 77.8238,39.0005 76.9899,39.0005C76.1581,39.0005 75.4802,39.6764 75.4802,40.5092L75.4802,53.1997C75.4792,54.0326 76.157,54.7094 76.9899,54.7094Z" style="fill:rgb(245,245,245);fill-rule:nonzero;"/>
                    <path d="M63.3774,48.849C63.3592,49.4761 63.7867,50.002 64.3339,50.0202L67.9125,50.1084L67.9125,47.7395L64.4018,47.7598C63.8587,47.7365 63.3956,48.2269 63.3774,48.849Z" style="fill:rgb(245,245,245);fill-rule:nonzero;"/>
                    <path d="M64.3835,44.9815L67.9125,44.9197L67.9125,42.4819L64.2599,42.6522C63.6145,42.6856 63.1221,43.2317 63.1596,43.8792C63.191,44.5134 63.7371,45.0129 64.3835,44.9815Z" style="fill:rgb(245,245,245);fill-rule:nonzero;"/>
                </g>
            </g>
        </g>
    </g>
</svg>
