<?xml version="1.0" standalone="no"?>
<!DOCTYPE svg PUBLIC "-//W3C//DTD SVG 1.1//EN" "http://www.w3.org/Graphics/SVG/1.1/DTD/svg11.dtd">
<svg width="152px" height="152px" version="1.1" xmlns="http://www.w3.org/2000/svg" xmlns:xlink="http://www.w3.org/1999/xlink" xml:space="preserve" style="fill-rule:evenodd;clip-rule:evenodd;stroke-linejoin:round;stroke-miterlimit:1.41421;">
    <g>
        <g id="train">
            <path d="M76,0C117.974,0 152,34.0264 152,76C152,117.974 117.974,152 76,152C34.0264,152 0,117.974 0,76C0,34.0264 34.0264,0 76,0Z" style="fill:rgb(82,194,209);"/>
            <path d="M75.999,9.31648C112.827,9.31648 142.683,39.1717 142.683,76C142.683,112.828 112.827,142.684 75.999,142.684C39.1707,142.684 9.31547,112.828 9.31547,76C9.31547,39.1717 39.1707,9.31648 75.999,9.31648Z" style="fill:rgb(75,130,196);"/>
            <g>
                <path d="M112.14,113.624L106.389,113.624L104.515,109.886L107.368,109.886C108.85,109.886 110.057,108.773 110.057,107.399C110.057,106.022 108.85,104.906 107.368,104.906L102.021,104.906L100.149,101.171L102.199,101.171C103.687,101.171 104.886,100.058 104.886,98.6858C104.886,97.3099 103.686,96.1943 102.199,96.1943L97.6554,96.1943L91.2499,83.4167C90.6206,82.1624 89.0259,81.6223 87.6803,82.2039C86.3307,82.7794 85.7451,84.2597 86.3682,85.507L91.7271,96.1953L58.3093,96.1953L63.6682,85.507C64.2913,84.2607 63.7057,82.7804 62.3581,82.2039C61.0126,81.6233 59.4117,82.1624 58.7845,83.4167L52.381,96.1943L47.8378,96.1943C46.3514,96.1943 45.1507,97.3099 45.1507,98.6858C45.1507,100.058 46.3524,101.171 47.8378,101.171L49.8875,101.171L48.0171,104.906L42.6684,104.906C41.186,104.906 39.9813,106.022 39.9813,107.399C39.9813,108.773 41.186,109.886 42.6684,109.886L45.5185,109.886L43.6502,113.624L37.9012,113.624C36.4148,113.624 35.2121,114.738 35.2121,116.11C35.2121,117.487 36.4158,118.603 37.9012,118.603L41.5954,118.603C41.7018,119.436 42.2489,120.2 43.1274,120.576C43.4931,120.738 43.8771,120.81 44.2571,120.81C45.2683,120.81 46.242,120.273 46.6989,119.369L47.0829,118.602L102.956,118.602L103.338,119.369C103.795,120.273 104.763,120.81 105.778,120.81C106.158,120.81 106.544,120.738 106.91,120.576C107.791,120.2 108.337,119.436 108.442,118.603L112.14,118.603C113.623,118.603 114.825,117.487 114.825,116.11C114.825,114.737 113.623,113.624 112.14,113.624ZM55.8158,101.171L94.2206,101.171L96.0889,104.906L53.9454,104.906ZM75.0314,113.624L49.5765,113.624L51.4529,109.886L98.5865,109.886L100.457,113.624Z" style="fill:white;fill-rule:nonzero;"/>
                <g>
                    <path d="M100.466,52.07C99.1002,49.8531 97.1984,47.8631 94.8204,46.1538L94.7475,46.0778C91.7119,41.1303 89.3247,37.7644 87.8394,36.3378C86.5769,35.125 83.6325,33.3478 80.8776,31.8047C80.9171,31.7206 80.9506,31.6375 80.986,31.5534C81.0195,31.4673 81.0509,31.3771 81.0813,31.289C81.3143,30.6253 81.447,29.9151 81.447,29.1744C81.447,25.6322 78.5634,22.7466 75.0192,22.7466C71.473,22.7466 68.5894,25.6322 68.5894,29.1744C68.5894,29.9404 68.7322,30.6719 68.9774,31.3549C69.0109,31.442 69.0413,31.5301 69.0747,31.6163C69.1102,31.7014 69.1517,31.7834 69.1892,31.8675C66.4677,33.3934 63.5871,35.1422 62.3419,36.3368C60.4462,38.1494 57.5545,42.6045 55.4632,46.0251L55.3903,46.1032C53.071,47.8084 51.1459,49.8156 49.6616,52.076C45.0271,59.1209 49.2127,85.1959 49.6636,87.9073L49.8733,87.9194C50.0618,87.9751 68.7322,93.3979 75.0891,93.3979C81.446,93.3979 100.116,87.9741 100.305,87.9194L100.382,87.9073L100.473,87.9073C101.043,84.3408 104.871,59.1999 100.466,52.07ZM70.2662,30.9577C70.2328,30.8695 70.2105,30.7783 70.1832,30.6871C70.0332,30.2069 69.9258,29.7043 69.9258,29.1744C69.9258,26.3668 72.2096,24.0851 75.0192,24.0851C77.8258,24.0851 80.1106,26.3678 80.1106,29.1744C80.1106,29.68 80.0113,30.1613 79.8755,30.6233C79.8482,30.7125 79.8239,30.8047 79.7904,30.8938C79.759,30.98 79.7408,31.0752 79.7053,31.1583C78.9292,32.9811 77.1206,34.2638 75.0192,34.2638C72.9371,34.2638 71.1508,33.0084 70.3625,31.2191C70.325,31.134 70.2997,31.0428 70.2662,30.9577ZM75.7356,37.8343C75.7974,37.0633 75.924,36.505 76.1236,36.2831C76.2462,36.1463 76.6839,35.8282 78.0568,35.8282C79.5706,35.8282 81.29,36.2213 82.0762,36.4837C84.0034,37.1302 87.2041,40.3309 88.6824,42.2965C88.7928,42.4445 88.9316,42.6228 89.0877,42.8193C91.6349,46.0849 91.8527,47.1458 91.5832,47.4609C91.2174,47.8955 90.2853,48.4113 87.9285,48.4113C83.7653,48.4113 77.9048,46.778 76.2928,46.3058C76.0537,44.707 75.8693,43.02 75.77,41.493C75.8348,40.2103 75.843,38.9256 75.7356,37.8343ZM71.9816,35.8282C73.3535,35.8282 73.7861,36.1463 73.9108,36.2851C74.1144,36.5111 74.2451,37.0734 74.314,37.8536C74.4012,38.806 74.3971,40.0796 74.3241,41.4991C74.2411,43.025 74.081,44.709 73.8611,46.3058C72.2288,46.78 66.3248,48.4113 62.1301,48.4113C59.7531,48.4113 58.8169,47.8955 58.4532,47.4609C58.1817,47.1437 58.3995,46.0809 60.9548,42.8112C61.1068,42.6167 61.2416,42.4455 61.3561,42.2945C62.8323,40.3309 66.032,37.1291 67.9602,36.4837C68.7444,36.2203 70.4618,35.8282 71.9816,35.8282ZM60.66,81.9698C58.2698,81.9698 56.3336,80.0326 56.3336,77.6444C56.3336,75.2553 58.2688,73.317 60.66,73.317C63.0461,73.317 64.9844,75.2553 64.9844,77.6444C64.9844,80.0316 63.0471,81.9698 60.66,81.9698ZM75.0192,68.0047C71.016,68.0047 67.7768,64.7645 67.7768,60.7643C67.7768,56.7632 71.016,53.5219 75.0192,53.5219C79.0143,53.5219 82.2596,56.7632 82.2596,60.7643C82.2606,64.7645 79.0153,68.0047 75.0192,68.0047ZM89.6419,81.7024C87.3996,81.7024 85.5809,79.8857 85.5809,77.6444C85.5809,75.3971 87.3996,73.5805 89.6419,73.5805C91.8821,73.5805 93.7049,75.3971 93.7049,77.6444C93.7049,79.8857 91.8821,81.7024 89.6419,81.7024Z" style="fill:white;fill-rule:nonzero;"/>
                    <path d="M75.0192,33.6163C76.8754,33.6163 78.4662,32.4674 79.1298,30.8452C79.1653,30.7581 79.1835,30.6649 79.2129,30.5757C79.2403,30.4886 79.2706,30.4004 79.298,30.3092C79.3932,29.9445 79.4601,29.5696 79.4601,29.1744C79.4601,26.7235 77.4671,24.7315 75.0192,24.7315C72.5693,24.7315 70.5763,26.7235 70.5763,29.1744C70.5763,29.5929 70.6513,29.9901 70.7607,30.3761C70.786,30.4653 70.8144,30.5544 70.8458,30.6446C70.8752,30.7297 70.8934,30.8249 70.9289,30.909C71.6077,32.4978 73.1833,33.6163 75.0192,33.6163ZM71.6695,30.1978C71.6422,30.1086 71.6077,30.0225 71.5844,29.9303C71.5327,29.6851 71.4993,29.4348 71.4993,29.1744C71.4993,27.2341 73.0789,25.6535 75.0202,25.6535C76.9575,25.6535 78.5371,27.2341 78.5371,29.1744C78.5371,29.4105 78.5138,29.6415 78.4662,29.8644C78.4499,29.9576 78.4145,30.0438 78.3892,30.1339C78.3618,30.2231 78.3375,30.3143 78.3061,30.3994C77.8055,31.7358 76.5248,32.6943 75.0212,32.6943C73.5349,32.6943 72.2704,31.7682 71.7536,30.4663C71.7161,30.3781 71.6969,30.2879 71.6695,30.1978Z" style="fill:white;fill-rule:nonzero;"/>
                </g>
            </g>
        </g>
    </g>
</svg>
