<?xml version="1.0" standalone="no"?>
<!DOCTYPE svg PUBLIC "-//W3C//DTD SVG 1.1//EN" "http://www.w3.org/Graphics/SVG/1.1/DTD/svg11.dtd">
<svg width="152px" height="152px" version="1.1" xmlns="http://www.w3.org/2000/svg" xmlns:xlink="http://www.w3.org/1999/xlink" xml:space="preserve" style="fill-rule:evenodd;clip-rule:evenodd;stroke-linejoin:round;stroke-miterlimit:1.41421;">
    <g>
        <g id="wallet">
            <path d="M76,0C117.974,0 152,34.0264 152,76C152,117.974 117.974,152 76,152C34.0264,152 0,117.974 0,76C0,34.0264 34.0264,0 76,0Z" style="fill:rgb(82,194,209);"/>
            <path d="M76.001,9.31648C112.829,9.31648 142.685,39.1717 142.685,76C142.685,112.828 112.829,142.684 76.001,142.684C39.1727,142.684 9.3175,112.828 9.3175,76C9.3175,39.1717 39.1727,9.31648 76.001,9.31648Z" style="fill:rgb(53,124,160);"/>
            <path d="M108.014,33.5707C108.303,33.1746 108.353,32.6659 108.135,32.2323C107.923,31.8047 107.472,31.5271 106.991,31.5271L72.2197,31.5271C71.7982,31.5271 71.396,31.7409 71.1589,32.0894C71.1386,32.1158 67.2246,37.9073 63.1484,45.5094C60.8961,49.7163 59.8038,53.6506 59.2911,56.8412L51.2564,56.8412C47.2116,56.8412 43.9045,60.1442 43.9045,64.187L43.9045,111.314C43.9045,115.361 47.2116,118.664 51.2564,118.664L97.7354,118.664C101.78,118.664 105.085,115.361 105.085,111.314L105.085,67.6258L54.5868,67.6258C51.7711,67.6258 49.4691,66.0847 49.4691,64.19C49.4691,62.3115 51.7701,60.7633 54.5868,60.7633L58.8889,60.7633C58.8747,61.1494 58.8656,61.5293 58.8656,61.8606C58.8656,63.3865 59.0024,64.2964 59.0105,64.3491C59.0976,64.9823 59.6356,65.4474 60.2689,65.4474L93.5509,65.4474C93.9409,65.4474 94.3027,65.265 94.5539,64.9651C94.789,64.6652 94.8802,64.2751 94.8032,63.884C94.8032,63.88 94.5934,62.9529 94.5934,61.2071C94.5934,61.0744 94.5995,60.9183 94.6056,60.7633L104.196,60.7633C102.956,58.4289 100.533,56.8392 97.7364,56.8392L95.0372,56.8392C95.5165,54.3244 96.476,51.3313 98.3616,48.1306C102.804,40.5568 108.008,33.5971 108.014,33.5707ZM91.4089,80.8644L105.085,80.8644L105.085,83.4349L91.4089,83.4349C86.3226,83.4349 82.4856,86.8444 82.4795,90.5325C82.4856,94.2267 86.3226,97.6371 91.4089,97.6371L105.085,97.6371L105.085,100.191L91.4089,100.191C85.2567,100.18 79.9667,96.0586 79.9191,90.5335C79.9667,85.0034 85.2567,80.8766 91.4089,80.8644ZM94.945,90.5325C94.945,92.337 93.4789,93.7991 91.6663,93.7991C89.8678,93.7991 88.4027,92.338 88.4027,90.5325C88.4027,88.7229 89.8668,87.2527 91.6663,87.2527C93.4789,87.2517 94.945,88.7229 94.945,90.5325ZM92.0381,61.2081C92.0381,61.8616 92.0614,62.423 92.0979,62.8779L61.4523,62.8779C61.4401,62.5942 61.427,62.2629 61.427,61.8606C61.427,58.8798 61.9711,53.1247 65.4048,46.7121C68.6704,40.6197 71.8438,35.6954 72.9067,34.0905L104.484,34.0905C102.595,36.7289 99.2127,41.6268 96.1568,46.8195C92.7008,52.7022 92.0381,58.0074 92.0381,61.2081ZM82.0702,47.5065C80.3011,45.9826 79.6202,45.0768 80.0062,43.8781C80.3173,42.9115 81.3558,42.0422 83.1746,42.6268C84.6822,43.1122 85.4756,43.9673 85.892,44.4091L86.9761,43.0362C86.3966,42.413 85.5536,41.723 84.1624,41.2195L84.899,38.9266L83.4167,38.4514L82.6568,40.8213C80.3852,40.4829 78.5168,41.5265 77.8896,43.483C77.229,45.5388 78.3588,47.1235 80.4703,48.8388C81.9901,50.1145 82.6568,51.2239 82.2414,52.5168C81.8077,53.8684 80.3619,54.4662 78.6789,53.9262C77.3547,53.5006 76.2807,52.6384 75.6271,51.8319L74.5623,53.2301C75.1874,54.0842 76.4478,54.9607 77.8076,55.4247L77.0497,57.7865L78.532,58.2627L79.3213,55.8006C81.8898,56.212 83.7379,54.8735 84.3418,52.991C85.0186,50.8845 84.1898,49.2877 82.0702,47.5065" style="fill:white;fill-rule:nonzero;"/>
        </g>
    </g>
</svg>
