<?xml version="1.0" standalone="no"?>
<!DOCTYPE svg PUBLIC "-//W3C//DTD SVG 1.1//EN" "http://www.w3.org/Graphics/SVG/1.1/DTD/svg11.dtd">
<svg width="152px" height="152px" version="1.1" xmlns="http://www.w3.org/2000/svg" xmlns:xlink="http://www.w3.org/1999/xlink" xml:space="preserve" style="fill-rule:evenodd;clip-rule:evenodd;stroke-linejoin:round;stroke-miterlimit:1.41421;">
    <g>
        <g id="turtle">
            <path d="M76,0C117.974,0 152,34.0264 152,76C152,117.974 117.974,152 76,152C34.0264,152 0,117.974 0,76C0,34.0264 34.0264,0 76,0Z" style="fill:rgb(149,198,162);"/>
            <path d="M76,9.31648C112.828,9.31648 142.684,39.1717 142.684,76C142.684,112.828 112.828,142.684 76,142.684C39.1717,142.684 9.31648,112.828 9.31648,76C9.31648,39.1717 39.1717,9.31648 76,9.31648Z" style="fill:rgb(92,155,117);"/>
            <path d="M111.251,66.7443C110.279,66.1394 109.363,65.7554 108.503,65.5548C108.702,66.2255 108.878,66.9044 109.028,67.5934C109.847,70.8002 109.936,74.1347 109.219,77.3303C108.993,78.4226 108.677,79.5006 108.262,80.5493C112.499,82.8432 114.696,82.3964 116.814,78.9859C119.193,75.1611 116.592,70.0646 111.251,66.7443ZM92.6734,49.4437C83.5687,43.7859 71.627,42.1516 62.1585,48.4822C60.4827,49.6666 58.9892,51.1196 57.7794,52.8684L48.85,65.7899C43.3351,73.7476 45.5114,84.587 51.3131,91.7423C51.3192,91.7463 52.3121,92.9024 52.4337,93.0351C52.5006,93.0746 53.1105,93.7332 53.2291,93.8528C53.3669,93.9845 53.5026,94.1162 53.6415,94.2459C53.7813,94.3766 53.9211,94.5043 54.0619,94.6309C54.2048,94.7566 54.3477,94.8822 54.4915,95.0058C54.6364,95.1274 54.7844,95.249 54.9292,95.3696C55.0772,95.4861 55.2281,95.6036 55.3781,95.7222C55.527,95.8367 55.6811,95.9522 55.833,96.0646C55.987,96.1741 56.1421,96.2855 56.2951,96.3939L56.2961,96.3939C56.4511,96.5013 56.6102,96.6087 56.7672,96.7131L56.7703,96.7131C56.9253,96.8174 57.0874,96.9178 57.2465,97.0191L57.2485,97.0191L65.6946,102.271L65.6977,102.271C65.8547,102.372 66.0219,102.469 66.183,102.564C66.3481,102.662 66.5113,102.754 66.6764,102.847C66.8426,102.938 67.0118,103.028 67.178,103.118C67.3482,103.204 67.5174,103.29 67.6866,103.373C67.8568,103.455 68.027,103.538 68.2013,103.617C68.3746,103.697 68.5458,103.773 68.7221,103.849C68.8964,103.922 69.0727,103.997 69.249,104.069C69.4232,104.138 69.6016,104.209 69.7789,104.275C69.9572,104.343 70.1365,104.407 70.3128,104.47C70.475,104.526 71.3331,104.781 71.399,104.823C80.3649,107.484 91.5062,105.209 96.8347,96.9441C96.86,96.9056 97.1356,96.4689 97.1315,96.4659C99.8692,91.8932 102.446,86.9285 105.048,82.2485C106.082,80.3892 106.724,78.4074 107.043,76.38C108.524,65.1394 101.776,55.1025 92.6734,49.4437ZM90.3684,53.147C86.3165,50.6292 81.5848,49.0526 76.8308,48.9017C71.5723,48.7365 65.9266,50.4103 62.1413,54.2028C61.5121,54.834 60.9285,55.5281 60.4006,56.289C58.2303,59.433 54.6942,63.8637 52.9829,67.0331C52.9555,67.0726 52.9271,67.1101 52.9018,67.1536C52.8805,67.184 52.8643,67.2165 52.8461,67.2479L52.7904,67.3391L52.7823,67.337C52.7589,67.3766 52.7346,67.4171 52.7164,67.4586L52.6607,67.5518L52.6708,67.5589L52.6688,67.562L52.6536,67.5518C52.6303,67.5893 52.609,67.6288 52.5897,67.6673C50.6758,70.9248 50.077,74.6585 50.5268,78.3344C52.299,92.7454 71.9542,104.728 85.4208,100.02C88.9539,98.7851 92.0655,96.5601 94.1385,93.3452L94.1446,93.3482C94.1659,93.3127 94.1861,93.2773 94.2074,93.2388L94.2662,93.1456L94.2702,93.1476C94.2935,93.1091 94.3168,93.0696 94.3351,93.0301L94.3949,92.9358L94.3807,92.9287L94.3847,92.9257L94.3999,92.9358C96.5206,89.4605 98.7618,85.1047 100.817,81.4075C102.152,79.0072 102.905,73.8175 102.651,71.3879C102.353,68.561 101.474,65.875 100.16,63.4108C97.9198,59.2151 94.4171,55.6648 90.3684,53.147ZM78.2189,92.798L78.3628,86.0389L87.6631,83.3286L93.8984,87.4584C94.0798,87.5729 94.2864,87.6276 94.4891,87.6246C92.025,92.0837 89.9489,95.6158 84.5789,97.5054L78.453,92.9227C78.3821,92.869 78.303,92.8274 78.2189,92.798ZM95.5783,85.6113C95.4993,85.4948 95.399,85.3904 95.2753,85.3114L88.4777,80.8178L86.4563,72.012L92.8659,68.7697L99.6332,71.8661C99.7699,71.9289 99.9159,71.9583 100.061,71.9634C100.252,74.0253 100.075,76.1094 99.4092,78.0639C99.1691,78.7701 98.8682,79.4591 98.5024,80.1167C97.553,81.826 96.5783,83.7288 95.5783,85.6113ZM99.5329,69.02L94.4435,66.6785L94.6218,60.123C95.8671,61.5101 96.9532,63.0319 97.8215,64.6571C98.544,66.0168 99.1316,67.4931 99.5329,69.02ZM92.102,57.6862C92.0787,57.7835 92.0685,57.8828 92.0706,57.9871L91.9226,66.4333L85.3712,69.7454L77.6981,64.9763L77.767,57.6366L85.2749,53.7651C85.3712,53.7205 85.4563,53.6648 85.5323,53.5999C86.7178,54.1197 87.8698,54.7256 88.9661,55.4065C90.0634,56.0873 91.1121,56.8513 92.102,57.6862ZM82.2343,52.4195L76.4205,55.4896L72.1761,51.9332C73.698,51.6282 75.2492,51.5046 76.7478,51.5512C78.5918,51.61 80.4379,51.9129 82.2343,52.4195ZM69.1821,52.7975C69.2297,52.8745 69.2885,52.9454 69.3584,53.0031L74.9686,57.7267C75.0537,57.7987 75.153,57.8524 75.2553,57.8868L75.1844,65.0077L66.3836,67.0898C66.3603,67.0716 66.3319,67.0533 66.3066,67.0392L59.3114,62.96C59.2668,62.9336 59.2202,62.9103 59.1706,62.8901C60.3337,61.1483 61.4797,59.3914 62.5841,57.7936C63.0137,57.1745 63.496,56.599 64.0228,56.0722C65.4687,54.6202 67.2499,53.5391 69.1821,52.7975ZM57.7723,64.9611C57.8372,65.033 57.9152,65.0958 58.0043,65.1485L64.497,68.9288L66.1881,78.4732L60.2131,81.5818L60.1969,81.5747L53.1774,77.9494L53.1511,77.9362C52.382,71.4537 54.7357,69.3706 57.7723,64.9611ZM53.9019,81.1978L58.4674,83.5555L58.6437,87.7026L58.6974,88.9407C56.5301,86.5982 54.8482,83.9608 53.9019,81.1978ZM72.2724,97.4L73.4285,96.8904L77.0872,95.2713L81.1279,98.2957C78.2767,98.6352 75.2482,98.2866 72.2724,97.4ZM68.871,96.1447C68.7393,96.0859 68.6036,96.0271 68.4728,95.9674L65.0695,93.8518L61.737,91.7818C61.6002,91.6683 61.4655,91.5558 61.3297,91.4444L61.1716,87.6894L61.0136,83.9892L67.2651,80.757L75.8379,86.0855L75.7082,93.1233L72.321,94.6198ZM85.9011,81.3133L77.1267,83.7693L68.7697,78.5756L67.0837,69.6178L76.4002,67.2844L83.8737,71.9299ZM73.7861,107.782C73.086,110.108 72.5166,112.342 72.5926,112.95C73.0718,116.753 77.3111,119.348 82.0641,118.753C84.6174,118.432 87.0035,117.618 88.6023,115.735C91.1151,112.779 88.3612,110.237 89.0522,108.602C89.5061,107.688 89.8212,106.746 90.0016,105.812C85.1209,108.141 79.3041,108.8 73.7861,107.782ZM48.6615,92.2661C46.9077,93.8994 45.1913,95.3655 44.6178,95.5631C40.9966,96.8174 36.7907,94.1649 35.2253,89.6388C34.3813,87.2081 34.0551,84.7065 35.0369,82.44C36.5729,78.8775 40.0715,80.2231 41.2286,78.8795C41.797,78.1369 42.4343,77.4894 43.1172,76.9443C43.253,82.3376 45.2804,87.811 48.6615,92.2661ZM55.8037,98.778C54.6172,103.253 53.4277,108.055 53.6465,108.721C53.84,109.307 54.2666,109.864 54.8826,110.246C55.4987,110.629 56.1856,110.766 56.7996,110.679C57.4947,110.583 61.273,107.388 64.7584,104.345ZM68.9359,40.4444C69.8387,41.0057 70.5489,41.6055 71.095,42.2347C67.561,42.8234 64.11,44.1173 60.9214,46.2491C59.7521,47.0758 58.6639,48.0242 57.6913,49.1013C53.9312,46.3828 53.4115,44.2277 55.4956,40.874C57.8736,37.0491 63.5942,37.1261 68.9359,40.4444ZM100.787,36.2517C99.0435,35.1676 95.021,36.1007 93.5306,36.7492C91.338,37.7026 89.3724,39.3461 87.9812,41.5822C87.5222,42.3239 87.1463,43.0959 86.8545,43.8822C89.3075,44.7667 91.6673,45.9188 93.8731,47.2896C96.1447,48.701 98.2805,50.3647 100.2,52.2392C100.789,51.6211 101.328,50.9301 101.8,50.1712C103.191,47.9371 103.791,45.4486 103.679,43.0625C103.597,41.3137 102.691,37.4351 100.787,36.2517Z" style="fill:white;"/>
        </g>
    </g>
</svg>
