<?xml version="1.0" standalone="no"?>
<!DOCTYPE svg PUBLIC "-//W3C//DTD SVG 1.1//EN" "http://www.w3.org/Graphics/SVG/1.1/DTD/svg11.dtd">
<svg width="152px" height="152px" version="1.1" xmlns="http://www.w3.org/2000/svg" xmlns:xlink="http://www.w3.org/1999/xlink" xml:space="preserve" style="fill-rule:evenodd;clip-rule:evenodd;stroke-linejoin:round;stroke-miterlimit:1.41421;">
    <g>
        <g id="gift">
            <g>
                <path d="M76,0C117.974,0 152,34.0264 152,76C152,117.974 117.974,152 76,152C34.0264,152 0,117.974 0,76C0,34.0264 34.0264,0 76,0Z" style="fill:rgb(149,198,162);"/>
                <path d="M76,9.31547C112.829,9.31547 142.685,39.1712 142.685,76C142.685,112.829 112.829,142.685 76,142.685C39.1712,142.685 9.31547,112.829 9.31547,76C9.31547,39.1712 39.1712,9.31547 76,9.31547Z" style="fill:rgb(82,178,89);"/>
            </g>
            <g>
                <g>
                    <path d="M72.7,52.8937L72.7,49.6119C72.7,49.6119 46.5166,29.3477 51.9626,52.8937Z" style="fill:rgb(245,245,245);fill-rule:nonzero;"/>
                    <path d="M80.4875,49.6119L80.4875,52.8937L101.225,52.8937C106.706,29.3477 80.4875,49.6119 80.4875,49.6119Z" style="fill:rgb(245,245,245);fill-rule:nonzero;"/>
                    <rect x="74.079" y="49.1935" width="4.66077" height="3.70025" style="fill:rgb(245,245,245);"/>
                </g>
                <path d="M107.334,55.8979L39.9195,55.8979L39.9195,69.2682L44.6158,69.2682L44.6158,109.294L107.334,109.294L107.334,69.2682L112.081,69.2682L112.081,55.8979ZM105.972,80.6506L79.4388,80.6506L79.4388,107.358L73.3991,107.358L73.3991,80.6506L46.1336,80.6506L46.1336,74.6099L73.3991,74.6099L73.3991,57.8878L79.4388,57.8878L79.4388,74.6099L105.973,74.6099L105.973,80.6506Z" style="fill:rgb(245,245,245);fill-rule:nonzero;"/>
            </g>
        </g>
    </g>
</svg>
