<?xml version="1.0" standalone="no"?>
<!DOCTYPE svg PUBLIC "-//W3C//DTD SVG 1.1//EN" "http://www.w3.org/Graphics/SVG/1.1/DTD/svg11.dtd">
<svg width="152px" height="152px" version="1.1" xmlns="http://www.w3.org/2000/svg" xmlns:xlink="http://www.w3.org/1999/xlink" xml:space="preserve" style="fill-rule:evenodd;clip-rule:evenodd;stroke-linejoin:round;stroke-miterlimit:1.41421;">
    <g>
        <g id="taxi">
            <path d="M76,0C117.974,0 152,34.0264 152,76C152,117.974 117.974,152 76,152C34.0264,152 0,117.974 0,76C0,34.0264 34.0264,0 76,0Z" style="fill:rgb(149,198,162);"/>
            <path d="M76.001,9.31648C112.829,9.31648 142.685,39.1717 142.685,76C142.685,112.828 112.829,142.684 76.001,142.684C39.1727,142.684 9.3175,112.828 9.3175,76C9.3175,39.1717 39.1727,9.31648 76.001,9.31648Z" style="fill:rgb(96,173,101);"/>
            <path d="M110.127,73.7598L108.676,73.7598L98.0779,44.6006L83.8848,44.6006L83.8848,38.1545L64.5467,38.1545L64.5467,44.6006L50.3566,44.6006L39.7169,73.8591C35.506,74.464 32.2678,78.0811 32.2678,82.4592L32.2678,92.0665C32.2678,96.8732 36.1636,100.769 40.9672,100.769L41.7828,100.769L41.7828,104.3C41.7828,108.45 45.1487,111.819 49.3009,111.819C53.4571,111.819 56.825,108.45 56.825,104.3L56.825,100.769L94.2682,100.769L94.2682,104.3C94.2682,108.45 97.6382,111.819 101.794,111.819C105.943,111.819 109.308,108.45 109.308,104.3L109.308,100.769L110.127,100.769C114.933,100.769 118.825,96.8732 118.825,92.0665L118.825,82.4592C118.825,77.6546 114.933,73.7598 110.127,73.7598ZM41.9358,91.1009C38.2092,91.1009 35.1868,88.0775 35.1868,84.3489C35.1868,80.6213 38.2092,77.5948 41.9358,77.5948C45.6675,77.5948 48.6909,80.6213 48.6909,84.3489C48.6909,88.0775 45.6675,91.1009 41.9358,91.1009ZM55.5564,70.3503L55.5564,72.6838L54.7833,72.6838L54.7833,69.8012C54.9232,69.8336 55.063,69.8478 55.2079,69.8478L55.6081,69.8478C55.5787,70.0109 55.5564,70.175 55.5564,70.3503ZM68.6836,72.6838L67.9095,72.6838L67.9095,70.3503C67.9095,70.175 67.8882,70.0109 67.8588,69.8478L68.6826,69.8478L68.6826,72.6838ZM73.4974,72.6838L73.4974,65.7595L73.4558,65.7595C73.2431,63.3946 71.2815,61.5374 68.865,61.5374L54.605,61.5374C52.1865,61.5374 50.2239,63.3946 50.0121,65.7595L49.9686,65.7595L49.9686,72.6838L42.9237,72.6838C44.7981,67.5366 51.2097,49.9027 52.1875,47.2106L96.247,47.2106C97.2268,49.9017 103.638,67.5366 105.512,72.6838ZM109.158,91.1009C105.428,91.1009 102.404,88.0775 102.404,84.3489C102.404,80.6213 105.428,77.5948 109.158,77.5948C112.889,77.5948 115.91,80.6213 115.91,84.3489C115.91,88.0775 112.888,91.1009 109.158,91.1009ZM61.734,49.8186C58.7227,49.8186 56.2819,52.2564 56.2819,55.2666C56.2819,58.2789 58.7227,60.7208 61.734,60.7208C64.7452,60.7208 67.184,58.2789 67.184,55.2666C67.184,52.2564 64.7452,49.8186 61.734,49.8186Z" style="fill:white;fill-rule:nonzero;"/>
        </g>
    </g>
</svg>
