<?xml version="1.0" standalone="no"?>
<!DOCTYPE svg PUBLIC "-//W3C//DTD SVG 1.1//EN" "http://www.w3.org/Graphics/SVG/1.1/DTD/svg11.dtd">
<svg width="152px" height="152px" version="1.1" xmlns="http://www.w3.org/2000/svg" xmlns:xlink="http://www.w3.org/1999/xlink" xml:space="preserve" style="fill-rule:evenodd;clip-rule:evenodd;stroke-linejoin:round;stroke-miterlimit:1.41421;">
    <g>
        <g id="cleanup">
            <path d="M76,0C117.974,0 152,34.0264 152,76C152,117.974 117.974,152 76,152C34.0264,152 0,117.974 0,76C0,34.0264 34.0264,0 76,0Z" style="fill:rgb(149,198,162);"/>
            <path d="M76,9.31737C112.828,9.31737 142.683,39.1722 142.683,76C142.683,112.828 112.828,142.683 76,142.683C39.1722,142.683 9.31737,112.828 9.31737,76C9.31737,39.1722 39.1722,9.31737 76,9.31737Z" style="fill:rgb(64,155,101);"/>
            <g>
                <path d="M83.2981,96.5649L81.1845,88.1685C81.1845,88.1685 81.8847,75.5613 68.2622,69.6969L49.4431,69.6969C35.8226,75.5603 36.5065,88.1685 36.5065,88.1685L34.3748,96.5649L34.47,96.8992L83.218,96.8992Z" style="fill:rgb(245,245,245);fill-rule:nonzero;"/>
                <path d="M35.8064,103.761L81.8857,103.761L83.2981,99.8041L34.3758,99.8041Z" style="fill:rgb(245,245,245);fill-rule:nonzero;"/>
                <path d="M62.6521,58.8597L62.6521,44.7925C62.6521,42.7104 60.952,41.0102 58.8526,41.0102C56.7705,41.0102 55.0531,42.7114 55.0531,44.7925L55.0531,58.8597L55.0055,58.8597C49.4745,61.26 49.746,66.8062 49.746,66.8062L67.8985,66.8062C67.8985,66.8062 68.1994,61.26 62.6521,58.8597ZM60.491,48.9902C60.491,49.9112 59.7584,50.6103 58.8526,50.6103C57.9803,50.6103 57.2639,49.9122 57.2639,48.9902L57.2639,44.3001C57.2639,43.3791 57.9803,42.6638 58.8526,42.6638C59.7594,42.6638 60.491,43.3791 60.491,44.3001Z" style="fill:rgb(245,245,245);fill-rule:nonzero;"/>
                <path d="M88.6548,113.314L91.2294,113.314L90.8494,114.475L93.9326,114.475L94.4726,113.314L96.9529,113.314L96.3805,114.475L99.034,114.475L99.6693,113.314L102.436,113.314L101.801,114.475L104.233,114.475L104.805,113.314L107.22,113.314L106.855,114.475L108.794,114.475L109,113.362L111.321,113.314L111.527,114.475L113.704,114.475L108.65,92.2659L90.278,92.2659L85.6831,114.475L88.1462,114.475Z" style="fill:rgb(245,245,245);fill-rule:nonzero;"/>
                <path d="M100.815,80.989L100.815,29.0099L98.5416,29.0099L98.5416,80.989C98.0968,81.3385 97.8273,81.8482 97.8273,82.45L97.8273,83.6588L101.561,83.6588L101.561,82.45C101.562,81.8472 101.276,81.3385 100.815,80.989Z" style="fill:rgb(245,245,245);fill-rule:nonzero;"/>
                <path d="M107.762,85.4987L91.581,85.4987C90.5161,85.4987 89.6255,86.3893 89.6255,87.4856L89.6255,89.4725L109.75,89.4725L109.75,87.4856C109.749,86.3893 108.858,85.4987 107.762,85.4987Z" style="fill:rgb(245,245,245);fill-rule:nonzero;"/>
            </g>
        </g>
    </g>
</svg>
