<?xml version="1.0" standalone="no"?>
<!DOCTYPE svg PUBLIC "-//W3C//DTD SVG 1.1//EN" "http://www.w3.org/Graphics/SVG/1.1/DTD/svg11.dtd">
<svg width="152px" height="152px" version="1.1" xmlns="http://www.w3.org/2000/svg" xmlns:xlink="http://www.w3.org/1999/xlink" xml:space="preserve" style="fill-rule:evenodd;clip-rule:evenodd;stroke-linejoin:round;stroke-miterlimit:1.41421;">
    <g>
        <g id="pictures">
            <path d="M76,0C117.974,0 152,34.0264 152,76C152,117.974 117.974,152 76,152C34.0264,152 0,117.974 0,76C0,34.0264 34.0264,0 76,0Z" style="fill:rgb(149,198,162);"/>
            <path d="M76.001,9.31648C112.829,9.31648 142.685,39.1717 142.685,76C142.685,112.828 112.829,142.684 76.001,142.684C39.1727,142.684 9.3175,112.828 9.3175,76C9.3175,39.1717 39.1727,9.31648 76.001,9.31648Z" style="fill:rgb(70,178,114);"/>
            <g>
                <path d="M93.7484,53.0578L40.3228,53.0578C39.8071,53.0578 39.3896,53.4753 39.3896,53.991L39.3896,110.992C39.3896,111.509 39.8071,111.925 40.3228,111.925L93.7484,111.925C94.2652,111.925 94.6826,111.509 94.6826,110.992L94.6826,53.991C94.6816,53.4763 94.2642,53.0578 93.7484,53.0578ZM43.0534,93.6451L43.0534,58.9456L91.0168,58.9456L91.0168,93.6451Z" style="fill:white;fill-rule:nonzero;"/>
                <path d="M77.8157,68.1567C77.6789,67.8183 77.3577,67.5903 76.9919,67.5731C76.6414,67.5458 76.2878,67.7535 76.1206,68.0787L70.8053,78.3881L68.5803,72.2987C68.4637,71.9796 68.1831,71.7486 67.8467,71.6959C67.5093,71.6452 67.1729,71.779 66.9652,72.0485L58.4562,83.052L54.3477,80.5341C53.9201,80.2717 53.3598,80.3953 53.0832,80.8128L48.2015,88.1707C48.011,88.4574 47.9938,88.8252 48.1559,89.1282C48.318,89.4311 48.6352,89.6196 48.9787,89.6196L85.0936,89.6196C85.4046,89.6196 85.6934,89.4666 85.8677,89.2092C86.0419,88.9519 86.0754,88.6246 85.9609,88.3379Z" style="fill:white;fill-rule:nonzero;"/>
                <path d="M54.7783,74.927C57.3427,74.927 59.4299,72.8408 59.4299,70.2774C59.4299,67.7129 57.3427,65.6257 54.7783,65.6257C52.2138,65.6257 50.1266,67.7129 50.1266,70.2774C50.1266,72.8418 52.2128,74.927 54.7783,74.927Z" style="fill:white;fill-rule:nonzero;"/>
                <path d="M119.168,51.1216C119.044,50.9078 118.841,50.7508 118.6,50.6869L63.5415,35.9346C63.0451,35.7998 62.5344,36.0936 62.3997,36.5891L59.4624,49.0648C59.3864,49.3454 59.4441,49.6464 59.6224,49.8784C59.7987,50.1094 60.0723,50.2442 60.3631,50.2442L65.493,50.2442C65.9125,50.2442 66.2803,49.9645 66.3927,49.5592L67.6076,43.0311L111.296,54.7398L102.651,87.4533L99.2005,85.9578C98.9209,85.8808 98.6159,85.9366 98.3839,86.1129C98.1518,86.2892 98.0141,86.5648 98.0141,86.8566L98.0303,104.862C98.0303,105.282 98.3109,105.651 98.7162,105.761L103.359,107.548C103.44,107.57 103.523,107.582 103.606,107.582C103.767,107.582 103.927,107.539 104.07,107.457C104.286,107.335 104.444,107.13 104.508,106.889L119.262,51.8288C119.326,51.5917 119.293,51.3364 119.168,51.1216Z" style="fill:white;fill-rule:nonzero;"/>
            </g>
        </g>
    </g>
</svg>
