<?xml version="1.0" standalone="no"?>
<!DOCTYPE svg PUBLIC "-//W3C//DTD SVG 1.1//EN" "http://www.w3.org/Graphics/SVG/1.1/DTD/svg11.dtd">
<svg width="152px" height="152px" version="1.1" xmlns="http://www.w3.org/2000/svg" xmlns:xlink="http://www.w3.org/1999/xlink" xml:space="preserve" style="fill-rule:evenodd;clip-rule:evenodd;stroke-linejoin:round;stroke-miterlimit:1.41421;">
    <g>
        <g id="hamburger">
            <g>
                <path d="M76,-2.22045e-16C117.974,-2.22045e-16 152,34.0264 152,76C152,117.974 117.974,152 76,152C34.0264,152 -2.22045e-16,117.974 -2.22045e-16,76C-2.22045e-16,34.0264 34.0264,-2.22045e-16 76,-2.22045e-16Z" style="fill:rgb(182,201,103);"/>
                <path d="M76,9.31737C112.828,9.31737 142.683,39.1722 142.683,76C142.683,112.828 112.828,142.683 76,142.683C39.1722,142.683 9.31737,112.828 9.31737,76C9.31737,39.1722 39.1722,9.31737 76,9.31737Z" style="fill:rgb(150,155,52);"/>
            </g>
            <path d="M112.913,82.5878C112.913,84.9628 110.758,86.9081 108.123,86.9081L45.8675,86.9081C43.2281,86.9081 41.073,84.9628 41.073,82.5878C41.073,80.2098 43.2281,78.2665 45.8675,78.2665L69.0505,78.2665C71.5622,79.3871 81.1136,83.6456 83.1319,84.5514C83.7712,84.8402 84.6851,84.9668 85.1401,84.5261C88.2941,81.4642 90.8231,78.2848 93.1524,78.2848C93.2355,78.2848 93.273,78.2756 93.3166,78.2665L108.122,78.2665C110.758,78.2665 112.913,80.2098 112.913,82.5878ZM110.766,91.6651C109.266,91.6651 43.8239,91.6651 43.1552,91.6651C42.4034,91.6651 40.7174,92.1787 41.1429,93.9235C42.6506,99.334 45.4865,103.35 51.51,103.35L102.361,103.35C108.453,103.35 111.33,99.2397 112.772,93.7411C113.295,92.4472 112.267,91.6651 110.766,91.6651ZM111.727,61.4312C111.727,64.1952 110.228,65.0159 109.238,65.0159C108.248,65.0159 44.6901,65.0159 42.8157,65.0159C40.9575,65.0159 39.7386,64.2317 40.382,61.9854C40.382,51.4006 58.802,43.7529 76.1783,43.7529C93.2456,43.7529 111.727,51.5738 111.727,61.4312ZM66.5884,57.963C66.4435,56.8647 65.4506,56.0633 64.3381,56.2143C63.8102,56.2872 63.3431,56.5669 63.0199,56.9995C62.6977,57.4402 62.5589,57.9813 62.6319,58.5284C62.7666,59.5396 63.6157,60.2964 64.6025,60.2964C64.6957,60.2964 64.789,60.2914 64.8812,60.2772C65.4111,60.1992 65.8802,59.9236 66.2034,59.4818C66.5286,59.0482 66.6614,58.5071 66.5884,57.963ZM72.4457,50.3286C72.3008,49.2272 71.3059,48.4207 70.1934,48.5768C69.6685,48.6518 69.2004,48.9314 68.8772,49.3691C68.555,49.8048 68.4122,50.3489 68.4871,50.8909C68.6219,51.8991 69.4689,52.661 70.4558,52.661C70.549,52.661 70.6422,52.6559 70.7344,52.6417C71.2684,52.5668 71.7395,52.2841 72.0627,51.8443C72.3869,51.4097 72.5227,50.8696 72.4457,50.3286ZM77.4073,57.963C77.2645,56.8647 76.2695,56.0481 75.159,56.2112C74.6291,56.2872 74.16,56.5669 73.8388,57.0066C73.5146,57.4453 73.3758,57.9843 73.4508,58.5284C73.5835,59.5396 74.4387,60.2964 75.4235,60.2964C75.5147,60.2964 75.6099,60.2914 75.7062,60.2772C76.233,60.1992 76.6991,59.9236 77.0243,59.4818C77.3476,59.0482 77.4823,58.5071 77.4073,57.963ZM82.372,50.3326C82.2251,49.2272 81.2322,48.4197 80.1197,48.5778C79.5898,48.6528 79.1227,48.9344 78.8015,49.3742C78.4773,49.8088 78.3405,50.3499 78.4195,50.8919C78.5482,51.9001 79.3932,52.662 80.3841,52.662C80.4753,52.662 80.5685,52.6569 80.6587,52.6427C81.1926,52.5678 81.6658,52.2871 81.9829,51.8484C82.3112,51.4097 82.4429,50.8696 82.372,50.3326ZM88.2273,57.963C88.0804,56.8647 87.0834,56.0481 85.9749,56.2112C85.445,56.2872 84.98,56.5669 84.6547,57.0066C84.3325,57.4423 84.1978,57.9843 84.2667,58.5244C84.3994,59.5396 85.2464,60.2964 86.2394,60.2964C86.3326,60.2964 86.4278,60.2914 86.518,60.2772C87.0479,60.1992 87.517,59.9236 87.8443,59.4818C88.1665,59.0482 88.3012,58.5071 88.2273,57.963ZM112.655,71.3981C112.655,70.0748 111.585,69.0049 110.263,69.0049L43.1085,69.0049C41.7863,69.0049 40.7164,70.0758 40.7164,71.3981C40.7164,72.7193 41.7873,73.7922 43.1085,73.7922L110.262,73.7922C111.585,73.7922 112.655,72.7193 112.655,71.3981Z" style="fill:white;fill-rule:nonzero;"/>
        </g>
    </g>
</svg>
