<?xml version="1.0" standalone="no"?>
<!DOCTYPE svg PUBLIC "-//W3C//DTD SVG 1.1//EN" "http://www.w3.org/Graphics/SVG/1.1/DTD/svg11.dtd">
<svg width="152px" height="152px" version="1.1" xmlns="http://www.w3.org/2000/svg" xmlns:xlink="http://www.w3.org/1999/xlink" xml:space="preserve" style="fill-rule:evenodd;clip-rule:evenodd;stroke-linejoin:round;stroke-miterlimit:1.41421;">
    <g>
        <g id="shoe">
            <path d="M76,0C117.974,0 152,34.0264 152,76C152,117.974 117.974,152 76,152C34.0264,152 0,117.974 0,76C0,34.0264 34.0264,0 76,0Z" style="fill:rgb(255,191,163);"/>
            <path d="M76,9.31648C112.828,9.31648 142.684,39.1717 142.684,76C142.684,112.828 112.828,142.684 76,142.684C39.1717,142.684 9.31648,112.828 9.31648,76C9.31648,39.1717 39.1717,9.31648 76,9.31648Z" style="fill:rgb(196,116,95);"/>
            <g>
                <path d="M122.479,90.2772L33.2415,88.4767C32.0844,88.4534 31.1107,88.7938 31.1026,89.2396L31.0012,94.2236C31.2393,94.5894 31.4714,94.9612 31.7247,95.3169C31.7308,95.2541 32.8564,96.5864 32.9041,96.633C33.0054,96.7303 33.0804,96.8053 33.1503,96.8782L39.3694,97.0039C39.8618,96.8012 40.3593,96.6199 40.8578,96.4588C42.104,95.4395 43.7586,94.8103 45.8306,94.8518C47.6199,94.8873 49.0769,95.4131 50.2178,96.243C50.5349,96.3372 50.849,96.4233 51.1652,96.5388C51.7792,96.7668 52.383,97.0181 52.9849,97.2774L60.1838,97.4233C60.5799,95.7921 62.0886,94.5651 63.8232,94.5995C65.5589,94.634 67.0148,95.9218 67.3462,97.5682L69.6279,97.6148C69.865,95.9734 71.0576,94.4921 73.1995,94.5357C75.3404,94.5793 76.4722,96.1072 76.6434,97.7567L79.2311,97.8094C79.376,96.0697 80.5767,94.4323 82.828,94.4779C85.0794,94.5225 86.2132,96.2085 86.2871,97.9522L88.5821,97.9989C88.6236,96.168 89.8425,94.3665 92.2033,94.4141C94.5651,94.4617 95.71,96.3119 95.6786,98.1417L97.9705,98.1883C97.9016,96.2744 99.1093,94.3006 101.581,94.3503C104.051,94.3999 105.178,96.4223 105.031,98.3312L107.087,98.3727C107.019,96.4588 108.226,94.485 110.697,94.5347C113.168,94.5843 114.295,96.6067 114.147,98.5156L118.108,98.5956C120.747,97.2136 122.779,95.2622 124.543,93.0392L124.581,91.1283C124.589,90.6794 123.636,90.3005 122.479,90.2772Z" style="fill:white;fill-rule:nonzero;"/>
                <path d="M92.7889,71.6503C97.1538,72.6757 101.936,73.1194 105.95,71.2227C94.3574,67.6856 78.9495,60.9629 70.0038,48.8054C70.0038,48.8054 62.9306,40.5021 68.1902,59.4735C75.8673,64.4899 83.6791,69.5114 92.7889,71.6503Z" style="fill:white;fill-rule:nonzero;"/>
                <path d="M121.245,74.7467C121.245,74.7467 115.832,74.0374 108.31,71.9168C105.312,73.7659 101.889,74.7771 98.2592,74.464C87.2304,73.5126 77.6009,67.8234 68.5083,61.9559C68.3584,63.808 67.6886,67.3249 64.8496,69.0484C63.4027,70.2085 61.4969,70.935 59.1219,70.935C57.3802,70.935 55.8969,70.5378 54.6567,69.8731C52.6992,69.1699 51.0253,67.8335 49.8956,66.1141C49.3495,65.5913 48.8682,65.0401 48.4589,64.4524C46.5054,62.2517 44.1041,58.6629 41.8446,52.8795C41.8446,52.8795 39.3876,47.6797 35.4604,48.7041C33.9011,49.1722 31.9993,50.9463 31.7571,56.829L31.7034,59.5201C31.7034,59.5201 37.1991,61.0531 42.1354,59.7298C47.0728,58.4076 39.0492,63.6733 36.5739,63.9185C34.0996,64.1626 31.6163,63.8182 31.6163,63.8182L31.1958,84.6498L124.674,86.5364C124.673,86.5364 132.413,77.6556 121.245,74.7467Z" style="fill:white;fill-rule:nonzero;"/>
            </g>
        </g>
    </g>
</svg>
