<?xml version="1.0" standalone="no"?>
<!DOCTYPE svg PUBLIC "-//W3C//DTD SVG 1.1//EN" "http://www.w3.org/Graphics/SVG/1.1/DTD/svg11.dtd">
<svg width="152px" height="152px" version="1.1" xmlns="http://www.w3.org/2000/svg" xmlns:xlink="http://www.w3.org/1999/xlink" xml:space="preserve" style="fill-rule:evenodd;clip-rule:evenodd;stroke-linejoin:round;stroke-miterlimit:1.41421;">
    <g>
        <g id="G clef">
            <path d="M76,-0.009C117.974,-0.009 152,34.0174 152,75.991C152,117.965 117.974,151.991 76,151.991C34.0264,151.991 0,117.965 0,75.991C0,34.0174 34.0264,-0.009 76,-0.009Z" style="fill:rgb(255,191,163);"/>
            <path d="M76,9.30647C112.829,9.30647 142.685,39.1622 142.685,75.991C142.685,112.82 112.829,142.676 76,142.676C39.1712,142.676 9.31547,112.82 9.31547,75.991C9.31547,39.1622 39.1712,9.30647 76,9.30647Z" style="fill:rgb(224,126,142);"/>
            <path d="M100.454,92.5297C100.42,81.3499 90.114,73.1692 78.9657,75.0842C78.2807,71.8733 77.6607,68.6493 77.1247,65.4202C83.9284,60.8941 91.2823,53.2414 94.2165,45.8611C98.5288,35.0127 89.1322,16.5631 76.6181,23.5401C67.6886,28.519 69.6836,43.4466 70.5347,51.5898C70.6198,52.3771 70.8934,54.366 70.7961,54.4319C67.6927,56.4532 49.2553,68.2997 50.0192,84.8394C50.7416,100.313 61.7441,111.839 80.3396,109.851C82.3488,118.021 79.294,126.046 71.1781,128.956C80.3426,124.305 72.931,111.397 63.7726,115.432C55.5635,119.051 59.7957,128.416 69.2409,131.164C75.8318,133.346 83.5261,130.681 84.9841,120.146C85.431,117.971 84.7288,110.713 84.6184,109.354C92.4292,107.401 100.477,100.813 100.454,92.5297ZM77.2361,32.3621C79.1349,29.1441 82.1705,26.911 85.432,28.2545C96.8357,32.9599 82.6153,49.0355 75.2604,52.5716C74.8024,45.6078 74.2532,38.8629 77.2361,32.3621ZM72.9016,67.628C73.1944,69.3676 74.0455,75.6181 74.0455,75.6181C63.0309,77.6243 55.6861,96.4771 72.1052,99.153C65.5092,95.9371 67.336,87.2508 73.0323,84.3237C74.163,83.7441 75.2593,83.1929 76.5674,83.0278C76.7103,83.5992 80.0306,105.141 80.0427,105.209C49.9169,103.39 53.2939,78.3123 72.9016,67.628ZM83.9213,104.137C83.82,104.096 79.4378,83.3104 79.3953,82.8059C83.1634,82.5688 86.0409,83.6296 88.7533,85.345C96.8803,90.5124 93.565,101.503 83.9213,104.137Z" style="fill:white;fill-rule:nonzero;"/>
        </g>
    </g>
</svg>
