<?xml version="1.0" standalone="no"?>
<!DOCTYPE svg PUBLIC "-//W3C//DTD SVG 1.1//EN" "http://www.w3.org/Graphics/SVG/1.1/DTD/svg11.dtd">
<svg width="152px" height="152px" version="1.1" xmlns="http://www.w3.org/2000/svg" xmlns:xlink="http://www.w3.org/1999/xlink" xml:space="preserve" style="fill-rule:evenodd;clip-rule:evenodd;stroke-linejoin:round;stroke-miterlimit:1.41421;">
    <g>
        <g id="mobile phone">
            <path d="M76,0C117.974,0 152,34.0264 152,76C152,117.974 117.974,152 76,152C34.0264,152 0,117.974 0,76C0,34.0264 34.0264,0 76,0Z" style="fill:rgb(182,201,103);"/>
            <path d="M76.001,9.31648C112.829,9.31648 142.685,39.1717 142.685,76C142.685,112.828 112.829,142.684 76.001,142.684C39.1727,142.684 9.3175,112.828 9.3175,76C9.3175,39.1717 39.1727,9.31648 76.001,9.31648Z" style="fill:rgb(132,132,49);"/>
            <g>
                <path d="M88.4422,121.263L63.5122,121.263C57.1026,121.263 51.8602,116.022 51.8602,109.597L51.8602,40.1465C51.8602,33.7025 57.1026,28.4996 63.5122,28.4996L88.4422,28.4996C91.5487,28.4996 94.4617,29.7033 96.6726,31.8959C98.8651,34.0875 100.072,37.04 100.072,40.1475L100.072,109.598C100.073,116.022 94.8863,121.263 88.4422,121.263ZM88.4422,30.4389L63.5122,30.4389C58.1533,30.4389 53.7833,34.7886 53.7833,40.1465L53.7833,109.597C53.7833,114.956 58.1533,119.339 63.5122,119.339L88.4422,119.339C93.7991,119.339 98.1427,114.956 98.1427,109.597L98.1427,40.1465C98.1427,37.5466 97.1417,35.1199 95.3128,33.2739C93.4688,31.446 91.0432,30.4389 88.4422,30.4389Z" style="fill:rgb(245,245,245);fill-rule:nonzero;"/>
                <rect x="57.2961" y="45.9137" width="37.3227" height="57.2546" style="fill:rgb(245,245,245);"/>
                <path d="M84.13,39.4697C84.13,40.1465 83.7004,40.6926 83.1604,40.6926L68.792,40.6926C68.2854,40.6926 67.8224,40.1465 67.8224,39.4697C67.8224,38.7878 68.2854,38.2467 68.792,38.2467L83.1614,38.2467C83.7014,38.2467 84.13,38.7878 84.13,39.4697Z" style="fill:rgb(245,245,245);fill-rule:nonzero;"/>
                <g>
                    <path d="M77.1804,109.267L74.772,109.267C74.1306,109.267 73.6048,109.806 73.6048,110.43L73.6048,112.334C73.6048,112.973 74.1316,113.498 74.772,113.498L77.1804,113.479C77.843,113.479 78.3436,112.972 78.3436,112.333L78.3436,110.429C78.3436,109.806 77.843,109.267 77.1804,109.267Z" style="fill:rgb(245,245,245);fill-rule:nonzero;"/>
                    <path d="M75.9362,106.548C73.2978,106.548 71.1589,108.7 71.1589,111.399C71.1589,114.079 73.2978,116.255 75.9362,116.255C78.6577,116.255 80.834,114.079 80.834,111.399C80.834,108.7 78.6566,106.548 75.9362,106.548Z" style="fill:rgb(245,245,245);fill-rule:nonzero;"/>
                </g>
            </g>
        </g>
    </g>
</svg>
