<?xml version="1.0" standalone="no"?>
<!DOCTYPE svg PUBLIC "-//W3C//DTD SVG 1.1//EN" "http://www.w3.org/Graphics/SVG/1.1/DTD/svg11.dtd">
<svg width="152px" height="152px" version="1.1" xmlns="http://www.w3.org/2000/svg" xmlns:xlink="http://www.w3.org/1999/xlink" xml:space="preserve" style="fill-rule:evenodd;clip-rule:evenodd;stroke-linejoin:round;stroke-miterlimit:1.41421;">
    <g>
        <g id="dice">
            <path d="M76,0C117.974,0 152,34.0264 152,76C152,117.974 117.974,152 76,152C34.0264,152 0,117.974 0,76C0,34.0264 34.0264,0 76,0Z" style="fill:rgb(182,201,103);"/>
            <path d="M76,9.31547C112.829,9.31547 142.685,39.1712 142.685,76C142.685,112.829 112.829,142.685 76,142.685C39.1712,142.685 9.31547,112.829 9.31547,76C9.31547,39.1712 39.1712,9.31547 76,9.31547Z" style="fill:rgb(132,147,44);"/>
            <g>
                <path d="M64.7067,74.8703L51.7093,74.8703C44.9613,74.8703 39.4818,80.3447 39.4818,87.1018L39.4818,100.099C39.4818,106.851 44.9613,112.328 51.7093,112.328L64.7067,112.328C71.4649,112.328 76.9382,106.851 76.9382,100.099L76.9382,87.1018C76.9392,80.3447 71.4649,74.8703 64.7067,74.8703M61.3135,96.71L55.1035,96.71L55.1035,90.494L61.3135,90.494Z" style="fill:white;fill-rule:nonzero;"/>
                <path d="M108.939,55.9648L99.7466,46.7739C94.9714,42.0007 87.2264,42.0007 82.4572,46.7739L73.2633,55.9648C68.488,60.741 68.488,68.485 73.2633,73.2613L82.4572,82.4481C87.2264,87.2244 94.9724,87.2244 99.7466,82.4481L108.939,73.2613C113.714,68.485 113.714,60.74 108.939,55.9648M94.2155,79.4024L87.9995,79.4024L87.9995,73.1904L94.2155,73.1904ZM94.2155,67.719L87.9995,67.719L87.9995,61.5101L94.2155,61.5101ZM94.2155,56.4481L87.9995,56.4481L87.9995,50.234L94.2155,50.234Z" style="fill:white;fill-rule:nonzero;"/>
            </g>
        </g>
    </g>
</svg>
