<?xml version="1.0" standalone="no"?>
<!DOCTYPE svg PUBLIC "-//W3C//DTD SVG 1.1//EN" "http://www.w3.org/Graphics/SVG/1.1/DTD/svg11.dtd">
<svg width="152px" height="152px" version="1.1" xmlns="http://www.w3.org/2000/svg" xmlns:xlink="http://www.w3.org/1999/xlink" xml:space="preserve" style="fill-rule:evenodd;clip-rule:evenodd;stroke-linejoin:round;stroke-miterlimit:1.41421;">
    <g>
        <g id="donut">
            <path d="M76,-2.22045e-16C117.974,-2.22045e-16 152,34.0264 152,76C152,117.974 117.974,152 76,152C34.0264,152 -2.22045e-16,117.974 -2.22045e-16,76C-2.22045e-16,34.0264 34.0264,-2.22045e-16 76,-2.22045e-16Z" style="fill:rgb(255,191,163);"/>
            <path d="M76,9.31737C112.828,9.31737 142.683,39.1722 142.683,76C142.683,112.828 112.828,142.683 76,142.683C39.1722,142.683 9.31737,112.828 9.31737,76C9.31737,39.1722 39.1722,9.31737 76,9.31737Z" style="fill:rgb(194,122,125);"/>
            <g>
                <path d="M106.973,45.8675C100.614,39.5137 92.7451,35.5886 84.525,34.0688C84.519,34.159 82.1369,56.4514 63.8376,54.7573C63.8376,54.7573 45.6375,56.2436 46.0174,77.0213C46.0174,77.0213 46.2373,90.9001 39.4813,96.9864C41.3537,100.326 43.682,103.487 46.522,106.322C63.2124,123.019 90.281,123.019 106.973,106.322C123.666,89.6245 123.666,62.566 106.973,45.8675M86.2819,85.6223C81.0163,90.8839 72.4832,90.8839 67.2308,85.6223C61.9591,80.3649 61.9591,71.8378 67.2308,66.5712C72.4832,61.3147 81.0153,61.3147 86.2637,66.5712C91.5384,71.8378 91.5384,80.3649 86.2819,85.6223" style="fill:rgb(245,245,245);fill-rule:nonzero;"/>
                <path d="M74.8105,32.0221C51.3641,32.0221 32.3575,51.0287 32.3575,74.4721C32.3575,81.834 34.2339,88.7572 37.5299,94.7938C43.9931,88.5778 43.7854,75.1003 43.7854,75.1003C43.4054,54.3226 61.6055,52.8363 61.6055,52.8363C78.2635,54.3783 81.7306,36.0476 82.2241,32.6797C79.8157,32.2562 77.3415,32.0221 74.8105,32.0221ZM41.9748,73.7629C41.9748,74.4528 41.4165,75.0101 40.7285,75.0101C40.0406,75.0101 39.4823,74.4518 39.4823,73.7629L39.4823,71.009C39.4823,70.319 40.0406,69.7617 40.7285,69.7617C41.4165,69.7617 41.9748,70.32 41.9748,71.009ZM43.5108,59.5163L40.4418,59.5163C39.9119,59.5163 39.4823,59.0867 39.4823,58.5568C39.4823,58.0259 39.9119,57.5963 40.4418,57.5963L43.5108,57.5963C44.0407,57.5963 44.4703,58.0259 44.4703,58.5568C44.4703,59.0877 44.0407,59.5163 43.5108,59.5163ZM53.1139,50.0733C53.1139,50.6913 52.6113,51.1939 51.9943,51.1939C51.3752,51.1939 50.8727,50.6913 50.8727,50.0733L50.8727,47.5129C50.8727,46.8939 51.3752,46.3923 51.9943,46.3923C52.6113,46.3923 53.1139,46.8939 53.1139,47.5129ZM66.2378,44.4713L63.0382,44.4713C62.332,44.4713 61.7575,43.8988 61.7575,43.1906C61.7575,42.4824 62.3309,41.9089 63.0382,41.9089L66.2378,41.9089C66.9461,41.9089 67.5205,42.4814 67.5205,43.1906C67.5205,43.8978 66.9461,44.4713 66.2378,44.4713ZM75.1195,43.831C74.544,43.831 74.0769,43.3639 74.0769,42.7874L74.0769,39.7528C74.0769,39.1763 74.544,38.7092 75.1195,38.7092C75.6971,38.7092 76.1641,39.1763 76.1641,39.7528L76.1641,42.7874C76.1641,43.3639 75.6971,43.831 75.1195,43.831Z" style="fill:white;fill-rule:nonzero;"/>
            </g>
        </g>
    </g>
</svg>
