<?xml version="1.0" standalone="no"?>
<!DOCTYPE svg PUBLIC "-//W3C//DTD SVG 1.1//EN" "http://www.w3.org/Graphics/SVG/1.1/DTD/svg11.dtd">
<svg width="152px" height="152px" version="1.1" xmlns="http://www.w3.org/2000/svg" xmlns:xlink="http://www.w3.org/1999/xlink" xml:space="preserve" style="fill-rule:evenodd;clip-rule:evenodd;stroke-linejoin:round;stroke-miterlimit:1.41421;">
    <g>
        <g id="bread">
            <path d="M76,0C117.974,0 152,34.0264 152,76C152,117.974 117.974,152 76,152C34.0264,152 0,117.974 0,76C0,34.0264 34.0264,0 76,0Z" style="fill:rgb(182,201,103);"/>
            <path d="M76,9.31547C112.829,9.31547 142.685,39.1712 142.685,76C142.685,112.829 112.829,142.685 76,142.685C39.1712,142.685 9.31547,112.829 9.31547,76C9.31547,39.1712 39.1712,9.31547 76,9.31547Z" style="fill:rgb(146,165,66);"/>
            <g>
                <path d="M79.0234,26.7731C73.3312,31.3792 66.7443,38.6986 75.2289,42.1273C83.7815,45.5895 78.5097,59.1918 75.537,57.9912C69.024,55.3538 82.056,47.9594 72.5703,44.1254C54.9566,36.9995 71.5875,28.4226 79.0234,26.7731" style="fill:white;fill-rule:nonzero;"/>
                <path d="M99.7051,36.4635C95.4942,39.8749 90.6217,45.2896 96.8975,47.8287C103.224,50.388 99.3251,60.4523 97.1295,59.5657C92.3046,57.6163 101.948,52.1439 94.9308,49.3039C81.8949,44.0311 94.2054,37.6884 99.7051,36.4635" style="fill:white;fill-rule:nonzero;"/>
                <path d="M59.2131,38.1201C55.0042,41.5315 50.1327,46.9472 56.4055,49.4853C62.731,52.0446 58.8311,62.1089 56.6345,61.2233C51.8116,59.2709 61.4574,53.8005 54.4399,50.9615C41.4039,45.6888 53.7114,39.343 59.2131,38.1201" style="fill:white;fill-rule:nonzero;"/>
                <path d="M125.45,83.8544C124.126,80.8969 121.808,78.2807 118.785,75.9858C114.244,72.5541 108.061,69.8052 100.782,67.874C93.5032,65.9479 85.1169,64.8587 76.1885,64.8567C69.3827,64.8567 62.8982,65.492 56.9729,66.646C48.088,68.3776 40.4748,71.2561 34.9295,75.0253C32.1593,76.9129 29.8968,79.0325 28.2919,81.4024C27.4925,82.5828 26.8592,83.8331 26.4256,85.1392C25.9929,86.4432 25.7629,87.8009 25.7629,89.1839C25.7569,91.0209 26.1804,92.7454 27.0001,94.2429C27.7164,95.558 28.7175,96.6786 29.911,97.6219C32.0084,99.2684 34.6751,100.394 37.7969,101.242C42.4748,102.501 48.2177,103.115 54.7347,103.439C61.2456,103.759 68.5174,103.777 76.1885,103.777C82.8655,103.777 89.2447,103.763 95.0818,103.545C99.4579,103.387 103.529,103.112 107.2,102.637C109.957,102.282 112.49,101.816 114.768,101.188C116.479,100.715 118.046,100.155 119.46,99.47C120.525,98.9553 121.496,98.3727 122.369,97.6979C123.675,96.6888 124.755,95.4597 125.495,94.0119C126.236,92.5691 126.614,90.9276 126.61,89.1829C126.613,87.3378 126.204,85.5414 125.45,83.8544ZM121.711,92.2489C121.302,93.0037 120.706,93.6957 119.879,94.3452C118.443,95.4871 116.276,96.4679 113.492,97.2136C109.314,98.3444 103.797,98.9604 97.4365,99.2725C91.0685,99.5866 83.8453,99.6058 76.1864,99.6058C69.5134,99.6058 63.1778,99.5906 57.4461,99.3788C53.149,99.2228 49.1924,98.9513 45.7009,98.5014C43.0868,98.163 40.7342,97.7263 38.7108,97.167C37.193,96.7506 35.8566,96.2642 34.7329,95.7201C33.8859,95.3098 33.1624,94.868 32.5585,94.3969C31.6487,93.6927 31.0154,92.945 30.5909,92.1151C30.1674,91.2853 29.9364,90.3501 29.9323,89.1829C29.9323,87.9549 30.1988,86.7552 30.7378,85.5465C31.671,83.438 33.4775,81.2991 36.1058,79.3132C39.0938,77.0456 43.1223,74.9969 47.9026,73.3474L47.9371,73.4558C48.2491,74.3738 48.7456,75.1854 49.3424,75.9848C50.385,77.3759 51.764,78.7336 53.2696,80.0539C55.524,82.0256 58.058,83.8797 60.0399,85.2577C62.0197,86.6337 63.4473,87.5253 63.4696,87.5395C64.3349,88.0805 65.4545,87.9204 66.1313,87.1585C66.8071,86.3966 66.8385,85.2658 66.2002,84.4705C66.186,84.4532 63.2467,80.7763 59.9487,77.0659C58.2962,75.2077 56.5636,73.3444 55.0174,71.8945C54.8492,71.7374 54.6851,71.5905 54.5209,71.4405C57.7348,70.6786 61.1737,70.0758 64.7827,69.6684C64.8263,69.8549 64.877,70.0413 64.9357,70.2186C65.2488,71.1366 65.7412,71.9461 66.336,72.7456C67.3806,74.1377 68.7636,75.4944 70.2672,76.8177C72.5196,78.7884 75.0516,80.6435 77.0335,82.0185C79.0153,83.3964 80.4429,84.2871 80.4673,84.2992C81.3275,84.8413 82.4481,84.6812 83.1269,83.9193C83.8058,83.1573 83.8362,82.0276 83.1979,81.2312C83.1847,81.214 80.2454,77.537 76.9484,73.8256C75.4539,72.1528 73.8996,70.4739 72.474,69.098C73.7,69.0524 74.9361,69.0291 76.1905,69.0291C79.3588,69.0291 82.4562,69.175 85.4441,69.4465C85.4918,69.6654 85.5495,69.8751 85.6164,70.0798C85.9092,70.9451 86.3743,71.7009 86.9265,72.4426C87.8941,73.7334 89.1647,74.9817 90.5477,76.1945C92.6197,78.0072 94.941,79.7063 96.7597,80.9708C98.5764,82.2333 99.8824,83.0509 99.9047,83.0621C100.772,83.6021 101.892,83.4441 102.568,82.6821C103.245,81.9202 103.275,80.7895 102.641,79.9941C102.628,79.9769 99.9321,76.6079 96.9097,73.2076C96.17,72.3747 95.4091,71.5398 94.6593,70.7475C103.101,72.392 110.23,75.1489 115.097,78.4732C117.541,80.1339 119.407,81.9293 120.627,83.7379C121.239,84.6427 121.693,85.5475 121.994,86.4533C122.293,87.3591 122.443,88.2619 122.443,89.1839C122.438,90.4119 122.183,91.3816 121.711,92.2489Z" style="fill:white;fill-rule:nonzero;"/>
            </g>
        </g>
    </g>
</svg>
