<?xml version="1.0" standalone="no"?>
<!DOCTYPE svg PUBLIC "-//W3C//DTD SVG 1.1//EN" "http://www.w3.org/Graphics/SVG/1.1/DTD/svg11.dtd">
<svg width="152px" height="152px" version="1.1" xmlns="http://www.w3.org/2000/svg" xmlns:xlink="http://www.w3.org/1999/xlink" xml:space="preserve" style="fill-rule:evenodd;clip-rule:evenodd;stroke-linejoin:round;stroke-miterlimit:1.41421;">
    <g>
        <g id="goldfish">
            <path d="M76,0C117.974,0 152,34.0264 152,76C152,117.974 117.974,152 76,152C34.0264,152 0,117.974 0,76C0,34.0264 34.0264,0 76,0Z" style="fill:rgb(182,201,103);"/>
            <path d="M76,9.31547C112.829,9.31547 142.685,39.1712 142.685,76C142.685,112.829 112.829,142.685 76,142.685C39.1712,142.685 9.31547,112.829 9.31547,76C9.31547,39.1712 39.1712,9.31547 76,9.31547Z" style="fill:rgb(143,150,47);"/>
            <g>
                <path d="M120.511,57.2738C118.334,52.4692 115.287,48.2572 112.109,44.943C112.442,44.4253 112.622,43.8883 112.622,43.3259C112.622,40.4788 108.168,38.192 100.968,36.7958C94.5539,35.5506 85.7218,34.7815 75.997,34.7815C66.2772,34.7815 57.444,35.5516 51.0264,36.7958C43.8285,38.192 39.3724,40.4798 39.3724,43.3259C39.3724,44.2044 39.8,45.0292 40.5994,45.7911L32.4937,55.9364C30.3325,60.3408 28.6506,65.7068 28.2889,71.6098C27.915,77.7599 29.0488,83.6467 31.2363,89.0492C33.6508,95.017 37.3541,100.403 41.7271,104.921C46.1437,109.484 51.4712,113.17 57.4197,115.691C63.1484,118.119 69.4425,119.463 76.0304,119.463C83.0884,119.463 89.7979,117.924 95.8448,115.165C102.112,112.303 107.655,108.124 112.115,102.982C115.811,98.7192 118.767,93.789 120.779,88.3966C122.72,83.1908 123.781,77.5695 123.781,71.7151C123.781,66.5731 122.505,61.6772 120.511,57.2738ZM51.7001,40.2964C57.8939,39.0948 66.4839,38.3531 75.997,38.3531C85.5141,38.3531 94.1041,39.0948 100.298,40.2964C105.704,41.3461 109.05,42.4384 109.05,43.3259C109.05,44.1679 106.023,45.1984 101.082,46.1974C99.9007,46.399 98.6331,46.5885 97.2977,46.7658C90.8932,47.6139 83.052,48.1134 76.0324,48.1134C70.7901,48.1134 65.4281,47.9573 60.5222,47.5885C57.2424,47.2684 54.2646,46.8509 51.7001,46.3524C46.2916,45.3048 42.945,44.2125 42.945,43.3259C42.945,42.4384 46.2916,41.3461 51.7001,40.2964ZM42.9055,47.854C45.6087,49.1124 49.6899,49.9979 54.4926,50.5927C56.3255,50.8186 58.2759,51.001 60.2952,51.152C65.033,51.611 70.3645,51.8714 75.998,51.8714C85.7228,51.8714 94.5539,51.1003 100.969,49.8561C101.339,49.7852 101.7,49.7082 102.055,49.6322C105.273,49.0577 107.949,48.3697 109.726,47.5895C112.58,50.6069 115.303,54.4186 117.261,58.7399C117.415,59.0804 117.559,59.4289 117.703,59.7754C116.789,60.0298 115.894,60.1929 115.12,60.1929C113.796,60.1929 112.057,59.7248 110.452,59.0713C108.751,58.3782 107.286,57.5302 106.725,56.8574C106.092,56.1025 104.969,56.0022 104.213,56.6335C104.01,56.8057 103.854,57.0124 103.75,57.2363C102.89,57.9375 101.572,58.6771 100.123,59.2668C98.5885,59.8909 96.9623,60.3205 95.6563,60.3205C94.332,60.3205 92.5954,59.8545 90.9884,59.1999C89.2873,58.5069 87.8242,57.6578 87.2639,56.9871C86.6316,56.2302 85.507,56.1309 84.7521,56.7632C84.5485,56.9334 84.3924,57.1391 84.284,57.365C83.4248,58.0672 82.1097,58.8058 80.6587,59.3955C79.1258,60.0196 77.4996,60.4482 76.1945,60.4482C74.8703,60.4482 73.1316,59.9811 71.5287,59.3286C69.8235,58.6346 68.3604,57.7855 67.8021,57.1137C67.1678,56.3599 66.0432,56.2596 65.2883,56.8908C65.0847,57.0621 64.9296,57.2688 64.8212,57.4927C63.961,58.1938 62.6469,58.9335 61.199,59.5242C59.663,60.1483 58.0388,60.5779 56.7297,60.5779C55.4085,60.5779 53.6688,60.1088 52.0639,59.4553C50.3627,58.7632 48.8996,57.9142 48.3393,57.2414C47.7081,56.4866 46.5814,56.3873 45.8276,57.0185C45.6229,57.1897 45.4689,57.3954 45.3625,57.6214C44.5013,58.3215 43.1831,59.0621 41.7372,59.6508C40.2012,60.276 38.576,60.7046 37.269,60.7046C36.4554,60.7046 35.4857,60.5283 34.4877,60.2405C34.8656,59.2901 35.2689,58.3691 35.6954,57.4977C37.961,52.8724 40.7504,49.466 42.9055,47.854ZM117.444,87.1534C115.586,92.1374 112.848,96.6999 109.422,100.649C105.293,105.409 100.165,109.278 94.3645,111.927C88.7928,114.473 82.5828,115.89 76.0314,115.89C69.9086,115.89 64.0856,114.65 58.7997,112.412C53.3061,110.084 48.3788,106.668 44.2814,102.436C40.2205,98.24 36.7806,93.2428 34.5424,87.7077C32.5444,82.7703 31.5058,77.4053 31.8493,71.8154C32.0256,68.9166 32.5596,66.1668 33.3154,63.6094C34.6903,64.0167 36.0703,64.2761 37.2629,64.2761C39.0492,64.2761 41.1496,63.7381 43.0686,62.9559C44.5448,62.3561 45.9492,61.5921 47.0465,60.8018C48.0516,61.5111 49.3475,62.2021 50.7194,62.7604C52.7042,63.5709 54.9282,64.1474 56.7247,64.1474C58.511,64.1474 60.6113,63.6115 62.5334,62.8272C64.0076,62.2254 65.4109,61.4624 66.5092,60.6721C67.5144,61.3824 68.8123,62.0744 70.1821,62.6337C72.168,63.4412 74.391,64.0188 76.1905,64.0188C77.9747,64.0188 80.0751,63.4838 81.9962,62.6986C83.4704,62.0987 84.8757,61.3348 85.972,60.5455C86.9771,61.2547 88.273,61.9447 89.6469,62.504C91.6318,63.3136 93.8538,63.8901 95.6533,63.8901C97.4375,63.8901 99.541,63.3541 101.46,62.5719C102.934,61.9711 104.341,61.2051 105.437,60.4168C106.441,61.1261 107.738,61.8181 109.112,62.3764C111.096,63.1859 113.319,63.7634 115.118,63.7634C116.291,63.7634 117.602,63.5274 118.911,63.1444C119.206,64.1292 119.452,65.1313 119.651,66.1506C119.479,66.2255 119.313,66.3026 119.139,66.3755C117.605,67.0007 115.978,67.4292 114.67,67.4292C113.349,67.4292 111.611,66.9642 110.004,66.3096C108.302,65.6146 106.838,64.7665 106.277,64.0958C105.646,63.3389 104.521,63.2396 103.765,63.8729C103.561,64.0431 103.406,64.2488 103.3,64.4737C102.44,65.1728 101.124,65.9145 99.6757,66.5032C98.1397,67.1293 96.5135,67.5599 95.2075,67.5599C93.8862,67.5599 92.1465,67.0908 90.5396,66.4373C88.8374,65.7433 87.3753,64.8962 86.814,64.2234C86.1797,63.4676 85.0591,63.3693 84.3033,64.0005C84.0976,64.1697 83.9416,64.3774 83.8342,64.6024C82.976,65.3035 81.6578,66.0432 80.2109,66.6318C76.7103,68.0574 74.5693,67.9875 71.0758,66.566C69.3736,65.8729 67.9085,65.0239 67.3492,64.3511C66.718,63.5973 65.5923,63.497 64.8385,64.1272C62.7533,65.8729 68.3158,69.2936 69.7363,69.8711C74.0962,71.6452 77.1814,71.7172 81.5483,69.939C83.0246,69.3371 84.4299,68.5721 85.5262,67.7839C86.5323,68.4931 87.8272,69.1841 89.2001,69.7434C91.184,70.552 93.409,71.1295 95.2064,71.1295C96.9917,71.1295 99.0941,70.5915 101.012,69.8093C102.488,69.2084 103.892,68.4455 104.99,67.6552C105.993,68.3644 107.291,69.0554 108.664,69.6137C110.648,70.4233 112.872,71.0008 114.669,71.0008C116.344,71.0008 118.299,70.5287 120.121,69.8224L120.121,69.6218C120.173,70.3149 120.208,71.0099 120.208,71.7121C120.21,77.1571 119.233,82.3589 117.444,87.1534Z" style="fill:rgb(245,245,245);fill-rule:nonzero;"/>
                <path d="M99.4244,94.6998C101.316,91.9317 103.104,88.4736 101.176,87.4341C99.7112,86.6458 97.2501,88.2224 93.3594,94.2023C84.3752,86.9103 81.3913,87.4594 76.6312,89.1262C66.0209,92.8457 67.7636,100.871 81.4876,102.433C86.9437,103.052 90.2032,100.516 93.3908,97.4446C103.873,109.257 103.469,97.474 99.4244,94.6998Z" style="fill:rgb(245,245,245);fill-rule:nonzero;"/>
                <path d="M69.6765,75.5481C64.9165,73.8814 61.9336,73.3322 52.9515,80.6233C49.0577,74.6474 46.5996,73.0678 45.1315,73.8581C43.2074,74.8946 44.9917,78.3537 46.8833,81.1208C42.8406,83.897 42.4363,95.6796 52.918,83.8666C56.1056,86.9386 59.3661,89.4737 64.8222,88.8546C78.5462,87.2943 80.2849,79.2696 69.6765,75.5481Z" style="fill:rgb(245,245,245);fill-rule:nonzero;"/>
            </g>
        </g>
    </g>
</svg>
