<?xml version="1.0" standalone="no"?>
<!DOCTYPE svg PUBLIC "-//W3C//DTD SVG 1.1//EN" "http://www.w3.org/Graphics/SVG/1.1/DTD/svg11.dtd">
<svg width="152px" height="152px" version="1.1" xmlns="http://www.w3.org/2000/svg" xmlns:xlink="http://www.w3.org/1999/xlink" xml:space="preserve" style="fill-rule:evenodd;clip-rule:evenodd;stroke-linejoin:round;stroke-miterlimit:1.41421;">
    <g>
        <g id="a glass of wine">
            <path d="M76,0C117.974,0 152,34.0264 152,76C152,117.974 117.974,152 76,152C34.0264,152 0,117.974 0,76C0,34.0264 34.0264,0 76,0Z" style="fill:rgb(255,191,163);"/>
            <path d="M76,9.31648C112.828,9.31648 142.684,39.1717 142.684,76C142.684,112.828 112.828,142.684 76,142.684C39.1717,142.684 9.31648,112.828 9.31648,76C9.31648,39.1717 39.1717,9.31648 76,9.31648Z" style="fill:rgb(204,117,90);"/>
            <path d="M76.8156,97.8144L111.681,62.9458C112.309,62.3135 112.503,61.3672 112.158,60.5435C111.818,59.7177 111.015,59.1787 110.122,59.1787L38.5304,59.1787C37.6418,59.1787 36.8353,59.7167 36.4959,60.5435C36.1494,61.3672 36.3409,62.3135 36.9691,62.9458L71.8418,97.8144L71.8418,116.764C71.8418,116.851 71.858,116.929 71.8651,117.011L64.7331,117.011C63.3602,117.011 62.2436,118.124 62.2436,119.498C62.2436,120.871 63.3602,121.985 64.7331,121.985L83.9223,121.985C85.2952,121.985 86.4097,120.871 86.4097,119.498C86.4097,118.124 85.2952,117.011 83.9223,117.011L76.7893,117.011C76.7984,116.929 76.8146,116.851 76.8146,116.764L76.8146,97.8144ZM43.8589,63.5942L104.796,63.5942C99.0577,69.3321 76.8683,91.5214 74.3252,94.0615C71.7861,91.5204 49.5977,69.3321 43.8589,63.5942Z" style="fill:white;fill-rule:nonzero;"/>
            <path d="M116.417,43.7768C114.938,43.7768 113.56,44.2206 112.416,44.9825C111.191,42.2479 108.448,40.3431 105.26,40.3431C100.927,40.3431 97.4142,43.8559 97.4142,48.1873C97.4142,52.5219 100.927,56.0347 105.26,56.0347C107.061,56.0347 108.707,55.4227 110.033,54.4074C111.247,56.6862 113.65,58.2394 116.418,58.2394C120.413,58.2394 123.651,55.0012 123.651,51.0071C123.651,47.013 120.412,43.7768 116.417,43.7768Z" style="fill:white;fill-rule:nonzero;"/>
            <path d="M54.7266,69.2662L74.3252,88.8668L93.9257,69.2662ZM69.3452,71.5186C69.3452,70.4466 70.2146,69.5773 71.2865,69.5773C72.3585,69.5773 73.2279,70.4466 73.2279,71.5186C73.2279,72.5905 72.3585,73.4599 71.2865,73.4599C70.2146,73.4599 69.3452,72.5905 69.3452,71.5186ZM69.7677,81.2616C68.5559,81.2616 67.5731,80.2788 67.5731,79.067C67.5731,77.8552 68.5559,76.8724 69.7677,76.8724C70.9785,76.8724 71.9624,77.8552 71.9624,79.067C71.9624,80.2788 70.9785,81.2616 69.7677,81.2616ZM77.1662,78.9464C76.0618,78.9464 75.1671,78.0507 75.1671,76.9463C75.1671,75.843 76.0618,74.9473 77.1662,74.9473C78.2706,74.9473 79.1653,75.843 79.1653,76.9463C79.1653,78.0507 78.2706,78.9464 77.1662,78.9464Z" style="fill:white;fill-rule:nonzero;"/>
        </g>
    </g>
</svg>
