<?xml version="1.0" standalone="no"?>
<!DOCTYPE svg PUBLIC "-//W3C//DTD SVG 1.1//EN" "http://www.w3.org/Graphics/SVG/1.1/DTD/svg11.dtd">
<svg width="152px" height="152px" version="1.1" xmlns="http://www.w3.org/2000/svg" xmlns:xlink="http://www.w3.org/1999/xlink" xml:space="preserve" style="fill-rule:evenodd;clip-rule:evenodd;stroke-linejoin:round;stroke-miterlimit:1.41421;">
    <g>
        <g id="book">
            <path d="M76,0C117.974,0 152,34.0264 152,76C152,117.974 117.974,152 76,152C34.0264,152 0,117.974 0,76C0,34.0264 34.0264,0 76,0Z" style="fill:rgb(255,191,163);"/>
            <path d="M76,9.31648C112.828,9.31648 142.684,39.1717 142.684,76C142.684,112.828 112.828,142.684 76,142.684C39.1717,142.684 9.31648,112.828 9.31648,76C9.31648,39.1717 39.1717,9.31648 76,9.31648Z" style="fill:rgb(216,140,130);"/>
            <g>
                <path d="M41.6744,49.1144L41.6744,99.7851C41.6744,99.7851 48.5258,94.8447 58.2425,94.8447C67.9673,94.8447 74.8156,99.7851 74.8156,99.7851L74.8156,49.7527C74.8156,49.7527 67.9662,44.017 58.2425,44.017C48.5258,44.017 41.6744,49.1144 41.6744,49.1144Z" style="fill:rgb(245,245,245);"/>
                <path d="M77.3638,49.1144L77.3638,99.7851C77.3638,99.7851 84.2182,94.8447 93.9359,94.8447C103.659,94.8447 110.507,99.7851 110.507,99.7851L110.507,49.7527C110.507,49.7527 103.658,44.017 93.9359,44.017C84.2171,44.017 77.3638,49.1144 77.3638,49.1144Z" style="fill:rgb(245,245,245);"/>
                <path d="M36.5749,54.2119L39.1221,54.2119L39.1221,102.654L69.7171,102.654L69.7171,105.202L82.4643,105.202L82.4643,102.654L113.057,102.654L113.057,54.2119L115.605,54.2119L115.605,105.201L85.0145,105.201L85.1726,107.751L67.1678,107.751L67.1678,105.201L36.5749,105.201Z" style="fill:rgb(245,245,245);"/>
            </g>
        </g>
    </g>
</svg>
