<?xml version="1.0" standalone="no"?>
<!DOCTYPE svg PUBLIC "-//W3C//DTD SVG 1.1//EN" "http://www.w3.org/Graphics/SVG/1.1/DTD/svg11.dtd">
<svg width="152px" height="152px" version="1.1" xmlns="http://www.w3.org/2000/svg" xmlns:xlink="http://www.w3.org/1999/xlink" xml:space="preserve" style="fill-rule:evenodd;clip-rule:evenodd;stroke-linejoin:round;stroke-miterlimit:1.41421;">
    <g>
        <g id="camera">
            <path d="M76,-0.009C117.974,-0.009 152,34.0174 152,75.991C152,117.965 117.974,151.991 76,151.991C34.0264,151.991 0,117.965 0,75.991C0,34.0174 34.0264,-0.009 76,-0.009Z" style="fill:rgb(222,160,89);"/>
            <path d="M76.001,9.30748C112.829,9.30748 142.685,39.1627 142.685,75.991C142.685,112.819 112.829,142.675 76.001,142.675C39.1727,142.675 9.3175,112.819 9.3175,75.991C9.3175,39.1627 39.1727,9.30748 76.001,9.30748Z" style="fill:rgb(196,134,59);"/>
            <g>
                <path d="M80.4764,65.8153C72.9563,65.8153 66.871,71.8986 66.871,79.4197C66.871,86.9256 72.9563,93.0413 80.4764,93.0413C87.9964,93.0413 94.1152,86.9256 94.1152,79.4197C94.1152,71.8986 87.9964,65.8153 80.4764,65.8153Z" style="fill:rgb(245,245,245);fill-rule:nonzero;"/>
                <path d="M104.568,50.2119L93.0838,50.2119C93.1,49.9312 93.1131,49.6657 93.1131,49.3526C93.1131,45.6868 89.1201,42.7394 84.1574,42.7394L74.7487,42.7394C69.7738,42.7394 65.7463,45.6868 65.7463,49.3526C65.7463,49.6657 65.7767,49.9302 65.8101,50.2119L58.8818,50.2119C57.9142,48.4023 56.4774,47.2786 54.8563,47.2786L49.2674,47.2786C47.397,47.2786 45.7739,48.8075 44.8387,51.1318C40.2336,52.9425 36.9741,57.4371 36.9741,62.6946L36.9741,96.1154C36.9741,103.013 42.5741,108.597 49.4569,108.597L104.566,108.597C111.463,108.597 117.049,103.012 117.049,96.1154L117.049,62.6946C117.051,55.7977 111.464,50.2119 104.568,50.2119ZM56.292,56.8119L48.085,56.8119L48.085,52.6142L56.292,52.6142ZM71.7232,49.3526C71.7232,47.7771 73.0039,46.4832 74.6089,46.4832L84.283,46.4832C85.8616,46.4832 87.1555,47.7771 87.1555,49.3526C87.1555,49.6819 87.0916,49.9626 87.0146,50.2119C86.6245,51.3821 85.5627,52.2241 84.283,52.2241L74.6089,52.2241C73.313,52.2241 72.2379,51.3821 71.8803,50.2119C71.7688,49.9626 71.7232,49.6819 71.7232,49.3526ZM80.4764,101.765C68.1355,101.765 58.1178,91.7627 58.1178,79.4197C58.1178,67.0474 68.1365,57.046 80.4764,57.046C92.8345,57.046 102.836,67.0474 102.836,79.4197C102.836,91.7616 92.8345,101.765 80.4764,101.765Z" style="fill:rgb(245,245,245);fill-rule:nonzero;"/>
            </g>
        </g>
    </g>
</svg>
