<?xml version="1.0" standalone="no"?>
<!DOCTYPE svg PUBLIC "-//W3C//DTD SVG 1.1//EN" "http://www.w3.org/Graphics/SVG/1.1/DTD/svg11.dtd">
<svg width="152px" height="152px" version="1.1" xmlns="http://www.w3.org/2000/svg" xmlns:xlink="http://www.w3.org/1999/xlink" xml:space="preserve" style="fill-rule:evenodd;clip-rule:evenodd;stroke-linejoin:round;stroke-miterlimit:1.41421;">
    <g>
        <g id="forest">
            <path d="M76,0C117.974,0 152,34.0264 152,76C152,117.974 117.974,152 76,152C34.0264,152 0,117.974 0,76C0,34.0264 34.0264,0 76,0Z" style="fill:rgb(222,160,89);"/>
            <path d="M76,9.31559C112.829,9.31559 142.684,39.1712 142.684,76C142.684,112.829 112.829,142.684 76,142.684C39.1712,142.684 9.31559,112.829 9.31559,76C9.31559,39.1712 39.1712,9.31559 76,9.31559Z" style="fill:rgb(226,99,55);"/>
            <g>
                <path d="M71.8063,92.7061L70.6137,91.2956L44.8727,91.2956L59.6932,72.0352L51.1618,72.0352L55.9827,65.7685L55.5926,65.3064L56.3394,65.3064L59.4206,61.3032L53.2936,54.0637L55.8024,54.0637L56.7173,52.8752L50.4059,45.4168L43.7571,54.0637L48.2467,54.0637L39.5968,65.3064L46.6762,65.3064L36.1539,78.9809L42.7277,78.9809L31.3076,93.8226L50.4515,93.8226L50.4515,111.776L53.6057,111.776L53.6057,93.8226L71.8063,93.8226Z" style="fill:white;fill-rule:nonzero;"/>
                <path d="M110.379,78.9809L117.354,78.9809L105.776,65.3064L112.991,65.3064L103.476,54.0637L107.904,54.0637L100.589,45.4168L94.9564,52.7424L96.073,54.0637L98.4298,54.0637L92.8509,61.3143L96.2331,65.3064L96.8603,65.3064L96.5614,65.6945L101.93,72.0352L92.8722,72.0352L109.165,91.2956L83.4371,91.2956L81.978,93.1904L81.978,93.8226L100.635,93.8226L100.635,111.776L103.789,111.776L103.789,93.8226L122.933,93.8226Z" style="fill:white;fill-rule:nonzero;"/>
                <path d="M102.686,88.4617L87.0583,69.9885L95.7417,69.9885L81.3296,52.9674L90.3098,52.9674L78.4682,38.9727L83.9791,38.9727L74.8743,28.2102L66.5963,38.9727L72.1842,38.9727L61.4187,52.9674L70.2297,52.9674L57.1327,69.9885L65.3155,69.9885L51.101,88.4617L74.929,88.4617L74.929,110.808L78.8553,110.808L78.8553,88.4617Z" style="fill:white;fill-rule:nonzero;"/>
                <path d="M113.637,116.449C113.637,111.287 97.1865,107.102 76.8916,107.102C56.5967,107.102 40.146,111.287 40.146,116.449Z" style="fill:white;fill-rule:nonzero;"/>
            </g>
        </g>
    </g>
</svg>
