<?xml version="1.0" standalone="no"?>
<!DOCTYPE svg PUBLIC "-//W3C//DTD SVG 1.1//EN" "http://www.w3.org/Graphics/SVG/1.1/DTD/svg11.dtd">
<svg width="152px" height="152px" version="1.1" xmlns="http://www.w3.org/2000/svg" xmlns:xlink="http://www.w3.org/1999/xlink" xml:space="preserve" style="fill-rule:evenodd;clip-rule:evenodd;stroke-linejoin:round;stroke-miterlimit:1.41421;">
    <g>
        <g id="toast">
            <path d="M76,0C117.974,0 152,34.0264 152,76C152,117.974 117.974,152 76,152C34.0264,152 0,117.974 0,76C0,34.0264 34.0264,0 76,0Z" style="fill:rgb(222,160,89);"/>
            <path d="M76.001,9.31648C112.829,9.31648 142.685,39.1717 142.685,76C142.685,112.828 112.829,142.684 76.001,142.684C39.1727,142.684 9.3175,112.828 9.3175,76C9.3175,39.1717 39.1727,9.31648 76.001,9.31648Z" style="fill:rgb(255,113,55);"/>
            <g>
                <path d="M51.6576,43.2611C45.6006,47.2754 42.1608,52.5543 42.1608,58.1715C42.1608,62.1686 43.8954,65.9479 47.085,69.2854L47.628,69.8458L47.628,105.605C47.628,108.279 49.7902,110.455 52.4671,110.455L98.7831,110.455C101.46,110.455 103.605,108.279 103.618,105.605L103.618,69.8458L104.164,69.2854C107.354,65.9479 109.089,62.1697 109.089,58.1715C109.089,52.5543 105.649,47.2754 99.5886,43.2611C93.561,39.2751 85.049,36.733 75.6241,36.733L75.6099,36.733C66.185,36.733 57.6862,39.2761 51.6576,43.2611ZM43.7626,105.605L43.7626,71.4051C40.3653,67.6258 38.2933,63.0826 38.2933,58.1715C38.3075,50.8622 42.7788,44.4668 49.542,40.0259C56.3194,35.5556 65.5102,32.8655 75.6261,32.8655C85.74,32.8655 94.9308,35.5556 101.71,40.0259C108.474,44.4668 112.943,50.8622 112.957,58.1715C112.957,63.0826 110.883,67.64 107.49,71.4051L107.49,105.605C107.49,110.427 103.593,114.338 98.7851,114.338L52.4671,114.338C47.6574,114.338 43.7768,110.427 43.7626,105.605Z" style="fill:white;"/>
                <path d="M93.8406,72.551C93.0057,71.7567 92.0635,71.1832 91.0492,70.7718C91.3573,70.3169 91.6349,69.8306 91.9165,69.3017C92.487,68.1831 92.9156,66.876 92.9298,65.6257C92.9733,62.1413 91.8547,58.5393 88.6793,56.6416C88.1089,56.3042 87.5334,55.9951 86.9457,55.7317L86.9599,55.3335C86.9599,50.9068 83.4015,47.3332 79.0042,47.3332C76.7275,47.3332 74.6686,48.3039 73.2116,49.849C71.785,48.4356 69.8295,47.5683 67.6552,47.5683C63.2589,47.5683 59.6994,51.1571 59.6994,55.5686C59.6994,56.7014 59.9345,57.7581 60.3469,58.7288C59.052,59.5819 57.8473,60.5657 56.7449,61.7137C53.8917,64.7128 54.9931,70.02 57.9932,72.4041C58.287,72.6392 58.5971,72.8449 58.9041,73.0212C57.7733,75.08 57.2586,77.3881 57.8159,79.8867C58.6113,83.3701 60.7562,86.1504 63.8009,87.4888C61.8596,89.4149 60.3175,91.7068 59.4786,94.3979C58.2435,98.3515 59.435,102.631 63.5081,104.369C67.0361,105.867 72.1842,104.28 73.4325,100.325C73.5501,99.9402 73.9472,99.1478 74.1387,98.7203C74.4174,98.3991 74.7244,98.0455 74.8277,97.9127C75.2411,97.5743 75.6667,97.2663 76.0942,96.9704L76.5198,96.6928L77.0801,96.3818C80.1815,94.8113 83.5474,93.8092 86.8262,92.6197C90.032,91.4707 93.6927,89.883 95.6634,86.9417C98.9016,82.1654 97.9593,76.4022 93.8406,72.551Z" style="fill:white;fill-rule:nonzero;"/>
            </g>
        </g>
    </g>
</svg>
