<?xml version="1.0" standalone="no"?>
<!DOCTYPE svg PUBLIC "-//W3C//DTD SVG 1.1//EN" "http://www.w3.org/Graphics/SVG/1.1/DTD/svg11.dtd">
<svg width="152px" height="152px" version="1.1" xmlns="http://www.w3.org/2000/svg" xmlns:xlink="http://www.w3.org/1999/xlink" xml:space="preserve" style="fill-rule:evenodd;clip-rule:evenodd;stroke-linejoin:round;stroke-miterlimit:1.41421;">
    <g>
        <g id="papaya">
            <g>
                <path d="M76,0C117.974,0 152,34.0264 152,76C152,117.974 117.974,152 76,152C34.0264,152 0,117.974 0,76C0,34.0264 34.0264,0 76,0Z" style="fill:rgb(222,160,89);"/>
                <path d="M76.001,9.31648C112.829,9.31648 142.685,39.1717 142.685,76C142.685,112.828 112.829,142.684 76.001,142.684C39.1727,142.684 9.3175,112.828 9.3175,76C9.3175,39.1717 39.1727,9.31648 76.001,9.31648Z" style="fill:rgb(204,139,80);"/>
            </g>
            <g>
                <path d="M76.5015,56.8007C76.5015,58.4562 75.1793,59.7917 73.5389,59.7917C71.9005,59.7917 70.5783,58.4562 70.5783,56.8007C70.5783,55.1613 71.9005,53.8259 73.5389,53.8259C75.1793,53.8259 76.5015,55.1613 76.5015,56.8007Z" style="fill:white;fill-rule:nonzero;"/>
                <path d="M83.2931,56.8007C83.2931,58.4562 81.9709,59.7917 80.3305,59.7917C78.6921,59.7917 77.3699,58.4562 77.3699,56.8007C77.3699,55.1613 78.6921,53.8259 80.3305,53.8259C81.9719,53.8259 83.2931,55.1613 83.2931,56.8007Z" style="fill:white;fill-rule:nonzero;"/>
                <path d="M73.3646,63.2893C73.3646,64.9276 72.0312,66.263 70.404,66.263C68.7657,66.263 67.4292,64.9286 67.4292,63.2893C67.4292,61.6479 68.7647,60.3124 70.404,60.3124C72.0312,60.3135 73.3646,61.6479 73.3646,63.2893Z" style="fill:white;fill-rule:nonzero;"/>
                <path d="M80.1572,63.2893C80.1572,64.9276 78.837,66.263 77.1966,66.263C75.5582,66.263 74.236,64.9286 74.236,63.2893C74.236,61.6479 75.5582,60.3124 77.1966,60.3124C78.837,60.3135 80.1572,61.6479 80.1572,63.2893Z" style="fill:white;fill-rule:nonzero;"/>
                <path d="M76.5015,70.1234C76.5015,71.7648 75.1793,73.1002 73.5389,73.1002C71.9005,73.1002 70.5783,71.7658 70.5783,70.1234C70.5783,68.4688 71.9005,67.1344 73.5389,67.1344C75.1793,67.1344 76.5015,68.4688 76.5015,70.1234Z" style="fill:white;fill-rule:nonzero;"/>
                <path d="M83.2931,70.1234C83.2931,71.7648 81.9709,73.1002 80.3305,73.1002C78.6921,73.1002 77.3699,71.7658 77.3699,70.1234C77.3699,68.4688 78.6921,67.1344 80.3305,67.1344C81.9719,67.1344 83.2931,68.4688 83.2931,70.1234Z" style="fill:white;fill-rule:nonzero;"/>
                <path d="M73.3646,76.5978C73.3646,78.2524 72.0312,79.5726 70.404,79.5726C68.7657,79.5726 67.4292,78.2524 67.4292,76.5978C67.4292,74.9564 68.7647,73.621 70.404,73.621C72.0312,73.621 73.3646,74.9564 73.3646,76.5978Z" style="fill:white;fill-rule:nonzero;"/>
                <path d="M80.1572,76.5978C80.1572,78.2524 78.837,79.5726 77.1966,79.5726C75.5582,79.5726 74.236,78.2524 74.236,76.5978C74.236,74.9564 75.5582,73.621 77.1966,73.621C78.837,73.621 80.1572,74.9564 80.1572,76.5978Z" style="fill:white;fill-rule:nonzero;"/>
                <path d="M86.964,76.5978C86.964,78.2524 85.6417,79.5726 84.0034,79.5726C82.363,79.5726 81.0407,78.2524 81.0407,76.5978C81.0407,74.9564 82.363,73.621 84.0034,73.621C85.6427,73.621 86.964,74.9564 86.964,76.5978Z" style="fill:white;fill-rule:nonzero;"/>
                <path d="M69.71,83.4319C69.71,85.0733 68.3746,86.4087 66.7332,86.4087C65.108,86.4087 63.7705,85.0743 63.7705,83.4319C63.7705,81.7935 65.108,80.4581 66.7332,80.4581C68.3746,80.4581 69.71,81.7935 69.71,83.4319Z" style="fill:white;fill-rule:nonzero;"/>
                <path d="M76.5015,83.4319C76.5015,85.0733 75.1793,86.4087 73.5389,86.4087C71.9005,86.4087 70.5783,85.0743 70.5783,83.4319C70.5783,81.7935 71.9005,80.4581 73.5389,80.4581C75.1793,80.4581 76.5015,81.7935 76.5015,83.4319Z" style="fill:white;fill-rule:nonzero;"/>
                <path d="M83.2931,83.4319C83.2931,85.0733 81.9709,86.4087 80.3305,86.4087C78.6921,86.4087 77.3699,85.0743 77.3699,83.4319C77.3699,81.7935 78.6921,80.4581 80.3305,80.4581C81.9719,80.4581 83.2931,81.7935 83.2931,83.4319Z" style="fill:white;fill-rule:nonzero;"/>
                <path d="M90.0988,83.4319C90.0988,85.0733 88.7766,86.4087 87.1382,86.4087C85.4978,86.4087 84.1776,85.0743 84.1776,83.4319C84.1776,81.7935 85.4978,80.4581 87.1382,80.4581C88.7766,80.4581 90.0988,81.7935 90.0988,83.4319Z" style="fill:white;fill-rule:nonzero;"/>
                <path d="M66.5599,89.9195C66.5599,91.5599 65.2397,92.8953 63.5973,92.8953C61.9569,92.8953 60.6387,91.5609 60.6387,89.9195C60.6387,88.2639 61.9569,86.9295 63.5973,86.9295C65.2397,86.9295 66.5599,88.2639 66.5599,89.9195Z" style="fill:white;fill-rule:nonzero;"/>
                <path d="M73.3646,89.9195C73.3646,91.5599 72.0312,92.8953 70.404,92.8953C68.7657,92.8953 67.4292,91.5609 67.4292,89.9195C67.4292,88.2639 68.7647,86.9295 70.404,86.9295C72.0312,86.9295 73.3646,88.2639 73.3646,89.9195Z" style="fill:white;fill-rule:nonzero;"/>
                <path d="M80.1572,89.9195C80.1572,91.5599 78.837,92.8953 77.1966,92.8953C75.5582,92.8953 74.236,91.5609 74.236,89.9195C74.236,88.2639 75.5582,86.9295 77.1966,86.9295C78.837,86.9295 80.1572,88.2639 80.1572,89.9195Z" style="fill:white;fill-rule:nonzero;"/>
                <path d="M86.964,89.9195C86.964,91.5599 85.6286,92.8953 84.0034,92.8953C82.363,92.8953 81.0265,91.5609 81.0265,89.9195C81.0265,88.2639 82.362,86.9295 84.0034,86.9295C85.6286,86.9295 86.964,88.2639 86.964,89.9195Z" style="fill:white;fill-rule:nonzero;"/>
                <path d="M69.71,96.7404C69.71,98.396 68.3746,99.7304 66.7332,99.7304C65.108,99.7304 63.7705,98.396 63.7705,96.7404C63.7705,95.1021 65.108,93.7667 66.7332,93.7667C68.3746,93.7667 69.71,95.1021 69.71,96.7404Z" style="fill:white;fill-rule:nonzero;"/>
                <path d="M76.5015,96.7404C76.5015,98.396 75.1793,99.7304 73.5389,99.7304C71.9005,99.7304 70.5783,98.396 70.5783,96.7404C70.5783,95.1021 71.9005,93.7667 73.5389,93.7667C75.1793,93.7667 76.5015,95.1021 76.5015,96.7404Z" style="fill:white;fill-rule:nonzero;"/>
                <path d="M83.2931,96.7404C83.2931,98.396 81.9709,99.7304 80.3305,99.7304C78.6921,99.7304 77.3699,98.396 77.3699,96.7404C77.3699,95.1021 78.6921,93.7667 80.3305,93.7667C81.9719,93.7667 83.2931,95.1021 83.2931,96.7404Z" style="fill:white;fill-rule:nonzero;"/>
                <path d="M90.0988,96.7404C90.0988,98.396 88.7766,99.7304 87.1382,99.7304C85.4978,99.7304 84.1776,98.396 84.1776,96.7404C84.1776,95.1021 85.4978,93.7667 87.1382,93.7667C88.7766,93.7667 90.0988,95.1021 90.0988,96.7404Z" style="fill:white;fill-rule:nonzero;"/>
                <path d="M73.3646,103.228C73.3646,104.868 72.0312,106.204 70.404,106.204C68.7657,106.204 67.4292,104.869 67.4292,103.228C67.4292,101.589 68.7647,100.253 70.404,100.253C72.0312,100.254 73.3646,101.589 73.3646,103.228Z" style="fill:white;fill-rule:nonzero;"/>
                <path d="M80.1572,103.228C80.1572,104.868 78.837,106.204 77.1966,106.204C75.5582,106.204 74.236,104.869 74.236,103.228C74.236,101.589 75.5582,100.253 77.1966,100.253C78.837,100.254 80.1572,101.589 80.1572,103.228Z" style="fill:white;fill-rule:nonzero;"/>
                <path d="M75.9341,108.904C66.2549,108.904 58.3894,100.994 58.3894,91.2701C58.3894,87.9903 59.2881,84.7967 60.9862,82.0266C64.8334,75.8582 66.8659,68.6887 66.8659,61.3459C66.8659,60.2709 66.8223,59.1827 66.721,58.0206L66.7899,58.2972C66.7757,58.0651 66.7625,57.8331 66.7625,57.6001C66.7625,52.5208 70.8843,48.3829 75.9352,48.3829C80.987,48.3829 85.1078,52.5208 85.1078,57.6001C85.1078,57.904 85.0936,58.21 85.0662,58.5282L85.0328,58.7754L85.0186,59.0358C84.9608,59.8058 84.9315,60.5739 84.9315,61.3449C84.9315,68.0199 86.659,74.623 89.8942,80.4581L90.1991,80.9799L90.5335,81.4876C92.4647,84.3762 93.4799,87.7715 93.4799,91.2691C93.4809,100.994 85.6144,108.904 75.9341,108.904ZM102.914,73.1427C100.969,69.6451 99.853,65.6399 99.853,61.3449C99.853,60.894 99.8672,60.4431 99.8946,59.9943C99.9837,59.2101 100.011,58.4117 100.011,57.6001C100.011,45.2055 90.7362,34.9892 78.7792,33.5657L78.7792,34.0155C78.7792,35.8008 77.3425,37.2517 75.5714,37.2517C73.8003,37.2517 72.3474,35.7998 72.3474,34.0155L72.3474,33.668C60.7552,35.3945 51.842,45.4517 51.842,57.6001C51.842,58.1665 51.8714,58.7308 51.9129,59.2982L51.8572,59.2982C51.9129,59.9801 51.9585,60.662 51.9585,61.3459C51.9585,66.0472 50.6089,70.4304 48.3018,74.1448C45.2389,79.1237 43.4688,84.9862 43.4688,91.2701C43.4688,109.295 58.0104,123.896 75.9331,123.896C93.8558,123.896 108.397,109.295 108.397,91.2701C108.398,84.5657 106.383,78.3243 102.914,73.1427Z" style="fill:white;"/>
                <path d="M75.5714,36.0906C74.4255,36.0906 73.4953,35.1615 73.4953,34.0155L73.4953,31.8817L73.5116,31.751L73.5116,31.6213C73.5116,31.4025 73.4953,30.3285 73.0303,29.3862C72.6686,28.6597 72.086,27.8765 70.5347,27.5138C69.4162,27.2524 68.7201,26.1348 68.9653,25.0324C69.1851,24.0739 70.0119,23.4072 70.9836,23.4072C71.1416,23.4072 71.2906,23.4214 71.4487,23.4498C74.7,24.1752 76.1662,26.3384 76.7467,27.5573C77.4864,29.0822 77.6455,30.6061 77.6455,31.6071C77.6455,31.8392 77.6455,31.9993 77.6313,32.0864L77.6313,34.0166C77.6313,35.1615 76.7011,36.0906 75.5714,36.0906Z" style="fill:white;fill-rule:nonzero;"/>
            </g>
        </g>
    </g>
</svg>
