<?xml version="1.0" standalone="no"?>
<!DOCTYPE svg PUBLIC "-//W3C//DTD SVG 1.1//EN" "http://www.w3.org/Graphics/SVG/1.1/DTD/svg11.dtd">
<svg width="152px" height="152px" version="1.1" xmlns="http://www.w3.org/2000/svg" xmlns:xlink="http://www.w3.org/1999/xlink" xml:space="preserve" style="fill-rule:evenodd;clip-rule:evenodd;stroke-linejoin:round;stroke-miterlimit:1.41421;">
    <g>
        <g id="calendar">
            <path d="M76,0C117.974,0 152,34.0264 152,76C152,117.974 117.974,152 76,152C34.0264,152 0,117.974 0,76C0,34.0264 34.0264,0 76,0Z" style="fill:rgb(204,125,170);"/>
            <path d="M76.001,9.31648C112.829,9.31648 142.685,39.1717 142.685,76C142.685,112.828 112.829,142.684 76.001,142.684C39.1727,142.684 9.3175,112.828 9.3175,76C9.3175,39.1717 39.1727,9.31648 76.001,9.31648Z" style="fill:rgb(186,120,153);"/>
            <g>
                <g>
                    <g>
                        <path d="M103.694,108.279L48.4143,108.279C42.7048,108.279 38.0603,103.633 38.0603,97.9239L38.0603,53.8765C38.0603,48.1661 42.7048,43.5215 48.4143,43.5215L54.0599,43.5215L54.0599,48.9108C54.0599,50.3617 55.2433,51.5421 56.6902,51.5421C58.1411,51.5421 59.3246,50.3617 59.3246,48.9108L59.3246,43.5215L93.3006,43.5215L93.3006,48.9108C93.3006,50.3617 94.48,51.5421 95.9309,51.5421C97.3818,51.5421 98.5612,50.3617 98.5612,48.9108L98.5612,43.5215L103.694,43.5215C109.406,43.5215 114.052,48.1661 114.052,53.8765L114.052,97.9249C114.052,103.633 109.406,108.279 103.694,108.279ZM48.4143,45.8995C44.017,45.8995 40.4373,49.4772 40.4373,53.8765L40.4373,97.9249C40.4373,102.323 44.017,105.903 48.4143,105.903L103.694,105.903C108.096,105.903 111.673,102.323 111.673,97.9249L111.673,53.8765C111.673,49.4772 108.096,45.8995 103.694,45.8995L100.939,45.8995L100.939,48.9118C100.939,51.6738 98.6929,53.9201 95.9309,53.9201C93.1699,53.9201 90.9226,51.6728 90.9226,48.9118L90.9226,45.8995L61.7016,45.8995L61.7016,48.9118C61.7016,51.6738 59.4553,53.9201 56.6912,53.9201C53.9302,53.9201 51.687,51.6728 51.687,48.9118L51.687,45.8995Z" style="fill:white;fill-rule:nonzero;"/>
                        <path d="M60.51,44.711L60.51,40.2539C60.51,38.1474 58.8038,36.4331 56.6902,36.4331C54.5848,36.4331 52.8724,38.1474 52.8724,40.2539" style="fill:white;fill-rule:nonzero;"/>
                        <path d="M52.8734,44.711L52.8734,48.9118C52.8734,51.0223 54.5848,52.7316 56.6912,52.7316C58.8048,52.7316 60.511,51.0223 60.511,48.9118" style="fill:white;fill-rule:nonzero;"/>
                        <path d="M99.7477,44.711L99.7477,40.2539C99.7477,38.1474 98.0434,36.4331 95.9299,36.4331C93.8244,36.4331 92.1101,38.1474 92.1101,40.2539" style="fill:white;fill-rule:nonzero;"/>
                        <path d="M92.1111,44.711L92.1111,48.9118C92.1111,51.0223 93.8244,52.7316 95.9309,52.7316C98.0444,52.7316 99.7487,51.0223 99.7487,48.9118" style="fill:white;fill-rule:nonzero;"/>
                    </g>
                    <rect x="40.2995" y="60.9781" width="72.3413" height="2.37801" style="fill:white;"/>
                </g>
                <path d="M86.5921,72.5571L83.0418,72.5571L83.0418,76.0091L85.0054,76.0091C85.973,76.1388 86.4624,76.5694 86.4624,77.3182L86.4442,96.8742L90.0938,96.8742L90.1211,75.9088C90.1211,75.5795 90.0654,75.3191 90.0006,75.1479C89.4139,73.4082 88.272,72.5571 86.5921,72.5571Z" style="fill:white;fill-rule:nonzero;"/>
                <path d="M72.5774,72.243L61.9589,72.2298L61.9549,75.8004L71.0778,75.8146C71.2247,75.8146 71.395,75.8267 71.6199,75.8663C72.3129,76.1196 72.6453,76.6353 72.6453,77.378L72.6453,81.366C72.6453,81.5028 72.6179,81.6851 72.5784,81.907C72.3038,82.597 71.8063,82.9425 71.0687,82.9425L61.9498,82.9294L61.9498,86.4999L71.0667,86.4999C71.2055,86.4999 71.3818,86.5121 71.6087,86.5769C72.2977,86.8383 72.6382,87.3267 72.6382,88.0694L72.6301,92.0594C72.6301,92.2013 72.6128,92.3958 72.5662,92.6116C72.2967,93.2824 71.7982,93.635 71.0667,93.635L61.9356,93.635L61.9356,97.1873L72.5541,97.1994C73.1103,97.1994 73.5713,97.1224 73.9118,96.9603C75.4255,96.2551 76.1945,95.173 76.1945,93.7738L76.1945,86.3753C76.1945,85.8352 76.0567,85.281 75.7102,84.6873C76.0567,84.1928 76.1945,83.6528 76.1945,83.053L76.2026,75.6758C76.2026,75.3434 76.1743,75.0841 76.0983,74.8946C75.4954,73.1225 74.2897,72.243 72.5774,72.243Z" style="fill:white;fill-rule:nonzero;"/>
            </g>
        </g>
    </g>
</svg>
