<?xml version="1.0" standalone="no"?>
<!DOCTYPE svg PUBLIC "-//W3C//DTD SVG 1.1//EN" "http://www.w3.org/Graphics/SVG/1.1/DTD/svg11.dtd">
<svg width="152px" height="152px" version="1.1" xmlns="http://www.w3.org/2000/svg" xmlns:xlink="http://www.w3.org/1999/xlink" xml:space="preserve" style="fill-rule:evenodd;clip-rule:evenodd;stroke-linejoin:round;stroke-miterlimit:1.41421;">
    <g>
        <g id="pen">
            <path d="M76,0C117.974,0 152,34.0264 152,76C152,117.974 117.974,152 76,152C34.0264,152 0,117.974 0,76C0,34.0264 34.0264,0 76,0Z" style="fill:rgb(204,125,170);"/>
            <path d="M76,9.31559C112.829,9.31559 142.684,39.1712 142.684,76C142.684,112.829 112.829,142.684 76,142.684C39.1712,142.684 9.31559,112.829 9.31559,76C9.31559,39.1712 39.1712,9.31559 76,9.31559Z" style="fill:rgb(178,86,132);"/>
            <g>
                <path d="M79.2494,83.5556C86.0492,79.4186 91.016,74.1914 92.9492,67.9347C96.6242,55.9898 100.17,47.579 102.375,41.0974C103.303,38.3789 102.338,35.1508 99.1492,33.3392C95.9595,31.5356 92.5835,32.3016 90.8154,34.553C85.9509,40.761 80.6254,47.9114 72.5277,56.3921C67.9742,61.1411 66.1302,68.7504 66.5101,75.9625ZM92.9989,36.8855C93.1833,36.6301 93.4558,36.4498 93.7882,36.3819C94.2036,36.2826 94.6515,36.3859 95.0172,36.6301C95.6778,37.0992 95.8602,37.9807 95.4306,38.5877L86.1181,51.4344C85.9397,51.6887 85.6672,51.87 85.346,51.9389C85.2548,51.9562 85.1697,51.9622 85.0744,51.9622C84.734,51.9795 84.3976,51.8802 84.1048,51.6796C83.7806,51.4496 83.5627,51.1182 83.4918,50.7616C83.4107,50.3887 83.4756,50.028 83.6853,49.7331Z" style="fill:white;fill-rule:nonzero;"/>
                <path d="M76.5684,88.6481C76.2969,89.1324 75.8267,89.4435 75.2999,89.562C74.772,89.6775 74.1853,89.5955 73.6594,89.2874L64.1584,83.6205C63.0956,83.0125 62.6923,81.7419 63.2465,80.7814C63.8068,79.8158 65.1068,79.5281 66.1596,80.135L75.6585,85.8131C76.7164,86.4139 77.1257,87.6815 76.5684,88.6481Z" style="fill:white;fill-rule:nonzero;"/>
                <path d="M97.452,118.413C98.3568,118.413 99.0884,117.678 99.0884,116.773C99.0884,115.87 98.3558,115.138 97.452,115.138L69.0594,115.138C68.1586,115.138 67.4291,115.871 67.4291,116.773C67.4291,117.679 68.1597,118.413 69.0594,118.413Z" style="fill:white;fill-rule:nonzero;"/>
                <path d="M72.9786,105.209C69.6775,110.918 58.1004,109.175 53.2602,117.56L52.4233,117.073L59.8168,104.259C61.5605,104.539 63.4583,103.641 64.4887,101.852C65.7786,99.6122 65.2092,96.8623 63.206,95.7103C61.2049,94.5572 58.5401,95.4347 57.2493,97.678C56.1864,99.519 56.4022,101.692 57.6089,103.053L50.2428,115.814L49.3208,115.281C54.1569,106.9 46.8809,97.76 50.1759,92.0485C53.5084,86.2842 60.7064,85.5983 66.9995,89.2317C73.2947,92.8682 76.3546,99.3508 72.9786,105.209Z" style="fill:white;fill-rule:nonzero;"/>
            </g>
        </g>
    </g>
</svg>
