<?xml version="1.0" standalone="no"?>
<!DOCTYPE svg PUBLIC "-//W3C//DTD SVG 1.1//EN" "http://www.w3.org/Graphics/SVG/1.1/DTD/svg11.dtd">
<svg width="152px" height="152px" version="1.1" xmlns="http://www.w3.org/2000/svg" xmlns:xlink="http://www.w3.org/1999/xlink" xml:space="preserve" style="fill-rule:evenodd;clip-rule:evenodd;stroke-linejoin:round;stroke-miterlimit:1.41421;">
    <g>
        <g id="calculator">
            <path d="M76,0C117.974,0 152,34.0264 152,76C152,117.974 117.974,152 76,152C34.0264,152 0,117.974 0,76C0,34.0264 34.0264,0 76,0Z" style="fill:rgb(204,125,170);"/>
            <path d="M76,9.31648C112.828,9.31648 142.684,39.1717 142.684,76C142.684,112.828 112.828,142.684 76,142.684C39.1717,142.684 9.31648,112.828 9.31648,76C9.31648,39.1717 39.1717,9.31648 76,9.31648Z" style="fill:rgb(169,114,183);"/>
            <g>
                <path d="M94.5225,51.996L86.7613,51.9869L86.7593,54.5969L93.4262,54.607C93.5326,54.607 93.6583,54.6162 93.8224,54.6445C94.329,54.83 94.5722,55.2069 94.5722,55.75L94.5722,58.665C94.5722,58.7653 94.5519,58.898 94.5225,59.0611C94.3219,59.5647 93.9582,59.818 93.4191,59.818L86.7532,59.8089L86.7532,62.4189L93.4171,62.4189C93.5194,62.4189 93.6481,62.428 93.8143,62.4756C94.3189,62.6661 94.5661,63.0238 94.5661,63.5659L94.56,66.4829C94.56,66.5873 94.5479,66.7291 94.5144,66.8862C94.3189,67.3766 93.9521,67.6339 93.4171,67.6339L86.7431,67.6339L86.7431,70.2308L94.5053,70.2399C94.9116,70.2399 95.248,70.1832 95.4972,70.0646C96.6037,69.5489 97.165,68.7586 97.165,67.7352L97.165,62.3277C97.165,61.9326 97.0647,61.5273 96.8114,61.0936C97.0647,60.7319 97.165,60.3368 97.165,59.898L97.1711,54.5057C97.1711,54.2626 97.1498,54.0731 97.0951,53.9353C96.6563,52.6384 95.7749,51.996 94.5225,51.996ZM80.1795,51.9808L73.4771,51.9727L73.473,54.5908L78.8573,54.5969C78.9697,54.5969 79.0933,54.601 79.2554,54.6293C79.7762,54.8249 80.0204,55.1917 80.0204,55.7398L80.0154,58.6508C80.0154,58.7643 79.9961,58.8889 79.9515,59.0459C79.7722,59.5505 79.4034,59.8028 78.8532,59.8028L74.623,59.7987C74.4893,59.7987 74.3241,59.8129 74.1306,59.8454C72.8347,60.2709 72.1812,61.0703 72.1812,62.2284L72.1772,70.2176L82.6082,70.2267L82.6122,67.6207L74.7993,67.6207L74.8034,63.5476C74.8034,63.4473 74.8156,63.3095 74.8328,63.1474C75.0304,62.657 75.3951,62.4047 75.9311,62.4047L80.1684,62.4098C80.3031,62.4098 80.4632,62.3905 80.6608,62.3571C81.9658,61.9194 82.6203,61.1271 82.6203,59.9842L82.6224,54.4115L82.5788,53.8735C82.1188,52.606 81.3234,51.9808 80.1795,51.9808ZM101.146,33.6467L50.3982,33.6042C46.4507,33.594 43.2185,36.8191 43.2145,40.7716L43.1547,111.169C43.1466,115.113 46.3727,118.346 50.3201,118.346L101.074,118.395C105.024,118.395 108.262,115.165 108.273,111.225L108.334,40.8264C108.339,36.8718 105.099,33.6518 101.146,33.6467ZM55.2474,114.04C52.2422,114.04 49.8014,111.606 49.8014,108.595C49.8054,105.594 52.2493,103.17 55.2606,103.17C58.2516,103.175 60.6894,105.609 60.6894,108.605C60.6802,111.615 58.2506,114.045 55.2474,114.04ZM55.2596,101.55C52.2503,101.55 49.8085,99.1022 49.8085,96.096C49.8146,93.0949 52.2604,90.6571 55.2666,90.6571C58.2597,90.6571 60.7005,93.1 60.7005,96.1052C60.6944,99.1255 58.2597,101.55 55.2596,101.55ZM55.2666,89.041C52.2604,89.041 49.8247,86.5982 49.8247,83.5869C49.8267,80.5858 52.2746,78.148 55.2768,78.148C58.283,78.148 60.7147,80.5949 60.7147,83.596C60.7046,86.6022 58.2718,89.041 55.2666,89.041ZM68.558,114.055C65.5832,114.055 63.1271,111.626 63.1342,108.605C63.1342,105.613 65.5882,103.18 68.5721,103.18C71.5783,103.185 74.0101,105.619 74.0101,108.62C74.006,111.625 71.5723,114.059 68.558,114.055ZM68.5732,101.56C65.5933,101.555 63.1525,99.1266 63.1525,96.1052C63.1545,93.1 65.6024,90.6652 68.5782,90.6713C71.5925,90.6713 74.0171,93.104 74.0171,96.1112C74.0182,99.1407 71.5794,101.564 68.5732,101.56ZM68.5792,89.0512C65.6065,89.0512 63.1565,86.6174 63.1565,83.596C63.1626,80.5949 65.6166,78.1561 68.5944,78.1662C71.5996,78.1662 74.0364,80.605 74.0323,83.6062C74.0273,86.6256 71.5925,89.0512 68.5792,89.0512ZM81.8989,114.068C78.8806,114.058 76.4549,111.63 76.4549,108.619C76.459,105.622 78.8846,103.184 81.903,103.198C84.9031,103.203 87.3409,105.636 87.3338,108.633C87.3348,111.64 84.893,114.068 81.8989,114.068ZM81.908,101.564C78.8907,101.564 76.463,99.1397 76.463,96.1102C76.4691,93.1131 78.8978,90.6794 81.9172,90.6794C84.9092,90.6845 87.348,93.1233 87.3429,96.1244C87.3429,99.1448 84.9031,101.574 81.908,101.564ZM81.9192,89.0603C78.9029,89.0603 76.4742,86.6266 76.4742,83.6062C76.4792,80.605 78.9069,78.1713 81.9232,78.1713C84.9223,78.1713 87.3571,80.6152 87.353,83.6204C87.353,86.6397 84.9092,89.0664 81.9192,89.0603ZM100.095,109.062C100.095,111.83 97.9208,114.084 95.2936,114.078C92.6552,114.073 90.5021,111.82 90.5041,109.058L90.5132,95.8823C90.5132,93.104 92.6765,90.8608 95.3057,90.8608C97.9452,90.8608 100.109,93.1142 100.104,95.8863ZM95.249,89.0745C92.2408,89.0694 89.8131,86.6397 89.8162,83.6194C89.8162,80.6142 92.2519,78.1804 95.251,78.1804C98.2592,78.1906 100.695,80.6294 100.691,83.6254C100.691,86.6458 98.2522,89.0745 95.249,89.0745ZM101.646,68.639C101.646,71.4112 99.3768,73.6656 96.6138,73.6595L55.1876,73.621C52.4195,73.621 50.1651,71.3635 50.1651,68.5904L50.1844,46.78C50.1844,44.021 52.4509,41.7636 55.2119,41.7636L96.6462,41.8071C99.4133,41.8071 101.666,44.0686 101.666,46.8327Z" style="fill:white;fill-rule:nonzero;"/>
                <path d="M64.7919,51.9656L62.1281,51.9656L62.1281,54.5554L63.6003,54.5554C64.3268,54.6526 64.6926,54.9748 64.6926,55.5372L64.6784,70.2044L67.4151,70.2044L67.4363,54.4794C67.4363,54.2332 67.3948,54.0366 67.3451,53.9089C66.9064,52.6049 66.0503,51.9656 64.7919,51.9656Z" style="fill:white;fill-rule:nonzero;"/>
            </g>
        </g>
    </g>
</svg>
