<?xml version="1.0" standalone="no"?>
<!DOCTYPE svg PUBLIC "-//W3C//DTD SVG 1.1//EN" "http://www.w3.org/Graphics/SVG/1.1/DTD/svg11.dtd">
<svg width="152px" height="152px" version="1.1" xmlns="http://www.w3.org/2000/svg" xmlns:xlink="http://www.w3.org/1999/xlink" xml:space="preserve" style="fill-rule:evenodd;clip-rule:evenodd;stroke-linejoin:round;stroke-miterlimit:1.41421;">
    <g>
        <g id="stewpot">
            <g>
                <path d="M76,0C117.974,0 152,34.0264 152,76C152,117.974 117.974,152 76,152C34.0264,152 0,117.974 0,76C0,34.0264 34.0264,0 76,0Z" style="fill:rgb(204,125,170);"/>
                <path d="M76,9.31559C112.829,9.31559 142.684,39.1712 142.684,76C142.684,112.829 112.829,142.684 76,142.684C39.1712,142.684 9.31559,112.829 9.31559,76C9.31559,39.1712 39.1712,9.31559 76,9.31559Z" style="fill:rgb(198,96,142);"/>
            </g>
            <g>
                <g>
                    <path d="M108.909,86.5305C108.909,86.5305 110.359,94.7801 102.724,94.7801L49.571,94.7801C43.5059,94.7801 44.1229,87.6217 44.1229,87.6217L44.1229,59.528L108.908,59.528L108.908,86.5305Z" style="fill:white;fill-rule:nonzero;"/>
                    <path d="M91.3727,66.9134C91.3727,68.5254 92.6726,73.2278 94.2796,73.2278L123.756,69.8244C125.367,69.8244 126.665,68.5254 126.665,66.9134C126.665,65.3105 125.367,64.0024 123.756,64.0024L94.2796,64.0024C92.6726,64.0024 91.3727,65.3105 91.3727,66.9134" style="fill:white;fill-rule:nonzero;"/>
                    <path d="M61.752,66.9134C61.752,68.5254 60.4521,73.2278 58.8451,73.2278L29.3683,69.8244C27.7553,69.8244 26.4594,68.5254 26.4594,66.9134C26.4594,65.3105 27.7553,64.0024 29.3683,64.0024L58.8451,64.0024C60.451,64.0024 61.752,65.3105 61.752,66.9134" style="fill:white;fill-rule:nonzero;"/>
                    <path d="M112.876,54.2309C112.876,55.7385 111.651,56.9574 110.153,56.9574L42.977,56.9574C41.4754,56.9574 40.2524,55.7385 40.2524,54.2309C40.2524,52.7211 41.4754,51.5033 42.977,51.5033L110.153,51.5033C111.651,51.5022 112.876,52.7201 112.876,54.2309" style="fill:white;fill-rule:nonzero;"/>
                </g>
                <g>
                    <path d="M76.5735,106.714C76.5674,106.729 76.5573,106.75 76.5441,106.771C76.536,106.758 76.5208,106.758 76.5107,106.748C76.5583,106.724 76.5735,106.714 76.5735,106.714" style="fill:rgb(245,245,245);fill-rule:nonzero;"/>
                    <path d="M69.4809,110.561C69.4353,112.852 70.5732,114.903 72.3544,116.171C72.2318,115.818 72.168,115.434 72.17,115.032C72.1822,114.622 72.2734,114.234 72.4213,113.872C72.6077,113.353 73.0171,112.753 73.7395,112.077C73.7395,112.077 75.5329,109.864 74.6737,108.041C74.6737,108.041 78.3983,111.446 78.8765,114.147C78.991,114.477 79.0346,114.822 79.0265,115.183C79.0103,116.007 78.6698,116.756 78.1359,117.325C81.2029,116.65 83.5283,114.044 83.6073,110.875C83.6235,110.136 83.508,109.418 83.3023,108.741C82.3094,103.183 74.6403,96.151 74.6403,96.151C76.4053,99.9273 72.6888,104.478 72.6888,104.478C71.2226,105.877 70.3837,107.101 69.9956,108.172C69.6876,108.916 69.5073,109.717 69.4809,110.561M80.3123,104.307C80.3954,104.262 80.4531,104.239 80.4531,104.239C80.4197,104.274 80.3954,104.32 80.366,104.357C80.3498,104.335 80.3356,104.324 80.3123,104.307M73.319,104.38C73.319,104.38 73.392,104.407 73.5125,104.465C73.4892,104.487 73.4588,104.51 73.4294,104.531C73.398,104.484 73.3676,104.426 73.319,104.38" style="fill:rgb(245,245,245);fill-rule:nonzero;"/>
                    <path d="M76.5958,106.744C76.5816,106.758 76.5704,106.766 76.5583,106.782C76.5441,106.758 76.5208,106.728 76.4985,106.705C76.4985,106.705 76.5441,106.72 76.5958,106.744" style="fill:rgb(245,245,245);fill-rule:nonzero;"/>
                </g>
                <g>
                    <path d="M90.0707,106.714C90.0626,106.729 90.0544,106.75 90.0392,106.771C90.0332,106.758 90.018,106.758 90.0058,106.748C90.0544,106.724 90.0707,106.714 90.0707,106.714" style="fill:rgb(245,245,245);fill-rule:nonzero;"/>
                    <path d="M82.9781,110.561C82.9325,112.852 84.0683,114.903 85.8496,116.171C85.729,115.818 85.6631,115.434 85.6672,115.032C85.6793,114.622 85.7705,114.234 85.9185,113.872C86.1049,113.353 86.5142,112.753 87.2367,112.077C87.2367,112.077 89.0301,109.864 88.1709,108.041C88.1709,108.041 91.8935,111.446 92.3717,114.147C92.4862,114.477 92.5318,114.822 92.5237,115.183C92.5075,116.007 92.165,116.756 91.631,117.325C94.7001,116.65 97.0234,114.044 97.1045,110.875C97.1207,110.136 97.0052,109.418 96.7995,108.741C95.8065,103.183 88.1354,96.151 88.1354,96.151C89.9025,99.9273 86.186,104.478 86.186,104.478C84.7198,105.877 83.8809,107.101 83.4928,108.172C83.1838,108.916 83.0034,109.717 82.9781,110.561M93.8084,104.307C93.8915,104.262 93.9493,104.239 93.9493,104.239C93.9158,104.274 93.8915,104.32 93.8621,104.357C93.8459,104.335 93.8328,104.324 93.8084,104.307M86.8131,104.38C86.8131,104.38 86.8861,104.407 87.0087,104.465C86.9854,104.487 86.955,104.51 86.9236,104.531C86.8942,104.484 86.8648,104.426 86.8131,104.38" style="fill:rgb(245,245,245);fill-rule:nonzero;"/>
                    <path d="M90.0919,106.744C90.0778,106.758 90.0666,106.766 90.0544,106.782C90.0382,106.758 90.017,106.728 89.9926,106.705C89.9937,106.705 90.0382,106.72 90.0919,106.744" style="fill:rgb(245,245,245);fill-rule:nonzero;"/>
                </g>
                <g>
                    <path d="M62.6852,106.714C62.6771,106.729 62.669,106.75 62.6538,106.771C62.6477,106.758 62.6325,106.758 62.6204,106.748C62.67,106.724 62.6852,106.714 62.6852,106.714" style="fill:rgb(245,245,245);fill-rule:nonzero;"/>
                    <path d="M55.5926,110.561C55.547,112.852 56.6829,114.903 58.4641,116.171C58.3435,115.818 58.2777,115.434 58.2817,115.032C58.2939,114.622 58.3851,114.234 58.533,113.872C58.7174,113.353 59.1288,112.753 59.8512,112.077C59.8512,112.077 61.6446,109.864 60.7854,108.041C60.7854,108.041 64.508,111.446 64.9862,114.147C65.1007,114.477 65.1463,114.822 65.1382,115.183C65.122,116.007 64.7795,116.756 64.2456,117.325C67.3146,116.65 69.638,114.044 69.719,110.875C69.7352,110.136 69.6197,109.418 69.412,108.741C68.4201,103.183 60.7499,96.151 60.7499,96.151C62.515,99.9273 58.8005,104.478 58.8005,104.478C57.3344,105.877 56.4954,107.101 56.1053,108.172C55.7973,108.916 55.619,109.717 55.5926,110.561M66.424,104.307C66.5071,104.262 66.5628,104.239 66.5628,104.239C66.5314,104.274 66.5071,104.32 66.4777,104.357C66.4615,104.335 66.4453,104.324 66.424,104.307M59.4287,104.38C59.4287,104.38 59.5017,104.407 59.6222,104.465C59.5989,104.487 59.5706,104.51 59.5391,104.531C59.5077,104.484 59.4794,104.426 59.4287,104.38" style="fill:rgb(245,245,245);fill-rule:nonzero;"/>
                    <path d="M62.7075,106.744C62.6933,106.758 62.6822,106.766 62.67,106.782C62.6538,106.758 62.6325,106.728 62.6082,106.705C62.6082,106.705 62.6538,106.72 62.7075,106.744" style="fill:rgb(245,245,245);fill-rule:nonzero;"/>
                </g>
                <path d="M84.3571,44.6326C84.3571,47.2285 82.2536,49.3329 79.6567,49.3329L73.4649,49.3329C70.868,49.3329 68.7666,47.2285 68.7666,44.6326C68.7666,42.0367 70.868,39.9332 73.4649,39.9332L79.6567,39.9332C82.2536,39.9332 84.3571,42.0367 84.3571,44.6326Z" style="fill:white;fill-rule:nonzero;"/>
                <path d="M78.9232,52.8002C78.9232,53.4324 77.8846,53.9451 76.6019,53.9451C75.3191,53.9451 74.2806,53.4324 74.2806,52.8002L74.2806,46.4777C74.2806,45.8454 75.3191,45.3327 76.6019,45.3327C77.8846,45.3327 78.9232,45.8454 78.9232,46.4777Z" style="fill:white;fill-rule:nonzero;"/>
            </g>
        </g>
    </g>
</svg>
