<?xml version="1.0" standalone="no"?>
<!DOCTYPE svg PUBLIC "-//W3C//DTD SVG 1.1//EN" "http://www.w3.org/Graphics/SVG/1.1/DTD/svg11.dtd">
<svg width="152px" height="152px" version="1.1" xmlns="http://www.w3.org/2000/svg" xmlns:xlink="http://www.w3.org/1999/xlink" xml:space="preserve" style="fill-rule:evenodd;clip-rule:evenodd;stroke-linejoin:round;stroke-miterlimit:1.41421;">
    <g>
        <g id="bee">
            <path d="M76,0C117.974,0 152,34.0264 152,76C152,117.974 117.974,152 76,152C34.0264,152 0,117.974 0,76C0,34.0264 34.0264,0 76,0Z" style="fill:rgb(204,125,170);"/>
            <path d="M76,9.31648C112.828,9.31648 142.684,39.1717 142.684,76C142.684,112.828 112.828,142.684 76,142.684C39.1717,142.684 9.31648,112.828 9.31648,76C9.31648,39.1717 39.1717,9.31648 76,9.31648Z" style="fill:rgb(198,96,151);"/>
            <g>
                <path d="M52.8167,87.4523C51.0679,85.6164 45.7212,80.9384 42.2246,81.3802C41.1131,81.522 40.2306,82.2272 39.5588,83.3934L38.1839,82.6335C39.0846,80.9921 40.337,80.0387 41.9966,79.8269C47.0617,79.1025 53.681,86.0571 54.0001,86.3753Z" style="fill:rgb(245,245,245);fill-rule:nonzero;"/>
                <path d="M38.1484,86.6407C36.7715,86.6407 35.6073,85.5272 35.6073,84.205C35.6073,82.8453 36.7705,81.7682 38.1484,81.7682C39.5598,81.7682 40.6896,82.8453 40.6896,84.205C40.6886,85.5272 39.5588,86.6407 38.1484,86.6407M38.1484,83.3934C37.654,83.3934 37.2305,83.746 37.2305,84.205C37.2305,84.6812 37.654,85.051 38.1484,85.051C38.6601,85.051 39.0846,84.6812 39.0846,84.205C39.0836,83.746 38.6591,83.3934 38.1484,83.3934" style="fill:rgb(245,245,245);fill-rule:nonzero;"/>
                <path d="M52.5867,87.4878C52.5178,84.9102 51.5988,77.921 48.6514,75.9088C47.6797,75.308 46.6199,75.2016 45.3868,75.7143L44.8022,74.1782C46.5865,73.543 48.1732,73.6848 49.5146,74.6018C53.7691,77.4266 54.2109,87.0288 54.2109,87.4169Z" style="fill:rgb(245,245,245);fill-rule:nonzero;"/>
                <path d="M43.8498,77.8147C43.2327,77.8147 42.6329,77.6201 42.1739,77.1794C41.1141,76.2087 41.0077,74.6727 41.8902,73.6848C42.72,72.7131 44.4162,72.626 45.3878,73.5075C46.4264,74.4255 46.5692,76.0142 45.6685,77.0021C45.173,77.4975 44.5377,77.8147 43.8498,77.8147M43.6735,74.4599C43.4435,74.4599 43.2317,74.5663 43.0899,74.7426C42.7727,75.0962 42.8437,75.6433 43.2327,75.9595C43.6026,76.3313 44.1862,76.2776 44.4689,75.9595C44.7688,75.6423 44.7151,75.0435 44.3088,74.7426C44.1679,74.5673 43.9369,74.4599 43.6735,74.4599" style="fill:rgb(245,245,245);fill-rule:nonzero;"/>
                <path d="M63.6368,95.3605C62.8232,100.954 52.3395,104.026 46.8681,103.215C41.4312,102.437 43.1618,98.0779 43.9734,92.4657C44.786,86.8515 49.8693,82.9679 55.3062,83.7815C60.7056,84.5758 64.4656,89.7827 63.6368,95.3605" style="fill:rgb(245,245,245);fill-rule:nonzero;"/>
                <path d="M74.085,79.0852C74.085,79.0852 77.5269,75.6444 82.522,76.3678C87.501,77.1439 89.4058,99.7193 84.8008,104.679L76.768,104.679C76.769,104.68 82.135,91.6703 74.085,79.0852" style="fill:rgb(245,245,245);fill-rule:nonzero;"/>
                <path d="M65.9854,98.8905C65.9854,98.8905 68.7717,92.1476 64.7665,84.8403L70.6979,80.5858C70.6979,80.5858 80.1572,92.6775 71.8975,103.357L66.2316,101.184L65.26,100.657Z" style="fill:rgb(245,245,245);fill-rule:nonzero;"/>
                <path d="M63.5831,80.5503C63.5831,80.5503 55.4987,49.6079 77.4742,44.7009C99.468,39.8294 77.6171,81.1329 63.5831,80.5503" style="fill:rgb(245,245,245);fill-rule:nonzero;"/>
                <path d="M73.1336,43.8184C75.7102,43.0595 76.7346,43.253 78.6394,43.0595C78.3588,38.8942 76.2391,37.0765 70.2206,38.8222C50.5562,44.56 59.7005,72.166 59.7005,72.166C60.2121,72.166 60.7775,72.0951 61.3054,71.9532C59.7531,63.6581 58.818,47.9482 73.1336,43.8184" style="fill:rgb(245,245,245);fill-rule:nonzero;"/>
                <path d="M88.3125,104.68C88.3125,104.68 94.4192,93.1719 88.0663,76.8967C88.0663,76.8967 111.788,90.6288 88.3125,104.68" style="fill:rgb(245,245,245);fill-rule:nonzero;"/>
                <path d="M100.492,90.5234C100.492,91.8649 100.191,93.0301 99.6808,94.1426C107.553,92.0067 122.837,89.1647 122.837,89.1647C120.614,89.7645 107.093,88.2639 99.8551,87.4169C100.262,88.3693 100.492,89.4463 100.492,90.5234" style="fill:rgb(245,245,245);fill-rule:nonzero;"/>
            </g>
        </g>
    </g>
</svg>
