<?xml version="1.0" standalone="no"?>
<!DOCTYPE svg PUBLIC "-//W3C//DTD SVG 1.1//EN" "http://www.w3.org/Graphics/SVG/1.1/DTD/svg11.dtd">
<svg width="152px" height="152px" version="1.1" xmlns="http://www.w3.org/2000/svg" xmlns:xlink="http://www.w3.org/1999/xlink" xml:space="preserve" style="fill-rule:evenodd;clip-rule:evenodd;stroke-linejoin:round;stroke-miterlimit:1.41421;">
    <g>
        <g id="hot air ballon">
            <path d="M76,-0.009C117.974,-0.009 152,34.0174 152,75.991C152,117.965 117.974,151.991 76,151.991C34.0264,151.991 0,117.965 0,75.991C0,34.0174 34.0264,-0.009 76,-0.009Z" style="fill:rgb(204,165,219);"/>
            <path d="M76.001,9.30748C112.829,9.30748 142.685,39.1627 142.685,75.991C142.685,112.819 112.829,142.675 76.001,142.675C39.1727,142.675 9.3175,112.819 9.3175,75.991C9.3175,39.1627 39.1727,9.30748 76.001,9.30748Z" style="fill:rgb(136,132,206);"/>
            <g>
                <path d="M109.343,51.6851C109.343,48.5421 108.728,45.5298 107.591,42.7121C107.33,42.0616 107.038,41.4233 106.72,40.793C106.51,40.3756 106.289,39.9642 106.055,39.5549C100.674,30.1857 89.2538,23.7194 76.0294,23.7083C76.0405,23.7083 76.0486,23.7083 76.0486,23.7083C85.9578,23.7306 94.5124,30.1938 98.5419,39.5549C98.7162,39.9632 98.8824,40.3756 99.0414,40.793C99.2796,41.4222 99.4954,42.0616 99.6929,42.7121C100.546,45.5298 101.009,48.5431 101.009,51.6851C101.009,51.7509 101.005,51.8198 101.005,51.8857C101.031,53.8422 100.971,69.8104 92.3168,86.0785L88.734,86.0785C95.48,69.8104 95.5266,53.8422 95.5074,51.8857C95.5074,51.8198 95.5094,51.7509 95.5094,51.6851C95.5094,48.5421 95.1507,45.5298 94.485,42.7121C94.332,42.0616 94.1618,41.4233 93.9764,40.793C93.8538,40.3756 93.7241,39.9642 93.5863,39.5549C90.4423,30.1948 83.7764,23.7316 76.0567,23.7083C76.0446,23.7083 76.0344,23.7083 76.0243,23.7083C79.8887,23.7174 83.2283,30.1847 84.7987,39.5549C84.8707,39.9632 85.1726,42.0616 85.2476,42.711C85.5819,45.5288 85.7613,48.5421 85.7613,51.6841C85.7613,51.7499 85.7613,51.8188 85.7613,51.8847C85.7714,53.8412 85.7481,69.8094 82.3731,86.0775L78.7205,86.0775C80.1643,69.8094 80.1744,53.8412 80.1694,51.8847C80.1694,51.8188 80.1694,51.7499 80.1694,51.6841C80.1694,48.5411 79.7418,39.3563 79.7367,39.255C79.0538,30.0408 77.6384,23.7072 76.003,23.7072L75.999,23.7072C74.3495,23.7072 72.9188,30.1766 72.2471,39.5539C72.2167,39.9602 72.1873,40.3746 72.163,40.792C72.1224,41.4212 72.086,42.0606 72.0535,42.711C71.9117,45.5288 71.8357,48.5421 71.8357,51.6841C71.8357,51.7499 71.8357,51.8188 71.8357,51.8847C71.8306,53.8412 71.8418,69.8094 73.2816,86.0775L69.6431,86.0775C66.2691,69.8094 66.2458,53.8412 66.2549,51.8847C66.2549,51.8188 66.2549,51.7499 66.2549,51.6841C66.2549,48.5411 66.4373,45.5288 66.7666,42.711C66.8436,42.0606 66.9307,41.4222 67.0219,40.792C67.0837,40.3746 67.1486,39.9632 67.2175,39.5539C68.79,30.1766 72.1326,23.7072 75.999,23.7072C68.2601,23.7072 61.581,30.1766 58.4309,39.5539C58.2951,39.9622 58.1634,40.3746 58.0388,40.792C57.8534,41.4212 57.6832,42.0606 57.5302,42.711C56.8685,45.5288 56.5068,48.5421 56.5068,51.6841C56.5068,51.7499 56.5088,51.8188 56.5088,51.8847C56.4876,53.8412 56.5372,69.8094 63.2832,86.0775L59.6873,86.0775C51.0324,69.8104 50.9716,53.8422 50.998,51.8857C50.998,51.8198 50.998,51.7509 50.998,51.6851C50.998,48.5421 51.458,45.5298 52.3101,42.7121C52.5067,42.0616 52.7245,41.4233 52.9636,40.793C53.1197,40.3756 53.2868,39.9642 53.4631,39.5549C57.5008,30.1776 66.0756,23.7083 75.999,23.7083C62.7654,23.7083 51.3334,30.1776 45.9492,39.5549C45.7161,39.9632 45.4922,40.3756 45.2825,40.793C44.9653,41.4222 44.6755,42.0616 44.4141,42.7121C43.2783,45.5298 42.6613,48.5431 42.6613,51.6851C42.6613,51.7509 42.6663,51.8198 42.6663,51.8857C42.6289,53.8422 42.7109,69.8104 54.2463,86.0785C54.4915,86.419 54.7357,86.7614 54.989,87.1029C57.2242,90.1263 63.9691,99.1672 63.9691,99.1672L88.0309,99.1672C88.0309,99.1672 94.7758,90.1263 97.015,87.1029C97.2663,86.7614 97.5115,86.419 97.7547,86.0785C109.292,69.8104 109.373,53.8422 109.338,51.8857C109.339,51.8198 109.343,51.7509 109.343,51.6851Z" style="fill:white;fill-rule:nonzero;"/>
                <path d="M85.6468,115.604C85.6468,114.469 84.7217,113.545 83.5869,113.545L68.4181,113.545C67.2803,113.545 66.3573,114.469 66.3573,115.604C66.3573,116.464 66.8851,117.199 67.6349,117.508C67.1273,118.075 66.8244,118.789 66.8244,119.57L66.8244,125.01C66.8244,126.828 68.4678,128.304 70.4861,128.304L81.519,128.304C83.5373,128.304 85.1787,126.828 85.1787,125.01L85.1787,119.57C85.1787,118.789 84.8747,118.074 84.3681,117.508C85.1179,117.199 85.6468,116.463 85.6468,115.604ZM83.8635,125.01C83.8635,126.099 82.8098,126.987 81.519,126.987L70.4861,126.987C69.1943,126.987 68.1415,126.099 68.1415,125.01L68.1415,119.57C68.1415,118.662 68.8781,117.895 69.867,117.666L82.136,117.666C83.1279,117.895 83.8635,118.661 83.8635,119.57ZM83.5859,116.347L68.4181,116.347C68.0098,116.347 67.6744,116.014 67.6744,115.604C67.6744,115.194 68.0098,114.862 68.4181,114.862L83.5869,114.862C83.9953,114.862 84.3276,115.194 84.3276,115.604C84.3276,116.014 83.9953,116.347 83.5859,116.347Z" style="fill:white;fill-rule:nonzero;"/>
                <path d="M82.4349,120.735L81.5088,120.735L81.5088,119.164C81.5088,118.92 81.3123,118.723 81.0691,118.723C80.828,118.723 80.6304,118.919 80.6304,119.164L80.6304,120.735L78.5614,120.735L78.5614,120.599C78.5614,120.359 78.3658,120.16 78.1217,120.16C77.8775,120.16 77.6819,120.358 77.6819,120.599L77.6819,120.735L75.6859,120.735L75.6859,119.746L79.7023,119.746C79.9444,119.746 80.143,119.548 80.143,119.305C80.143,119.065 79.9454,118.866 79.7023,118.866L75.6859,118.866L75.6859,118.656C75.6859,118.415 75.4883,118.22 75.2452,118.22C75.001,118.22 74.8064,118.414 74.8064,118.656L74.8064,118.866L69.8518,118.866C69.6097,118.866 69.4121,119.064 69.4121,119.305C69.4121,119.547 69.6087,119.746 69.8518,119.746L74.8064,119.746L74.8064,120.735L72.9533,120.735L72.9533,120.529C72.9533,120.287 72.7567,120.089 72.5115,120.089C72.2694,120.089 72.0728,120.286 72.0728,120.529L72.0728,120.735L71.2916,120.735C71.0474,120.735 70.8519,120.93 70.8519,121.176C70.8519,121.416 71.0464,121.615 71.2916,121.615L72.0728,121.615L72.0728,122.749L70.0676,122.749C69.8265,122.749 69.6299,122.945 69.6299,123.189C69.6299,123.432 69.8255,123.627 70.0676,123.627L72.0728,123.627L72.0728,125.561C72.0728,125.805 72.2683,126.002 72.5115,126.002C72.7557,126.002 72.9533,125.806 72.9533,125.561L72.9533,123.627L74.8672,123.627C74.9432,123.758 75.0851,123.847 75.2452,123.847C75.4042,123.847 75.5451,123.758 75.62,123.627L77.6809,123.627L77.6809,124.833L74.6697,124.833C74.4275,124.833 74.2299,125.029 74.2299,125.273C74.2299,125.517 74.4265,125.711 74.6697,125.711L77.6809,125.711L77.6809,126.138C77.6809,126.38 77.8755,126.576 78.1207,126.576C78.3638,126.576 78.5604,126.381 78.5604,126.138L78.5604,125.711L81.3579,125.711C81.6,125.711 81.7976,125.518 81.7976,125.273C81.7976,125.076 81.6608,124.909 81.4784,124.854C81.4987,124.807 81.5078,124.751 81.5078,124.698L81.5078,121.616L82.4339,121.616C82.6771,121.616 82.8746,121.418 82.8746,121.177C82.8746,120.931 82.6781,120.735 82.4349,120.735ZM74.8085,122.748L72.9553,122.748L72.9553,121.614L74.8085,121.614ZM77.6829,122.748L75.6869,122.748L75.6869,121.614L77.6829,121.614ZM78.5614,121.614L80.6304,121.614L80.6304,122.854C80.5544,122.789 80.4561,122.749 80.3497,122.749L78.5614,122.749ZM78.5614,124.832L78.5614,123.626L80.3497,123.626C80.4561,123.626 80.5544,123.591 80.6304,123.526L80.6304,124.696C80.6304,124.746 80.6415,124.792 80.6527,124.832Z" style="fill:white;fill-rule:nonzero;"/>
                <path d="M68.3523,111.835C68.3523,112.142 68.6005,112.392 68.9085,112.392C69.2145,112.392 69.4628,112.142 69.4628,111.835C69.4628,109.861 68.7028,107.985 67.9683,106.171C67.2377,104.376 66.5538,102.677 66.5538,100.92C66.5538,100.613 66.3056,100.367 65.9976,100.367C65.6906,100.367 65.4413,100.613 65.4413,100.92C65.4413,102.894 66.2022,104.771 66.9378,106.586C67.6643,108.383 68.3523,110.081 68.3523,111.835Z" style="fill:white;fill-rule:nonzero;"/>
                <path d="M73.7395,111.971L73.7395,100.786C73.7395,100.478 73.4913,100.228 73.1833,100.228C72.8753,100.228 72.627,100.478 72.627,100.786L72.627,111.971C72.627,112.279 72.8753,112.527 73.1833,112.527C73.4913,112.527 73.7395,112.278 73.7395,111.971Z" style="fill:white;fill-rule:nonzero;"/>
                <path d="M86.0065,100.368C85.6995,100.368 85.4523,100.614 85.4523,100.921C85.4523,102.677 84.7633,104.377 84.0358,106.172C83.2992,107.986 82.5403,109.862 82.5403,111.836C82.5403,112.143 82.7905,112.393 83.0945,112.393C83.4025,112.393 83.6508,112.143 83.6508,111.836C83.6508,110.082 84.3387,108.384 85.0672,106.587C85.7998,104.772 86.5627,102.895 86.5627,100.921C86.5627,100.614 86.3125,100.368 86.0065,100.368Z" style="fill:white;fill-rule:nonzero;"/>
                <path d="M79.377,111.971L79.377,100.786C79.377,100.478 79.1288,100.228 78.8218,100.228C78.5128,100.228 78.2645,100.478 78.2645,100.786L78.2645,111.971C78.2645,112.279 78.5128,112.527 78.8218,112.527C79.1288,112.527 79.377,112.278 79.377,111.971Z" style="fill:white;fill-rule:nonzero;"/>
            </g>
        </g>
    </g>
</svg>
