<?xml version="1.0" standalone="no"?>
<!DOCTYPE svg PUBLIC "-//W3C//DTD SVG 1.1//EN" "http://www.w3.org/Graphics/SVG/1.1/DTD/svg11.dtd">
<svg width="152px" height="152px" version="1.1" xmlns="http://www.w3.org/2000/svg" xmlns:xlink="http://www.w3.org/1999/xlink" xml:space="preserve" style="fill-rule:evenodd;clip-rule:evenodd;stroke-linejoin:round;stroke-miterlimit:1.41421;">
    <g>
        <g id="icecream">
            <path d="M76,-2.22045e-16C117.974,-2.22045e-16 152,34.0264 152,76C152,117.974 117.974,152 76,152C34.0264,152 -2.22045e-16,117.974 -2.22045e-16,76C-2.22045e-16,34.0264 34.0264,-2.22045e-16 76,-2.22045e-16Z" style="fill:rgb(204,165,219);"/>
            <path d="M76,9.31737C112.828,9.31737 142.683,39.1722 142.683,76C142.683,112.828 112.828,142.683 76,142.683C39.1722,142.683 9.31737,112.828 9.31737,76C9.31737,39.1722 39.1722,9.31737 76,9.31737Z" style="fill:rgb(148,141,211);"/>
            <g>
                <path d="M96.725,89.6103C101.284,84.1086 102.931,74.8845 102.931,74.8845L50.1888,74.8845C50.1888,74.8845 51.8352,84.1086 56.3926,89.6103C63.5903,98.2975 71.7385,97.1373 73.6838,102.103C74.6757,104.637 73.1519,110.588 71.5348,112.776C68.4719,116.912 57.5517,119.228 57.5517,119.228L95.5649,119.228C95.5649,119.228 84.6456,116.912 81.5837,112.776C79.9646,110.588 78.4428,104.637 79.4347,102.103C81.3791,97.1363 89.5282,98.2975 96.725,89.6103Z" style="fill:white;fill-rule:nonzero;"/>
                <path d="M94.2416,82.7783C93.0785,82.7783 92.1838,82.5706 91.8647,82.4835L55.1585,81.3679C54.9883,81.3629 54.8221,81.3051 54.6833,81.2048C54.4118,81.0072 48.0763,76.2857 49.7875,68.4213C51.3215,61.3603 55.6175,57.1748 62.5609,55.9802C62.9267,55.9184 63.3026,55.885 63.6795,55.885C64.8771,55.885 65.9947,56.2082 66.9805,56.6651C66.1,54.5516 65.6563,51.8109 67.0383,48.9081C68.1072,46.6669 71.5956,43.5098 76.003,43.5098C76.5887,43.5098 77.1824,43.5635 77.768,43.6709C81.4986,44.3619 83.9222,45.8492 84.9749,48.0975C85.5869,49.3985 85.6284,50.7379 85.4602,51.8707C86.8696,50.971 88.8382,50.0824 91.126,50.0824C94.2092,50.0824 97.0684,51.6782 99.6258,54.8272C103.876,60.0675 103.708,68.2916 103.439,71.5855C103.095,75.7761 101.868,78.8532 99.7919,80.7316C97.9185,82.4247 95.7371,82.7783 94.2416,82.7783ZM56.3277,79.0143L91.4037,80.0812C91.4766,80.0842 91.5516,80.0964 91.6235,80.1187C91.6296,80.1217 92.429,80.3628 93.5354,80.3628C96.4696,80.3628 100.107,78.7569 100.733,71.1144C100.924,68.8002 101.244,60.8881 97.4342,56.191C95.3045,53.5678 92.9853,52.2395 90.5414,52.2395C86.8888,52.2395 84.1279,55.1818 84.1005,55.2132C83.8178,55.5182 83.3548,55.5638 83.0184,55.3196C82.682,55.0754 82.5827,54.6215 82.7854,54.2588C82.7996,54.2345 84.214,51.6255 83.1532,49.3813C82.3771,47.7358 80.4459,46.6173 77.4205,46.057C76.9554,45.9729 76.4863,45.9273 76.0253,45.9273C72.542,45.9273 69.7131,48.4653 68.8955,50.1817C66.9461,54.271 69.5723,57.9762 70.8114,59.3977C71.0708,59.6622 71.2147,59.8344 71.2329,59.8516C71.5136,60.184 71.4842,60.6774 71.164,60.9763C70.8469,61.2732 70.3545,61.2691 70.0404,60.9662C70.0221,60.9469 69.862,60.7929 69.6148,60.5123C68.7911,59.6875 66.6543,57.8111 64.1942,57.8111C63.9247,57.8111 63.6582,57.8334 63.3989,57.8789C57.3713,58.9155 53.7937,62.41 52.4533,68.5591C51.1766,74.4316 55.3541,78.2219 56.3277,79.0143Z" style="fill:white;fill-rule:nonzero;"/>
                <g>
                    <path d="M92.5121,42.6779C88.8078,42.072 85.3143,44.5827 84.7074,48.286C84.1015,51.9913 86.6133,55.4837 90.3135,56.0917C94.0197,56.6986 97.5143,54.1869 98.1201,50.4826C98.7281,46.7783 96.2163,43.2848 92.5121,42.6779ZM92.6124,50.127C91.0652,49.8737 90.0156,48.4126 90.2689,46.8645C90.5222,45.3163 91.9822,44.2676 93.5324,44.5209C95.0795,44.7732 96.1292,46.2332 95.8739,47.7845C95.6226,49.3306 94.1626,50.3813 92.6124,50.127Z" style="fill:white;fill-rule:nonzero;"/>
                    <path d="M92.4169,48.211L93.3723,47.7804C96.2143,40.0872 103.045,37.2127 109.34,38.3222L107.842,34.7365C104.175,34.6828 99.489,36.4103 97.7848,38.3769C94.0025,41.0963 92.4169,48.211 92.4169,48.211Z" style="fill:white;fill-rule:nonzero;"/>
                </g>
                <path d="M42.3922,36.3039L38.7356,39.0355L41.4682,42.6911L44.4328,46.6558L46.752,49.7612L49.7146,53.7258L52.0379,56.8313L54.9984,60.7949L55.044,60.8537L58.8222,58.0309L55.9549,54.1929L52.9903,50.2283L50.67,47.1249L47.7075,43.1582L45.3862,40.0548L42.5148,36.2107ZM53.1493,50.8575L55.6925,54.2608L54.8394,60.1698L52.2942,56.7685ZM47.8655,43.7854L50.4107,47.1907L49.5555,53.0997L47.0124,49.6964ZM42.5807,36.7163L45.1278,40.1196L44.2727,46.0306L41.7296,42.6263Z" style="fill:white;fill-rule:nonzero;"/>
            </g>
        </g>
    </g>
</svg>
