<?xml version="1.0" standalone="no"?>
<!DOCTYPE svg PUBLIC "-//W3C//DTD SVG 1.1//EN" "http://www.w3.org/Graphics/SVG/1.1/DTD/svg11.dtd">
<svg width="152px" height="152px" version="1.1" xmlns="http://www.w3.org/2000/svg" xmlns:xlink="http://www.w3.org/1999/xlink" xml:space="preserve" style="fill-rule:evenodd;clip-rule:evenodd;stroke-linejoin:round;stroke-miterlimit:1.41421;">
    <g>
        <g id="airer">
            <path d="M76,0C117.974,0 152,34.0264 152,76C152,117.974 117.974,152 76,152C34.0264,152 0,117.974 0,76C0,34.0264 34.0264,0 76,0Z" style="fill:rgb(204,165,219);"/>
            <path d="M76,9.31547C112.829,9.31547 142.685,39.1712 142.685,76C142.685,112.829 112.829,142.685 76,142.685C39.1712,142.685 9.31547,112.829 9.31547,76C9.31547,39.1712 39.1712,9.31547 76,9.31547Z" style="fill:rgb(177,123,178);"/>
            <g>
                <path d="M118.304,86.4138C121.137,87.9063 122.738,90.3532 121.907,92.3705C121.077,94.3817 118.136,96.0626 115.393,95.5286C89.4919,89.7756 62.5121,89.7797 36.6033,95.5226C33.8646,96.0616 30.9242,94.3868 30.0944,92.3705C29.2534,90.3532 30.8705,87.9022 33.7085,86.4097C61.2902,72.8975 90.7108,72.9138 118.304,86.4138Z" style="fill:white;fill-rule:nonzero;"/>
                <path d="M77.2584,78.4074C76.0831,78.4074 75.1337,77.455 75.1337,76.2776L75.1337,67.4009C70.2237,66.3664 66.5184,61.8414 66.5184,56.4298C66.5184,50.2512 71.3362,45.2308 77.2584,45.2308C80.1501,45.2308 82.8574,46.4051 84.8899,48.546C85.6995,49.4022 85.666,50.7447 84.8109,51.5563C83.9598,52.3668 82.6001,52.3273 81.8037,51.4762C80.5838,50.1905 78.9667,49.4842 77.2584,49.4842C73.6808,49.4842 70.7688,52.5938 70.7688,56.4288C70.7688,60.2527 73.6808,63.3683 77.2584,63.3683C78.4347,63.3683 79.3841,64.3167 79.3841,65.493L79.3841,76.2776C79.3841,77.455 78.4347,78.4074 77.2584,78.4074Z" style="fill:white;fill-rule:nonzero;"/>
            </g>
        </g>
    </g>
</svg>
