<?xml version="1.0" standalone="no"?>
<!DOCTYPE svg PUBLIC "-//W3C//DTD SVG 1.1//EN" "http://www.w3.org/Graphics/SVG/1.1/DTD/svg11.dtd">
<svg width="152px" height="152px" version="1.1" xmlns="http://www.w3.org/2000/svg" xmlns:xlink="http://www.w3.org/1999/xlink" xml:space="preserve" style="fill-rule:evenodd;clip-rule:evenodd;stroke-linejoin:round;stroke-miterlimit:1.41421;">
    <g>
        <g id="hottub">
            <path d="M76,0C117.974,0 152,34.0264 152,76C152,117.974 117.974,152 76,152C34.0264,152 0,117.974 0,76C0,34.0264 34.0264,0 76,0Z" style="fill:rgb(204,165,219);"/>
            <path d="M76,9.31648C112.828,9.31648 142.684,39.1717 142.684,76C142.684,112.828 112.828,142.684 76,142.684C39.1717,142.684 9.31648,112.828 9.31648,76C9.31648,39.1717 39.1717,9.31648 76,9.31648Z" style="fill:rgb(122,121,188);"/>
            <g>
                <path d="M113.668,78.1531L38.342,78.0072C35.7015,78.0031 33.5353,79.4814 33.5312,81.293C33.5292,82.7338 34.895,83.9679 36.7776,84.4147C36.8161,84.5525 36.8525,84.6923 36.9042,84.8362L43.9906,104.252C44.7353,106.293 46.8945,108.083 49.4498,109.02C49.5765,110.508 49.2938,110.816 48.5795,112.668C48.1002,113.899 48.5754,115.544 49.9412,116.446C51.307,117.342 53.3709,116.678 54.0974,114.805C55.0225,112.42 55.4835,111.617 55.4875,109.718L96.4142,109.718C96.4112,111.617 96.8661,112.501 97.782,114.891C98.5024,116.77 100.567,117.44 101.933,116.547C103.302,115.65 103.779,114.008 103.309,112.776C102.544,110.771 102.273,110.389 102.485,108.768C104.679,107.787 106.497,106.201 107.217,104.413L115.04,84.9436C115.092,84.82 115.125,84.6954 115.164,84.5758C117.074,84.1422 118.468,82.9061 118.47,81.4551C118.472,79.6445 116.311,78.1571 113.668,78.1531Z" style="fill:white;fill-rule:nonzero;"/>
                <g>
                    <g>
                        <path d="M50.5491,97.5277C49.8885,97.5277 49.3546,96.9887 49.3546,96.324L49.4397,46.9816C49.4184,46.1548 49.4285,41.7585 51.6262,38.7655C52.9049,37.0228 54.6607,36.1058 56.7044,36.1109L56.8473,36.1109C56.8635,36.1109 56.9688,36.1149 56.982,36.1149C59.2303,36.2142 61.1321,37.3399 62.3358,39.2792C62.6834,39.8425 62.5111,40.5862 61.9437,40.9317C61.3814,41.2864 60.6448,41.1101 60.2922,40.5437C59.4978,39.264 58.3478,38.5801 56.8797,38.5132L56.7794,38.5132C55.4389,38.5102 54.3781,39.0765 53.5594,40.187C51.7944,42.5954 51.8278,46.5155 51.842,46.9522L51.7559,96.3281C51.7559,96.9907 51.2148,97.5277 50.5491,97.5277Z" style="fill:white;fill-rule:nonzero;"/>
                        <path d="M50.5491,98.3302C49.4468,98.3302 48.5501,97.4294 48.5501,96.325L48.6382,46.9806C48.6149,46.1143 48.62,41.5062 50.9808,38.2903C52.4114,36.3388 54.3872,35.3094 56.6922,35.3094L56.9466,35.3104C59.5383,35.4249 61.6681,36.6823 63.0187,38.8567C63.2994,39.3126 63.3875,39.8516 63.2599,40.3765C63.1383,40.8983 62.8181,41.337 62.3662,41.6177C61.4695,42.18 60.1787,41.8831 59.6093,40.9672C58.9547,39.9104 58.0469,39.3724 56.8442,39.3197C55.6932,39.3197 54.8796,39.7473 54.2048,40.6632C52.5441,42.9278 52.6445,46.8904 52.6455,46.9289L52.5593,96.3311C52.5543,97.4315 51.6545,98.3302 50.5491,98.3302ZM56.7034,36.9123C54.9161,36.9123 53.3892,37.7178 52.2726,39.2397C50.1773,42.0919 50.231,46.472 50.2421,46.9614L50.153,96.3281C50.153,96.7627 50.9504,96.7617 50.9544,96.324L51.0416,46.9492C51.0253,46.5125 50.9625,42.3725 52.914,39.7128C53.8897,38.3855 55.1846,37.7128 56.7642,37.7128C58.6376,37.7867 60.0429,38.6196 60.9741,40.1191C61.0865,40.3035 61.3338,40.3704 61.5182,40.2488C61.6438,40.1738 61.6864,40.0624 61.7016,40.0016C61.7137,39.9418 61.7269,39.8233 61.6519,39.6997C60.5911,37.9914 58.9223,37.0005 56.9455,36.9164L56.7044,36.1099Z" style="fill:white;fill-rule:nonzero;"/>
                    </g>
                    <g>
                        <g>
                            <path d="M59.8423,57.2394C59.6083,57.2373 59.3803,57.1218 59.2324,56.9141C57.5129,54.4348 56.8625,51.4337 57.4035,48.465C57.9385,45.4952 59.6042,42.9136 62.0866,41.1921C63.9894,39.877 66.2185,39.1809 68.5245,39.1839C72.2298,39.1941 75.694,41.0128 77.7995,44.0484C77.9129,44.2105 77.9565,44.407 77.92,44.6066C77.8856,44.8012 77.7762,44.9744 77.612,45.0879L60.2739,57.1026C60.1402,57.1928 59.9913,57.2373 59.8423,57.2394ZM68.5225,40.6794C66.5174,40.6744 64.5882,41.2752 62.9346,42.4191C60.7836,43.9146 59.3387,46.1558 58.8686,48.7355C58.4461,51.0649 58.8635,53.4125 60.052,55.4318L76.1236,44.3017C74.2765,42.025 71.4872,40.6845 68.5225,40.6794Z" style="fill:white;fill-rule:nonzero;"/>
                            <path d="M59.8494,58.0408L59.8362,58.0408C59.3347,58.0368 58.8605,57.7845 58.5748,57.368C56.7287,54.7155 56.0347,51.5016 56.6112,48.3211C57.1857,45.1416 58.9699,42.3766 61.6286,40.5335C63.6662,39.1252 66.0401,38.3815 68.5022,38.3815C72.4882,38.3906 76.2037,40.336 78.4611,43.5904C78.6941,43.9298 78.7843,44.3432 78.7093,44.7505C78.6414,45.1578 78.4084,45.5145 78.0639,45.7496L60.7279,57.7602C60.4604,57.9436 60.1605,58.0368 59.8585,58.0408ZM68.5002,40.6794L68.5002,41.4809C66.6703,41.4809 64.9013,42.0341 63.3916,43.0808C61.4158,44.4537 60.0895,46.5135 59.6579,48.8794C59.3266,50.7133 59.5698,52.5908 60.3418,54.2565L74.923,44.1588C73.238,42.4505 70.9512,41.486 68.5184,41.4809Z" style="fill:white;fill-rule:nonzero;"/>
                        </g>
                        <g>
                            <g>
                                <path d="M64.8344,67.6704C65.1141,68.4516 66.1445,68.7951 67.1081,68.4019C68.0777,68.0129 68.5711,67.0513 68.2297,66.2995C67.8872,65.5437 65.2954,63.9306 65.2954,63.9306C65.2954,63.9306 64.5568,66.8963 64.8344,67.6704Z" style="fill:white;"/>
                                <path d="M66.2924,69.3685C65.2579,69.3685 64.3876,68.8082 64.0765,67.9389C63.7523,67.0331 64.2792,64.6986 64.5173,63.7371L64.7827,62.6661L65.723,63.2477C66.564,63.7746 68.563,65.0877 68.9643,65.9682C69.1932,66.4829 69.2003,67.0766 68.9754,67.6319C68.7079,68.3047 68.1385,68.8558 67.411,69.1466C67.0473,69.2936 66.6744,69.3685 66.2924,69.3685ZM65.8263,65.2417C65.6288,66.259 65.5224,67.1557 65.5913,67.408C65.7058,67.7251 66.2965,67.87 66.8112,67.6592C67.1303,67.5306 67.3816,67.3006 67.487,67.0351C67.5265,66.9328 67.564,66.7737 67.5002,66.6318C67.3745,66.4049 66.6795,65.8344 65.8263,65.2417Z" style="fill:white;fill-rule:nonzero;"/>
                            </g>
                            <g>
                                <path d="M72.2835,64.2174C72.6979,64.9378 73.7669,65.0968 74.6393,64.5487C75.5187,63.9975 75.8298,62.962 75.3647,62.2842C74.8946,61.6012 72.0677,60.4594 72.0677,60.4594C72.0677,60.4594 71.8742,63.501 72.2835,64.2174Z" style="fill:white;"/>
                                <path d="M73.544,65.6784C72.702,65.6784 71.9715,65.2833 71.5885,64.6186C71.1072,63.7827 71.2014,61.3935 71.2673,60.4057L71.3372,59.2962L72.3666,59.7146C73.2846,60.0855 75.4812,61.0338 76.0263,61.8302C76.3455,62.2973 76.4549,62.8809 76.3344,63.4726C76.1864,64.1758 75.7254,64.8141 75.0689,65.2275C74.5987,65.5224 74.0719,65.6784 73.544,65.6784ZM72.8236,61.6641C72.8124,62.6955 72.8742,63.5892 72.9847,63.8242C73.1498,64.11 73.7628,64.1556 74.2167,63.8678C74.5015,63.6895 74.7051,63.42 74.7619,63.1464C74.7831,63.0319 74.7933,62.8718 74.7021,62.7381C74.543,62.5385 73.7628,62.0987 72.8236,61.6641Z" style="fill:white;fill-rule:nonzero;"/>
                            </g>
                            <g>
                                <path d="M79.4571,59.2232C80.0113,59.8352 81.0863,59.7663 81.826,59.0398C82.5646,58.3093 82.6487,57.2414 82.0438,56.6679C81.4389,56.1056 78.4358,55.601 78.4358,55.601C78.4358,55.601 78.8968,58.6113 79.4571,59.2232Z" style="fill:white;"/>
                                <path d="M80.451,60.4401C79.8218,60.4401 79.2595,60.202 78.8623,59.7673C78.2129,59.048 77.7914,56.7003 77.6444,55.7246L77.4752,54.6273L78.5715,54.8117C79.5452,54.9759 81.8888,55.4277 82.594,56.0833C83.0104,56.4805 83.2414,57.0256 83.2485,57.6244C83.2576,58.3397 82.9466,59.0642 82.3913,59.6093C81.8523,60.1402 81.1461,60.4401 80.451,60.4401ZM79.4358,56.6132C79.6445,57.6234 79.8917,58.4856 80.0508,58.6893C80.1633,58.8098 80.3295,58.8352 80.451,58.8352C80.7287,58.8352 81.0265,58.7004 81.2616,58.4694C81.5048,58.2323 81.6446,57.9202 81.6426,57.6426C81.6405,57.5312 81.6132,57.368 81.4926,57.2525C81.2961,57.0965 80.4399,56.8371 79.4358,56.6132Z" style="fill:white;fill-rule:nonzero;"/>
                            </g>
                            <g>
                                <path d="M84.8403,53.5189C85.4867,54.0386 86.5425,53.8005 87.1626,52.9677C87.7867,52.1247 87.7087,51.0436 87.0217,50.5755C86.3358,50.1114 83.2779,50.0942 83.2779,50.0942C83.2779,50.0942 84.1979,53.0041 84.8403,53.5189Z" style="fill:white;"/>
                                <path d="M85.6478,54.5969C85.1564,54.5969 84.7045,54.4389 84.3347,54.145C83.5829,53.5442 82.8118,51.2807 82.5129,50.3353L82.1836,49.2846L83.284,49.2938C84.2759,49.2968 86.6701,49.3657 87.4716,49.9108C87.9397,50.231 88.2518,50.7325 88.3551,51.3242C88.4736,52.0365 88.2761,52.8096 87.81,53.4439C87.271,54.1673 86.4614,54.5969 85.6478,54.5969ZM84.4137,50.9311C84.7764,51.9008 85.1564,52.7194 85.3489,52.8978C85.4219,52.9586 85.5282,52.991 85.6488,52.991C85.8889,52.991 86.2426,52.8582 86.5212,52.4874C86.7259,52.2108 86.8181,51.8754 86.7715,51.5927C86.7512,51.4793 86.7026,51.3273 86.5668,51.2371C86.3479,51.1135 85.4512,50.9889 84.4137,50.9311Z" style="fill:white;fill-rule:nonzero;"/>
                            </g>
                            <g>
                                <path d="M66.0239,59.6944C66.3877,60.435 67.3289,60.7238 68.101,60.2983C68.8822,59.8778 69.1547,58.9335 68.7332,58.2262C68.3067,57.515 65.803,56.0539 65.803,56.0539C65.803,56.0539 65.6592,58.9497 66.0239,59.6944Z" style="fill:white;"/>
                                <path d="M67.3421,61.2993C66.4657,61.2993 65.6835,60.8211 65.3045,60.052C64.8881,59.208 64.9519,56.9466 65.0026,56.0144L65.0654,54.6972L66.2063,55.3609C67.0128,55.83 68.942,57.0114 69.4202,57.8128C69.7353,58.3397 69.8154,58.9578 69.6492,59.5525C69.481,60.1655 69.0575,60.6954 68.486,61.0065C68.1375,61.196 67.7393,61.2993 67.3421,61.2993ZM66.5751,57.4846C66.5842,58.3823 66.646,59.131 66.7443,59.3418C66.9024,59.664 67.3583,59.7876 67.716,59.5941C67.9125,59.4897 68.0493,59.3235 68.103,59.125C68.1486,58.9527 68.1284,58.7805 68.0422,58.6336C67.9247,58.4431 67.3289,57.981 66.5751,57.4846Z" style="fill:white;fill-rule:nonzero;"/>
                            </g>
                            <g>
                                <path d="M72.2238,55.8837C72.7202,56.5494 73.7,56.6578 74.3778,56.1025C75.0638,55.5493 75.156,54.5675 74.6068,53.9454C74.0597,53.3263 71.3342,52.3557 71.3342,52.3557C71.3342,52.3557 71.7263,55.219 72.2238,55.8837Z" style="fill:white;"/>
                                <path d="M73.39,57.2606C72.6635,57.2606 72.0069,56.9324 71.5814,56.3629C71.018,55.6152 70.6624,53.3861 70.5368,52.4621L70.3574,51.153L71.6037,51.5968C72.4811,51.9109 74.5896,52.7144 75.2097,53.4115C75.616,53.8785 75.8136,54.4733 75.7589,55.0944C75.7031,55.7348 75.3921,56.3153 74.8834,56.7257C74.4619,57.0702 73.928,57.2606 73.39,57.2606ZM72.3585,53.6161C72.5328,54.4936 72.7314,55.217 72.8661,55.4034C73.0556,55.6557 73.3819,55.8827 73.8733,55.4794C74.0404,55.3437 74.1418,55.1582 74.159,54.9556C74.1722,54.7752 74.1205,54.603 74.004,54.4723C73.853,54.3081 73.1863,53.9667 72.3585,53.6161Z" style="fill:white;fill-rule:nonzero;"/>
                            </g>
                            <g>
                                <path d="M77.613,50.998C78.225,51.5593 79.2038,51.4853 79.7773,50.8085C80.3477,50.1327 80.2626,49.1468 79.6101,48.6382C78.9555,48.1336 76.0922,47.6878 76.0922,47.6878C76.0922,47.6878 77.0041,50.4407 77.613,50.998Z" style="fill:white;"/>
                                <path d="M78.5837,52.1764C78.0214,52.1764 77.4823,51.9686 77.073,51.5897C76.382,50.9575 75.6241,48.8277 75.3293,47.9401L74.9169,46.6949L76.2158,46.8935C77.1378,47.0373 79.3608,47.4315 80.1005,48.0029C80.5817,48.3798 80.8837,48.9239 80.9455,49.541C81.0124,50.1793 80.8087,50.8288 80.3892,51.3273C79.9333,51.8663 79.2767,52.1764 78.5837,52.1764ZM77.3293,48.7355C77.6617,49.5694 77.991,50.2482 78.1561,50.4063C78.5817,50.7964 78.9363,50.5623 79.1643,50.2928C79.3051,50.1236 79.372,49.9159 79.3507,49.7112C79.3304,49.5329 79.2473,49.3768 79.1166,49.2715C78.9302,49.1377 78.2088,48.925 77.3293,48.7355Z" style="fill:white;fill-rule:nonzero;"/>
                            </g>
                        </g>
                    </g>
                </g>
            </g>
        </g>
    </g>
</svg>
