<?xml version="1.0" standalone="no"?>
<!DOCTYPE svg PUBLIC "-//W3C//DTD SVG 1.1//EN" "http://www.w3.org/Graphics/SVG/1.1/DTD/svg11.dtd">
<svg width="152px" height="152px" version="1.1" xmlns="http://www.w3.org/2000/svg" xmlns:xlink="http://www.w3.org/1999/xlink" xml:space="preserve" style="fill-rule:evenodd;clip-rule:evenodd;stroke-linejoin:round;stroke-miterlimit:1.41421;">
    <g>
        <g id="coffee">
            <path d="M76,0C117.974,0 152,34.0264 152,76C152,117.974 117.974,152 76,152C34.0264,152 0,117.974 0,76C0,34.0264 34.0264,0 76,0Z" style="fill:rgb(204,165,219);"/>
            <path d="M76,9.31547C112.829,9.31547 142.685,39.1712 142.685,76C142.685,112.829 112.829,142.685 76,142.685C39.1712,142.685 9.31547,112.829 9.31547,76C9.31547,39.1712 39.1712,9.31547 76,9.31547Z" style="fill:rgb(176,127,201);"/>
            <g>
                <g>
                    <path d="M83.2404,24.6423C83.2404,24.6423 80.9171,27.3304 80.6689,28.4409C79.3527,34.3094 87.3784,42.2945 87.9204,46.6047C88.119,48.1975 88.8262,50.7913 85.0378,53.838C83.8696,54.7763 79.6709,57.7652 77.916,59.7896C74.9696,63.1778 74.7021,66.337 74.7021,66.337C74.7021,66.337 72.4872,64.7412 74.5521,60.3722C76.688,55.8543 82.4916,56.0691 84.0631,48.3403C85.2172,42.6755 76.2736,38.5527 76.5542,31.7409C76.8582,24.39 83.2404,24.6423 83.2404,24.6423Z" style="fill:white;fill-rule:nonzero;"/>
                    <path d="M71.4476,70.2794C71.4476,70.2794 66.5396,67.8224 66.7514,63.2649C66.9713,58.5363 74.2015,54.6982 74.6747,49.9361C75.1215,45.48 70.5368,39.5335 70.5368,39.5335C70.5368,39.5335 78.0953,42.5853 78.0953,49.6747C78.0953,55.4369 71.2298,56.6335 70.5307,61.9275C70.016,65.8395 71.4476,70.2794 71.4476,70.2794Z" style="fill:white;fill-rule:nonzero;"/>
                </g>
                <path d="M38.7371,109.607C38.7371,109.607 38.7371,111.728 40.3897,111.845C41.0381,111.892 42.2428,112.097 42.8406,112.337C43.947,112.784 46.1406,115.068 46.1406,115.068L99.7649,115.068C99.7649,115.068 101.962,112.784 103.068,112.337C103.665,112.097 104.871,111.892 105.517,111.845C107.171,111.728 107.171,109.607 107.171,109.607Z" style="fill:white;fill-rule:nonzero;"/>
                <g>
                    <path d="M108.548,77.6495C106.707,76.0101 104.195,75.2289 101.477,75.4549C99.5896,75.6099 97.9826,76.2918 96.6199,77.2493C96.7546,78.6536 96.8874,80.4115 96.9431,82.3417C98.163,80.7732 99.774,79.4713 101.815,79.3021C103.437,79.1683 104.835,79.5787 105.859,80.4936C106.81,81.3406 107.331,82.5413 107.331,83.8818C107.331,87.2862 104.589,89.8678 103.118,91.2519C101.701,92.5822 98.62,94.4101 95.1973,96.2207C94.4232,98.2947 93.4556,100.243 92.4748,101.968C97.4963,99.5035 103.434,96.3311 105.882,94.025C107.642,92.3694 111.304,88.9225 111.304,83.8808C111.304,81.4491 110.326,79.2362 108.548,77.6495Z" style="fill:white;fill-rule:nonzero;"/>
                    <path d="M93.8609,95.0676C94.9015,92.105 95.2622,88.422 95.3078,84.9791C95.3351,82.6213 95.2186,80.3761 95.0707,78.5472C94.8559,75.9281 94.5762,74.1701 94.5762,74.1701L51.3283,74.1701C51.3283,74.1701 49.2715,87.1767 52.0436,95.0676C54.5412,102.176 59.6265,108.073 59.6265,108.073L86.279,108.073C86.279,108.073 87.9002,106.194 89.7614,103.278C90.8294,101.606 91.9753,99.5896 92.9399,97.394C93.2712,96.6361 93.5843,95.861 93.8609,95.0676Z" style="fill:white;fill-rule:nonzero;"/>
                </g>
            </g>
        </g>
    </g>
</svg>
