<?xml version="1.0" standalone="no"?>
<!DOCTYPE svg PUBLIC "-//W3C//DTD SVG 1.1//EN" "http://www.w3.org/Graphics/SVG/1.1/DTD/svg11.dtd">
<svg width="152px" height="152px" version="1.1" xmlns="http://www.w3.org/2000/svg" xmlns:xlink="http://www.w3.org/1999/xlink" xml:space="preserve" style="fill-rule:evenodd;clip-rule:evenodd;stroke-linejoin:round;stroke-miterlimit:1.41421;">
    <g>
        <g id="aircraft">
            <path d="M76,-2.22045e-16C117.974,-2.22045e-16 152,34.0264 152,76C152,117.974 117.974,152 76,152C34.0264,152 -2.22045e-16,117.974 -2.22045e-16,76C-2.22045e-16,34.0264 34.0264,-2.22045e-16 76,-2.22045e-16Z" style="fill:rgb(234,117,117);"/>
            <path d="M76,9.31737C112.828,9.31737 142.683,39.1722 142.683,76C142.683,112.828 112.828,142.683 76,142.683C39.1722,142.683 9.31737,112.828 9.31737,76C9.31737,39.1722 39.1722,9.31737 76,9.31737Z" style="fill:rgb(232,46,104);"/>
            <g>
                <path d="M71.4801,44.8421C71.9138,43.7995 71.9472,42.9171 71.4761,42.45C70.9928,41.9646 70.0616,42.0244 68.9684,42.5057C69.5267,42.8461 70.0708,43.2696 70.5713,43.7702C70.9137,44.1136 71.2126,44.4743 71.4801,44.8421Z" style="fill:white;fill-rule:nonzero;"/>
                <path d="M71.3717,49.825C72.2562,48.9365 72.084,47.2566 71.0748,45.6618C70.7861,45.2049 70.4315,44.754 70.0079,44.3315C69.4162,43.7357 68.7648,43.2727 68.1183,42.9464C67.4081,42.5867 66.6999,42.3922 66.0717,42.3922C65.4486,42.3922 64.9045,42.5807 64.5144,42.9718L59.1556,48.3285L70.5105,50.6873Z" style="fill:white;fill-rule:nonzero;"/>
                <path d="M70.0079,68.3909L71.4112,69.0059L73.0222,67.1244C76.1135,63.4951 79.6262,59.4383 83.4257,55.5395L67.7586,52.2861L58.3075,50.3225L41.9049,46.9131L35.5075,53.3094L40.4925,55.4898Z" style="fill:white;fill-rule:nonzero;"/>
                <path d="M107.439,80.7154C107.812,80.9849 108.175,81.2929 108.517,81.6354C109.023,82.14 109.455,82.6881 109.799,83.2586C110.285,82.1521 110.343,81.2089 109.855,80.7154C109.382,80.2423 108.489,80.2767 107.439,80.7154Z" style="fill:white;fill-rule:nonzero;"/>
                <path d="M107.951,82.2038C107.524,81.7762 107.069,81.4206 106.604,81.1268C105.703,80.5564 104.771,80.2443 103.965,80.2443C103.34,80.2443 102.79,80.4307 102.396,80.8279L101.526,81.6962L103.911,93.1778L109.329,87.7572C110.122,86.9679 110.081,85.5443 109.357,84.1137C109.026,83.4602 108.553,82.8036 107.951,82.2038Z" style="fill:white;fill-rule:nonzero;"/>
                <path d="M96.8435,111.672L99.0199,116.653L105.419,110.256L102.01,93.8536L100.046,84.4004L96.8486,69.0069C92.966,72.7831 88.9588,76.2492 85.3731,79.3051L83.4237,80.9728L83.9404,82.1562Z" style="fill:white;fill-rule:nonzero;"/>
                <path d="M52.3266,94.9124L44.3771,93.1788L43.9515,94.3581L51.6204,96.3015Z" style="fill:white;fill-rule:nonzero;"/>
                <path d="M57.422,100.01L56.1079,100.678L58.0532,108.359L59.1556,107.959Z" style="fill:white;fill-rule:nonzero;"/>
                <path d="M96.2265,66.4435C96.3511,66.3229 96.4757,66.1983 96.5983,66.0757C96.725,65.9531 96.8496,65.8305 96.9722,65.7079C97.7696,64.9126 98.5589,64.1111 99.3329,63.2955C101.67,60.8375 103.909,58.2923 106.087,55.6783C106.631,55.0238 113.387,47.7926 109.006,43.4115C108.062,42.4672 106.911,42.0974 105.701,42.0974C101.795,42.0974 97.2366,45.9171 96.7381,46.3325C94.1221,48.5069 91.5749,50.747 89.1229,53.0865C88.3428,53.8251 87.5778,54.5769 86.8179,55.3368L86.4501,55.7087C86.3255,55.8353 86.2029,55.9579 86.0803,56.0805C82.3264,59.8983 78.7995,63.9369 75.3191,68.0231C74.8399,68.5834 74.3617,69.1417 73.8824,69.7009C73.7811,69.8175 73.6828,69.934 73.5835,70.0515C73.4842,70.169 73.3839,70.2845 73.2846,70.4021C69.5429,74.772 65.7981,79.1409 62.3451,83.7935C61.0624,85.4957 59.8142,87.2252 58.5933,88.9841L44.3923,88.3387L41.5938,93.7614L43.3071,94.195L43.8532,92.6853C43.911,92.5293 44.0731,92.4402 44.2332,92.4756L52.8829,94.3592C52.9822,94.3794 53.0673,94.4463 53.1129,94.5395C53.1544,94.6307 53.1524,94.7391 53.1068,94.8303L52.276,96.4666L53.5526,96.7908C53.5465,96.803 53.5384,96.8162 53.5313,96.8283C53.9508,96.342 54.3996,95.8486 54.8849,95.3642C57.3369,92.9143 60.4829,90.278 61.6035,90.278C61.801,90.278 61.9216,90.357 61.9875,90.4229C63.0544,91.4898 57.2953,97.2802 57.0502,97.5274C56.5517,98.0219 56.0491,98.4829 55.5506,98.9084C55.5841,98.8881 55.6145,98.8709 55.6459,98.8527L55.9448,100.024L57.5041,99.2266C57.5973,99.181 57.7037,99.1789 57.7969,99.2225C57.8881,99.2661 57.9549,99.3512 57.9772,99.4505L59.8628,108.1C59.8983,108.262 59.8091,108.424 59.6531,108.482L58.2163,109.003L58.6875,110.853L64.1121,108.055L63.4627,93.8059C65.2125,92.5911 66.9298,91.3439 68.6239,90.0733C73.2542,86.6325 77.6019,82.912 81.9475,79.1895C82.064,79.0903 82.1805,78.992 82.296,78.8927C82.4146,78.7914 82.5311,78.6931 82.6466,78.5938C83.2282,78.0933 83.8118,77.5988 84.3964,77.1013C88.439,73.6534 92.4432,70.1579 96.2265,66.4435ZM107.679,49.746C107.837,50.1341 107.669,50.4897 107.311,50.5393L106.408,50.6619C106.165,50.6974 105.895,50.5809 105.7,50.3874C105.601,50.2901 105.524,50.1776 105.478,50.053C105.422,49.9264 105.373,49.8058 105.324,49.6893L106.893,48.1219C107.176,48.594 107.432,49.1269 107.679,49.746ZM105.777,46.673C106.097,46.9931 106.387,47.3457 106.651,47.7399L105.121,49.2637C104.65,48.3255 104.118,47.7956 103.182,47.3245L104.71,45.7986C105.104,46.0651 105.456,46.3518 105.777,46.673ZM101.783,46.0418L101.91,45.137C101.959,44.7753 102.311,44.6101 102.701,44.7692C103.322,45.0164 103.855,45.2738 104.326,45.5564L102.757,47.1239C102.644,47.0742 102.525,47.0246 102.398,46.9759C102.011,46.8169 101.733,46.4014 101.783,46.0418Z" style="fill:white;fill-rule:nonzero;"/>
                <path d="M61.0178,91.3915C61.0178,91.3915 61.0077,91.3895 60.9945,91.3895C60.3755,91.3895 58.0917,93.0298 55.347,95.7726C53.968,97.1475 52.9031,98.5923 52.1706,99.7129C51.8423,100.215 51.5829,100.649 51.3894,100.985C51.3752,101.011 51.358,101.041 51.3438,101.064C51.3671,101.052 51.3955,101.037 51.4229,101.021C51.741,100.839 52.1493,100.595 52.6245,100.288C53.7542,99.5538 55.2345,98.4717 56.6418,97.0664C59.7787,93.9245 61.1262,91.7562 61.0178,91.3915Z" style="fill:white;fill-rule:nonzero;"/>
            </g>
        </g>
    </g>
</svg>
