<?xml version="1.0" standalone="no"?>
<!DOCTYPE svg PUBLIC "-//W3C//DTD SVG 1.1//EN" "http://www.w3.org/Graphics/SVG/1.1/DTD/svg11.dtd">
<svg width="152px" height="152px" version="1.1" xmlns="http://www.w3.org/2000/svg" xmlns:xlink="http://www.w3.org/1999/xlink" xml:space="preserve" style="fill-rule:evenodd;clip-rule:evenodd;stroke-linejoin:round;stroke-miterlimit:1.41421;">
    <g>
        <g id="chair">
            <path d="M76,0C117.974,0 152,34.0264 152,76C152,117.974 117.974,152 76,152C34.0264,152 0,117.974 0,76C0,34.0264 34.0264,0 76,0Z" style="fill:rgb(234,117,117);"/>
            <path d="M76,9.31547C112.829,9.31547 142.685,39.1712 142.685,76C142.685,112.829 112.829,142.685 76,142.685C39.1712,142.685 9.31547,112.829 9.31547,76C9.31547,39.1712 39.1712,9.31547 76,9.31547Z" style="fill:rgb(181,72,114);"/>
            <g>
                <path d="M97.1792,65.2073C97.1792,69.9602 93.3259,73.8175 88.5699,73.8175L63.3186,73.8175C58.5647,73.8175 54.7104,69.9602 54.7104,65.2073L54.7104,44.2844C54.7104,39.5274 58.5647,35.6762 63.3186,35.6762L88.5699,35.6762C93.3259,35.6762 97.1792,39.5274 97.1792,44.2844Z" style="fill:white;fill-rule:nonzero;"/>
                <path d="M100.268,81.1947C100.268,84.1158 97.8996,86.4786 94.9825,86.4786L56.9081,86.4786C53.987,86.4786 51.6201,84.1158 51.6201,81.1947C51.6201,78.2757 53.987,75.9068 56.9081,75.9068L94.9825,75.9068C97.8996,75.9068 100.268,78.2757 100.268,81.1947Z" style="fill:white;fill-rule:nonzero;"/>
                <path d="M97.9036,107.53C97.9644,107.429 98.013,107.324 98.0374,107.2C98.0981,106.915 98.1701,105.927 96.6037,105.031C92.8609,103.683 89.2143,103.029 85.4624,103.029C83.1492,103.029 80.7793,103.299 78.3679,103.829L78.3679,93.6005C78.7144,93.4901 78.9657,93.331 78.9657,93.102L78.9657,89.2214C78.9657,89.1181 78.914,89.0259 78.8208,88.9448C78.7711,88.7411 78.6881,88.4422 78.5492,87.9549C78.453,87.6104 78.3314,87.1848 78.3223,87.1281C78.3223,86.887 78.0447,86.736 77.6647,86.6397L77.6647,78.5016L74.2249,78.5016L74.2249,86.6691C73.9087,86.7664 73.6919,86.9082 73.6919,87.1241C73.6848,87.2152 73.548,87.6763 73.4508,88.0147C73.318,88.4564 73.238,88.7533 73.1904,88.957C73.1073,89.036 73.0495,89.1191 73.0495,89.2224L73.0495,93.103C73.0495,93.333 73.3008,93.4911 73.6473,93.6015L73.6473,103.846C71.2105,103.306 68.792,103.03 66.4262,103.03C62.6753,103.03 59.0277,103.684 55.219,105.061C53.7195,105.927 53.7924,106.915 53.8502,107.2C53.8745,107.324 53.9231,107.43 53.9839,107.53C53.5503,107.987 53.2787,108.628 53.2787,109.339C53.2787,110.724 54.3061,111.85 55.5686,111.85L57.0712,111.85C58.3316,111.85 59.36,110.725 59.36,109.339C59.36,108.074 58.5039,107.036 57.3964,106.859C57.6426,106.739 57.8817,106.622 58.1584,106.486C63.3592,105.041 68.178,104.949 73.3515,106.08C73.4558,106.128 73.546,106.163 73.6453,106.205C69.7373,108.771 66.7271,111.499 64.2163,114.763L64.1799,114.832C63.9803,115.357 64.0998,115.893 64.5183,116.342C64.6156,116.448 64.724,116.538 64.8425,116.621C64.8152,116.805 64.801,116.997 64.801,117.192C64.801,118.772 65.6845,120.008 66.8132,120.008L68.099,120.008C69.2277,120.008 70.1122,118.771 70.1122,117.192C70.1122,115.611 69.2277,114.374 68.099,114.374L68.0777,114.374C69.94,112.249 72.2542,110.284 75.3029,108.277C75.5157,108.194 75.7315,108.103 75.9483,108.007C76.1388,108.09 76.3293,108.171 76.5167,108.239C79.6536,110.299 82.0083,112.276 83.8463,114.374L83.7886,114.374C82.6609,114.374 81.7753,115.612 81.7753,117.192C81.7753,118.772 82.6609,120.008 83.7886,120.008L85.0733,120.008C86.201,120.008 87.0876,118.771 87.0876,117.192C87.0876,116.993 87.0714,116.804 87.046,116.621C87.1605,116.538 87.274,116.448 87.3682,116.344C87.7857,115.893 87.9073,115.356 87.7066,114.832L87.6692,114.763C85.1686,111.51 82.1715,108.793 78.225,106.205C78.3091,106.167 78.375,106.141 78.4611,106.106C83.7977,104.918 88.5881,105.063 93.6572,106.456C93.9612,106.606 94.2186,106.733 94.484,106.859C93.3796,107.042 92.5265,108.078 92.5265,109.339C92.5265,110.724 93.5549,111.85 94.8164,111.85L96.3169,111.85C97.5794,111.85 98.6088,110.725 98.6088,109.339C98.6108,108.628 98.3373,107.987 97.9036,107.53Z" style="fill:white;fill-rule:nonzero;"/>
                <path d="M50.5947,83.666C50.5947,85.2212 49.3343,86.4776 47.78,86.4776C46.2237,86.4776 44.9633,85.2212 44.9633,83.666L44.9633,57.5606C44.9633,56.0053 46.2237,54.7448 47.78,54.7448C49.3343,54.7448 50.5947,56.0053 50.5947,57.5606Z" style="fill:white;fill-rule:nonzero;"/>
                <path d="M106.926,83.666C106.926,85.2212 105.666,86.4776 104.112,86.4776C102.557,86.4776 101.297,85.2212 101.297,83.666L101.297,57.5606C101.297,56.0053 102.557,54.7448 104.112,54.7448C105.666,54.7448 106.926,56.0053 106.926,57.5606Z" style="fill:white;fill-rule:nonzero;"/>
            </g>
        </g>
    </g>
</svg>
