<?xml version="1.0" standalone="no"?>
<!DOCTYPE svg PUBLIC "-//W3C//DTD SVG 1.1//EN" "http://www.w3.org/Graphics/SVG/1.1/DTD/svg11.dtd">
<svg width="152px" height="152px" version="1.1" xmlns="http://www.w3.org/2000/svg" xmlns:xlink="http://www.w3.org/1999/xlink" xml:space="preserve" style="fill-rule:evenodd;clip-rule:evenodd;stroke-linejoin:round;stroke-miterlimit:1.41421;">
    <g>
        <g id="temple">
            <path d="M76,-2.22045e-16C117.974,-2.22045e-16 152,34.0264 152,76C152,117.974 117.974,152 76,152C34.0264,152 -2.22045e-16,117.974 -2.22045e-16,76C-2.22045e-16,34.0264 34.0264,-2.22045e-16 76,-2.22045e-16Z" style="fill:rgb(234,117,117);"/>
            <path d="M76,9.31737C112.828,9.31737 142.683,39.1722 142.683,76C142.683,112.828 112.828,142.683 76,142.683C39.1722,142.683 9.31737,112.828 9.31737,76C9.31737,39.1722 39.1722,9.31737 76,9.31737Z" style="fill:rgb(175,82,102);"/>
            <g>
                <g>
                    <rect x="50.2587" y="71.8398" width="27.3229" height="6.98094" style="fill:white;"/>
                    <path d="M63.9541,58.5041L63.9186,58.5041C56.9073,58.5041 51.2202,64.1871 51.2202,71.2066L76.6211,71.2066C76.6211,64.3837 71.2349,58.8324 64.488,58.5335" style="fill:white;fill-rule:nonzero;"/>
                    <path d="M91.8454,29.6979L90.7258,29.6979L90.7258,37.6211L89.3469,37.6211L89.3469,47.0246L87.7126,47.0246L87.7126,80.7387L42.5209,80.7387L42.5209,107.663L37.6393,107.663L37.6393,111.567L113.077,111.567L113.077,107.663L107.556,107.663L107.556,80.7397L96.496,80.7397L96.496,47.0246L94.8728,47.0246L94.8728,37.6211L93.4919,37.6211L93.4919,29.6979M90.5982,87.8281L95.1555,87.8281L95.1555,98.2286L90.5982,98.2286ZM98.0431,87.8281L102.594,87.8281L102.594,98.2286L98.0431,98.2286ZM83.1633,87.8281L87.7105,87.8281L87.7105,98.2286L83.1633,98.2286ZM53.5729,87.4998L71.4558,87.4998L71.4558,107.664L53.5729,107.664Z" style="fill:white;fill-rule:nonzero;"/>
                </g>
                <rect x="89.1027" y="24.1567" width="5.911" height="1.35161" style="fill:white;"/>
                <rect x="91.3824" y="22.1516" width="1.35161" height="8.69729" style="fill:white;"/>
            </g>
        </g>
    </g>
</svg>
