<?xml version="1.0" standalone="no"?>
<!DOCTYPE svg PUBLIC "-//W3C//DTD SVG 1.1//EN" "http://www.w3.org/Graphics/SVG/1.1/DTD/svg11.dtd">
<svg width="152px" height="152px" version="1.1" xmlns="http://www.w3.org/2000/svg" xmlns:xlink="http://www.w3.org/1999/xlink" xml:space="preserve" style="fill-rule:evenodd;clip-rule:evenodd;stroke-linejoin:round;stroke-miterlimit:1.41421;">
    <g>
        <g id="baseketball">
            <path d="M76,-2.22045e-16C117.974,-2.22045e-16 152,34.0264 152,76C152,117.974 117.974,152 76,152C34.0264,152 -2.22045e-16,117.974 -2.22045e-16,76C-2.22045e-16,34.0264 34.0264,-2.22045e-16 76,-2.22045e-16Z" style="fill:rgb(234,117,117);"/>
            <path d="M76,9.31737C112.828,9.31737 142.683,39.1722 142.683,76C142.683,112.828 112.828,142.683 76,142.683C39.1722,142.683 9.31737,112.828 9.31737,76C9.31737,39.1722 39.1722,9.31737 76,9.31737Z" style="fill:rgb(211,42,79);"/>
            <g>
                <path d="M43.9718,61.9632C55.2122,63.3766 65.7241,61.4951 74.0547,55.9356C70.0221,51.6832 65.7586,47.6173 61.2732,43.7367C59.1556,44.756 57.1059,45.9962 55.1605,47.4754C50.0348,51.3762 46.2809,56.4169 43.9718,61.9632Z" style="fill:white;fill-rule:nonzero;"/>
                <path d="M86.362,41.6972C79.1551,39.5988 71.3525,39.8187 64.1547,42.5097C68.4193,46.2454 72.4994,50.1655 76.3708,54.2517C77.0243,53.7279 77.6687,53.1878 78.2807,52.6245C81.6496,49.5424 84.3528,45.8614 86.362,41.6972Z" style="fill:white;fill-rule:nonzero;"/>
                <path d="M68.9492,107.507C68.939,108.302 68.9512,109.104 68.9725,109.912C78.7032,112.034 89.2678,110.034 97.8152,103.533C100.004,101.866 101.945,99.9986 103.629,97.9672C98.5882,88.0327 92.7512,78.7235 86.1036,70.0505C85.3893,70.5085 84.6892,70.9978 84.0195,71.5085C74.4154,78.8147 69.0576,91.5992 68.9492,107.507Z" style="fill:white;fill-rule:nonzero;"/>
                <path d="M88.5961,68.6077C88.8747,68.9735 89.1523,69.3372 89.4289,69.706C95.4392,77.7123 100.829,86.3478 105.515,95.4656C111.574,86.6548 113.289,75.5025 110.21,65.3087C102.306,64.2185 94.9458,65.3148 88.5961,68.6077Z" style="fill:white;fill-rule:nonzero;"/>
                <path d="M73.16,65.7809C75.1013,64.3067 77.0628,62.8517 79.0507,61.4241C78.0355,60.262 77.0061,59.109 75.9595,57.9732C67.0727,64.0564 55.6307,66.3371 42.9971,64.6208C40.2625,73.0486 40.7377,82.3933 44.6952,90.666C53.6103,81.7367 63.0888,73.4447 73.0668,65.8538C73.1012,65.8275 73.1306,65.8052 73.16,65.7809Z" style="fill:white;fill-rule:nonzero;"/>
                <path d="M80.142,54.656C79.532,55.2142 78.9008,55.7522 78.2564,56.271C79.3152,57.424 80.3557,58.5912 81.3851,59.7686C87.051,55.7776 92.9062,51.971 98.9378,48.3559C95.9164,45.8563 92.5476,43.9242 88.9902,42.5766C86.8047,47.2191 83.8442,51.2618 80.142,54.656Z" style="fill:white;fill-rule:nonzero;"/>
                <path d="M86.8817,66.3979C92.4624,63.3948 98.7706,61.9753 105.661,62.18C106.837,62.2165 108.012,62.2995 109.195,62.4242C108.043,59.5446 106.486,56.7705 104.517,54.1808C103.455,52.7856 102.307,51.4887 101.092,50.2992C94.9569,53.9629 89.0003,57.8344 83.214,61.9064C84.4653,63.3826 85.6872,64.8862 86.8817,66.3979Z" style="fill:white;fill-rule:nonzero;"/>
                <path d="M66.2024,109.189C66.1922,108.62 66.1902,108.049 66.1922,107.487C66.3128,90.7106 72.0516,77.154 82.3517,69.3159C83.0164,68.8103 83.7013,68.325 84.4095,67.8671C83.2555,66.4141 82.0822,64.9794 80.8836,63.5589C68.4405,72.5085 56.8181,82.4085 46.0529,93.2294C46.7733,94.4605 47.5767,95.6652 48.4633,96.8324C53.1159,102.946 59.3734,107.111 66.2024,109.189Z" style="fill:white;fill-rule:nonzero;"/>
            </g>
        </g>
    </g>
</svg>
