<?xml version="1.0" standalone="no"?>
<!DOCTYPE svg PUBLIC "-//W3C//DTD SVG 1.1//EN" "http://www.w3.org/Graphics/SVG/1.1/DTD/svg11.dtd">
<svg width="152px" height="152px" version="1.1" xmlns="http://www.w3.org/2000/svg" xmlns:xlink="http://www.w3.org/1999/xlink" xml:space="preserve" style="fill-rule:evenodd;clip-rule:evenodd;stroke-linejoin:round;stroke-miterlimit:1.41421;">
    <g>
        <g id="compass">
            <path d="M76,0C117.974,0 152,34.0264 152,76C152,117.974 117.974,152 76,152C34.0264,152 0,117.974 0,76C0,34.0264 34.0264,0 76,0Z" style="fill:rgb(234,117,117);"/>
            <path d="M76,9.31547C112.829,9.31547 142.685,39.1712 142.685,76C142.685,112.829 112.829,142.685 76,142.685C39.1712,142.685 9.31547,112.829 9.31547,76C9.31547,39.1712 39.1712,9.31547 76,9.31547Z" style="fill:rgb(255,81,111);"/>
            <g>
                <path d="M76.923,32.6122C52.8238,32.6122 33.287,52.148 33.287,76.2472C33.287,100.348 52.8238,119.888 76.923,119.888C101.023,119.888 120.563,100.348 120.563,76.2472C120.563,52.148 101.023,32.6122 76.923,32.6122ZM36.2102,81.4207L36.2102,71.0768L45.169,76.2482ZM72.3778,34.7653C72.3778,34.4938 72.5986,34.2709 72.8692,34.2709L74.4072,34.2709C74.5764,34.2709 74.7304,34.358 74.8216,34.5029L78.2666,39.9672C78.6171,40.5335 78.9262,41.0533 79.2048,41.5427C79.1805,40.8162 79.1744,40.0766 79.1744,39.2832L79.1744,34.7673C79.1744,34.4958 79.3912,34.2729 79.6628,34.2729L80.9759,34.2729C81.2464,34.2729 81.4683,34.4968 81.4683,34.7673L81.4683,45.5662C81.4683,45.8377 81.2454,46.0566 80.9759,46.0566L79.5665,46.0566C79.3973,46.0566 79.2433,45.9694 79.1511,45.8245L75.7214,40.3431C75.313,39.6936 74.9594,39.1019 74.6524,38.5598C74.6686,39.2822 74.6727,40.0543 74.6727,40.9479L74.6727,45.5651C74.6727,45.8367 74.4528,46.0555 74.1813,46.0555L72.8692,46.0555C72.5976,46.0555 72.3778,45.8357 72.3778,45.5651ZM105.483,76.2472C105.483,92.0209 92.6957,104.809 76.923,104.809C61.1494,104.809 48.3596,92.0209 48.3596,76.2472C48.3596,60.4756 61.1494,47.6868 76.923,47.6868C92.6957,47.6878 105.483,60.4756 105.483,76.2472ZM47.5065,46.8347C48.005,46.3362 48.8155,46.3362 49.312,46.8347L56.5129,54.0376C57.0124,54.5341 57.0124,55.3416 56.5129,55.8401C56.0164,56.3366 55.2089,56.3366 54.7094,55.8401L47.5065,48.6392C47.01,48.1407 47.01,47.3312 47.5065,46.8347ZM56.5139,98.4609L49.313,105.666C48.8165,106.16 48.006,106.16 47.5075,105.666C47.011,105.165 47.011,104.358 47.5075,103.861L54.7104,96.6584C55.2099,96.1599 56.0144,96.1599 56.5139,96.6584C57.0134,97.1548 57.0134,97.9624 56.5139,98.4609ZM71.7526,115.606L76.924,106.648L82.0955,115.606ZM106.338,105.666C105.839,106.16 105.033,106.16 104.533,105.666L97.3311,98.4609C96.8367,97.9624 96.8367,97.1548 97.3311,96.6584C97.8286,96.1599 98.6382,96.1599 99.1357,96.6584L106.338,103.861C106.835,104.358 106.835,105.165 106.338,105.666ZM106.338,48.6392L99.1357,55.8371C98.6382,56.3376 97.8286,56.3376 97.3311,55.8371C96.8367,55.3426 96.8367,54.5351 97.3311,54.0386L104.533,46.8357C105.033,46.3372 105.839,46.3372 106.338,46.8357C106.835,47.3312 106.835,48.1407 106.338,48.6392ZM107.477,76.2472L116.438,71.0758L116.438,81.4197Z" style="fill:white;fill-rule:nonzero;"/>
                <path d="M57.1178,96.0525L80.0711,80.1106L96.0109,57.1593L73.0576,73.0971ZM74.6342,73.9594C75.8977,72.6969 77.9484,72.6969 79.2119,73.9594C80.4754,75.2239 80.4754,77.2726 79.2099,78.5351C77.9484,79.7995 75.8977,79.7995 74.6342,78.5351C73.3707,77.2726 73.3707,75.2239 74.6342,73.9594Z" style="fill:white;fill-rule:nonzero;"/>
            </g>
        </g>
    </g>
</svg>
