<?xml version="1.0" standalone="no"?>
<!DOCTYPE svg PUBLIC "-//W3C//DTD SVG 1.1//EN" "http://www.w3.org/Graphics/SVG/1.1/DTD/svg11.dtd">
<svg width="158px" height="158px" version="1.1" xmlns="http://www.w3.org/2000/svg" xmlns:xlink="http://www.w3.org/1999/xlink" xml:space="preserve" style="fill-rule:evenodd;clip-rule:evenodd;stroke-linejoin:round;stroke-miterlimit:1.41421;">
    <g>
        <g id="unknown">
            <g opacity="0.25">
                <path d="M131.708,18.5084L63.3121,11.1727C54.4988,10.2289 46.1747,13.2127 40.132,18.6929L96.38,18.6929C114.741,18.6929 129.679,33.3915 129.679,51.458L129.679,119.153C129.679,128.833 125.388,137.543 118.581,143.547C134.479,144.871 148.63,133.481 150.369,117.789L157.824,50.4931C159.589,34.566 147.896,20.2455 131.708,18.5084Z" style="fill:white;fill-rule:nonzero;"/>
                <path d="M95.3525,25.0317L28.6062,25.0317C12.8072,25.0317 0,37.635 2.22045e-16,53.1801L4.44089e-16,118.854C4.44089e-16,134.398 12.8072,147 28.6062,147L95.3525,147C111.15,147 123.959,134.399 123.959,118.854L123.959,53.1801C123.958,37.635 111.15,25.0317 95.3525,25.0317ZM65.725,120.211C64.4059,121.542 62.6863,122.207 60.5629,122.207C58.4376,122.207 56.719,121.542 55.4019,120.211C54.0839,118.881 53.4224,117.235 53.4224,115.274C53.4224,113.311 54.0839,111.683 55.4019,110.385C56.719,109.09 58.4386,108.443 60.5629,108.443C62.6863,108.443 64.4069,109.09 65.725,110.385C67.043,111.683 67.7005,113.311 67.7005,115.274C67.7005,117.235 67.043,118.881 65.725,120.211ZM86.7012,84.4848C85.0907,87.567 82.5983,89.8808 79.2314,91.4184L69.5689,95.9377C68.1031,96.6378 67.042,97.5134 66.3835,98.5645C65.6505,99.6848 65.2846,101.088 65.2846,102.767L65.2846,106.026L55.7302,106.026L55.7302,101.087C55.7302,98.0059 56.5701,95.342 58.2561,93.1003C59.1348,91.9088 60.2123,90.8908 61.4956,90.0523C62.7749,89.2138 64.2591,88.4064 65.9451,87.6362L70.4466,85.7446C73.0837,84.6954 75.0592,83.2923 76.3782,81.5411C77.4006,80.141 77.9144,78.5302 77.9144,76.7088C77.9144,75.4481 77.6789,74.2054 77.2019,72.9777C76.7228,71.7521 75.8635,70.687 74.6209,69.7742C73.3018,68.7221 71.6912,67.9529 69.7871,67.4604C67.8829,66.9719 65.7963,66.7242 63.5272,66.7242C61.3315,66.7242 59.3703,66.8827 57.6527,67.1986C55.931,67.5156 54.3571,68.0241 52.929,68.7231C51.5009,69.4222 50.1472,70.3349 48.8658,71.4562C47.5886,72.5745 43.8343,77.2283 43.5642,82.2121L43.5733,82.2211C43.5733,83.195 39.761,84.0375 37.7335,82.9382C34.8171,81.3596 34.9934,79.3496 35.7661,76.8973L35.76,76.8933C38.0413,68.8816 40.6845,65.5728 42.661,63.8898C44.6386,62.2108 46.7262,60.897 48.9219,59.9501C51.1186,59.0064 53.4224,58.3394 55.8423,57.9542C58.2572,57.5701 60.7831,57.3765 63.4202,57.3765C67.0063,57.3765 70.4486,57.8339 73.7422,58.7436C77.0367,59.6523 79.894,61.0544 82.3099,62.945C84.213,64.4856 85.7492,66.3782 86.9204,68.6168C88.0916,70.8615 88.6808,73.4521 88.6808,76.3969C88.6788,79.2664 88.0182,81.9623 86.7012,84.4848Z" style="fill:white;fill-rule:nonzero;"/>
            </g>
        </g>
    </g>
</svg>
