<?xml version="1.0" standalone="no"?>
<!DOCTYPE svg PUBLIC "-//W3C//DTD SVG 1.1//EN" "http://www.w3.org/Graphics/SVG/1.1/DTD/svg11.dtd">
<svg width="152px" height="152px" version="1.1" xmlns="http://www.w3.org/2000/svg" xmlns:xlink="http://www.w3.org/1999/xlink" xml:space="preserve" style="fill-rule:evenodd;clip-rule:evenodd;stroke-linejoin:round;stroke-miterlimit:1.41421;">
    <g>
        <g id="hotdog">
            <path d="M76,0C117.974,0 152,34.0264 152,76C152,117.974 117.974,152 76,152C34.0264,152 0,117.974 0,76C0,34.0264 34.0264,0 76,0Z" style="fill:rgb(226,202,102);"/>
            <path d="M76.001,9.31648C112.829,9.31648 142.685,39.1717 142.685,76C142.685,112.828 112.829,142.684 76.001,142.684C39.1727,142.684 9.3175,112.828 9.3175,76C9.3175,39.1717 39.1727,9.31648 76.001,9.31648Z" style="fill:rgb(214,148,88);"/>
            <g>
                <path d="M92.1415,47.0414C94.5853,44.5965 97.3474,42.3725 100.121,40.6399C92.6015,37.4716 82.979,39.4008 76.2371,46.1457L44.708,77.6738C37.9661,84.4147 36.0349,94.0372 39.2022,101.557C40.9338,98.7841 43.1598,96.0221 45.6036,93.5772Z" style="fill:white;fill-rule:nonzero;"/>
                <path d="M59.8565,107.833C57.4126,110.274 54.6496,112.501 51.8775,114.233C59.3965,117.398 69.019,115.469 75.7609,108.73L107.29,77.1986C114.032,70.4567 115.963,60.8342 112.793,53.3142C111.061,56.0884 108.838,58.8494 106.393,61.2953Z" style="fill:white;fill-rule:nonzero;"/>
                <path d="M102.408,41.8082C99.5896,43.4212 96.5662,45.7384 93.7008,48.6048L47.164,95.1406C44.3007,98.0039 41.9855,101.028 40.3704,103.846C37.6864,108.537 36.9427,112.666 38.8557,114.581C40.7676,116.49 44.8985,115.751 49.5896,113.066C52.4084,111.45 55.4318,109.136 58.2951,106.272L104.831,59.7359C107.695,56.8675 110.013,53.8461 111.627,51.0284C114.311,46.3372 115.052,42.2043 113.14,40.2934C111.23,38.3835 107.1,39.1242 102.408,41.8082ZM105.618,50C105.327,53.761 104.057,56.9192 100.25,58.2242C98.2481,58.9132 95.8883,59.1746 94.0879,60.3347C91.2549,62.1676 90.8091,64.3957 90.4221,67.4738C89.9246,71.4395 86.6691,72.0495 83.2901,72.165C76.9899,72.3757 78.8846,78.6546 76.6414,82.599C75.6261,84.3864 74.2867,85.6194 72.32,86.3469C70.2409,87.1159 66.2671,87.2679 65.0745,89.3784C63.6753,91.8558 64.0036,95.0727 62.4138,97.4375C60.9508,99.6129 58.4218,100.755 55.7733,100.122C53.91,99.6757 52.1885,98.5602 52.2807,101.388C52.3101,102.352 52.2331,103.521 52.5158,104.453C53.2048,106.726 49.6443,107.654 48.9543,105.387C48.4265,103.642 47.9817,99.6666 49.1347,98.1032C51.2574,95.2196 52.8461,95.631 55.9749,96.3858C60.3763,97.4406 60.0348,92.0523 61.0886,89.1961C62.2902,85.9356 64.7868,84.6741 67.9743,83.8342C70.0666,83.287 72.8692,82.8534 73.5896,80.3406C73.853,79.4267 74.0648,78.5158 74.2441,77.5816C74.6281,75.5815 75.0699,73.7253 76.1145,71.9613C78.1987,68.4364 81.6355,68.8558 85.0956,68.4303C88.0035,68.0716 86.4168,63.4808 87.5385,61.8464C88.7817,60.0389 90.2822,58.1675 92.2712,57.136C96.3129,55.0377 101.5,55.6425 101.936,50C102.12,47.6473 105.801,47.6301 105.618,50Z" style="fill:white;fill-rule:nonzero;"/>
            </g>
        </g>
    </g>
</svg>
