<?xml version="1.0" standalone="no"?>
<!DOCTYPE svg PUBLIC "-//W3C//DTD SVG 1.1//EN" "http://www.w3.org/Graphics/SVG/1.1/DTD/svg11.dtd">
<svg width="152px" height="152px" version="1.1" xmlns="http://www.w3.org/2000/svg" xmlns:xlink="http://www.w3.org/1999/xlink" xml:space="preserve" style="fill-rule:evenodd;clip-rule:evenodd;stroke-linejoin:round;stroke-miterlimit:1.41421;">
    <g>
        <g id="action">
            <path d="M76,0C117.974,0 152,34.0264 152,76C152,117.974 117.974,152 76,152C34.0264,152 0,117.974 0,76C0,34.0264 34.0264,0 76,0Z" style="fill:rgb(226,202,102);"/>
            <path d="M76,9.31648C112.828,9.31648 142.684,39.1717 142.684,76C142.684,112.828 112.828,142.684 76,142.684C39.1717,142.684 9.31648,112.828 9.31648,76C9.31648,39.1717 39.1717,9.31648 76,9.31648Z" style="fill:rgb(216,141,42);"/>
            <g>
                <g>
                    <path d="M106.677,38.5304L57.362,47.6291L55.4571,59.665L108.755,49.851ZM64.7837,56.4784L59.2719,57.5697L59.8383,48.5957L66.1303,47.3565ZM75.0597,54.4865L69.252,55.6182L69.8407,46.624L76.4418,45.324ZM79.5462,53.6252L80.1359,44.633L84.4563,43.792L86.198,52.3293ZM89.2356,51.7417L87.7857,43.1831L92.108,42.4505L95.8823,50.5856ZM100.369,49.851L95.865,41.8011L102.442,40.6237L106.199,48.8044Z" style="fill:rgb(245,245,245);fill-rule:nonzero;"/>
                    <path d="M41.3461,49.5582L43.8174,62.0967L53.6323,62.0967L53.9859,59.665L55.9161,47.6291L56.064,46.6868Z" style="fill:rgb(245,245,245);fill-rule:nonzero;"/>
                </g>
                <path d="M43.5661,64.9509L43.5661,113.471L109.549,113.471L109.549,64.9509ZM76.154,104.684C67.4708,104.684 60.4259,97.6604 60.4259,88.9772C60.4259,80.2362 67.4708,73.1671 76.154,73.1671C84.8514,73.1671 91.9409,80.2362 91.9409,88.9772C91.9409,97.6604 84.8514,104.684 76.154,104.684Z" style="fill:rgb(245,245,245);fill-rule:nonzero;"/>
                <path d="M70.7597,96.4L85.6052,90.7574L85.6052,88.7259L70.7597,81.5139Z" style="fill:rgb(245,245,245);fill-rule:nonzero;"/>
            </g>
        </g>
    </g>
</svg>
