<?xml version="1.0" standalone="no"?>
<!DOCTYPE svg PUBLIC "-//W3C//DTD SVG 1.1//EN" "http://www.w3.org/Graphics/SVG/1.1/DTD/svg11.dtd">
<svg width="152px" height="152px" version="1.1" xmlns="http://www.w3.org/2000/svg" xmlns:xlink="http://www.w3.org/1999/xlink" xml:space="preserve" style="fill-rule:evenodd;clip-rule:evenodd;stroke-linejoin:round;stroke-miterlimit:1.41421;">
    <g>
        <g id="soccor">
            <path d="M76,0C117.974,0 152,34.0264 152,76C152,117.974 117.974,152 76,152C34.0264,152 0,117.974 0,76C0,34.0264 34.0264,0 76,0Z" style="fill:rgb(226,202,102);"/>
            <path d="M76,9.31648C112.828,9.31648 142.684,39.1717 142.684,76C142.684,112.828 112.828,142.684 76,142.684C39.1717,142.684 9.31648,112.828 9.31648,76C9.31648,39.1717 39.1717,9.31648 76,9.31648Z" style="fill:rgb(229,150,56);"/>
            <path d="M76.4884,35.7502C53.8725,35.7502 35.5506,54.0782 35.5506,76.6849C35.5506,99.2978 53.8725,117.629 76.4884,117.629C99.0962,117.629 117.426,99.2978 117.426,76.6849C117.427,54.0782 99.0962,35.7502 76.4884,35.7502M68.9673,86.6387C68.7353,85.9052 64.9165,74.1864 64.3237,72.3656C64.3146,72.3443 64.3116,72.3231 64.3004,72.3068C64.2812,72.243 64.263,72.1883 64.2508,72.1579C64.8283,71.7557 72.7719,66.1425 75.543,64.1809C76.0263,63.8394 76.3556,63.6074 76.4529,63.5365C76.5512,63.6064 76.8805,63.8394 77.3628,64.1809C80.1309,66.1435 88.0805,71.7557 88.655,72.1579C88.6429,72.1883 88.6307,72.244 88.6125,72.3068C88.5993,72.3231 88.5932,72.3433 88.5881,72.3656C87.9954,74.1864 84.1766,85.9052 83.9314,86.6387ZM70.4831,87.8576L63.6581,97.4872L62.7198,96.0059L68.2439,87.8576ZM75.542,62.6935L75.542,51.536L76.4519,51.8957L77.3618,51.536L77.3618,62.6935L76.4519,62.045ZM84.4745,87.8576L90.2518,95.9907L90.188,96.0059L89.0694,97.5885L82.2383,87.8576ZM89.342,73.9918L90.0411,71.8377L99.3707,69.018L100.553,70.4537ZM100.374,54.7844L100.184,57.4147C96.7891,53.1105 92.2712,49.7467 87.0653,47.7638L89.5223,46.8084C93.6826,48.6889 97.3676,51.4134 100.374,54.7844M67.1405,40.489C67.5529,39.6723 67.9379,38.9185 68.2246,38.3622C70.8184,37.809 73.5136,37.5091 76.2776,37.5091C79.0417,37.5091 81.7378,37.809 84.3337,38.3561C84.6488,38.9246 85.0642,39.6875 85.5191,40.5163C86.7228,42.6886 88.1677,45.2977 88.501,45.8995C88.3845,45.9451 88.1768,46.0221 87.9052,46.1295C87.3024,46.3615 86.3712,46.7222 85.2932,47.1437C82.6163,48.1884 79.0325,49.5846 77.3618,50.229C76.8511,50.4336 76.5188,50.5623 76.4519,50.5886C76.3901,50.5623 76.0547,50.4336 75.542,50.229C73.8398,49.5663 70.168,48.1367 67.4698,47.085C66.34,46.6543 65.3866,46.2784 64.8283,46.0545C64.6297,45.9856 64.4697,45.9238 64.3845,45.8904C64.6905,45.2916 66.0249,42.6674 67.1405,40.489M63.1991,46.7395L65.6683,47.6959C60.5505,49.6048 56.0873,52.8491 52.6901,57.0073L52.5127,54.4318C55.4946,51.1824 59.127,48.548 63.1991,46.7395M53.5026,68.9258L62.8667,71.8377L63.5649,73.9918L52.4692,70.3432ZM44.1112,78.6587C43.4658,78.0426 41.2448,75.8936 39.4545,74.1651C38.7918,73.5197 38.19,72.9391 37.7462,72.5085C38.2741,66.9946 39.9732,61.8221 42.5701,57.2211C43.1932,57.1168 44.0301,56.9739 44.9349,56.8179C47.5105,56.369 50.6981,55.8188 51.381,55.7023L51.381,55.7216C51.4053,56.06 51.4793,57.1147 51.5705,58.4714C51.8086,61.8343 52.1794,67.0797 52.2615,68.3421C52.2746,68.4891 52.2807,68.5954 52.2858,68.6258C52.224,68.6988 51.8248,69.1963 51.2351,69.939C49.8693,71.6493 47.474,74.6565 45.8519,76.6971C45.0332,77.7275 44.4101,78.5118 44.2085,78.7559C44.1902,78.7387 44.1426,78.6951 44.1112,78.6587M44.3128,80.5402L44.3321,80.5676L45.939,78.5421C46.3301,83.7602 48.0404,88.6114 50.7477,92.7605L48.316,92.2469C46.2187,88.655 44.8873,84.8403 44.3128,80.5402M63.4068,110.79C62.6033,111.205 61.8485,111.596 61.2375,111.896C56.1958,109.763 51.7052,106.583 48.008,102.629C48.0941,102.043 48.235,101.224 48.3839,100.307C48.7476,98.012 49.2066,95.1629 49.3829,94.0321C49.4062,93.8771 49.4316,93.7545 49.4447,93.6724C49.7406,93.7515 50.6302,93.9957 51.8116,94.3209C55.1025,95.2064 60.6255,96.704 61.7502,97.0089C61.8515,97.0353 61.9153,97.0515 61.9427,97.0576C61.9883,97.1396 62.3054,97.6382 62.7735,98.3778C63.8465,100.073 65.7311,103.046 67.1202,105.264C67.7373,106.232 68.2692,107.058 68.5803,107.565C68.715,107.769 68.8072,107.925 68.871,108.013C68.2895,108.309 65.6622,109.644 63.4068,110.79M76.2776,108.495C74.2218,108.495 72.2045,108.296 70.25,107.924L68.8842,105.751C71.2491,106.351 73.7294,106.668 76.2776,106.668C78.9819,106.668 81.6031,106.312 84.0895,105.64L82.6963,107.85C80.6233,108.275 78.4743,108.495 76.2776,108.495M91.5994,111.77C90.9702,111.464 90.2133,111.082 89.4251,110.686C87.1646,109.56 84.6103,108.294 84.0479,108.006C84.1097,107.905 84.2313,107.72 84.3843,107.469C84.7258,106.925 85.2567,106.088 85.8748,105.111C87.885,101.93 90.8,97.3139 90.9641,97.0576C91.2701,96.9816 97.0312,95.4172 100.664,94.4364C101.978,94.0767 103.007,93.795 103.401,93.6947C103.42,93.6846 103.459,93.6735 103.471,93.6735C103.587,94.3219 104.132,97.3028 104.587,99.8449C104.742,100.707 104.89,101.508 105.005,102.154C101.309,106.249 96.7384,109.548 91.5994,111.77M104.314,92.181L101.749,92.872C104.558,88.6013 106.318,83.5626 106.655,78.1592L108.298,80.215C107.767,84.5221 106.374,88.5699 104.314,92.181M108.696,78.7569C108.641,78.6992 108.562,78.5928 108.469,78.4702C108.118,78.0366 107.477,77.2422 106.722,76.2827C105.112,74.2674 102.94,71.5327 101.663,69.94C101.082,69.1983 100.685,68.6998 100.624,68.6269C100.624,68.5965 100.637,68.4891 100.643,68.3432C100.728,67.1303 101.068,62.276 101.309,58.9142C101.394,57.7136 101.458,56.7024 101.498,56.1248C101.512,55.9414 101.523,55.7925 101.535,55.7033C102.171,55.8158 105.088,56.3204 107.588,56.7449C108.47,56.901 109.293,57.0418 109.956,57.1573C112.626,61.8566 114.342,67.1628 114.843,72.8236C114.358,73.2816 113.762,73.8621 113.127,74.4761C111.298,76.2391 109.162,78.299 108.696,78.7569" style="fill:white;fill-rule:nonzero;"/>
        </g>
    </g>
</svg>
