<?xml version="1.0" standalone="no"?>
<!DOCTYPE svg PUBLIC "-//W3C//DTD SVG 1.1//EN" "http://www.w3.org/Graphics/SVG/1.1/DTD/svg11.dtd">
<svg width="152px" height="152px" version="1.1" xmlns="http://www.w3.org/2000/svg" xmlns:xlink="http://www.w3.org/1999/xlink" xml:space="preserve" style="fill-rule:evenodd;clip-rule:evenodd;stroke-linejoin:round;stroke-miterlimit:1.41421;">
    <g>
        <g id="cloudy">
            <path d="M76,-0.009C117.974,-0.009 152,34.0174 152,75.991C152,117.965 117.974,151.991 76,151.991C34.0264,151.991 0,117.965 0,75.991C0,34.0174 34.0264,-0.009 76,-0.009Z" style="fill:rgb(226,202,102);"/>
            <path d="M76,9.30748C112.828,9.30748 142.684,39.1627 142.684,75.991C142.684,112.819 112.828,142.675 76,142.675C39.1717,142.675 9.31648,112.819 9.31648,75.991C9.31648,39.1627 39.1717,9.30748 76,9.30748Z" style="fill:rgb(216,163,46);"/>
            <g>
                <path d="M111.842,64.1435C112.249,65.1962 112.559,66.2409 112.782,67.3098L120.407,60.7857L110.383,61.188C110.944,62.1161 111.434,63.0979 111.842,64.1435" style="fill:white;fill-rule:nonzero;"/>
                <path d="M108.678,58.8687L112.021,49.4226L103.557,54.7743C104.499,55.2992 105.417,55.898 106.288,56.5981C107.159,57.2993 107.964,58.0602 108.678,58.8687" style="fill:white;fill-rule:nonzero;"/>
                <path d="M100.905,53.6183L99.0901,43.7607L94.4253,52.6466C95.5033,52.6223 96.6026,52.6932 97.704,52.8614C98.8054,53.0164 99.8865,53.2859 100.905,53.6183" style="fill:white;fill-rule:nonzero;"/>
                <path d="M88.4078,53.8878C89.4392,53.4906 90.498,53.1745 91.5528,52.9627L85.0551,45.3201L85.4563,55.3468C86.3733,54.7987 87.3632,54.2991 88.4078,53.8878" style="fill:white;fill-rule:nonzero;"/>
                <path d="M80.8533,59.4382C81.5656,58.5759 82.3103,57.7826 83.1178,57.0632L73.6757,53.7125L79.0275,62.1779C79.5543,61.2427 80.1562,60.3328 80.8533,59.4382" style="fill:white;fill-rule:nonzero;"/>
                <path d="M77.1085,68.0383C77.2746,66.9329 77.5279,65.8518 77.8765,64.8305L68.0098,66.6451L76.8916,71.31C76.8643,70.2309 76.9423,69.1346 77.1085,68.0383" style="fill:white;fill-rule:nonzero;"/>
                <path d="M112.885,73.4529C112.717,74.5553 112.447,75.6252 112.114,76.6547L121.973,74.84L113.097,70.1681C113.127,71.2451 113.053,72.3536 112.885,73.4529" style="fill:white;fill-rule:nonzero;"/>
                <path d="M97.1761,72.4812C101.229,73.0811 104.827,74.9585 107.687,77.6192C108.462,76.1774 109.059,74.609 109.312,72.9139C110.516,64.9977 105.075,57.6083 97.168,56.4218C89.269,55.2252 81.9222,60.6348 80.6831,68.5094C82.4582,67.5773 84.4775,67.017 86.6245,67.017C90.9895,67.018 94.8295,69.1903 97.1761,72.4812" style="fill:white;fill-rule:nonzero;"/>
                <path d="M109.65,88.4241C109.076,86.3663 108.151,84.4766 106.929,82.7856C106.241,81.8615 105.497,81.0003 104.654,80.2232C102.066,77.8229 98.8013,76.1217 95.1325,75.5766C93.0047,72.5785 89.5284,70.6169 85.5738,70.6169C83.6285,70.6169 81.7986,71.1286 80.1856,71.9665C78.3892,72.9129 76.841,74.2837 75.7295,75.9839C72.4325,71.6149 67.1962,68.7739 61.3013,68.7739C53.302,68.7739 46.5307,73.9615 44.1132,81.1219C36.2922,81.6518 30.0985,88.1394 30.0985,96.0881C30.0985,104.172 36.4969,110.746 44.5003,111.06L44.5003,111.095L92.5113,111.095C102.385,111.095 110.385,103.096 110.385,93.2369C110.384,91.5529 110.085,89.9591 109.65,88.4241" style="fill:white;fill-rule:nonzero;"/>
            </g>
        </g>
    </g>
</svg>
