<?xml version="1.0" standalone="no"?>
<!DOCTYPE svg PUBLIC "-//W3C//DTD SVG 1.1//EN" "http://www.w3.org/Graphics/SVG/1.1/DTD/svg11.dtd">
<svg width="152px" height="152px" version="1.1" xmlns="http://www.w3.org/2000/svg" xmlns:xlink="http://www.w3.org/1999/xlink" xml:space="preserve" style="fill-rule:evenodd;clip-rule:evenodd;stroke-linejoin:round;stroke-miterlimit:1.41421;">
    <g>
        <g id="clock">
            <path d="M76,0C117.974,0 152,34.0264 152,76C152,117.974 117.974,152 76,152C34.0264,152 0,117.974 0,76C0,34.0264 34.0264,0 76,0Z" style="fill:rgb(226,202,102);"/>
            <path d="M76,9.31547C112.829,9.31547 142.685,39.1712 142.685,76C142.685,112.829 112.829,142.685 76,142.685C39.1712,142.685 9.31547,112.829 9.31547,76C9.31547,39.1712 39.1712,9.31547 76,9.31547Z" style="fill:rgb(211,171,61);"/>
            <g>
                <path d="M75.539,33.8382C52.0365,33.8382 32.9203,52.9565 32.9203,76.4559C32.9203,99.9594 52.0365,119.076 75.539,119.076C99.0394,119.076 118.161,99.9594 118.161,76.4559C118.161,52.9565 99.0394,33.8382 75.539,33.8382ZM75.539,113.942C54.8715,113.942 38.0572,97.1275 38.0572,76.4549C38.0572,55.7885 54.8715,38.9722 75.539,38.9722C96.2075,38.9722 113.025,55.7885 113.025,76.4549C113.025,97.1285 96.2075,113.942 75.539,113.942Z" style="fill:white;fill-rule:nonzero;"/>
                <path d="M60.6681,48.4032C61.9355,48.4032 62.963,49.4306 62.963,50.6981C62.963,51.9655 61.9355,52.993 60.6681,52.993C59.4006,52.993 58.3732,51.9655 58.3732,50.6981C58.3732,49.4306 59.4006,48.4032 60.6681,48.4032Z" style="fill:white;"/>
                <path d="M90.4119,99.9219C91.6794,99.9219 92.7068,100.949 92.7068,102.217C92.7068,103.484 91.6794,104.512 90.4119,104.512C89.1445,104.512 88.117,103.484 88.117,102.217C88.117,100.949 89.1445,99.9219 90.4119,99.9219Z" style="fill:white;"/>
                <path d="M49.7801,59.2891C51.0487,59.2891 52.0771,60.3175 52.0771,61.586C52.0771,62.8546 51.0487,63.883 49.7801,63.883C48.5115,63.883 47.4832,62.8546 47.4832,61.586C47.4832,60.3175 48.5115,59.2891 49.7801,59.2891Z" style="fill:white;"/>
                <path d="M102.446,89.341C101.35,88.7087 99.9432,89.0866 99.3089,90.184C98.6787,91.2792 99.0526,92.6835 100.15,93.3178C101.248,93.9521 102.653,93.5742 103.287,92.4789C103.92,91.3816 103.544,89.9773 102.446,89.341Z" style="fill:white;fill-rule:nonzero;"/>
                <path d="M48.6311,89.341C47.5348,89.9773 47.1569,91.3806 47.7922,92.4789C48.4265,93.5742 49.8308,93.9521 50.9281,93.3178C52.0254,92.6835 52.4023,91.2792 51.768,90.1809C51.1338,89.0866 49.7305,88.7067 48.6311,89.341Z" style="fill:white;fill-rule:nonzero;"/>
                <path d="M102.446,63.575C103.544,62.9387 103.92,61.5344 103.287,60.435C102.653,59.3367 101.248,58.9628 100.15,59.5961C99.0526,60.2304 98.6787,61.6347 99.3089,62.734C99.9432,63.8293 101.35,64.2072 102.446,63.575Z" style="fill:white;fill-rule:nonzero;"/>
                <path d="M60.6681,99.9219C61.9355,99.9219 62.963,100.949 62.963,102.217C62.963,103.484 61.9355,104.512 60.6681,104.512C59.4006,104.512 58.3732,103.484 58.3732,102.217C58.3732,100.949 59.4006,99.9219 60.6681,99.9219Z" style="fill:white;"/>
                <path d="M89.264,52.684C90.3603,53.3213 91.7666,52.9434 92.3988,51.845C93.0331,50.7477 92.6582,49.3414 91.5599,48.7102C90.4616,48.0759 89.0583,48.4508 88.423,49.5511C87.7887,50.6474 88.1656,52.0527 89.264,52.684Z" style="fill:white;fill-rule:nonzero;"/>
                <path d="M50.1732,76.4549C50.1732,74.0354 48.2106,72.0738 45.7911,72.0738C43.3675,72.0738 41.4059,74.0364 41.4059,76.4549C41.4059,78.8785 43.3685,80.8411 45.7911,80.8411C48.2106,80.8411 50.1732,78.8785 50.1732,76.4549Z" style="fill:white;fill-rule:nonzero;"/>
                <path d="M105.29,72.0738C107.711,72.0738 109.674,74.0367 109.674,76.458C109.674,78.8793 107.711,80.8421 105.29,80.8421C102.869,80.8421 100.906,78.8793 100.906,76.458C100.906,74.0367 102.869,72.0738 105.29,72.0738Z" style="fill:white;"/>
                <path d="M75.539,101.824C73.1205,101.824 71.1568,103.787 71.1568,106.209C71.1568,108.628 73.1205,110.592 75.539,110.592C77.9636,110.592 79.9262,108.628 79.9262,106.209C79.9262,103.787 77.9636,101.824 75.539,101.824Z" style="fill:white;fill-rule:nonzero;"/>
                <path d="M75.539,51.0912C77.9636,51.0912 79.9262,49.1286 79.9262,46.708C79.9262,44.2855 77.9626,42.3229 75.539,42.3229C73.1205,42.3229 71.1568,44.2865 71.1568,46.708C71.1568,49.1286 73.1205,51.0912 75.539,51.0912Z" style="fill:white;fill-rule:nonzero;"/>
                <path d="M78.4084,70.7222C77.454,70.1112 76.3222,69.7566 75.1094,69.7566C74.2897,69.7566 73.5136,69.9177 72.7972,70.2085L65.9054,67.3097L58.5809,64.2285L63.9002,70.1274L68.9572,75.7356C68.9541,75.7984 68.948,75.8541 68.948,75.9169C68.948,79.3132 71.7131,82.0783 75.1094,82.0783C78.5057,82.0783 81.2697,79.3132 81.2697,75.9169C81.2697,75.4883 81.2251,75.0709 81.1431,74.6666L89.0117,67.3279L97.472,59.4431L87.5202,65.3329ZM78.7458,75.9595C78.7458,78.0112 77.074,79.682 75.0202,79.682C72.9695,79.682 71.2977,78.0122 71.2977,75.9595C71.2977,73.9057 72.9685,72.2369 75.0202,72.2369C77.074,72.2369 78.7458,73.9057 78.7458,75.9595Z" style="fill:white;fill-rule:nonzero;"/>
            </g>
        </g>
    </g>
</svg>
