<?xml version="1.0" standalone="no"?>
<!DOCTYPE svg PUBLIC "-//W3C//DTD SVG 1.1//EN" "http://www.w3.org/Graphics/SVG/1.1/DTD/svg11.dtd">
<svg width="530px" height="70px" version="1.1" xmlns="http://www.w3.org/2000/svg" xmlns:xlink="http://www.w3.org/1999/xlink" xml:space="preserve" style="fill-rule:evenodd;clip-rule:evenodd;stroke-linejoin:round;stroke-miterlimit:1.41421;">
    <g id="圖層_1">
        <g>
            <g>
                <path d="M53.0624,47.4683C53.0624,49.623 52.5956,51.9553 51.662,54.463C50.7284,56.9731 49.2601,59.4347 47.2569,61.8501C45.2537,64.2678 42.6955,66.2297 39.5832,67.7381C36.4709,69.2464 32.8441,70 28.7028,70C25.5621,70 22.7075,69.6607 20.1361,68.9844C17.5637,68.307 15.2307,67.2534 13.1332,65.8223C11.0356,64.3913 9.10656,62.5056 7.34796,60.1663C5.77811,58.0417 4.4376,55.6644 3.32947,53.032C2.21931,50.4008 1.38618,47.5918 0.832113,44.6063C0.277033,41.6208 -1.33227e-15,38.4495 -1.33227e-15,35.0946C-8.88178e-16,29.6464 0.697148,24.7682 2.09144,20.4578C3.48574,16.1486 5.4818,12.4626 8.07961,9.39973C10.6784,6.33804 13.7228,4.0057 17.2146,2.40388C20.7054,0.803218 24.4266,0.00346215 28.3791,0.00346215C33.1962,0.00346215 37.4867,1.09635 41.2495,3.28212C45.0112,5.46788 47.8932,8.16836 49.8963,11.3847C51.8995,14.601 52.9011,17.6408 52.9011,20.5028C52.9011,22.0723 52.414,23.4584 51.4398,24.6586C50.4656,25.8588 49.2875,26.46 47.9074,26.46C46.3649,26.46 45.2071,26.0446 44.4368,25.2137C43.6656,24.3816 42.8061,22.9506 41.8583,20.9194C40.2885,17.5646 38.4416,15.0557 36.3166,13.3939C34.1917,11.7321 31.5726,10.9011 28.4613,10.9011C23.5082,10.9011 19.5628,13.0408 16.627,17.3188C13.6893,21.598 12.2219,27.6776 12.2219,35.5574C12.2219,40.821 12.8714,45.1995 14.1703,48.6928C15.4692,52.1861 17.31,54.7954 19.6916,56.5184C22.0733,58.2425 24.8609,59.1046 28.0544,59.1046C31.5188,59.1046 34.4495,58.1271 36.8443,56.1722C39.2392,54.2184 41.0465,51.3471 42.2642,47.5618C42.7777,45.7765 43.414,44.3213 44.172,43.1984C44.93,42.0743 46.1478,41.5135 47.8262,41.5135C49.2601,41.5135 50.491,42.0824 51.521,43.2203C52.5489,44.3582 53.0624,45.7754 53.0624,47.4683Z" style="fill:white;fill-rule:nonzero;"/>
                <path d="M61.9051,40.8649L61.9051,8.31377C61.9051,5.54405 62.4541,3.46676 63.5501,2.0819C64.647,0.695892 66.087,0.00346215 67.874,0.00346215C69.7412,0.00346215 71.2228,0.695892 72.3197,2.0819C73.4157,3.46676 73.9637,5.54405 73.9637,8.31377L73.9637,41.6046C73.9637,45.3899 74.3351,48.5532 75.0799,51.0932C75.8237,53.6321 77.144,55.6021 79.0385,57.0031C80.9321,58.4041 83.5847,59.1035 86.9954,59.1035C91.7049,59.1035 95.0334,57.6805 96.9827,54.8323C98.9311,51.9853 99.9053,47.6692 99.9053,41.8804L99.9053,8.31377C99.9053,5.51289 100.446,3.42868 101.529,2.05767C102.611,0.687813 104.06,0.00346215 105.873,0.00346215C107.686,0.00346215 109.154,0.688967 110.278,2.05767C111.401,3.42868 111.963,5.51289 111.963,8.31377L111.963,40.8649C111.963,46.1597 111.509,50.5774 110.603,54.1157C109.696,57.6551 107.984,60.7653 105.467,63.4427C103.302,65.7208 100.785,67.3826 97.9163,68.4282C95.0476,69.4738 91.6907,69.9977 87.8478,69.9977C83.2732,69.9977 79.3348,69.4368 76.0328,68.3128C72.7307,67.1887 70.0375,65.4507 67.9542,63.0953C65.8698,60.7411 64.3406,57.7255 63.3664,54.0464C62.3922,50.3685 61.9051,45.975 61.9051,40.8649Z" style="fill:white;fill-rule:nonzero;"/>
                <path d="M148.332,68.8448L130.144,68.8448C127.518,68.8448 125.644,68.1754 124.522,66.8368C123.398,65.4981 122.836,63.3665 122.836,60.4422L122.836,9.56014C122.836,6.57577 123.41,4.42924 124.561,3.11939C125.711,1.81186 127.572,1.15751 130.143,1.15751L149.427,1.15751C152.269,1.15751 154.731,1.35832 156.817,1.75877C158.9,2.15923 160.768,2.92898 162.419,4.06687C163.827,5.02127 165.072,6.22956 166.155,7.69174C167.236,9.15507 168.062,10.7707 168.631,12.5399C169.199,14.3102 169.483,16.1798 169.483,18.1497C169.483,24.9205 166.505,29.8772 160.551,33.0162C168.373,35.8494 172.284,41.3588 172.284,49.5456C172.284,53.3321 171.431,56.7411 169.727,59.7728C168.021,62.8045 165.72,65.0434 162.824,66.4905C161.011,67.3526 158.926,67.9596 156.572,68.3139C154.218,68.6682 151.472,68.8448 148.332,68.8448ZM134.895,11.4539L134.895,28.9528L145.937,28.9528C148.942,28.9528 151.263,28.6296 152.9,27.9834C154.538,27.336 155.789,26.1057 156.655,24.2893C157.331,22.9967 157.67,21.5507 157.67,19.9489C157.67,16.5329 156.601,14.2629 154.462,13.1388C152.324,12.016 149.063,11.4539 144.678,11.4539ZM147.439,38.7864L134.895,38.7864L134.895,58.5484L147.846,58.5484C155.992,58.5484 160.066,55.2086 160.066,48.5289C160.066,45.1118 159.011,42.6352 156.9,41.0957C154.787,39.5573 151.634,38.7864 147.439,38.7864Z" style="fill:white;fill-rule:nonzero;"/>
                <path d="M219.859,11.7309L192.698,11.7309L192.698,28.3527L217.707,28.3527C219.547,28.3527 220.921,28.8212 221.828,29.7606C222.734,30.7 223.188,31.9395 223.188,33.4778C223.188,35.0173 222.741,36.2718 221.848,37.2412C220.955,38.2106 219.575,38.6964 217.707,38.6964L192.698,38.6964L192.698,57.9494L220.793,57.9494C222.688,57.9494 224.115,58.4514 225.076,59.4508C226.037,60.4514 226.517,61.7832 226.517,63.445C226.517,65.0457 226.036,66.3463 225.076,67.3468C224.115,68.3462 222.688,68.8471 220.793,68.8471L188.03,68.8471C185.404,68.8471 183.516,68.1858 182.367,66.861C181.216,65.5384 180.642,63.3988 180.642,60.4433L180.642,9.5613C180.642,7.59249 180.898,5.98259 181.413,4.73622C181.926,3.48984 182.732,2.58276 183.829,2.01266C184.925,1.44372 186.325,1.15867 188.031,1.15867L219.86,1.15867C221.782,1.15867 223.21,1.64337 224.144,2.61392C225.077,3.58332 225.544,4.85278 225.544,6.42344C225.544,8.0241 225.077,9.30856 224.144,10.278C223.209,11.2462 221.781,11.7309 219.859,11.7309Z" style="fill:white;fill-rule:nonzero;"/>
            </g>
            <g>
                <path d="M300.243,41.3265L300.243,54.3003C300.243,56.0245 300.092,57.4024 299.795,58.433C299.498,59.4635 298.949,60.3948 298.152,61.2258C297.353,62.0578 296.331,62.8576 295.086,63.6273C291.487,65.8431 288.023,67.4588 284.693,68.4743C281.364,69.4911 277.737,69.9977 273.812,69.9977C269.237,69.9977 265.07,69.1979 261.308,67.5973C257.546,65.9966 254.338,63.6735 251.687,60.6257C249.034,57.5778 246.997,53.8837 245.577,49.5433C244.156,45.2029 243.445,40.3548 243.445,34.9988C243.445,29.7352 244.136,24.9182 245.516,20.5478C246.896,16.1775 248.926,12.4672 251.606,9.4205C254.286,6.37266 257.546,4.04148 261.39,2.42466C265.234,0.807834 269.591,-8.88178e-15 274.462,-9.76996e-15C278.468,-9.76996e-15 282.013,0.608184 285.099,1.8234C288.185,3.03977 290.688,4.57119 292.61,6.41767C294.531,8.26415 295.979,10.2191 296.953,12.2814C297.928,14.3437 298.415,16.1752 298.415,17.7758C298.415,19.5 297.852,20.9702 296.73,22.1843C295.607,23.4018 294.258,24.0088 292.692,24.0088C291.824,24.0088 290.991,23.778 290.194,23.3153C289.396,22.8536 288.726,22.2074 288.185,21.3753C286.696,18.7291 285.438,16.7291 284.409,15.3731C283.38,14.0194 281.993,12.8803 280.246,11.9571C278.5,11.0327 276.275,10.5722 273.569,10.5722C270.781,10.5722 268.291,11.1193 266.097,12.211C263.906,13.3039 262.032,14.8884 260.476,16.9668C258.919,19.0441 257.728,21.5923 256.903,24.6078C256.078,27.6245 255.665,30.9643 255.665,34.6272C255.665,42.5694 257.268,48.6801 260.476,52.9582C263.683,57.2362 268.154,59.3758 273.893,59.3758C276.682,59.3758 279.3,58.9615 281.749,58.1295C284.199,57.2985 286.682,56.1145 289.2,54.575L289.2,43.5861L279.863,43.5861C277.615,43.5861 275.916,43.2018 274.768,42.4321C273.616,41.6635 273.042,40.3536 273.042,38.5083C273.042,37 273.524,35.7536 274.483,34.768C275.444,33.7825 276.75,33.2909 278.401,33.2909L292.082,33.2909C293.76,33.2909 295.182,33.4605 296.345,33.7986C297.508,34.1379 298.449,34.8915 299.167,36.0606C299.882,37.2342 300.243,38.9872 300.243,41.3265Z" style="fill:white;fill-rule:nonzero;"/>
                <path d="M344.568,61.1808L341.725,52.6858L317.529,52.6858L314.687,61.3654C313.577,64.7525 312.63,67.0376 311.844,68.2216C311.059,69.4057 309.773,69.9988 307.987,69.9988C306.471,69.9988 305.132,69.3676 303.968,68.1062C302.805,66.8437 302.221,65.4127 302.221,63.8108C302.221,62.8876 302.356,61.9344 302.627,60.9488C302.897,59.9644 303.345,58.5945 303.967,56.8392L319.192,12.8838C319.625,11.6224 320.145,10.1072 320.754,8.33685C321.363,6.56769 322.012,5.09743 322.702,3.92723C323.395,2.75818 324.3,1.81186 325.424,1.08827C326.545,0.36468 327.934,0.00346215 329.585,0.00346215C331.263,0.00346215 332.664,0.36468 333.789,1.08827C334.91,1.81186 335.818,2.74317 336.508,3.88107C337.198,5.02011 337.781,6.24456 338.255,7.5521C338.729,8.86079 339.332,10.6069 340.06,12.7926L355.61,56.4711C356.827,59.7959 357.436,62.2136 357.436,63.7197C357.436,65.2892 356.862,66.7283 355.712,68.037C354.56,69.3457 353.175,69.9988 351.549,69.9988C350.602,69.9988 349.79,69.8061 349.114,69.4218C348.438,69.0364 347.869,68.5147 347.409,67.8523C346.949,67.191 346.456,66.1755 345.927,64.8045C345.4,63.4358 344.946,62.2275 344.568,61.1808ZM320.695,42.3882L338.477,42.3882L329.504,14.4545Z" style="fill:white;fill-rule:nonzero;"/>
                <path d="M384.306,58.6407L374.765,15.5162L374.765,62.2425C374.765,64.8276 374.258,66.7664 373.243,68.06C372.228,69.3526 370.881,69.9988 369.204,69.9988C367.579,69.9988 366.253,69.3595 365.224,68.0831C364.195,66.8067 363.682,64.8587 363.682,62.2425L363.682,8.68307C363.682,5.72755 364.358,3.73566 365.712,2.70394C367.065,1.67222 368.893,1.15636 371.193,1.15636L374.928,1.15636C377.173,1.15636 378.804,1.38717 379.819,1.84994C380.834,2.31041 381.585,3.14248 382.073,4.34269C382.561,5.5429 383.115,7.49786 383.738,10.2064L392.385,47.2825L401.032,10.2064C401.654,7.49786 402.209,5.5429 402.697,4.34269C403.185,3.14248 403.936,2.31041 404.951,1.84994C405.965,1.38832 407.596,1.15636 409.842,1.15636L413.578,1.15636C415.878,1.15636 417.704,1.67222 419.058,2.70394C420.412,3.73566 421.088,5.72755 421.088,8.68307L421.088,62.2425C421.088,64.8276 420.58,66.7664 419.565,68.06C418.551,69.3526 417.191,69.9988 415.486,69.9988C413.889,69.9988 412.575,69.3526 411.548,68.06C410.519,66.7664 410.004,64.8276 410.004,62.2425L410.004,15.5162L400.465,58.6407C399.841,61.4427 399.334,63.4969 398.941,64.8045C398.549,66.1132 397.825,67.3064 396.769,68.3832C395.714,69.4611 394.252,69.9988 392.385,69.9988C390.977,69.9988 389.786,69.6526 388.813,68.9602C387.838,68.2678 387.081,67.3838 386.538,66.3059C385.997,65.228 385.571,64.0359 385.259,62.7272C384.948,61.4185 384.632,60.0579 384.306,58.6407Z" style="fill:white;fill-rule:nonzero;"/>
                <path d="M470.612,11.7309L443.45,11.7309L443.45,28.3527L468.459,28.3527C470.3,28.3527 471.674,28.8212 472.58,29.7606C473.488,30.7 473.942,31.9395 473.942,33.4778C473.942,35.0173 473.494,36.2718 472.602,37.2412C471.708,38.2106 470.327,38.6964 468.46,38.6964L443.451,38.6964L443.451,57.9494L471.546,57.9494C473.441,57.9494 474.867,58.4514 475.829,59.4508C476.79,60.4514 477.27,61.7832 477.27,63.445C477.27,65.0457 476.79,66.3463 475.829,67.3468C474.868,68.3462 473.441,68.8471 471.546,68.8471L438.782,68.8471C436.158,68.8471 434.269,68.1858 433.12,66.861C431.968,65.5384 431.394,63.3988 431.394,60.4433L431.394,9.5613C431.394,7.59249 431.651,5.98259 432.165,4.73622C432.68,3.48984 433.485,2.58276 434.581,2.01266C435.677,1.44372 437.078,1.15867 438.783,1.15867L470.614,1.15867C472.534,1.15867 473.963,1.64337 474.897,2.61392C475.83,3.58332 476.298,4.85278 476.298,6.42344C476.298,8.0241 475.83,9.30856 474.897,10.278C473.961,11.2462 472.532,11.7309 470.612,11.7309Z" style="fill:white;fill-rule:nonzero;"/>
                <path d="M530,48.5301C530,52.6246 529.072,56.3026 527.22,59.5651C525.365,62.8287 522.651,65.3826 519.08,67.2303C515.507,69.0779 511.271,70 506.372,70C500.5,70 495.653,68.7386 491.838,66.2147C489.131,64.3994 486.931,61.9747 485.24,58.9419C483.55,55.9102 482.704,52.9628 482.704,50.1007C482.704,48.4389 483.211,47.0148 484.226,45.8296C485.24,44.6455 486.532,44.0524 488.102,44.0524C489.375,44.0524 490.45,44.514 491.331,45.4372C492.209,46.3605 492.96,47.7303 493.585,49.5468C494.342,51.7014 495.161,53.5029 496.041,54.9489C496.92,56.3972 498.157,57.5894 499.755,58.5288C501.352,59.4681 503.45,59.9367 506.047,59.9367C509.62,59.9367 512.523,58.9904 514.756,57.0977C516.99,55.2039 518.106,52.8416 518.106,50.0096C518.106,47.7626 517.503,45.9392 516.301,44.5382C515.095,43.1384 513.539,42.0674 511.631,41.33C509.722,40.5902 507.171,39.8066 503.978,38.9745C499.701,37.8367 496.122,36.5049 493.24,34.9815C490.356,33.4582 488.069,31.3797 486.378,28.7485C484.685,26.1173 483.841,22.8467 483.841,18.9368C483.841,15.2127 484.733,11.9029 486.519,9.00966C488.307,6.11646 490.892,3.89145 494.275,2.3381C497.658,0.784753 501.636,0.00577025 506.211,0.00577025C509.866,0.00577025 513.025,0.52163 515.691,1.5522C518.357,2.58507 520.571,3.95377 522.328,5.66292C524.088,7.36976 525.375,9.1643 526.185,11.0408C526.998,12.9196 527.404,14.7511 527.404,16.5364C527.404,18.1682 526.897,19.6385 525.882,20.9448C524.867,22.2535 523.601,22.9067 522.085,22.9067C520.706,22.9067 519.656,22.5143 518.939,21.7296C518.222,20.9437 517.442,19.6592 516.604,17.8739C515.522,15.3188 514.221,13.3258 512.707,11.8936C511.191,10.4626 508.755,9.7471 505.4,9.7471C502.287,9.7471 499.775,10.5249 497.868,12.0794C495.959,13.6351 495.007,15.5046 495.007,17.6893C495.007,19.0441 495.329,20.2143 495.98,21.1976C496.63,22.1831 497.523,23.0302 498.66,23.7376C499.797,24.4451 500.947,25.0002 502.11,25.3995C503.273,25.7988 505.196,26.385 507.876,27.1536C511.232,28.0469 514.27,29.0324 516.991,30.1091C519.71,31.1882 522.025,32.4946 523.934,34.0341C525.84,35.5736 527.329,37.5204 528.399,39.8747C529.464,42.2278 530,45.1129 530,48.5301Z" style="fill:white;fill-rule:nonzero;"/>
            </g>
        </g>
    </g>
</svg>
