<?xml version="1.0" standalone="no"?>
<!DOCTYPE svg PUBLIC "-//W3C//DTD SVG 1.1//EN" "http://www.w3.org/Graphics/SVG/1.1/DTD/svg11.dtd">
<svg width="38px" height="36px" version="1.1" xmlns="http://www.w3.org/2000/svg" xmlns:xlink="http://www.w3.org/1999/xlink" xml:space="preserve" style="fill-rule:evenodd;clip-rule:evenodd;stroke-linejoin:round;stroke-miterlimit:1.41421;">
    <g>
        <g id="gear">
            <path d="M18.9222,23.9326C15.9056,23.9326 13.4603,21.3596 13.4603,18.198C13.4603,15.0342 15.9066,12.4634 18.9222,12.4634C21.9378,12.4634 24.386,15.0342 24.386,18.198C24.386,21.3596 21.9388,23.9326 18.9222,23.9326ZM38,17.8931C38,15.3572 36.4877,13.1972 34.3638,12.3364C32.7139,11.2976 31.6183,9.40765 31.6183,7.24765C31.6183,7.07718 31.6263,6.91624 31.6364,6.74471L31.6615,6.55729C31.6796,6.42282 31.6866,6.28835 31.7107,6.16447L31.6796,6.15282L31.6876,5.99294C31.6876,2.71271 29.146,0.054 26.0189,0.054C24.5397,0.054 23.1961,0.645882 22.1939,1.61365L22.1858,1.60412C21.3092,2.19494 20.2658,2.52635 19.1521,2.52635C18.0385,2.52635 17.0122,2.19494 16.1355,1.61365C15.1253,0.608824 13.7556,-2.22045e-16 12.2613,-2.22045e-16C9.12518,-2.22045e-16 6.59359,2.66188 6.59359,5.94953C6.59359,6.28094 6.61869,6.61235 6.66991,6.93529L6.66187,6.93529L6.66991,7.19365C6.66991,9.50612 5.41265,11.5041 3.57697,12.4899L3.585,12.4984C1.48622,13.3676 -1.94289e-16,15.5192 -2.22045e-16,18.0265C-2.63678e-16,20.6259 1.59668,22.8388 3.81496,23.6456C5.51307,24.6674 6.67091,26.5924 6.67091,28.7979L6.66288,29.0224C6.60162,29.3538 6.56848,29.7032 6.56848,30.0536C6.56748,33.3402 9.10711,36 12.2342,36C13.7736,36 15.1584,35.3647 16.1787,34.3249C16.9951,33.8411 17.9381,33.5636 18.9322,33.5636C20.0951,33.5636 21.1666,33.93 22.0663,34.5568C23.0605,35.4536 24.3509,36 25.7628,36C28.8909,36 31.4295,33.3402 31.4295,30.0526C31.4295,29.6936 31.3984,29.3347 31.3371,28.9938L31.3291,28.7513C31.3291,26.1445 32.9358,23.9315 35.1611,23.1258L35.143,23.0538C36.8452,22.0235 38,20.0954 38,17.8931Z" style="fill:rgb(146,155,30);"/>
        </g>
    </g>
</svg>
