<?xml version="1.0" standalone="no"?>
<!DOCTYPE svg PUBLIC "-//W3C//DTD SVG 1.1//EN" "http://www.w3.org/Graphics/SVG/1.1/DTD/svg11.dtd">
<svg width="36px" height="36px" version="1.1" xmlns="http://www.w3.org/2000/svg" xmlns:xlink="http://www.w3.org/1999/xlink" xml:space="preserve" style="fill-rule:evenodd;clip-rule:evenodd;stroke-linejoin:round;stroke-miterlimit:1.41421;">
    <g>
        <g id="star">
            <path d="M35.9248,13.4079C35.7524,12.8711 35.3031,12.4846 34.7656,12.4084L24.0377,10.8985L19.1473,0.816353C18.9059,0.315529 18.412,-2.22045e-16 17.8776,-2.22045e-16C17.8715,-2.22045e-16 17.8654,-2.22045e-16 17.8613,-2.22045e-16C17.3188,0.00635294 16.8269,0.332471 16.5916,0.842824L11.901,11.0276L1.20654,12.7684C0.670043,12.8552 0.227863,13.2522 0.0655944,13.7933C-0.0966737,14.3344 0.0473392,14.9231 0.439825,15.3148L8.27028,23.1194L6.54922,34.2752C6.46403,34.8353 6.69019,35.3965 7.13136,35.7247C7.37679,35.9068 7.66684,36 7.95791,36C8.18813,36 8.42139,35.9407 8.63335,35.8221L18.1615,30.4613L27.7942,35.6178C28.0001,35.7279 28.2222,35.7808 28.4443,35.7808C28.4463,35.7808 28.4483,35.7808 28.4503,35.7808C29.2363,35.7808 29.8742,35.1148 29.8742,34.2921C29.8742,34.1619 29.858,34.0338 29.8266,33.9131L27.9067,22.9076L35.58,14.9379C35.9644,14.5376 36.0993,13.9447 35.9248,13.4079Z" style="fill:rgb(146,155,30);fill-rule:nonzero;"/>
        </g>
    </g>
</svg>
