<?xml version="1.0" encoding="utf-8"?>
<!-- Generator: Adobe Illustrator 15.1.0, SVG Export Plug-In . SVG Version: 6.00 Build 0)  -->
<!DOCTYPE svg PUBLIC "-//W3C//DTD SVG 1.1//EN" "http://www.w3.org/Graphics/SVG/1.1/DTD/svg11.dtd">
<svg version="1.1" id="圖層_1" xmlns="http://www.w3.org/2000/svg" xmlns:xlink="http://www.w3.org/1999/xlink" x="0px" y="0px"
	 width="190px" height="190px" viewBox="0 0 190 190" enable-background="new 0 0 190 190" xml:space="preserve">
<path fill="#CCCCCC" d="M183.765,66.97c-0.85-2.525-3.059-4.35-5.699-4.706l-52.695-7.105L101.35,7.721
	c-1.192-2.355-3.608-3.838-6.245-3.838c-0.023,0-0.048,0-0.072,0c-2.664,0.027-5.082,1.565-6.236,3.967L65.754,55.771l-52.538,8.185
	c-2.633,0.41-4.805,2.28-5.603,4.822c-0.797,2.542-0.082,5.317,1.846,7.157l38.455,36.723l-8.45,52.497
	c-0.424,2.631,0.684,5.273,2.854,6.817c1.209,0.859,2.63,1.295,4.058,1.295c1.138,0,2.279-0.277,3.319-0.838l46.809-25.225
	l47.316,24.259c1.007,0.516,2.103,0.771,3.192,0.771c0,0,0.014,0,0.021,0c3.866,0,7-3.134,7-7c0-0.618-0.08-1.218-0.23-1.789
	l-9.429-51.777l37.693-37.504C183.957,72.285,184.615,69.496,183.765,66.97z"/>
<g>
	<path fill="#F6484B" d="M45.176,144.013c0,0-1.533-6.643-7.665-8.176s-4.088,9.901-3.065,12.871s5.62,8.59,10.73,7.058
		c5.109-1.533,20.95-20.068,20.95-20.068l-8.813-13.146L45.176,144.013z"/>
	<path fill="#F6484B" d="M85.445,149.488c0,0-1.533-6.643-7.664-8.175c-6.133-1.533-4.089,9.9-3.066,12.87s5.62,8.59,10.73,7.058
		c5.109-1.533,20.95-20.069,20.95-20.069l-8.813-13.145L85.445,149.488z"/>
	<path fill="#F6484B" stroke="#FFFFFF" stroke-width="3" stroke-miterlimit="10" d="M44.372,77.785c0,0-39.171,40.594-33.862,50.369
		c5.309,9.777,14.896-8.851,16.361-10.735c2.396-3.087,14.314-23.89,19.768-27.464"/>
	<g>
		<path fill="#F6484B" d="M146.769,42.727L107.914,69.77l2.927,67.148c0.078,1.783-0.688,3.289-1.927,4.151
			c12.953-9.015,25.904-18.029,38.856-27.045c1.237-0.861,2.005-2.369,1.927-4.149L146.769,42.727z"/>
	</g>
	<g>
		<path fill="#F6484B" d="M77.339,30.693c-1.129-0.107-2.16,0.181-2.984,0.754c-12.952,9.015-25.903,18.028-38.856,27.044
			c0.823-0.574,1.856-0.861,2.985-0.752l64.04,6.141l38.856-27.043L77.339,30.693z"/>
	</g>
	<g>
		<g>
			<g>
				<path fill="#F6484B" d="M102.524,63.879c2.833,0.271,5.26,2.921,5.39,5.891l2.927,67.148c0.13,2.971-2.087,5.175-4.919,4.904
					l-64.039-6.142c-2.828-0.271-5.254-2.922-5.384-5.891l-2.927-67.148c-0.129-2.971,2.086-5.176,4.912-4.903L102.524,63.879z"/>
			</g>
		</g>
	</g>
	<g>
		<g>
			<g>
				<path fill="#F6484B" d="M102.524,63.879l38.856-27.043c2.832,0.271,5.26,2.92,5.389,5.891L107.914,69.77
					C107.784,66.8,105.357,64.15,102.524,63.879z"/>
			</g>
		</g>
	</g>
	<g>
		<g>
			<g enable-background="new    ">
				<defs>
					<polygon id="SVGID_1_" enable-background="new    " points="40.64,129.481 38.865,67.627 104.248,76.415 106.022,138.268 					
						"/>
				</defs>
				<clipPath id="SVGID_2_">
					<use xlink:href="#SVGID_1_"  overflow="visible"/>
				</clipPath>
				<g clip-path="url(#SVGID_2_)">
					<g>
						<g>
							<g>
								<path fill="#FFFFFF" d="M71.893,72.066c-0.459-0.062-0.921-0.114-1.384-0.159c-18.037-1.724-31.792,10.787-30.72,27.927
									c1.036,16.699,15.766,31.65,33.205,33.994c0.458,0.063,0.921,0.115,1.383,0.158c18.037,1.717,31.792-10.786,30.721-27.926
									C104.054,89.36,89.332,74.409,71.893,72.066"/>
							</g>
						</g>
					</g>
				</g>
			</g>
		</g>
	</g>
	<path fill="#F6484B" d="M52.77,101.314c0,1.693-1.372,3.065-3.065,3.065l0,0c-1.693,0-3.066-1.372-3.066-3.065l0,0
		c0-1.693,1.373-3.066,3.066-3.066l0,0C51.398,98.248,52.77,99.621,52.77,101.314L52.77,101.314z"/>
	<path fill="#F6484B" d="M94.571,104.379c0,1.693-1.372,3.065-3.065,3.065l0,0c-1.693,0-3.066-1.372-3.066-3.065l0,0
		c0-1.693,1.373-3.065,3.066-3.065l0,0C93.199,101.314,94.571,102.686,94.571,104.379L94.571,104.379z"/>
	<g>
		<path fill="none" stroke="#F6484B" stroke-width="2" stroke-miterlimit="10" d="M61.693,108.38l12.885,1.025
			c0,0-0.022,6.227-4.915,6.839C62.898,117.092,61.843,110.236,61.693,108.38z"/>
		<path fill="none" stroke="#F6484B" stroke-width="1.5" stroke-miterlimit="10" d="M73.369,112.509
			c0.403,2.322-6.646,7.821-10.944-0.779c-0.552-2.033,0.075-2.477,4.239-2.578C72.422,109.011,72.965,110.188,73.369,112.509z"/>
		<path fill="#FFFFFF" stroke="#F6484B" stroke-width="1.5" stroke-miterlimit="10" d="M62.487,108.985l10.946,0.706
			c0,0-0.066,2.038-4.229,2.097C63.447,111.871,62.6,109.596,62.487,108.985z"/>
	</g>
	<path fill="#F6484B" stroke="#FFFFFF" stroke-width="3" stroke-miterlimit="10" d="M138.392,133.156
		c-0.73-2.934-2.479-11.473-4.238-16.839c-3.705-11.305-11.496-26.595-3.787-29.339c10.481-3.729,16.402,34.169,16.402,34.169
		s2.934,18.175,2.934,23.617c0,7.309-7.384,10.735-9.928,2.763C137.146,139.289,141.129,144.141,138.392,133.156z"/>
	
		<ellipse transform="matrix(0.9559 -0.2938 0.2938 0.9559 -27.3487 19.3929)" fill="#FFFFFF" stroke="#F6484B" stroke-miterlimit="10" cx="50.876" cy="100.729" rx="1.193" ry="0.921"/>
	
		<ellipse transform="matrix(0.9559 -0.2938 0.2938 0.9559 -26.4335 31.8135)" fill="#FFFFFF" stroke="#F6484B" stroke-miterlimit="10" cx="92.677" cy="103.893" rx="1.193" ry="0.923"/>
</g>
</svg>
