<?xml version="1.0" encoding="utf-8"?>
<!-- Generator: Adobe Illustrator 15.1.0, SVG Export Plug-In . SVG Version: 6.00 Build 0)  -->
<!DOCTYPE svg PUBLIC "-//W3C//DTD SVG 1.1//EN" "http://www.w3.org/Graphics/SVG/1.1/DTD/svg11.dtd">
<svg version="1.1" xmlns="http://www.w3.org/2000/svg" xmlns:xlink="http://www.w3.org/1999/xlink" x="0px" y="0px" width="190px"
	 height="190px" viewBox="0 0 190 190" enable-background="new 0 0 190 190" xml:space="preserve">
<g id="星星">
	<path fill="#CCCCCC" d="M183.765,66.97c-0.85-2.525-3.059-4.35-5.699-4.706l-52.695-7.105L101.35,7.721
		c-1.192-2.355-3.608-3.838-6.245-3.838c-0.023,0-0.048,0-0.072,0c-2.664,0.027-5.082,1.565-6.236,3.967L65.754,55.771
		l-52.538,8.185c-2.633,0.41-4.805,2.28-5.603,4.822c-0.797,2.542-0.082,5.317,1.846,7.157l38.455,36.723l-8.45,52.497
		c-0.424,2.631,0.684,5.273,2.854,6.817c1.209,0.859,2.63,1.295,4.058,1.295c1.138,0,2.279-0.277,3.319-0.838l46.809-25.225
		l47.316,24.259c1.007,0.516,2.103,0.771,3.192,0.771c0,0,0.014,0,0.021,0c3.866,0,7-3.134,7-7c0-0.618-0.08-1.218-0.23-1.789
		l-9.429-51.777l37.693-37.504C183.957,72.285,184.615,69.496,183.765,66.97z"/>
</g>
<g id="圖層_1" display="none">
	<g display="inline">
		<path fill="#F6484B" d="M45.176,144.013c0,0-1.533-6.643-7.665-8.176s-4.088,9.901-3.065,12.871s5.62,8.59,10.73,7.058
			c5.109-1.533,20.95-20.068,20.95-20.068l-8.813-13.146L45.176,144.013z"/>
		<path fill="#F6484B" d="M85.445,149.488c0,0-1.533-6.643-7.664-8.175c-6.133-1.533-4.089,9.9-3.066,12.87s5.62,8.59,10.73,7.058
			c5.109-1.533,20.95-20.069,20.95-20.069l-8.813-13.145L85.445,149.488z"/>
		<path fill="#F6484B" stroke="#FFFFFF" stroke-width="3" stroke-miterlimit="10" d="M44.372,77.785
			c0,0-39.171,40.594-33.862,50.369c5.309,9.777,14.896-8.851,16.361-10.735c2.396-3.087,14.314-23.89,19.768-27.464"/>
		<g>
			<path fill="#F6484B" d="M146.769,42.727L107.914,69.77l2.927,67.148c0.078,1.783-0.688,3.289-1.927,4.151
				c12.953-9.015,25.904-18.029,38.856-27.045c1.237-0.861,2.005-2.369,1.927-4.149L146.769,42.727z"/>
		</g>
		<g>
			<path fill="#F6484B" d="M77.339,30.693c-1.129-0.107-2.16,0.181-2.984,0.754c-12.952,9.015-25.903,18.028-38.856,27.044
				c0.823-0.574,1.856-0.861,2.985-0.752l64.04,6.141l38.856-27.043L77.339,30.693z"/>
		</g>
		<g>
			<g>
				<g>
					<path fill="#F6484B" d="M102.524,63.879c2.833,0.271,5.26,2.921,5.39,5.891l2.927,67.148c0.13,2.971-2.087,5.175-4.919,4.904
						l-64.039-6.142c-2.828-0.271-5.254-2.922-5.384-5.891l-2.927-67.148c-0.129-2.971,2.086-5.176,4.912-4.903L102.524,63.879z"/>
				</g>
			</g>
		</g>
		<g>
			<g>
				<g>
					<path fill="#F6484B" d="M102.524,63.879l38.856-27.043c2.832,0.271,5.26,2.92,5.389,5.891L107.914,69.77
						C107.784,66.8,105.357,64.15,102.524,63.879z"/>
				</g>
			</g>
		</g>
		<g>
			<g>
				<g enable-background="new    ">
					<defs>
						<polygon id="SVGID_1_" enable-background="new    " points="40.64,129.481 38.865,67.627 104.248,76.415 106.022,138.268 
													"/>
					</defs>
					<clipPath id="SVGID_2_">
						<use xlink:href="#SVGID_1_"  overflow="visible"/>
					</clipPath>
					<g clip-path="url(#SVGID_2_)">
						<g>
							<g>
								<g>
									<path fill="#FFFFFF" d="M71.893,72.066c-0.459-0.062-0.921-0.114-1.384-0.159c-18.037-1.724-31.792,10.787-30.72,27.927
										c1.036,16.699,15.766,31.65,33.205,33.994c0.458,0.063,0.921,0.115,1.383,0.158c18.037,1.717,31.792-10.786,30.721-27.926
										C104.054,89.36,89.332,74.409,71.893,72.066"/>
								</g>
							</g>
						</g>
					</g>
				</g>
			</g>
		</g>
		<path fill="#F6484B" d="M52.77,101.314c0,1.693-1.372,3.065-3.065,3.065l0,0c-1.693,0-3.066-1.372-3.066-3.065l0,0
			c0-1.693,1.373-3.066,3.066-3.066l0,0C51.398,98.248,52.77,99.621,52.77,101.314L52.77,101.314z"/>
		<path fill="#F6484B" d="M94.571,104.379c0,1.693-1.372,3.065-3.065,3.065l0,0c-1.693,0-3.066-1.372-3.066-3.065l0,0
			c0-1.693,1.373-3.065,3.066-3.065l0,0C93.199,101.314,94.571,102.686,94.571,104.379L94.571,104.379z"/>
		<g>
			<path fill="none" stroke="#F6484B" stroke-width="2" stroke-miterlimit="10" d="M61.693,108.38l12.885,1.025
				c0,0-0.022,6.227-4.915,6.839C62.898,117.092,61.843,110.236,61.693,108.38z"/>
			<path fill="none" stroke="#F6484B" stroke-width="1.5" stroke-miterlimit="10" d="M73.369,112.509
				c0.403,2.322-6.646,7.821-10.944-0.779c-0.552-2.033,0.075-2.477,4.239-2.578C72.422,109.011,72.965,110.188,73.369,112.509z"/>
			<path fill="#FFFFFF" stroke="#F6484B" stroke-width="1.5" stroke-miterlimit="10" d="M62.487,108.985l10.946,0.706
				c0,0-0.066,2.038-4.229,2.097C63.447,111.871,62.6,109.596,62.487,108.985z"/>
		</g>
		<path fill="#F6484B" stroke="#FFFFFF" stroke-width="3" stroke-miterlimit="10" d="M138.392,133.156
			c-0.73-2.934-2.479-11.473-4.238-16.839c-3.705-11.305-11.496-26.595-3.787-29.339c10.481-3.729,16.402,34.169,16.402,34.169
			s2.934,18.175,2.934,23.617c0,7.309-7.384,10.735-9.928,2.763C137.146,139.289,141.129,144.141,138.392,133.156z"/>
		
			<ellipse transform="matrix(0.9559 -0.2938 0.2938 0.9559 -27.3487 19.3929)" fill="#FFFFFF" stroke="#F6484B" stroke-miterlimit="10" cx="50.876" cy="100.729" rx="1.193" ry="0.921"/>
		
			<ellipse transform="matrix(0.9559 -0.2938 0.2938 0.9559 -26.4335 31.8135)" fill="#FFFFFF" stroke="#F6484B" stroke-miterlimit="10" cx="92.677" cy="103.893" rx="1.193" ry="0.923"/>
	</g>
</g>
<g id="圖層_3">
	<g>
		<path fill="#F6484B" stroke="#FFFFFF" stroke-width="3" stroke-miterlimit="10" d="M33.46,123.612c0,0,3.712-5.768,0.513-11.261
			c-3.197-5.495-10.217-1.208-11.64,1.612c-1.424,2.822-2.034,15.289,2.657,17.896c4.69,2.607,29.165,1.014,29.165,1.014
			l3.29-15.577L33.46,123.612z"/>
		<path fill="#F6484B" stroke="#FFFFFF" stroke-width="3" stroke-miterlimit="10" d="M71.202,104.634
			c0,0-43.662-36.243-53.071-30.184s9.999,14.279,11.999,15.606c3.275,2.17,25.039,12.564,29.034,17.766"/>
		<g>
			<path fill="#F6484B" d="M161.906,51.232l-39.087,27.204l2.945,67.547c0.078,1.793-0.693,3.309-1.938,4.176
				c13.03-9.068,26.058-18.137,39.087-27.206c1.244-0.866,2.016-2.382,1.938-4.174L161.906,51.232z"/>
		</g>
		<g>
			<path fill="#F6484B" d="M92.063,39.127c-1.135-0.108-2.172,0.181-3.001,0.758C76.034,48.954,63.004,58.02,49.975,67.089
				c0.828-0.577,1.867-0.866,3.002-0.756l64.421,6.178l39.086-27.205L92.063,39.127z"/>
		</g>
		<g>
			<g>
				<g>
					<path fill="#F6484B" d="M117.398,72.511c2.849,0.271,5.29,2.937,5.421,5.925l2.945,67.547c0.129,2.987-2.1,5.205-4.949,4.933
						l-64.418-6.179c-2.845-0.272-5.285-2.938-5.416-5.924l-2.945-67.548c-0.129-2.988,2.1-5.206,4.941-4.932L117.398,72.511z"/>
				</g>
			</g>
		</g>
		<g>
			<g>
				<g>
					<path fill="#F6484B" d="M117.398,72.511l39.086-27.205c2.85,0.271,5.292,2.938,5.422,5.926l-39.087,27.204
						C122.688,75.448,120.247,72.783,117.398,72.511z"/>
				</g>
			</g>
		</g>
		<g>
			<g>
				<g enable-background="new    ">
					<defs>
						<polygon id="SVGID_3_" enable-background="new    " points="55.147,138.5 53.362,76.28 119.134,85.12 120.919,147.34 						
							"/>
					</defs>
					<clipPath id="SVGID_4_">
						<use xlink:href="#SVGID_3_"  overflow="visible"/>
					</clipPath>
					<g clip-path="url(#SVGID_4_)">
						<g>
							<g>
								<g>
									<path fill="#FFFFFF" d="M86.583,80.745c-0.459-0.062-0.922-0.115-1.385-0.16c-18.148-1.731-31.98,10.846-30.906,28.089
										c1.047,16.812,15.866,31.844,33.408,34.201c0.459,0.063,0.922,0.115,1.385,0.159c18.141,1.73,31.98-10.847,30.905-28.099
										C118.944,98.134,104.125,83.101,86.583,80.745"/>
								</g>
							</g>
						</g>
					</g>
				</g>
			</g>
		</g>
		<path fill="#F6484B" d="M67.349,110.167c0,1.704-1.381,3.083-3.085,3.083l0,0c-1.702,0-3.083-1.379-3.083-3.083l0,0
			c0-1.702,1.381-3.085,3.083-3.085l0,0C65.968,107.082,67.349,108.464,67.349,110.167L67.349,110.167z"/>
		<path fill="#F6484B" d="M109.398,113.25c0,1.704-1.381,3.085-3.085,3.085l0,0c-1.702,0-3.083-1.381-3.083-3.085l0,0
			c0-1.702,1.381-3.083,3.083-3.083l0,0C108.017,110.167,109.398,111.547,109.398,113.25L109.398,113.25z"/>
		<path fill="#F6484B" stroke="#FFFFFF" stroke-width="3" stroke-miterlimit="10" d="M130.99,60.244
			c1.28,2.757,4.64,10.856,7.399,15.822c5.82,10.457,16.434,24.07,9.344,28.252c-9.641,5.684-22.723-30.615-22.723-30.615
			s-6.367-17.39-7.407-22.766c-1.395-7.218,5.243-12.012,9.277-4.624C131.049,53.948,126.19,49.917,130.99,60.244z"/>
		
			<ellipse transform="matrix(0.956 -0.2934 0.2934 0.956 -28.9906 23.6305)" fill="#FFFFFF" stroke="#F6484B" stroke-width="0.75" stroke-miterlimit="10" cx="64.265" cy="108.44" rx="1.2" ry="0.928"/>
		
			<ellipse transform="matrix(0.9559 -0.2937 0.2937 0.9559 -28.0699 36.1416)" fill="#FFFFFF" stroke="#F6484B" stroke-width="0.75" stroke-miterlimit="10" cx="106.314" cy="111.542" rx="1.2" ry="0.927"/>
		<path fill="#F6484B" stroke="#FFFFFF" stroke-width="3" stroke-miterlimit="10" d="M133.752,124.868l25.513-1.851
			c0,0-5.063-4.693-3.138-11.527c1.928-6.835,10.531-6.542,12.273-3.578c2.49,4.235,7.706,14.646,3.609,19.003
			c-4.094,4.354-31.335,12.993-31.335,12.993"/>
		<g>
			<g>
				<path fill="#F6484B" d="M92.924,39.178l7.473,5.2l-0.604,15.115c-0.016,0.367,0.143,0.678,0.398,0.854
					c-2.672-1.857-5.342-3.716-8.016-5.575c-0.254-0.179-0.412-0.489-0.396-0.857L92.924,39.178z"/>
				<g>
					<path fill="#FFFFFF" d="M92.735,39.502c1.652,1.149,7.31,4.309,7.267,5.395c-0.177,4.411-0.353,8.822-0.528,13.233
						c-0.086,2.152,0.141,1.359-1.764,0.035c-1.013-0.705-5.638-3.174-5.537-4.481c0.058-0.743,0.115-1.485,0.172-2.228
						c0.318-4.093,0.636-8.186,0.954-12.278c0.037-0.482-0.713-0.479-0.75,0c-0.301,3.874-0.602,7.748-0.903,11.622
						c-0.069,0.896-0.472,2.328-0.229,3.214c0.335,1.219,0.83,1.263,1.906,2.011c2.227,1.548,4.452,3.097,6.679,4.646
						c0.339,0.235,0.656-0.206,0.514-0.513c-0.89-1.904-0.178-4.912-0.096-6.967c0.11-2.765,0.221-5.529,0.331-8.293
						c0.044-1.104-0.838-1.311-1.725-1.927c-1.971-1.372-3.942-2.744-5.913-4.115C92.715,38.578,92.341,39.228,92.735,39.502z"/>
				</g>
			</g>
			<g>
				<path fill="#F6484B" d="M106.703,37.585c0.233-0.021,0.446,0.037,0.616,0.154c2.67,1.86,5.342,3.719,8.014,5.578
					c-0.17-0.118-0.383-0.177-0.616-0.154l-13.843,1.545l-7.949-5.53L106.703,37.585z"/>
				<g>
					<path fill="#FFFFFF" d="M106.603,37.947c2.646,0.663,5.813,5.098,8.043,4.849c-1.712,0.191-3.425,0.382-5.137,0.573
						c-3.407,0.38-7.306,1.809-10.104-0.139c-1.727-1.201-3.452-2.401-5.178-3.602c-1.313-0.913-0.479-0.171-1.233-0.084
						c0.694-0.08,1.39-0.16,2.084-0.241c3.875-0.448,7.75-0.896,11.625-1.344c0.475-0.055,0.479-0.806,0-0.75
						c-4.593,0.531-9.186,1.062-13.778,1.593c-0.371,0.043-0.511,0.475-0.189,0.699c1.672,1.163,3.344,2.326,5.016,3.49
						c0.822,0.572,2.297,2.184,3.396,2.062c2.504-0.28,5.008-0.559,7.512-0.838c1.966-0.219,4.625-1.023,6.575-0.535
						c0.428,0.107,0.631-0.447,0.289-0.686c-2.531-1.761-5.727-5.021-8.72-5.771C106.333,37.106,106.134,37.83,106.603,37.947z"/>
				</g>
			</g>
			<g>
				<g>
					<g>
						<path fill="#F6484B" d="M101.509,44.43c-0.585,0.056-1.085,0.603-1.112,1.215l-0.604,13.849
							c-0.026,0.611,0.432,1.066,1.015,1.011l13.207-1.268c0.583-0.056,1.084-0.602,1.11-1.215l0.604-13.848
							c0.026-0.612-0.43-1.067-1.013-1.011L101.509,44.43z"/>
						<g>
							<path fill="#FFFFFF" d="M101.32,44.106c-2.082,1.084-1.423,4.407-1.511,6.413c-0.087,1.995-0.174,3.989-0.261,5.983
								c-0.035,0.813-0.407,2.304-0.116,3.091c0.801,2.17,3.802,1.053,5.635,0.877c2.872-0.276,6.261-0.105,9.048-0.872
								c2.115-0.582,1.501-4.218,1.569-5.796c0.141-3.209,0.28-6.418,0.42-9.628c0.125-2.86-12.683-0.303-14.595-0.119
								c-0.477,0.046-0.481,0.796,0,0.75c4.387-0.421,8.774-0.841,13.161-1.262c1.129-0.108,0.148,12.917,0.082,14.434
								c-0.069,1.591-6.061,1.396-6.999,1.486c-0.689,0.066-7.64,1.286-7.583-0.014c0.1-2.293,0.2-4.586,0.3-6.879
								c0.076-1.744-0.668-6.827,1.229-7.815C102.127,44.53,101.749,43.883,101.32,44.106z"/>
						</g>
					</g>
				</g>
			</g>
		</g>
		<g>
			<g>
				<path fill="#F6484B" d="M96.93,21.348l7.474,5.199l-0.603,15.115c-0.018,0.367,0.141,0.679,0.398,0.856
					c-2.674-1.86-5.344-3.719-8.018-5.577c-0.253-0.179-0.412-0.489-0.396-0.858L96.93,21.348z"/>
				<g>
					<path fill="#FFFFFF" d="M96.741,21.672c1.652,1.149,7.311,4.308,7.268,5.394c-0.176,4.411-0.352,8.822-0.527,13.233
						c-0.086,2.151,0.14,1.362-1.765,0.036c-1.014-0.705-5.64-3.174-5.538-4.482c0.058-0.743,0.115-1.485,0.173-2.228
						c0.318-4.092,0.636-8.185,0.954-12.277c0.037-0.482-0.713-0.479-0.75,0c-0.301,3.874-0.602,7.748-0.902,11.621
						c-0.07,0.896-0.473,2.327-0.229,3.214c0.335,1.22,0.827,1.263,1.905,2.012c2.228,1.549,4.454,3.099,6.681,4.648
						c0.339,0.236,0.656-0.206,0.514-0.513c-0.888-1.908-0.179-4.912-0.097-6.97c0.11-2.765,0.221-5.529,0.331-8.293
						c0.044-1.104-0.838-1.311-1.725-1.927c-1.972-1.371-3.942-2.743-5.914-4.114C96.721,20.748,96.347,21.398,96.741,21.672z"/>
				</g>
			</g>
			<g>
				<path fill="#F6484B" d="M110.709,19.755c0.232-0.021,0.445,0.037,0.615,0.156c2.672,1.859,5.342,3.718,8.014,5.575
					c-0.17-0.117-0.383-0.177-0.616-0.153l-13.843,1.546l-7.949-5.531L110.709,19.755z"/>
				<g>
					<path fill="#FFFFFF" d="M110.61,20.117c2.64,0.67,5.816,5.098,8.042,4.849c-1.712,0.191-3.425,0.382-5.137,0.574
						c-3.407,0.38-7.306,1.81-10.104-0.139c-1.727-1.201-3.452-2.401-5.178-3.603c-1.313-0.913-0.479-0.171-1.233-0.084
						c0.695-0.08,1.39-0.16,2.084-0.241c3.875-0.448,7.751-0.896,11.626-1.344c0.475-0.055,0.479-0.806,0-0.75
						c-4.593,0.531-9.187,1.062-13.779,1.593c-0.372,0.043-0.511,0.475-0.189,0.699c1.672,1.164,3.344,2.327,5.016,3.49
						c0.822,0.572,2.297,2.185,3.396,2.062c2.504-0.28,5.008-0.56,7.512-0.839c1.967-0.22,4.623-1.022,6.575-0.537
						c0.428,0.106,0.632-0.447,0.289-0.686c-2.538-1.764-5.721-5.008-8.719-5.77C110.34,19.274,110.141,19.998,110.61,20.117z"/>
				</g>
			</g>
			<g>
				<g>
					<g>
						<path fill="#F6484B" d="M105.516,26.6c-0.586,0.056-1.086,0.603-1.112,1.215l-0.603,13.848
							c-0.028,0.612,0.43,1.067,1.013,1.011l13.208-1.267c0.582-0.056,1.084-0.603,1.109-1.214l0.605-13.849
							c0.024-0.612-0.432-1.067-1.015-1.011L105.516,26.6z"/>
						<g>
							<path fill="#FFFFFF" d="M105.327,26.276c-2.082,1.083-1.423,4.407-1.51,6.413c-0.087,1.994-0.174,3.988-0.261,5.982
								c-0.035,0.816-0.406,2.301-0.116,3.091c0.795,2.171,3.803,1.053,5.634,0.877c2.872-0.275,6.261-0.104,9.048-0.871
								c2.114-0.582,1.5-4.219,1.569-5.796c0.141-3.209,0.28-6.419,0.421-9.628c0.125-2.859-12.686-0.302-14.596-0.119
								c-0.477,0.046-0.481,0.796,0,0.75c4.387-0.421,8.773-0.841,13.16-1.262c1.133-0.109,0.148,12.917,0.082,14.435
								c-0.069,1.59-6.06,1.395-6.999,1.484c-0.689,0.066-7.638,1.286-7.581-0.015c0.1-2.293,0.199-4.586,0.299-6.879
								c0.076-1.743-0.668-6.828,1.229-7.815C106.134,26.701,105.755,26.053,105.327,26.276z"/>
						</g>
					</g>
				</g>
			</g>
		</g>
		<g>
			<g>
				<path fill="#F6484B" d="M67.151,140.698l6.592,4.586l-0.533,13.331c-0.014,0.325,0.127,0.599,0.352,0.755
					c-2.356-1.64-4.712-3.279-7.068-4.919c-0.225-0.156-0.365-0.432-0.351-0.755L67.151,140.698z"/>
				<g>
					<path fill="#FFFFFF" d="M66.961,141.022c1.196,0.831,2.391,1.663,3.586,2.495c0.821,0.57,1.642,1.142,2.462,1.712
						c0.659,0.459,0.363-0.097,0.339,0.512c-0.156,3.891-0.312,7.781-0.467,11.672c-0.078,1.944,0.171,1.148-1.488-0.007
						c-0.877-0.61-4.949-2.787-4.861-3.913c0.051-0.655,0.102-1.31,0.153-1.965c0.28-3.61,0.56-7.22,0.84-10.83
						c0.038-0.482-0.713-0.479-0.75,0c-0.265,3.417-0.53,6.834-0.795,10.251c-0.062,0.797-0.417,2.058-0.2,2.847
						c0.297,1.081,0.754,1.14,1.701,1.799c1.963,1.366,3.927,2.732,5.89,4.1c0.339,0.235,0.656-0.206,0.513-0.514
						c-0.777-1.67-0.15-4.321-0.078-6.125c0.098-2.438,0.195-4.876,0.293-7.314c0.04-0.992-0.75-1.187-1.543-1.737
						c-1.739-1.21-3.478-2.42-5.216-3.63C66.942,140.097,66.568,140.748,66.961,141.022z"/>
				</g>
			</g>
			<g>
				<path fill="#F6484B" d="M79.304,139.293c0.205-0.02,0.394,0.032,0.542,0.137c2.357,1.641,4.712,3.279,7.068,4.919
					c-0.149-0.104-0.338-0.157-0.543-0.137l-12.209,1.363l-7.012-4.878L79.304,139.293z"/>
				<g>
					<path fill="#FFFFFF" d="M79.205,139.655c2.418,0.61,5.079,4.416,7.105,4.189c-1.51,0.169-3.02,0.337-4.53,0.506
						c-3.034,0.339-6.455,1.579-8.89-0.116c-1.522-1.059-3.045-2.118-4.567-3.177c-1.271-0.885-0.338-0.081-1.11,0.009
						c0.612-0.071,1.225-0.142,1.837-0.213c3.418-0.395,6.836-0.79,10.254-1.185c0.475-0.055,0.48-0.806,0-0.75
						c-4.051,0.468-8.102,0.937-12.153,1.404c-0.372,0.043-0.511,0.476-0.189,0.699c1.475,1.025,2.95,2.052,4.424,3.077
						c0.734,0.511,2.035,1.935,3.017,1.825c2.208-0.247,4.417-0.494,6.625-0.74c1.726-0.192,4.074-0.904,5.787-0.474
						c0.428,0.108,0.631-0.447,0.289-0.686c-2.239-1.558-5.053-4.425-7.7-5.093C78.935,138.814,78.736,139.537,79.205,139.655z"/>
				</g>
			</g>
			<g>
				<g>
					<g>
						<path fill="#F6484B" d="M74.724,145.33c-0.517,0.05-0.958,0.531-0.981,1.071l-0.533,12.214
							c-0.023,0.54,0.38,0.942,0.896,0.892l11.647-1.117c0.514-0.049,0.956-0.53,0.979-1.07l0.531-12.214
							c0.023-0.541-0.379-0.942-0.893-0.893L74.724,145.33z"/>
						<g>
							<path fill="#FFFFFF" d="M74.535,145.005c-1.856,0.967-1.276,3.905-1.354,5.694c-0.077,1.759-0.154,3.518-0.23,5.276
								c-0.032,0.725-0.36,2.037-0.102,2.738c0.718,1.949,3.366,0.965,5.014,0.807c2.537-0.243,5.529-0.093,7.991-0.771
								c1.897-0.521,1.355-3.732,1.417-5.153c0.123-2.831,0.246-5.661,0.369-8.492c0.113-2.606-11.205-0.314-12.915-0.15
								c-0.477,0.046-0.481,0.796,0,0.75c3.869-0.371,7.738-0.742,11.607-1.113c0.905-0.087,0.086,11.363,0.029,12.688
								c-0.059,1.345-5.326,1.188-6.129,1.265c-0.59,0.057-6.691,1.097-6.645,0.031c0.088-2.022,0.176-4.045,0.265-6.066
								c0.066-1.521-0.585-5.997,1.063-6.854C75.342,145.43,74.963,144.783,74.535,145.005z"/>
						</g>
					</g>
				</g>
			</g>
		</g>
		<g>
			<g>
				<path fill="#F6484B" d="M38.583,145.202l6.592,4.587l-0.533,13.33c-0.014,0.324,0.125,0.6,0.352,0.755
					c-2.356-1.64-4.712-3.278-7.069-4.919c-0.225-0.156-0.364-0.431-0.35-0.756L38.583,145.202z"/>
				<g>
					<path fill="#FFFFFF" d="M38.393,145.526c1.196,0.831,2.391,1.663,3.586,2.495c0.821,0.571,1.642,1.143,2.462,1.713
						c0.659,0.459,0.363-0.097,0.339,0.512c-0.156,3.891-0.312,7.78-0.467,11.671c-0.078,1.944,0.171,1.148-1.488-0.006
						c-0.878-0.611-4.949-2.787-4.861-3.915c0.051-0.655,0.102-1.31,0.153-1.965c0.28-3.609,0.56-7.22,0.84-10.829
						c0.038-0.482-0.713-0.479-0.75,0c-0.265,3.417-0.53,6.833-0.795,10.25c-0.062,0.797-0.417,2.059-0.2,2.847
						c0.298,1.083,0.75,1.139,1.701,1.8c1.963,1.367,3.927,2.733,5.891,4.1c0.339,0.235,0.656-0.206,0.513-0.514
						c-0.777-1.669-0.15-4.321-0.078-6.124c0.098-2.438,0.195-4.876,0.293-7.314c0.04-0.992-0.75-1.187-1.543-1.738
						c-1.739-1.21-3.478-2.42-5.216-3.63C38.374,144.601,38,145.251,38.393,145.526z"/>
				</g>
			</g>
			<g>
				<path fill="#F6484B" d="M50.736,143.797c0.205-0.019,0.392,0.032,0.541,0.137c2.357,1.64,4.713,3.279,7.069,4.919
					c-0.15-0.104-0.338-0.156-0.543-0.137l-12.209,1.364l-7.012-4.879L50.736,143.797z"/>
				<g>
					<path fill="#FFFFFF" d="M50.636,144.159c2.418,0.611,5.079,4.416,7.105,4.189c-1.51,0.169-3.02,0.338-4.53,0.506
						c-3.034,0.34-6.455,1.58-8.89-0.115c-1.522-1.06-3.045-2.118-4.567-3.178c-1.271-0.885-0.339-0.081-1.11,0.009
						c0.612-0.071,1.225-0.142,1.837-0.213c3.418-0.395,6.836-0.79,10.254-1.185c0.475-0.055,0.48-0.806,0-0.75
						c-4.051,0.468-8.102,0.937-12.153,1.404c-0.372,0.043-0.51,0.476-0.189,0.699c1.475,1.025,2.95,2.052,4.424,3.078
						c0.734,0.511,2.035,1.935,3.017,1.825c2.208-0.247,4.417-0.494,6.625-0.741c1.726-0.192,4.074-0.904,5.787-0.474
						c0.428,0.108,0.631-0.447,0.289-0.686c-2.24-1.558-5.052-4.424-7.7-5.093C50.366,143.317,50.167,144.041,50.636,144.159z"/>
				</g>
			</g>
			<g>
				<g>
					<g>
						<path fill="#F6484B" d="M46.155,149.833c-0.516,0.049-0.957,0.531-0.98,1.071l-0.533,12.214
							c-0.023,0.541,0.38,0.941,0.895,0.893l11.649-1.117c0.514-0.049,0.955-0.531,0.979-1.072l0.532-12.213
							c0.023-0.541-0.379-0.942-0.893-0.893L46.155,149.833z"/>
						<g>
							<path fill="#FFFFFF" d="M45.965,149.509c-1.855,0.967-1.275,3.906-1.354,5.694c-0.077,1.759-0.154,3.518-0.23,5.276
								c-0.032,0.725-0.36,2.037-0.102,2.738c0.717,1.95,3.364,0.966,5.013,0.808c2.537-0.243,5.53-0.093,7.992-0.771
								c1.896-0.521,1.354-3.735,1.416-5.155c0.124-2.83,0.247-5.661,0.37-8.491c0.114-2.606-11.206-0.314-12.916-0.15
								c-0.477,0.046-0.481,0.796,0,0.75c3.869-0.371,7.739-0.742,11.608-1.113c0.905-0.087,0.085,11.362,0.028,12.687
								c-0.059,1.348-5.324,1.189-6.129,1.267c-0.592,0.058-6.69,1.097-6.644,0.03c0.088-2.022,0.176-4.045,0.265-6.066
								c0.066-1.521-0.585-5.998,1.062-6.854C46.773,149.934,46.394,149.287,45.965,149.509z"/>
						</g>
					</g>
				</g>
			</g>
		</g>
		<g>
			<g>
				<path fill="#F6484B" d="M59,143.89l6.591,4.586l-0.531,13.33c-0.015,0.325,0.125,0.6,0.351,0.756
					c-2.356-1.641-4.711-3.279-7.068-4.92c-0.225-0.156-0.365-0.43-0.351-0.755L59,143.89z"/>
				<g>
					<path fill="#FFFFFF" d="M58.81,144.214c1.195,0.831,2.391,1.663,3.586,2.495c0.821,0.57,1.641,1.142,2.462,1.712
						c0.659,0.459,0.363-0.097,0.339,0.512c-0.155,3.891-0.31,7.78-0.465,11.671c-0.078,1.943,0.171,1.149-1.489-0.006
						c-0.877-0.61-4.949-2.788-4.862-3.914c0.051-0.655,0.102-1.31,0.153-1.965c0.28-3.609,0.56-7.22,0.84-10.829
						c0.038-0.482-0.713-0.479-0.75,0c-0.265,3.417-0.53,6.833-0.795,10.25c-0.062,0.797-0.417,2.059-0.2,2.847
						c0.297,1.081,0.755,1.141,1.702,1.799c1.963,1.367,3.927,2.733,5.89,4.101c0.339,0.235,0.656-0.206,0.513-0.514
						c-0.775-1.672-0.15-4.32-0.078-6.125c0.097-2.438,0.194-4.876,0.292-7.314c0.04-0.992-0.75-1.187-1.542-1.737
						c-1.739-1.21-3.478-2.42-5.216-3.63C58.791,143.29,58.417,143.94,58.81,144.214z"/>
				</g>
			</g>
			<g>
				<path fill="#F6484B" d="M71.153,142.485c0.205-0.019,0.393,0.032,0.542,0.138c2.357,1.64,4.712,3.279,7.068,4.918
					c-0.149-0.104-0.338-0.156-0.544-0.137l-12.208,1.364L59,143.89L71.153,142.485z"/>
				<g>
					<path fill="#FFFFFF" d="M71.053,142.846c2.416,0.614,5.08,4.416,7.104,4.189c-1.51,0.169-3.02,0.338-4.53,0.506
						c-3.033,0.34-6.454,1.58-8.889-0.115c-1.522-1.059-3.045-2.118-4.567-3.177c-1.271-0.885-0.338-0.081-1.11,0.009
						c0.612-0.071,1.225-0.142,1.837-0.213c3.418-0.396,6.836-0.79,10.254-1.186c0.475-0.055,0.48-0.806,0-0.75
						c-4.051,0.469-8.102,0.937-12.153,1.405c-0.372,0.043-0.511,0.476-0.189,0.699c1.475,1.025,2.95,2.052,4.424,3.077
						c0.734,0.511,2.035,1.935,3.017,1.825c2.208-0.247,4.417-0.494,6.625-0.741c1.727-0.192,4.074-0.904,5.787-0.474
						c0.428,0.107,0.631-0.447,0.289-0.686c-2.242-1.559-5.051-4.42-7.7-5.093C70.784,142.004,70.584,142.727,71.053,142.846z"/>
				</g>
			</g>
			<g>
				<g>
					<g>
						<path fill="#F6484B" d="M66.573,148.521c-0.517,0.05-0.958,0.531-0.982,1.072l-0.531,12.213
							c-0.023,0.541,0.379,0.941,0.895,0.893l11.648-1.117c0.514-0.049,0.955-0.531,0.979-1.071l0.533-12.214
							c0.022-0.54-0.38-0.941-0.895-0.893L66.573,148.521z"/>
						<g>
							<path fill="#FFFFFF" d="M66.383,148.197c-1.857,0.968-1.277,3.904-1.355,5.695c-0.077,1.759-0.153,3.518-0.229,5.276
								c-0.032,0.725-0.359,2.035-0.102,2.737c0.716,1.95,3.365,0.966,5.013,0.808c2.537-0.243,5.529-0.093,7.992-0.771
								c1.896-0.521,1.354-3.734,1.417-5.154c0.124-2.831,0.247-5.661,0.371-8.492c0.114-2.606-11.208-0.314-12.916-0.15
								c-0.477,0.046-0.481,0.796,0,0.75c3.869-0.371,7.737-0.742,11.606-1.113c0.909-0.087,0.086,11.362,0.029,12.688
								c-0.059,1.347-5.324,1.188-6.128,1.266c-0.592,0.058-6.689,1.098-6.643,0.03c0.088-2.021,0.176-4.044,0.264-6.066
								c0.066-1.522-0.586-5.996,1.063-6.854C67.191,148.622,66.812,147.974,66.383,148.197z"/>
						</g>
					</g>
				</g>
			</g>
		</g>
		
			<path fill="#FFFFFF" stroke="#F6484B" stroke-width="2" stroke-linecap="round" stroke-linejoin="round" stroke-miterlimit="10" d="
			M76.703,116.95l13.521,1.4c0,0,0.004,7.218-5.122,7.845C78.01,127.07,76.871,119.105,76.703,116.95z"/>
		<g>
			<g>
				<path fill="#F6484B" d="M53.75,130.557l6.591,4.587l-0.532,13.331c-0.015,0.324,0.126,0.599,0.351,0.754
					c-2.355-1.64-4.711-3.278-7.068-4.918c-0.225-0.157-0.364-0.432-0.35-0.757L53.75,130.557z"/>
				<g>
					<path fill="#FFFFFF" d="M53.56,130.881c1.195,0.831,2.391,1.663,3.586,2.495c0.821,0.571,1.641,1.143,2.462,1.713
						c0.659,0.459,0.363-0.097,0.339,0.512c-0.155,3.891-0.311,7.781-0.466,11.672c-0.078,1.944,0.171,1.147-1.489-0.007
						c-0.878-0.611-4.948-2.786-4.861-3.915c0.051-0.655,0.102-1.31,0.153-1.965c0.28-3.609,0.56-7.22,0.84-10.829
						c0.038-0.482-0.713-0.479-0.75,0c-0.265,3.417-0.53,6.833-0.795,10.25c-0.062,0.797-0.417,2.059-0.2,2.847
						c0.299,1.085,0.748,1.139,1.701,1.801c1.963,1.366,3.927,2.731,5.89,4.099c0.339,0.235,0.656-0.206,0.513-0.514
						c-0.776-1.67-0.149-4.32-0.077-6.124c0.097-2.438,0.194-4.876,0.292-7.314c0.04-0.992-0.75-1.187-1.542-1.738
						c-1.739-1.21-3.478-2.42-5.216-3.63C53.541,129.957,53.167,130.607,53.56,130.881z"/>
				</g>
			</g>
			<g>
				<path fill="#F6484B" d="M65.902,129.153c0.205-0.019,0.394,0.032,0.543,0.137c2.356,1.64,4.712,3.279,7.067,4.919
					c-0.148-0.104-0.338-0.156-0.543-0.137l-12.209,1.364l-7.011-4.879L65.902,129.153z"/>
				<g>
					<path fill="#FFFFFF" d="M65.802,129.514c2.418,0.609,5.079,4.416,7.105,4.189c-1.51,0.169-3.02,0.338-4.53,0.506
						c-3.034,0.34-6.455,1.58-8.89-0.115c-1.522-1.06-3.044-2.118-4.566-3.178c-1.271-0.885-0.338-0.081-1.109,0.009
						c0.612-0.071,1.225-0.142,1.837-0.213c3.417-0.395,6.835-0.79,10.253-1.185c0.475-0.055,0.48-0.806,0-0.75
						c-4.051,0.468-8.102,0.937-12.152,1.404c-0.372,0.043-0.51,0.476-0.189,0.699c1.475,1.025,2.949,2.052,4.424,3.078
						c0.733,0.511,2.035,1.935,3.017,1.825c2.208-0.247,4.417-0.494,6.625-0.741c1.726-0.192,4.074-0.904,5.787-0.474
						c0.428,0.108,0.631-0.447,0.289-0.686c-2.239-1.558-5.053-4.427-7.7-5.093C65.532,128.673,65.333,129.396,65.802,129.514z"/>
				</g>
			</g>
			<g>
				<g>
					<g>
						<path fill="#F6484B" d="M61.321,135.19c-0.515,0.049-0.957,0.531-0.98,1.071l-0.532,12.214c-0.022,0.54,0.38,0.94,0.895,0.892
							l11.649-1.117c0.514-0.049,0.955-0.531,0.979-1.072l0.532-12.213c0.023-0.541-0.379-0.941-0.894-0.893L61.321,135.19z"/>
						<g>
							<path fill="#FFFFFF" d="M61.131,134.866c-1.855,0.967-1.275,3.906-1.354,5.694c-0.077,1.759-0.153,3.518-0.23,5.276
								c-0.031,0.724-0.36,2.037-0.102,2.738c0.719,1.949,3.364,0.965,5.013,0.807c2.537-0.243,5.53-0.093,7.992-0.771
								c1.896-0.521,1.354-3.735,1.416-5.155c0.124-2.83,0.247-5.661,0.37-8.491c0.114-2.606-11.208-0.313-12.917-0.149
								c-0.477,0.046-0.481,0.796,0,0.75c3.869-0.371,7.739-0.743,11.608-1.114c0.907-0.087,0.086,11.361,0.029,12.687
								c-0.059,1.348-5.324,1.189-6.129,1.267c-0.591,0.057-6.69,1.097-6.644,0.031c0.088-2.022,0.176-4.045,0.264-6.067
								c0.066-1.52-0.585-5.996,1.061-6.854C61.939,135.291,61.56,134.643,61.131,134.866z"/>
						</g>
					</g>
				</g>
			</g>
		</g>
		<path fill="none" stroke="#F6484B" stroke-width="2" stroke-linecap="round" stroke-linejoin="round" stroke-miterlimit="10" d="
			M78.423,122.484c0,0,5.125-4.317,10.8,0"/>
	</g>
</g>
</svg>
