<?xml version="1.0" encoding="utf-8"?>
<!-- Generator: Adobe Illustrator 15.1.0, SVG Export Plug-In . SVG Version: 6.00 Build 0)  -->
<!DOCTYPE svg PUBLIC "-//W3C//DTD SVG 1.1//EN" "http://www.w3.org/Graphics/SVG/1.1/DTD/svg11.dtd">
<svg version="1.1" xmlns="http://www.w3.org/2000/svg" xmlns:xlink="http://www.w3.org/1999/xlink" x="0px" y="0px" width="190px"
	 height="190px" viewBox="0 0 190 190" enable-background="new 0 0 190 190" xml:space="preserve">
<g id="星星">
	<path fill="#CCCCCC" d="M183.765,66.97c-0.85-2.525-3.059-4.35-5.699-4.706l-52.695-7.105L101.35,7.721
		c-1.192-2.355-3.608-3.838-6.245-3.838c-0.023,0-0.048,0-0.072,0c-2.664,0.027-5.082,1.565-6.236,3.967L65.754,55.771
		l-52.538,8.185c-2.633,0.41-4.805,2.28-5.603,4.822c-0.797,2.542-0.082,5.317,1.846,7.157l38.455,36.723l-8.45,52.497
		c-0.424,2.631,0.684,5.273,2.854,6.817c1.209,0.859,2.63,1.295,4.058,1.295c1.138,0,2.279-0.277,3.319-0.838l46.809-25.225
		l47.316,24.259c1.007,0.516,2.103,0.771,3.192,0.771c0,0,0.014,0,0.021,0c3.866,0,7-3.134,7-7c0-0.618-0.08-1.218-0.23-1.789
		l-9.429-51.777l37.693-37.504C183.957,72.285,184.615,69.496,183.765,66.97z"/>
</g>
<g id="星星_special" display="none">
	<path display="inline" fill="#CCCCCC" d="M183.765,66.97c-0.85-2.525-3.059-4.35-5.699-4.706l-52.695-7.105L101.35,7.721
		c-1.192-2.355-3.608-3.838-6.245-3.838c-0.023,0-0.048,0-0.072,0c-2.664,0.027-5.082,1.565-6.236,3.967L65.754,55.771
		l-52.538,8.185c-2.633,0.41-4.805,2.28-5.603,4.822c-0.797,2.542-0.082,5.317,1.846,7.157l38.455,36.723l-8.45,52.497
		c-0.424,2.631,0.684,5.273,2.854,6.817c1.209,0.859,2.63,1.295,4.058,1.295c1.138,0,2.279-0.277,3.319-0.838l46.809-25.225
		l47.316,24.259c1.007,0.516,2.103,0.771,3.192,0.771c0,0,0.014,0,0.021,0c3.866,0,7-3.134,7-7c0-0.618-0.08-1.218-0.23-1.789
		l-9.429-51.777l37.693-37.504C183.957,72.285,184.615,69.496,183.765,66.97z"/>
	
		<text transform="matrix(1 0 0 1 46.7935 186.2046)" display="inline" fill="#CCCCCC" font-family="'DFYuanStd-W9-B5pc-H'" font-size="25">SPECIAL</text>
</g>
<g id="圖層_1" display="none">
	<g display="inline">
		<path fill="#F6484B" d="M45.176,144.013c0,0-1.533-6.643-7.665-8.176s-4.088,9.901-3.065,12.871s5.62,8.59,10.73,7.058
			c5.109-1.533,20.95-20.068,20.95-20.068l-8.813-13.146L45.176,144.013z"/>
		<path fill="#F6484B" d="M85.445,149.488c0,0-1.533-6.643-7.664-8.175c-6.133-1.533-4.089,9.9-3.066,12.87s5.62,8.59,10.73,7.058
			c5.109-1.533,20.95-20.069,20.95-20.069l-8.813-13.145L85.445,149.488z"/>
		<path fill="#F6484B" stroke="#FFFFFF" stroke-width="3" stroke-miterlimit="10" d="M44.372,77.785
			c0,0-39.171,40.594-33.862,50.369c5.309,9.777,14.896-8.851,16.361-10.735c2.396-3.087,14.314-23.89,19.768-27.464"/>
		<g>
			<path fill="#F6484B" d="M146.769,42.727L107.914,69.77l2.927,67.148c0.078,1.783-0.688,3.289-1.927,4.151
				c12.953-9.015,25.904-18.029,38.856-27.045c1.237-0.861,2.005-2.369,1.927-4.149L146.769,42.727z"/>
		</g>
		<g>
			<path fill="#F6484B" d="M77.339,30.693c-1.129-0.107-2.16,0.181-2.984,0.754c-12.952,9.015-25.903,18.028-38.856,27.044
				c0.823-0.574,1.856-0.861,2.985-0.752l64.04,6.141l38.856-27.043L77.339,30.693z"/>
		</g>
		<g>
			<g>
				<g>
					<path fill="#F6484B" d="M102.524,63.879c2.833,0.271,5.26,2.921,5.39,5.891l2.927,67.148c0.13,2.971-2.087,5.175-4.919,4.904
						l-64.039-6.142c-2.828-0.271-5.254-2.922-5.384-5.891l-2.927-67.148c-0.129-2.971,2.086-5.176,4.912-4.903L102.524,63.879z"/>
				</g>
			</g>
		</g>
		<g>
			<g>
				<g>
					<path fill="#F6484B" d="M102.524,63.879l38.856-27.043c2.832,0.271,5.26,2.92,5.389,5.891L107.914,69.77
						C107.784,66.8,105.357,64.15,102.524,63.879z"/>
				</g>
			</g>
		</g>
		<g>
			<g>
				<g enable-background="new    ">
					<defs>
						<polygon id="SVGID_1_" enable-background="new    " points="40.64,129.481 38.865,67.627 104.248,76.415 106.022,138.268 
													"/>
					</defs>
					<clipPath id="SVGID_2_">
						<use xlink:href="#SVGID_1_"  overflow="visible"/>
					</clipPath>
					<g clip-path="url(#SVGID_2_)">
						<g>
							<g>
								<g>
									<path fill="#FFFFFF" d="M71.893,72.066c-0.459-0.062-0.921-0.114-1.384-0.159c-18.037-1.724-31.792,10.787-30.72,27.927
										c1.036,16.699,15.766,31.65,33.205,33.994c0.458,0.063,0.921,0.115,1.383,0.158c18.037,1.717,31.792-10.786,30.721-27.926
										C104.054,89.36,89.332,74.409,71.893,72.066"/>
								</g>
							</g>
						</g>
					</g>
				</g>
			</g>
		</g>
		<path fill="#F6484B" d="M52.77,101.314c0,1.693-1.372,3.065-3.065,3.065l0,0c-1.693,0-3.066-1.372-3.066-3.065l0,0
			c0-1.693,1.373-3.066,3.066-3.066l0,0C51.398,98.248,52.77,99.621,52.77,101.314L52.77,101.314z"/>
		<path fill="#F6484B" d="M94.571,104.379c0,1.693-1.372,3.065-3.065,3.065l0,0c-1.693,0-3.066-1.372-3.066-3.065l0,0
			c0-1.693,1.373-3.065,3.066-3.065l0,0C93.199,101.314,94.571,102.686,94.571,104.379L94.571,104.379z"/>
		<g>
			<path fill="none" stroke="#F6484B" stroke-width="2" stroke-miterlimit="10" d="M61.693,108.38l12.885,1.025
				c0,0-0.022,6.227-4.915,6.839C62.898,117.092,61.843,110.236,61.693,108.38z"/>
			<path fill="none" stroke="#F6484B" stroke-width="1.5" stroke-miterlimit="10" d="M73.369,112.509
				c0.403,2.322-6.646,7.821-10.944-0.779c-0.552-2.033,0.075-2.477,4.239-2.578C72.422,109.011,72.965,110.188,73.369,112.509z"/>
			<path fill="#FFFFFF" stroke="#F6484B" stroke-width="1.5" stroke-miterlimit="10" d="M62.487,108.985l10.946,0.706
				c0,0-0.066,2.038-4.229,2.097C63.447,111.871,62.6,109.596,62.487,108.985z"/>
		</g>
		<path fill="#F6484B" stroke="#FFFFFF" stroke-width="3" stroke-miterlimit="10" d="M138.392,133.156
			c-0.73-2.934-2.479-11.473-4.238-16.839c-3.705-11.305-11.496-26.595-3.787-29.339c10.481-3.729,16.402,34.169,16.402,34.169
			s2.934,18.175,2.934,23.617c0,7.309-7.384,10.735-9.928,2.763C137.146,139.289,141.129,144.141,138.392,133.156z"/>
		
			<ellipse transform="matrix(0.9559 -0.2938 0.2938 0.9559 -27.3487 19.3929)" fill="#FFFFFF" stroke="#F6484B" stroke-miterlimit="10" cx="50.876" cy="100.729" rx="1.193" ry="0.921"/>
		
			<ellipse transform="matrix(0.9559 -0.2938 0.2938 0.9559 -26.4335 31.8135)" fill="#FFFFFF" stroke="#F6484B" stroke-miterlimit="10" cx="92.677" cy="103.893" rx="1.193" ry="0.923"/>
	</g>
</g>
<g id="圖層_3" display="none">
	<g display="inline">
		<path fill="#F6484B" stroke="#FFFFFF" stroke-width="3" stroke-miterlimit="10" d="M33.46,123.612c0,0,3.712-5.768,0.513-11.261
			c-3.197-5.495-10.217-1.208-11.64,1.612c-1.424,2.822-2.034,15.289,2.657,17.896c4.69,2.607,29.165,1.014,29.165,1.014
			l3.29-15.577L33.46,123.612z"/>
		<path fill="#F6484B" stroke="#FFFFFF" stroke-width="3" stroke-miterlimit="10" d="M71.202,104.634
			c0,0-43.662-36.243-53.071-30.184s9.999,14.279,11.999,15.606c3.275,2.17,25.039,12.564,29.034,17.766"/>
		<g>
			<path fill="#F6484B" d="M161.906,51.232l-39.087,27.204l2.945,67.547c0.078,1.793-0.693,3.309-1.938,4.176
				c13.03-9.068,26.058-18.137,39.087-27.206c1.244-0.866,2.016-2.382,1.938-4.174L161.906,51.232z"/>
		</g>
		<g>
			<path fill="#F6484B" d="M92.063,39.127c-1.135-0.108-2.172,0.181-3.001,0.758C76.034,48.954,63.004,58.02,49.975,67.089
				c0.828-0.577,1.867-0.866,3.002-0.756l64.421,6.178l39.086-27.205L92.063,39.127z"/>
		</g>
		<g>
			<g>
				<g>
					<path fill="#F6484B" d="M117.398,72.511c2.849,0.271,5.29,2.937,5.421,5.925l2.945,67.547c0.129,2.987-2.1,5.205-4.949,4.933
						l-64.418-6.179c-2.845-0.272-5.285-2.938-5.416-5.924l-2.945-67.548c-0.129-2.988,2.1-5.206,4.941-4.932L117.398,72.511z"/>
				</g>
			</g>
		</g>
		<g>
			<g>
				<g>
					<path fill="#F6484B" d="M117.398,72.511l39.086-27.205c2.85,0.271,5.292,2.938,5.422,5.926l-39.087,27.204
						C122.688,75.448,120.247,72.783,117.398,72.511z"/>
				</g>
			</g>
		</g>
		<g>
			<g>
				<g enable-background="new    ">
					<defs>
						<polygon id="SVGID_3_" enable-background="new    " points="55.147,138.5 53.362,76.28 119.134,85.12 120.919,147.34 						
							"/>
					</defs>
					<clipPath id="SVGID_4_">
						<use xlink:href="#SVGID_3_"  overflow="visible"/>
					</clipPath>
					<g clip-path="url(#SVGID_4_)">
						<g>
							<g>
								<g>
									<path fill="#FFFFFF" d="M86.583,80.745c-0.459-0.062-0.922-0.115-1.385-0.16c-18.148-1.731-31.98,10.846-30.906,28.089
										c1.047,16.812,15.866,31.844,33.408,34.201c0.459,0.063,0.922,0.115,1.385,0.159c18.141,1.73,31.98-10.847,30.905-28.099
										C118.944,98.134,104.125,83.101,86.583,80.745"/>
								</g>
							</g>
						</g>
					</g>
				</g>
			</g>
		</g>
		<path fill="#F6484B" d="M67.349,110.167c0,1.704-1.381,3.083-3.085,3.083l0,0c-1.702,0-3.083-1.379-3.083-3.083l0,0
			c0-1.702,1.381-3.085,3.083-3.085l0,0C65.968,107.082,67.349,108.464,67.349,110.167L67.349,110.167z"/>
		<path fill="#F6484B" d="M109.398,113.25c0,1.704-1.381,3.085-3.085,3.085l0,0c-1.702,0-3.083-1.381-3.083-3.085l0,0
			c0-1.702,1.381-3.083,3.083-3.083l0,0C108.017,110.167,109.398,111.547,109.398,113.25L109.398,113.25z"/>
		<path fill="#F6484B" stroke="#FFFFFF" stroke-width="3" stroke-miterlimit="10" d="M130.99,60.244
			c1.28,2.757,4.64,10.856,7.399,15.822c5.82,10.457,16.434,24.07,9.344,28.252c-9.641,5.684-22.723-30.615-22.723-30.615
			s-6.367-17.39-7.407-22.766c-1.395-7.218,5.243-12.012,9.277-4.624C131.049,53.948,126.19,49.917,130.99,60.244z"/>
		
			<ellipse transform="matrix(0.956 -0.2934 0.2934 0.956 -28.9906 23.6305)" fill="#FFFFFF" stroke="#F6484B" stroke-width="0.75" stroke-miterlimit="10" cx="64.265" cy="108.44" rx="1.2" ry="0.928"/>
		
			<ellipse transform="matrix(0.9559 -0.2937 0.2937 0.9559 -28.0699 36.1416)" fill="#FFFFFF" stroke="#F6484B" stroke-width="0.75" stroke-miterlimit="10" cx="106.314" cy="111.542" rx="1.2" ry="0.927"/>
		<path fill="#F6484B" stroke="#FFFFFF" stroke-width="3" stroke-miterlimit="10" d="M133.752,124.868l25.513-1.851
			c0,0-5.063-4.693-3.138-11.527c1.928-6.835,10.531-6.542,12.273-3.578c2.49,4.235,7.706,14.646,3.609,19.003
			c-4.094,4.354-31.335,12.993-31.335,12.993"/>
		<g>
			<g>
				<path fill="#F6484B" d="M92.924,39.178l7.473,5.2l-0.604,15.115c-0.016,0.367,0.143,0.678,0.398,0.854
					c-2.672-1.857-5.342-3.716-8.016-5.575c-0.254-0.179-0.412-0.489-0.396-0.857L92.924,39.178z"/>
				<g>
					<path fill="#FFFFFF" d="M92.735,39.502c1.652,1.149,7.31,4.309,7.267,5.395c-0.177,4.411-0.353,8.822-0.528,13.233
						c-0.086,2.152,0.141,1.359-1.764,0.035c-1.013-0.705-5.638-3.174-5.537-4.481c0.058-0.743,0.115-1.485,0.172-2.228
						c0.318-4.093,0.636-8.186,0.954-12.278c0.037-0.482-0.713-0.479-0.75,0c-0.301,3.874-0.602,7.748-0.903,11.622
						c-0.069,0.896-0.472,2.328-0.229,3.214c0.335,1.219,0.83,1.263,1.906,2.011c2.227,1.548,4.452,3.097,6.679,4.646
						c0.339,0.235,0.656-0.206,0.514-0.513c-0.89-1.904-0.178-4.912-0.096-6.967c0.11-2.765,0.221-5.529,0.331-8.293
						c0.044-1.104-0.838-1.311-1.725-1.927c-1.971-1.372-3.942-2.744-5.913-4.115C92.715,38.578,92.341,39.228,92.735,39.502z"/>
				</g>
			</g>
			<g>
				<path fill="#F6484B" d="M106.703,37.585c0.233-0.021,0.446,0.037,0.616,0.154c2.67,1.86,5.342,3.719,8.014,5.578
					c-0.17-0.118-0.383-0.177-0.616-0.154l-13.843,1.545l-7.949-5.53L106.703,37.585z"/>
				<g>
					<path fill="#FFFFFF" d="M106.603,37.947c2.646,0.663,5.813,5.098,8.043,4.849c-1.712,0.191-3.425,0.382-5.137,0.573
						c-3.407,0.38-7.306,1.809-10.104-0.139c-1.727-1.201-3.452-2.401-5.178-3.602c-1.313-0.913-0.479-0.171-1.233-0.084
						c0.694-0.08,1.39-0.16,2.084-0.241c3.875-0.448,7.75-0.896,11.625-1.344c0.475-0.055,0.479-0.806,0-0.75
						c-4.593,0.531-9.186,1.062-13.778,1.593c-0.371,0.043-0.511,0.475-0.189,0.699c1.672,1.163,3.344,2.326,5.016,3.49
						c0.822,0.572,2.297,2.184,3.396,2.062c2.504-0.28,5.008-0.559,7.512-0.838c1.966-0.219,4.625-1.023,6.575-0.535
						c0.428,0.107,0.631-0.447,0.289-0.686c-2.531-1.761-5.727-5.021-8.72-5.771C106.333,37.106,106.134,37.83,106.603,37.947z"/>
				</g>
			</g>
			<g>
				<g>
					<g>
						<path fill="#F6484B" d="M101.509,44.43c-0.585,0.056-1.085,0.603-1.112,1.215l-0.604,13.849
							c-0.026,0.611,0.432,1.066,1.015,1.011l13.207-1.268c0.583-0.056,1.084-0.602,1.11-1.215l0.604-13.848
							c0.026-0.612-0.43-1.067-1.013-1.011L101.509,44.43z"/>
						<g>
							<path fill="#FFFFFF" d="M101.32,44.106c-2.082,1.084-1.423,4.407-1.511,6.413c-0.087,1.995-0.174,3.989-0.261,5.983
								c-0.035,0.813-0.407,2.304-0.116,3.091c0.801,2.17,3.802,1.053,5.635,0.877c2.872-0.276,6.261-0.105,9.048-0.872
								c2.115-0.582,1.501-4.218,1.569-5.796c0.141-3.209,0.28-6.418,0.42-9.628c0.125-2.86-12.683-0.303-14.595-0.119
								c-0.477,0.046-0.481,0.796,0,0.75c4.387-0.421,8.774-0.841,13.161-1.262c1.129-0.108,0.148,12.917,0.082,14.434
								c-0.069,1.591-6.061,1.396-6.999,1.486c-0.689,0.066-7.64,1.286-7.583-0.014c0.1-2.293,0.2-4.586,0.3-6.879
								c0.076-1.744-0.668-6.827,1.229-7.815C102.127,44.53,101.749,43.883,101.32,44.106z"/>
						</g>
					</g>
				</g>
			</g>
		</g>
		<g>
			<g>
				<path fill="#F6484B" d="M96.93,21.348l7.474,5.199l-0.603,15.115c-0.018,0.367,0.141,0.679,0.398,0.856
					c-2.674-1.86-5.344-3.719-8.018-5.577c-0.253-0.179-0.412-0.489-0.396-0.858L96.93,21.348z"/>
				<g>
					<path fill="#FFFFFF" d="M96.741,21.672c1.652,1.149,7.311,4.308,7.268,5.394c-0.176,4.411-0.352,8.822-0.527,13.233
						c-0.086,2.151,0.14,1.362-1.765,0.036c-1.014-0.705-5.64-3.174-5.538-4.482c0.058-0.743,0.115-1.485,0.173-2.228
						c0.318-4.092,0.636-8.185,0.954-12.277c0.037-0.482-0.713-0.479-0.75,0c-0.301,3.874-0.602,7.748-0.902,11.621
						c-0.07,0.896-0.473,2.327-0.229,3.214c0.335,1.22,0.827,1.263,1.905,2.012c2.228,1.549,4.454,3.099,6.681,4.648
						c0.339,0.236,0.656-0.206,0.514-0.513c-0.888-1.908-0.179-4.912-0.097-6.97c0.11-2.765,0.221-5.529,0.331-8.293
						c0.044-1.104-0.838-1.311-1.725-1.927c-1.972-1.371-3.942-2.743-5.914-4.114C96.721,20.748,96.347,21.398,96.741,21.672z"/>
				</g>
			</g>
			<g>
				<path fill="#F6484B" d="M110.709,19.755c0.232-0.021,0.445,0.037,0.615,0.156c2.672,1.859,5.342,3.718,8.014,5.575
					c-0.17-0.117-0.383-0.177-0.616-0.153l-13.843,1.546l-7.949-5.531L110.709,19.755z"/>
				<g>
					<path fill="#FFFFFF" d="M110.61,20.117c2.64,0.67,5.816,5.098,8.042,4.849c-1.712,0.191-3.425,0.382-5.137,0.574
						c-3.407,0.38-7.306,1.81-10.104-0.139c-1.727-1.201-3.452-2.401-5.178-3.603c-1.313-0.913-0.479-0.171-1.233-0.084
						c0.695-0.08,1.39-0.16,2.084-0.241c3.875-0.448,7.751-0.896,11.626-1.344c0.475-0.055,0.479-0.806,0-0.75
						c-4.593,0.531-9.187,1.062-13.779,1.593c-0.372,0.043-0.511,0.475-0.189,0.699c1.672,1.164,3.344,2.327,5.016,3.49
						c0.822,0.572,2.297,2.185,3.396,2.062c2.504-0.28,5.008-0.56,7.512-0.839c1.967-0.22,4.623-1.022,6.575-0.537
						c0.428,0.106,0.632-0.447,0.289-0.686c-2.538-1.764-5.721-5.008-8.719-5.77C110.34,19.274,110.141,19.998,110.61,20.117z"/>
				</g>
			</g>
			<g>
				<g>
					<g>
						<path fill="#F6484B" d="M105.516,26.6c-0.586,0.056-1.086,0.603-1.112,1.215l-0.603,13.848
							c-0.028,0.612,0.43,1.067,1.013,1.011l13.208-1.267c0.582-0.056,1.084-0.603,1.109-1.214l0.605-13.849
							c0.024-0.612-0.432-1.067-1.015-1.011L105.516,26.6z"/>
						<g>
							<path fill="#FFFFFF" d="M105.327,26.276c-2.082,1.083-1.423,4.407-1.51,6.413c-0.087,1.994-0.174,3.988-0.261,5.982
								c-0.035,0.816-0.406,2.301-0.116,3.091c0.795,2.171,3.803,1.053,5.634,0.877c2.872-0.275,6.261-0.104,9.048-0.871
								c2.114-0.582,1.5-4.219,1.569-5.796c0.141-3.209,0.28-6.419,0.421-9.628c0.125-2.859-12.686-0.302-14.596-0.119
								c-0.477,0.046-0.481,0.796,0,0.75c4.387-0.421,8.773-0.841,13.16-1.262c1.133-0.109,0.148,12.917,0.082,14.435
								c-0.069,1.59-6.06,1.395-6.999,1.484c-0.689,0.066-7.638,1.286-7.581-0.015c0.1-2.293,0.199-4.586,0.299-6.879
								c0.076-1.743-0.668-6.828,1.229-7.815C106.134,26.701,105.755,26.053,105.327,26.276z"/>
						</g>
					</g>
				</g>
			</g>
		</g>
		<g>
			<g>
				<path fill="#F6484B" d="M67.151,140.698l6.592,4.586l-0.533,13.331c-0.014,0.325,0.127,0.599,0.352,0.755
					c-2.356-1.64-4.712-3.279-7.068-4.919c-0.225-0.156-0.365-0.432-0.351-0.755L67.151,140.698z"/>
				<g>
					<path fill="#FFFFFF" d="M66.961,141.022c1.196,0.831,2.391,1.663,3.586,2.495c0.821,0.57,1.642,1.142,2.462,1.712
						c0.659,0.459,0.363-0.097,0.339,0.512c-0.156,3.891-0.312,7.781-0.467,11.672c-0.078,1.944,0.171,1.148-1.488-0.007
						c-0.877-0.61-4.949-2.787-4.861-3.913c0.051-0.655,0.102-1.31,0.153-1.965c0.28-3.61,0.56-7.22,0.84-10.83
						c0.038-0.482-0.713-0.479-0.75,0c-0.265,3.417-0.53,6.834-0.795,10.251c-0.062,0.797-0.417,2.058-0.2,2.847
						c0.297,1.081,0.754,1.14,1.701,1.799c1.963,1.366,3.927,2.732,5.89,4.1c0.339,0.235,0.656-0.206,0.513-0.514
						c-0.777-1.67-0.15-4.321-0.078-6.125c0.098-2.438,0.195-4.876,0.293-7.314c0.04-0.992-0.75-1.187-1.543-1.737
						c-1.739-1.21-3.478-2.42-5.216-3.63C66.942,140.097,66.568,140.748,66.961,141.022z"/>
				</g>
			</g>
			<g>
				<path fill="#F6484B" d="M79.304,139.293c0.205-0.02,0.394,0.032,0.542,0.137c2.357,1.641,4.712,3.279,7.068,4.919
					c-0.149-0.104-0.338-0.157-0.543-0.137l-12.209,1.363l-7.012-4.878L79.304,139.293z"/>
				<g>
					<path fill="#FFFFFF" d="M79.205,139.655c2.418,0.61,5.079,4.416,7.105,4.189c-1.51,0.169-3.02,0.337-4.53,0.506
						c-3.034,0.339-6.455,1.579-8.89-0.116c-1.522-1.059-3.045-2.118-4.567-3.177c-1.271-0.885-0.338-0.081-1.11,0.009
						c0.612-0.071,1.225-0.142,1.837-0.213c3.418-0.395,6.836-0.79,10.254-1.185c0.475-0.055,0.48-0.806,0-0.75
						c-4.051,0.468-8.102,0.937-12.153,1.404c-0.372,0.043-0.511,0.476-0.189,0.699c1.475,1.025,2.95,2.052,4.424,3.077
						c0.734,0.511,2.035,1.935,3.017,1.825c2.208-0.247,4.417-0.494,6.625-0.74c1.726-0.192,4.074-0.904,5.787-0.474
						c0.428,0.108,0.631-0.447,0.289-0.686c-2.239-1.558-5.053-4.425-7.7-5.093C78.935,138.814,78.736,139.537,79.205,139.655z"/>
				</g>
			</g>
			<g>
				<g>
					<g>
						<path fill="#F6484B" d="M74.724,145.33c-0.517,0.05-0.958,0.531-0.981,1.071l-0.533,12.214
							c-0.023,0.54,0.38,0.942,0.896,0.892l11.647-1.117c0.514-0.049,0.956-0.53,0.979-1.07l0.531-12.214
							c0.023-0.541-0.379-0.942-0.893-0.893L74.724,145.33z"/>
						<g>
							<path fill="#FFFFFF" d="M74.535,145.005c-1.856,0.967-1.276,3.905-1.354,5.694c-0.077,1.759-0.154,3.518-0.23,5.276
								c-0.032,0.725-0.36,2.037-0.102,2.738c0.718,1.949,3.366,0.965,5.014,0.807c2.537-0.243,5.529-0.093,7.991-0.771
								c1.897-0.521,1.355-3.732,1.417-5.153c0.123-2.831,0.246-5.661,0.369-8.492c0.113-2.606-11.205-0.314-12.915-0.15
								c-0.477,0.046-0.481,0.796,0,0.75c3.869-0.371,7.738-0.742,11.607-1.113c0.905-0.087,0.086,11.363,0.029,12.688
								c-0.059,1.345-5.326,1.188-6.129,1.265c-0.59,0.057-6.691,1.097-6.645,0.031c0.088-2.022,0.176-4.045,0.265-6.066
								c0.066-1.521-0.585-5.997,1.063-6.854C75.342,145.43,74.963,144.783,74.535,145.005z"/>
						</g>
					</g>
				</g>
			</g>
		</g>
		<g>
			<g>
				<path fill="#F6484B" d="M38.583,145.202l6.592,4.587l-0.533,13.33c-0.014,0.324,0.125,0.6,0.352,0.755
					c-2.356-1.64-4.712-3.278-7.069-4.919c-0.225-0.156-0.364-0.431-0.35-0.756L38.583,145.202z"/>
				<g>
					<path fill="#FFFFFF" d="M38.393,145.526c1.196,0.831,2.391,1.663,3.586,2.495c0.821,0.571,1.642,1.143,2.462,1.713
						c0.659,0.459,0.363-0.097,0.339,0.512c-0.156,3.891-0.312,7.78-0.467,11.671c-0.078,1.944,0.171,1.148-1.488-0.006
						c-0.878-0.611-4.949-2.787-4.861-3.915c0.051-0.655,0.102-1.31,0.153-1.965c0.28-3.609,0.56-7.22,0.84-10.829
						c0.038-0.482-0.713-0.479-0.75,0c-0.265,3.417-0.53,6.833-0.795,10.25c-0.062,0.797-0.417,2.059-0.2,2.847
						c0.298,1.083,0.75,1.139,1.701,1.8c1.963,1.367,3.927,2.733,5.891,4.1c0.339,0.235,0.656-0.206,0.513-0.514
						c-0.777-1.669-0.15-4.321-0.078-6.124c0.098-2.438,0.195-4.876,0.293-7.314c0.04-0.992-0.75-1.187-1.543-1.738
						c-1.739-1.21-3.478-2.42-5.216-3.63C38.374,144.601,38,145.251,38.393,145.526z"/>
				</g>
			</g>
			<g>
				<path fill="#F6484B" d="M50.736,143.797c0.205-0.019,0.392,0.032,0.541,0.137c2.357,1.64,4.713,3.279,7.069,4.919
					c-0.15-0.104-0.338-0.156-0.543-0.137l-12.209,1.364l-7.012-4.879L50.736,143.797z"/>
				<g>
					<path fill="#FFFFFF" d="M50.636,144.159c2.418,0.611,5.079,4.416,7.105,4.189c-1.51,0.169-3.02,0.338-4.53,0.506
						c-3.034,0.34-6.455,1.58-8.89-0.115c-1.522-1.06-3.045-2.118-4.567-3.178c-1.271-0.885-0.339-0.081-1.11,0.009
						c0.612-0.071,1.225-0.142,1.837-0.213c3.418-0.395,6.836-0.79,10.254-1.185c0.475-0.055,0.48-0.806,0-0.75
						c-4.051,0.468-8.102,0.937-12.153,1.404c-0.372,0.043-0.51,0.476-0.189,0.699c1.475,1.025,2.95,2.052,4.424,3.078
						c0.734,0.511,2.035,1.935,3.017,1.825c2.208-0.247,4.417-0.494,6.625-0.741c1.726-0.192,4.074-0.904,5.787-0.474
						c0.428,0.108,0.631-0.447,0.289-0.686c-2.24-1.558-5.052-4.424-7.7-5.093C50.366,143.317,50.167,144.041,50.636,144.159z"/>
				</g>
			</g>
			<g>
				<g>
					<g>
						<path fill="#F6484B" d="M46.155,149.833c-0.516,0.049-0.957,0.531-0.98,1.071l-0.533,12.214
							c-0.023,0.541,0.38,0.941,0.895,0.893l11.649-1.117c0.514-0.049,0.955-0.531,0.979-1.072l0.532-12.213
							c0.023-0.541-0.379-0.942-0.893-0.893L46.155,149.833z"/>
						<g>
							<path fill="#FFFFFF" d="M45.965,149.509c-1.855,0.967-1.275,3.906-1.354,5.694c-0.077,1.759-0.154,3.518-0.23,5.276
								c-0.032,0.725-0.36,2.037-0.102,2.738c0.717,1.95,3.364,0.966,5.013,0.808c2.537-0.243,5.53-0.093,7.992-0.771
								c1.896-0.521,1.354-3.735,1.416-5.155c0.124-2.83,0.247-5.661,0.37-8.491c0.114-2.606-11.206-0.314-12.916-0.15
								c-0.477,0.046-0.481,0.796,0,0.75c3.869-0.371,7.739-0.742,11.608-1.113c0.905-0.087,0.085,11.362,0.028,12.687
								c-0.059,1.348-5.324,1.189-6.129,1.267c-0.592,0.058-6.69,1.097-6.644,0.03c0.088-2.022,0.176-4.045,0.265-6.066
								c0.066-1.521-0.585-5.998,1.062-6.854C46.773,149.934,46.394,149.287,45.965,149.509z"/>
						</g>
					</g>
				</g>
			</g>
		</g>
		<g>
			<g>
				<path fill="#F6484B" d="M59,143.89l6.591,4.586l-0.531,13.33c-0.015,0.325,0.125,0.6,0.351,0.756
					c-2.356-1.641-4.711-3.279-7.068-4.92c-0.225-0.156-0.365-0.43-0.351-0.755L59,143.89z"/>
				<g>
					<path fill="#FFFFFF" d="M58.81,144.214c1.195,0.831,2.391,1.663,3.586,2.495c0.821,0.57,1.641,1.142,2.462,1.712
						c0.659,0.459,0.363-0.097,0.339,0.512c-0.155,3.891-0.31,7.78-0.465,11.671c-0.078,1.943,0.171,1.149-1.489-0.006
						c-0.877-0.61-4.949-2.788-4.862-3.914c0.051-0.655,0.102-1.31,0.153-1.965c0.28-3.609,0.56-7.22,0.84-10.829
						c0.038-0.482-0.713-0.479-0.75,0c-0.265,3.417-0.53,6.833-0.795,10.25c-0.062,0.797-0.417,2.059-0.2,2.847
						c0.297,1.081,0.755,1.141,1.702,1.799c1.963,1.367,3.927,2.733,5.89,4.101c0.339,0.235,0.656-0.206,0.513-0.514
						c-0.775-1.672-0.15-4.32-0.078-6.125c0.097-2.438,0.194-4.876,0.292-7.314c0.04-0.992-0.75-1.187-1.542-1.737
						c-1.739-1.21-3.478-2.42-5.216-3.63C58.791,143.29,58.417,143.94,58.81,144.214z"/>
				</g>
			</g>
			<g>
				<path fill="#F6484B" d="M71.153,142.485c0.205-0.019,0.393,0.032,0.542,0.138c2.357,1.64,4.712,3.279,7.068,4.918
					c-0.149-0.104-0.338-0.156-0.544-0.137l-12.208,1.364L59,143.89L71.153,142.485z"/>
				<g>
					<path fill="#FFFFFF" d="M71.053,142.846c2.416,0.614,5.08,4.416,7.104,4.189c-1.51,0.169-3.02,0.338-4.53,0.506
						c-3.033,0.34-6.454,1.58-8.889-0.115c-1.522-1.059-3.045-2.118-4.567-3.177c-1.271-0.885-0.338-0.081-1.11,0.009
						c0.612-0.071,1.225-0.142,1.837-0.213c3.418-0.396,6.836-0.79,10.254-1.186c0.475-0.055,0.48-0.806,0-0.75
						c-4.051,0.469-8.102,0.937-12.153,1.405c-0.372,0.043-0.511,0.476-0.189,0.699c1.475,1.025,2.95,2.052,4.424,3.077
						c0.734,0.511,2.035,1.935,3.017,1.825c2.208-0.247,4.417-0.494,6.625-0.741c1.727-0.192,4.074-0.904,5.787-0.474
						c0.428,0.107,0.631-0.447,0.289-0.686c-2.242-1.559-5.051-4.42-7.7-5.093C70.784,142.004,70.584,142.727,71.053,142.846z"/>
				</g>
			</g>
			<g>
				<g>
					<g>
						<path fill="#F6484B" d="M66.573,148.521c-0.517,0.05-0.958,0.531-0.982,1.072l-0.531,12.213
							c-0.023,0.541,0.379,0.941,0.895,0.893l11.648-1.117c0.514-0.049,0.955-0.531,0.979-1.071l0.533-12.214
							c0.022-0.54-0.38-0.941-0.895-0.893L66.573,148.521z"/>
						<g>
							<path fill="#FFFFFF" d="M66.383,148.197c-1.857,0.968-1.277,3.904-1.355,5.695c-0.077,1.759-0.153,3.518-0.229,5.276
								c-0.032,0.725-0.359,2.035-0.102,2.737c0.716,1.95,3.365,0.966,5.013,0.808c2.537-0.243,5.529-0.093,7.992-0.771
								c1.896-0.521,1.354-3.734,1.417-5.154c0.124-2.831,0.247-5.661,0.371-8.492c0.114-2.606-11.208-0.314-12.916-0.15
								c-0.477,0.046-0.481,0.796,0,0.75c3.869-0.371,7.737-0.742,11.606-1.113c0.909-0.087,0.086,11.362,0.029,12.688
								c-0.059,1.347-5.324,1.188-6.128,1.266c-0.592,0.058-6.689,1.098-6.643,0.03c0.088-2.021,0.176-4.044,0.264-6.066
								c0.066-1.522-0.586-5.996,1.063-6.854C67.191,148.622,66.812,147.974,66.383,148.197z"/>
						</g>
					</g>
				</g>
			</g>
		</g>
		
			<path fill="#FFFFFF" stroke="#F6484B" stroke-width="2" stroke-linecap="round" stroke-linejoin="round" stroke-miterlimit="10" d="
			M76.703,116.95l13.521,1.4c0,0,0.004,7.218-5.122,7.845C78.01,127.07,76.871,119.105,76.703,116.95z"/>
		<g>
			<g>
				<path fill="#F6484B" d="M53.75,130.557l6.591,4.587l-0.532,13.331c-0.015,0.324,0.126,0.599,0.351,0.754
					c-2.355-1.64-4.711-3.278-7.068-4.918c-0.225-0.157-0.364-0.432-0.35-0.757L53.75,130.557z"/>
				<g>
					<path fill="#FFFFFF" d="M53.56,130.881c1.195,0.831,2.391,1.663,3.586,2.495c0.821,0.571,1.641,1.143,2.462,1.713
						c0.659,0.459,0.363-0.097,0.339,0.512c-0.155,3.891-0.311,7.781-0.466,11.672c-0.078,1.944,0.171,1.147-1.489-0.007
						c-0.878-0.611-4.948-2.786-4.861-3.915c0.051-0.655,0.102-1.31,0.153-1.965c0.28-3.609,0.56-7.22,0.84-10.829
						c0.038-0.482-0.713-0.479-0.75,0c-0.265,3.417-0.53,6.833-0.795,10.25c-0.062,0.797-0.417,2.059-0.2,2.847
						c0.299,1.085,0.748,1.139,1.701,1.801c1.963,1.366,3.927,2.731,5.89,4.099c0.339,0.235,0.656-0.206,0.513-0.514
						c-0.776-1.67-0.149-4.32-0.077-6.124c0.097-2.438,0.194-4.876,0.292-7.314c0.04-0.992-0.75-1.187-1.542-1.738
						c-1.739-1.21-3.478-2.42-5.216-3.63C53.541,129.957,53.167,130.607,53.56,130.881z"/>
				</g>
			</g>
			<g>
				<path fill="#F6484B" d="M65.902,129.153c0.205-0.019,0.394,0.032,0.543,0.137c2.356,1.64,4.712,3.279,7.067,4.919
					c-0.148-0.104-0.338-0.156-0.543-0.137l-12.209,1.364l-7.011-4.879L65.902,129.153z"/>
				<g>
					<path fill="#FFFFFF" d="M65.802,129.514c2.418,0.609,5.079,4.416,7.105,4.189c-1.51,0.169-3.02,0.338-4.53,0.506
						c-3.034,0.34-6.455,1.58-8.89-0.115c-1.522-1.06-3.044-2.118-4.566-3.178c-1.271-0.885-0.338-0.081-1.109,0.009
						c0.612-0.071,1.225-0.142,1.837-0.213c3.417-0.395,6.835-0.79,10.253-1.185c0.475-0.055,0.48-0.806,0-0.75
						c-4.051,0.468-8.102,0.937-12.152,1.404c-0.372,0.043-0.51,0.476-0.189,0.699c1.475,1.025,2.949,2.052,4.424,3.078
						c0.733,0.511,2.035,1.935,3.017,1.825c2.208-0.247,4.417-0.494,6.625-0.741c1.726-0.192,4.074-0.904,5.787-0.474
						c0.428,0.108,0.631-0.447,0.289-0.686c-2.239-1.558-5.053-4.427-7.7-5.093C65.532,128.673,65.333,129.396,65.802,129.514z"/>
				</g>
			</g>
			<g>
				<g>
					<g>
						<path fill="#F6484B" d="M61.321,135.19c-0.515,0.049-0.957,0.531-0.98,1.071l-0.532,12.214c-0.022,0.54,0.38,0.94,0.895,0.892
							l11.649-1.117c0.514-0.049,0.955-0.531,0.979-1.072l0.532-12.213c0.023-0.541-0.379-0.941-0.894-0.893L61.321,135.19z"/>
						<g>
							<path fill="#FFFFFF" d="M61.131,134.866c-1.855,0.967-1.275,3.906-1.354,5.694c-0.077,1.759-0.153,3.518-0.23,5.276
								c-0.031,0.724-0.36,2.037-0.102,2.738c0.719,1.949,3.364,0.965,5.013,0.807c2.537-0.243,5.53-0.093,7.992-0.771
								c1.896-0.521,1.354-3.735,1.416-5.155c0.124-2.83,0.247-5.661,0.37-8.491c0.114-2.606-11.208-0.313-12.917-0.149
								c-0.477,0.046-0.481,0.796,0,0.75c3.869-0.371,7.739-0.743,11.608-1.114c0.907-0.087,0.086,11.361,0.029,12.687
								c-0.059,1.348-5.324,1.189-6.129,1.267c-0.591,0.057-6.69,1.097-6.644,0.031c0.088-2.022,0.176-4.045,0.264-6.067
								c0.066-1.52-0.585-5.996,1.061-6.854C61.939,135.291,61.56,134.643,61.131,134.866z"/>
						</g>
					</g>
				</g>
			</g>
		</g>
		<path fill="none" stroke="#F6484B" stroke-width="2" stroke-linecap="round" stroke-linejoin="round" stroke-miterlimit="10" d="
			M78.423,122.484c0,0,5.125-4.317,10.8,0"/>
	</g>
</g>
<g id="圖層_5" display="none">
	<g display="inline">
		<g>
			<g>
				<path fill="#F6484B" d="M29.834,9.854c0,0,27.008,15.71,34.887,33.349l-0.382,9.691l2.212-7.773l6.99,15.996l-2.523,9.664
					l-6.66-0.262l-7.006-9.563l4.995,0.195l-7.623-6.017l-9.739-12.712l6.356,1.861l-7.555-5.776
					C43.787,38.508,30.968,11.327,29.834,9.854z"/>
				<path fill="#FFFFFF" d="M71.563,71.517l-7.576-0.298l-8.084-11.037l4.278,0.169l-6.022-4.781L43.09,41.127l4.771,1.395
					l-4.647-3.551l-0.072-0.159C38,27.916,30.065,11.327,29.269,10.29l-2.212-2.878l3.137,1.826
					c1.109,0.644,27.297,16.029,35.179,33.672l0.068,0.154l-0.154,3.888l1.121-3.938l7.888,18.044L71.563,71.517z M64.731,69.821
					l5.741,0.225l2.317-8.87L66.692,47.23l-3.301,11.607L64,43.343c-6.436-14.194-25.643-27.278-32.258-31.477
					c3.303,6.462,11.265,23.32,12.615,26.18l10.463,7.999l-7.942-2.324l8.358,10.908l9.276,7.32l-5.71-0.225L64.731,69.821z"/>
			</g>
			<g>
				<path fill="#F6484B" d="M41.884,24.381c0,0,29.098,36.874,31.049,52.191L71.031,76.5C71.031,76.5,48.233,32.492,41.884,24.381z"
					/>
				<path fill="#FFFFFF" d="M73.747,77.32l-3.158-0.125l-0.191-0.368c-0.228-0.44-22.84-44.042-29.075-52.006l1.123-0.882
					c1.192,1.513,29.243,37.207,31.196,52.545L73.747,77.32z M71.473,75.801l0.622,0.023c-1.711-9.396-12.644-26.128-20.997-37.856
					C59.363,52.523,69.829,72.633,71.473,75.801z"/>
			</g>
		</g>
		<g>
			<g>
				<path fill="#F6484B" d="M10.7,35.001c0,0,30.59,6.368,43.641,20.612l2.7,9.313l-0.356-8.07l11.688,12.964l0.66,9.968
					l-6.401,1.854l-9.67-6.859l4.8-1.391l-9.134-3.299l-13.259-8.98l6.618-0.244l-8.991-3.09
					C32.995,57.779,12.241,36.042,10.7,35.001z"/>
				<path fill="#FFFFFF" d="M62.497,82.424L51.34,74.509l4.11-1.193l-7.224-2.631L33.162,60.481l4.965-0.183l-5.529-1.901
					l-0.12-0.127c-8.32-8.713-21.094-21.945-22.177-22.677l-3.007-2.029l3.552,0.74c1.259,0.262,30.965,6.578,44.02,20.828
					l0.114,0.122l1.083,3.739l-0.182-4.092l13.188,14.625l0.715,10.786L62.497,82.424z M54.582,75.056l8.181,5.807l5.519-1.6
					l-0.605-9.148L57.483,58.812l0.534,12.053l-4.315-14.892C43.107,44.542,20.75,38.2,13.148,36.31
					c5.173,5.086,18.06,18.563,20.241,20.85l12.457,4.281l-8.271,0.305l11.378,7.707l11.113,4.015L54.582,75.056z"/>
			</g>
			<g>
				<path fill="#F6484B" d="M26.723,44.976c0,0,39.262,25.784,45.955,39.702l-1.828,0.529C70.85,85.208,35.311,50.664,26.723,44.976
					z"/>
				<path fill="#FFFFFF" d="M70.649,86.008l-0.295-0.288c-0.357-0.346-35.592-34.563-44.024-40.149l0.785-1.192
					c1.609,1.058,39.505,26.056,46.207,39.989l0.365,0.76L70.649,86.008z M39.76,54.952C52.201,66.15,68.487,81.92,71.051,84.407
					l0.596-0.174C67.055,75.86,51.392,63.441,39.76,54.952z"/>
			</g>
		</g>
		<g>
			<g>
				<path fill="#F6484B" d="M17.172,83.112c0,0,16.717-10.792,29-10.171l5.391,3.016l-3.771-3.501l11.095,0.651l4.758,4.223
					l-2.071,3.705l-7.452,1.213l1.554-2.776l-5.614,2.588l-10.027,1.858l2.892-3.07l-5.46,2.619
					C37.464,83.466,18.336,82.893,17.172,83.112z"/>
				<path fill="#FFFFFF" d="M37.852,85.108l1.666-1.771l-1.889,0.907l-0.189-0.007c-0.133-0.003-13.548-0.404-18.485-0.404
					c-1.307,0-1.589,0.029-1.644,0.038l-3.606,0.568l3.05-1.977c0.672-0.435,17.064-10.931,29.459-10.294l0.143,0.008l-0.666-0.618
					l13.51,0.792l5.421,4.814l-2.557,4.57l-9.397,1.531l1.174-2.101L50.2,82.819L37.852,85.108z M46.329,78.357l-4.114,4.371
					l7.61-1.41l5.34-2.462l-9.21-5.152c-9.136-0.387-20.896,5.711-25.917,8.591c5.2,0.043,15.724,0.349,17.262,0.396L46.329,78.357z
					 M56.49,79.597l-0.914,1.631l5.505-0.896l1.587-2.836l-4.093-3.635l-8.682-0.509l5.71,5.301l1.904-0.877l-0.974,1.739
					l0.287,0.268L56.49,79.597z"/>
			</g>
			<g>
				<path fill="#F6484B" d="M28.897,80.466c0,0,29.33-5.867,38.586-2.551l-0.591,1.058C66.892,78.973,35.332,79.206,28.897,80.466z"
					/>
				<path fill="#FFFFFF" d="M29.045,81.224l-0.301-1.516c0.181-0.037,18.045-3.581,30.225-3.581c3.857,0,6.811,0.357,8.773,1.062
					l0.859,0.307l-1.256,2.248l-0.449,0.002C66.583,79.748,35.337,79.991,29.045,81.224z M58.969,77.673
					c-4.039,0-8.723,0.396-13.166,0.924c8.188-0.255,16.708-0.355,19.858-0.385C63.954,77.853,61.712,77.673,58.969,77.673z"/>
			</g>
		</g>
		<path fill="#F6484B" d="M134.521,148.041c0,0,5.212-3.033,9.912-0.008c4.702,3.023,0.664,9.021-1.871,10.159
			c-2.533,1.142-13.509,1.19-15.616-3.032c-2.105-4.223,0.249-25.658,0.249-25.658l13.812-2.281L134.521,148.041z"/>
		<path fill="#F6484B" d="M100.085,150.116c0,0,5.816-1.592,9.579,2.543c3.764,4.133-0.794,9.979-3.729,9.974
			c-4.198-0.009-14.056-0.652-15.005-5.276c-0.945-4.62,6.853-27.044,6.853-27.044l13.933,1.355L100.085,150.116z"/>
		<g>
			<path fill="#F6484B" d="M139.34,85.062c0,0,34.646,35.904,29.95,44.551c-4.695,8.646-13.176-7.828-14.471-9.495
				c-2.119-2.731-12.661-21.131-17.485-24.292"/>
			<path fill="#FFFFFF" d="M166.002,133.265c-3.883,0-7.688-5.312-11.222-11.063c-0.376-0.611-0.732-1.191-0.877-1.375
				c-0.611-0.789-1.776-2.638-3.389-5.194c-3.935-6.237-10.518-16.678-13.815-18.839l1.271-1.938
				c3.717,2.438,10.209,12.73,14.503,19.541c1.519,2.406,2.718,4.309,3.261,5.009c0.222,0.284,0.538,0.801,1.02,1.583
				c1.678,2.731,6.121,9.959,9.247,9.96c0.018,0,0.036-0.001,0.055-0.001c0.298-0.009,1.209-0.031,2.217-1.89
				c3.125-5.756-16.599-29.548-29.767-43.192l1.667-1.609c0.087,0.09,8.791,9.129,16.806,19.112
				c16.632,20.715,14.146,25.291,13.33,26.796c-1.092,2.01-2.503,3.053-4.191,3.098
				C166.079,133.265,166.041,133.265,166.002,133.265z"/>
		</g>
		<g>
			<g>
				<g>
					<path fill="#F6484B" d="M94.249,73.789c-2.505,0.238-4.652,2.582-4.767,5.209l-2.588,59.392
						c-0.115,2.628,1.846,4.576,4.351,4.338l56.641-5.433c2.502-0.24,4.647-2.584,4.762-5.21l2.589-59.392
						c0.114-2.627-1.845-4.577-4.344-4.337L94.249,73.789z"/>
				</g>
			</g>
		</g>
		<g>
			<g>
				<g enable-background="new    ">
					<defs>
						<polygon id="SVGID_5_" enable-background="new    " points="92.503,132.627 90.892,76.441 147.537,84.054 149.148,140.241 
													"/>
					</defs>
					<clipPath id="SVGID_6_">
						<use xlink:href="#SVGID_5_"  overflow="visible"/>
					</clipPath>
					<g clip-path="url(#SVGID_6_)">
						<g>
							<g>
								<g>
									<path fill="#FFFFFF" d="M122.035,80.626c-4.562-0.613-9.27-0.142-13.725,1.583c-14.201,5.489-20.462,21.643-13.991,36.08
										c4.441,9.908,13.724,16.427,23.698,17.768c4.56,0.612,9.266,0.143,13.717-1.579c14.194-5.498,20.454-21.653,13.992-36.088
										C141.286,88.485,132.007,81.966,122.035,80.626"/>
								</g>
							</g>
						</g>
					</g>
				</g>
			</g>
		</g>
		<g>
			<path fill="#F6484B" d="M55.116,55.079l34.366,23.919l-2.588,59.392c-0.069,1.577,0.609,2.909,1.703,3.671
				c-11.457-7.973-22.911-15.946-34.367-23.92c-1.095-0.762-1.772-2.094-1.704-3.671L55.116,55.079z"/>
		</g>
		<g>
			<path fill="#F6484B" d="M116.526,44.435c0.997-0.094,1.909,0.16,2.639,0.666c11.455,7.975,22.91,15.946,34.367,23.921
				c-0.729-0.509-1.642-0.763-2.64-0.666l-56.644,5.433l-34.367-23.92L116.526,44.435z"/>
		</g>
		<g>
			<g>
				<g>
					<path fill="#F6484B" d="M94.249,73.789l-34.367-23.92c-2.504,0.239-4.65,2.584-4.766,5.21l34.366,23.919
						C89.596,76.371,91.744,74.027,94.249,73.789z"/>
				</g>
			</g>
		</g>
		<path fill="#F6484B" d="M140.967,104.958c-1.499,0-2.713,0.442-2.713,1.94c0,1.497,1.214,2.711,2.713,2.711
			c1.497,0,2.711-1.986,2.711-3.483C143.678,104.627,142.464,104.958,140.967,104.958z"/>
		<path fill="#F6484B" d="M103.995,107.67c-1.496,0-2.711-0.331-2.711,1.165c0,1.5,1.215,3.486,2.711,3.486
			c1.498,0,2.712-1.215,2.712-2.713S105.493,107.67,103.995,107.67z"/>
		<g>
			<path fill="#F6484B" d="M124.301,120.94L124.301,120.94c-0.349,0-0.714-0.024-1.084-0.069c-3.955-0.495-5.016-4.673-5.023-6.813
				l-0.002-0.717l13.014-1.036l-0.072,0.906C130.831,116.947,128.877,120.94,124.301,120.94z M119.792,114.763
				c0.162,1.366,0.836,4.227,3.618,4.575c0.308,0.037,0.606,0.058,0.892,0.058c3.745,0,4.853-3.44,5.179-5.403L119.792,114.763z"/>
			<path fill="#F6484B" d="M124.489,120.811h-0.002c-1.883,0-3.428-1.039-4.244-2.009c-0.61-0.727-0.887-1.473-0.777-2.102
				c0.447-2.58,1.384-3.579,6.517-3.45c2.319,0.057,3.604,0.226,4.169,0.981c0.434,0.586,0.315,1.321,0.124,2.029l-0.042,0.107
				C128.399,120.04,126.098,120.811,124.489,120.811z M125.187,114.398c-4.146,0-4.299,0.889-4.58,2.501
				c-0.036,0.205,0.079,0.632,0.521,1.157c0.619,0.735,1.871,1.596,3.358,1.596h0.002c1.825,0.001,3.444-1.296,4.684-3.747
				c0.137-0.521,0.151-0.841,0.05-0.979c-0.332-0.445-2.39-0.497-3.27-0.517C125.685,114.402,125.43,114.398,125.187,114.398z"/>
			<g>
				<path fill="#FFFFFF" d="M129.662,113.682l-9.683,0.625c0,0,0.059,1.802,3.741,1.854
					C128.812,116.235,129.561,114.222,129.662,113.682z"/>
				<path fill="#F6484B" d="M123.991,116.743L123.991,116.743l-0.28-0.001c-4.187-0.061-4.306-2.319-4.31-2.416l-0.018-0.561
					l10.982-0.708l-0.136,0.731C130.102,114.481,129.272,116.743,123.991,116.743z M120.893,114.829
					c0.417,0.368,1.268,0.732,2.834,0.754l0.264,0.001c2.83,0,4.095-0.683,4.656-1.256L120.893,114.829z"/>
			</g>
		</g>
		<g>
			
				<ellipse transform="matrix(-0.9561 -0.2931 0.2931 -0.9561 242.5374 249.0987)" fill="#FFFFFF" cx="139.93" cy="106.38" rx="1.055" ry="0.815"/>
			<path fill="#F6484B" d="M140.081,107.605L140.081,107.605c-0.168,0-0.338-0.025-0.503-0.076
				c-0.413-0.127-0.753-0.396-0.935-0.738c-0.141-0.268-0.174-0.565-0.091-0.835c0.19-0.624,0.979-0.958,1.731-0.724
				c0.759,0.233,1.218,0.938,1.023,1.571C141.158,107.29,140.677,107.605,140.081,107.605z M139.78,105.927
				c-0.246,0-0.441,0.103-0.488,0.257c-0.029,0.092,0.003,0.185,0.034,0.245c0.085,0.16,0.264,0.295,0.479,0.361
				c0.341,0.105,0.701-0.004,0.766-0.214c0.06-0.194-0.136-0.49-0.514-0.606C139.964,105.942,139.872,105.927,139.78,105.927z"/>
		</g>
		<g>
			
				<ellipse transform="matrix(-0.9559 -0.2938 0.2938 -0.9559 169.2971 243.7897)" fill="#FFFFFF" cx="102.958" cy="109.18" rx="1.055" ry="0.815"/>
			<path fill="#F6484B" d="M103.108,110.405c-0.169,0-0.337-0.025-0.503-0.077c-0.412-0.127-0.752-0.396-0.934-0.737
				c-0.142-0.269-0.175-0.565-0.092-0.835c0.192-0.624,0.979-0.956,1.731-0.725c0.76,0.234,1.219,0.938,1.024,1.572
				C104.186,110.089,103.704,110.405,103.108,110.405z M102.809,108.728c-0.248,0-0.443,0.102-0.49,0.256
				c-0.028,0.092,0.003,0.184,0.035,0.245c0.085,0.159,0.263,0.295,0.477,0.361c0.342,0.103,0.703-0.003,0.769-0.216
				c0.059-0.193-0.138-0.49-0.515-0.604C102.993,108.742,102.899,108.728,102.809,108.728z"/>
		</g>
		<g>
			<path fill="#F6484B" d="M109.068,119.262c0.076-0.694-3.462-0.948-7.81-1.413c-4.349-0.464-7.859-0.963-7.933-0.265
				c-0.073,0.694,3.389,1.634,7.736,2.097C105.411,120.146,108.996,119.958,109.068,119.262z"/>
			<path fill="#F6484B" d="M109.642,116.574c0.074-0.693-3.463-0.949-7.812-1.413c-4.346-0.463-7.857-0.962-7.932-0.267
				s3.39,1.636,7.736,2.098C105.984,117.456,109.567,117.27,109.642,116.574z"/>
		</g>
		<g>
			<path fill="#F6484B" d="M139.538,117.65c-0.247-0.653,2.827-1.688,6.567-3.105c3.739-1.418,6.728-2.684,6.976-2.027
				c0.246,0.653-2.583,2.333-6.322,3.748C143.018,117.685,139.784,118.304,139.538,117.65z"/>
			<path fill="#F6484B" d="M138.325,115.186c-0.248-0.654,2.828-1.688,6.568-3.106c3.738-1.417,6.727-2.683,6.975-2.028
				c0.247,0.653-2.583,2.333-6.321,3.751C141.805,115.219,138.572,115.839,138.325,115.186z"/>
		</g>
		<g>
			<path fill="#F6484B" d="M157.587,81.66c-1.93,1.341-66.143,7.101-69.409,6.582c-3.82-0.607-33.755-20.396-33.755-20.396
				s-2.884-2.952,0-5.73c2.37-2.279,29.597,18.228,33.755,18.914c4.16,0.686,67.313-6.137,69.409-6.738
				C159.646,76.952,159.516,80.318,157.587,81.66z"/>
			<path fill="#FFFFFF" d="M88.925,89.046c-0.536,0-0.752-0.024-0.867-0.043c-3.874-0.615-30.981-18.479-34.061-20.514l-0.127-0.105
				c-0.062-0.064-1.53-1.594-1.501-3.613c0.02-1.18,0.529-2.26,1.519-3.212c0.271-0.261,0.645-0.394,1.109-0.394
				c2.588,0,9.464,4.351,19.655,10.987c5.93,3.86,12.061,7.853,13.651,8.112c0.087,0.016,0.313,0.038,0.862,0.038
				c9.236,0,66.421-6.26,68.208-6.755l0.499-0.139l0.324,0.408c1.289,1.666,1.869,3.663,1.589,5.479
				c-0.195,1.279-0.821,2.345-1.758,2.995C155.761,83.87,95.555,89.046,88.925,89.046z M54.929,67.252
				c11.979,7.919,30.694,19.801,33.372,20.227c0.035,0.005,0.182,0.022,0.624,0.022c7.551,0,65.546-5.234,68.269-6.504
				c0.541-0.381,0.936-1.077,1.067-1.935c0.193-1.252-0.186-2.692-1.019-3.929c-6.214,0.949-59.029,6.713-68.076,6.713
				c-0.517,0-0.869-0.018-1.113-0.059c-1.817-0.299-6.598-3.364-14.242-8.342c-7.347-4.784-16.49-10.737-18.813-10.737
				c-0.038,0-0.064,0.003-0.083,0.007c-0.652,0.644-0.988,1.344-1,2.079C53.896,65.994,54.721,67.015,54.929,67.252z"/>
		</g>
		<g>
			<g>
				<g>
					<path fill="#F6484B" d="M121.848,25.779c0,0,18.883,6.27,26.094,16.236l1.025,6.088l0.365-5.133l6.443,9.06l-0.311,6.351
						l-4.186,0.707l-5.616-5.049l3.14-0.528l-5.537-2.753l-7.729-6.652l4.204,0.329l-5.461-2.614
						C134.28,41.82,122.745,26.55,121.848,25.779z"/>
					<path fill="#FFFFFF" d="M156.204,59.041l-5.166,0.867l-7.08-6.365l2.374-0.399l-3.567-1.802l-9.518-8.192l2.422,0.189
						l-1.891-0.904l-0.113-0.149c-4.398-5.825-11.635-15.298-12.324-15.922l-2.702-2.456l3.452,1.142
						c0.779,0.257,19.201,6.459,26.477,16.515l0.086,0.117l0.065-0.908l7.843,11.029L156.204,59.041z M151.518,58.261l3.205-0.537
						l0.268-5.465l-5.039-7.088l-0.557,7.771l1.878,0.935l-1.97,0.332l-0.027,0.383l-0.062-0.368l-1.845,0.312L151.518,58.261z
						 M143.696,50.107l5.268,2.62l-1.754-10.405c-5.432-7.36-17.547-12.715-22.937-14.822c3.095,3.904,8.866,11.527,10.509,13.703
						l9.033,4.326l-5.984-0.47L143.696,50.107z"/>
				</g>
				<g>
					<path fill="#F6484B" d="M131.254,33.261c0,0,22.941,19.187,26.154,28.48l-1.193,0.202
						C156.215,61.944,136.267,37.487,131.254,33.261z"/>
					<path fill="#FFFFFF" d="M158.438,62.351l-2.535,0.428l-0.285-0.346c-0.2-0.247-19.96-24.448-24.861-28.582l0.992-1.182
						c0.943,0.788,23.146,19.432,26.393,28.82L158.438,62.351z M143.307,45.278c5.328,6.224,10.744,12.803,12.736,15.234
						C153.884,56.24,148.532,50.4,143.307,45.278z"/>
				</g>
			</g>
			<g>
				<g>
					<path fill="#F6484B" d="M128.227,52.061c0,0,13.325,0.269,19.916,5.219l1.863,3.69l-0.783-3.354l5.92,4.519l1.059,4.128
						l-2.539,1.279l-4.592-2.118l1.903-0.96l-4.089-0.665l-6.266-2.726l2.756-0.623l-4.015-0.59
						C139.361,59.861,128.956,52.375,128.227,52.061z"/>
					<path fill="#FFFFFF" d="M156.653,66.466l-2.984,1.507l-5.486-2.53l1.559-0.787l-3.01-0.502l-7.347-3.194l1.886-0.426
						l-2.057-0.303l-0.077-0.057c-4.16-2.992-10.538-7.528-11.063-7.761l-1.755-0.776l1.918,0.038
						c0.547,0.011,13.525,0.328,20.139,5.293l0.074,0.056l0.446,0.89l-0.292-1.256l6.879,5.252L156.653,66.466z M153.654,67.113
						l2.098-1.055l-0.95-3.697l-4.958-3.785l1.274,5.456l-3.276-6.499c-5.179-3.826-14.612-4.786-18.192-5.017
						c2.707,1.837,8.757,6.182,9.861,6.976l5.971,0.878l-3.625,0.822l5.138,2.235l5.212,0.85l-2.248,1.134L153.654,67.113z"/>
				</g>
				<g>
					<path fill="#F6484B" d="M135.731,54.986c0,0,18.485,7.73,22.384,13.04l-0.728,0.368
						C157.387,68.394,139.778,56.695,135.731,54.986z"/>
					<path fill="#FFFFFF" d="M158.695,68.164l-1.332,0.675l-0.187-0.122c-0.178-0.117-17.629-11.698-21.598-13.377l0.299-0.712
						c0.761,0.317,18.629,7.837,22.546,13.171L158.695,68.164z M157.415,67.949l0.104-0.056c-2.407-2.857-8.847-6.389-14.129-8.976
						C149.2,62.517,156.127,67.093,157.415,67.949z"/>
				</g>
			</g>
			
				<rect x="157.298" y="57.139" transform="matrix(-0.9985 0.0538 -0.0538 -0.9985 323.3751 182.4672)" fill="#F6484B" width="3.863" height="76.902"/>
			<g>
				<g>
					<path fill="#FFFFFF" d="M158.932,66.136c0,0-0.852,1.952-3.605-0.525c-2.754-2.48,3.381-3.266,2.914-3.245
						C157.772,62.382,158.932,66.136,158.932,66.136z"/>
					<path fill="#F6484B" d="M155.022,65.948c-0.709-0.639-0.984-1.274-0.819-1.89c0.253-0.932,1.496-1.617,3.802-2.098l0.025-0.006
						c0.06-0.025,0.125-0.04,0.193-0.043l0,0l0.021-0.002l1.455-0.313l-1.012,0.948c-0.023,0.049-0.056,0.103-0.106,0.148
						c0.013,0.5,0.392,2.034,0.785,3.307l0.05,0.162l-0.068,0.153c-0.152,0.35-0.643,0.957-1.506,1.004l0,0
						C157.03,67.36,156.081,66.902,155.022,65.948z M157.696,62.96c-2.162,0.516-2.551,1.097-2.613,1.333
						c-0.087,0.322,0.251,0.71,0.551,0.979c1.083,0.975,1.775,1.156,2.159,1.137l0,0c0.343-0.02,0.546-0.206,0.644-0.335
						C157.947,64.467,157.749,63.525,157.696,62.96z"/>
				</g>
				<g>
					<path fill="#FFFFFF" d="M155.389,62.99c0,0-0.926-2.357,3.459-2.587c4.384-0.234-0.099,5.585,0.278,5.175
						C159.506,65.167,155.389,62.99,155.389,62.99z"/>
					<path fill="#F6484B" d="M158.688,65.781c-0.039-0.081-0.045-0.16-0.036-0.229c-0.401-0.411-2.047-1.404-3.476-2.159
						l-0.148-0.078l-0.063-0.157c-0.017-0.038-0.345-0.902,0.201-1.753c0.557-0.867,1.783-1.355,3.656-1.457
						c1.096-0.059,1.833,0.229,2.191,0.854c0.556,0.964,0.09,2.558-1.42,4.872l-0.022,0.032c-0.025,0.066-0.061,0.129-0.111,0.18
						c-0.005,0.007-0.011,0.014-0.019,0.021l-0.803,1.242L158.688,65.781z M155.941,61.885c-0.204,0.307-0.192,0.623-0.163,0.796
						c1.879,1.002,2.838,1.643,3.327,2.065c1.46-2.355,1.277-3.22,1.122-3.491c-0.217-0.379-0.857-0.426-1.366-0.396
						C156.94,60.959,156.211,61.472,155.941,61.885z"/>
				</g>
			</g>
			<g>
				<path fill="#FFFFFF" d="M160.358,64.771c0,0,1.988,2.113,2.438,3.397c0.451,1.286-2.787,2.332-3.152,1.397
					c-0.361-0.936-0.879-3.587-0.879-3.587L160.358,64.771z"/>
				<path fill="#F6484B" d="M159.221,69.73c-0.377-0.963-0.882-3.555-0.902-3.662l-0.055-0.279l2.146-1.627l0.28,0.296
					c0.082,0.091,2.057,2.199,2.535,3.562c0.132,0.374,0.072,0.766-0.165,1.125c-0.495,0.738-1.653,1.188-2.491,1.232l0,0
					C159.596,70.429,159.301,69.942,159.221,69.73z M159.268,66.169c0.141,0.696,0.521,2.518,0.799,3.227
					c0.014,0.02,0.143,0.089,0.454,0.072l0,0c0.679-0.038,1.508-0.425,1.781-0.832c0.101-0.152,0.089-0.25,0.063-0.316
					c-0.295-0.841-1.416-2.209-2.063-2.936L159.268,66.169z"/>
			</g>
			<g>
				<path fill="#FFFFFF" d="M154.7,64.298c0,0-2.541-1.279-3.468-2.277c-0.919-1.006,1.296-2.891,1.997-2.17
					c0.701,0.716,2.262,2.908,2.262,2.908L154.7,64.298z"/>
				<path fill="#F6484B" d="M154.493,64.705c-0.105-0.054-2.625-1.33-3.593-2.376c-0.362-0.393-0.437-0.931-0.216-1.481
					c0.332-0.817,1.297-1.568,2.064-1.611c0.322-0.017,0.6,0.086,0.807,0.297c0.717,0.734,2.241,2.871,2.307,2.961l0.162,0.227
					l-1.126,2.188L154.493,64.705z M152.903,60.169c-0.021-0.025-0.078-0.024-0.107-0.021c-0.379,0.019-1.053,0.516-1.27,1.041
					c-0.135,0.332-0.003,0.47,0.045,0.521c0.644,0.7,2.197,1.579,2.936,1.974l0.451-0.884
					C154.543,62.226,153.442,60.72,152.903,60.169z"/>
			</g>
			<g>
				<path fill="#FFFFFF" d="M160.11,72.195c0,0-3.488-0.048-5.029-0.548c-1.539-0.503-0.021-3.165,1.127-2.821
					c1.148,0.342,4.007,1.638,4.007,1.638L160.11,72.195z"/>
				<path fill="#F6484B" d="M160.092,72.65c-0.147-0.003-3.61-0.055-5.227-0.578c-0.602-0.197-0.962-0.648-0.996-1.244
					c-0.041-0.877,0.649-1.975,1.484-2.346c0.354-0.156,0.721-0.186,1.057-0.086c1.176,0.352,3.965,1.614,4.082,1.667l0.299,0.136
					l-0.148,2.457L160.092,72.65z M156.006,69.252c-0.037-0.013-0.103,0.015-0.135,0.027c-0.414,0.185-0.911,0.923-0.885,1.493
					c0.021,0.354,0.234,0.425,0.313,0.447c1.078,0.354,3.258,0.469,4.283,0.504l0.059-0.994
					C158.887,70.394,156.889,69.516,156.006,69.252z"/>
			</g>
			<g>
				<path fill="#FFFFFF" d="M155.163,71.904c0,0,3.486-0.155,5.052,0.254c1.567,0.412,0.208,3.159-0.959,2.881
					c-1.163-0.271-4.095-1.398-4.095-1.398L155.163,71.904z"/>
				<path fill="#F6484B" d="M155.157,71.447c0.146-0.004,3.606-0.156,5.252,0.274c0.609,0.161,0.997,0.591,1.063,1.182
					c0.097,0.876-0.531,2.012-1.344,2.431c-0.344,0.175-0.707,0.228-1.05,0.145c-1.193-0.281-4.051-1.378-4.172-1.424l-0.304-0.116
					l0.001-2.464L155.157,71.447z M159.436,74.603c0.035,0.007,0.096-0.02,0.127-0.035c0.402-0.208,0.855-0.975,0.797-1.543
					c-0.039-0.351-0.256-0.409-0.338-0.432c-1.094-0.287-3.277-0.275-4.304-0.251l0.001,0.997
					C156.489,73.628,158.538,74.389,159.436,74.603z"/>
			</g>
		</g>
		<path fill="#F6484B" d="M125.826,122.904c-0.495,0-0.407,2.928-0.405,6.542c0.002,3.608-0.081,6.537,0.414,6.537
			c0.496,0,0.896-2.929,0.894-6.54C126.726,125.831,126.321,122.904,125.826,122.904z"/>
		<g>
			<g>
				<path fill="#FFFFFF" d="M54.095,128.893c0,0,15.909,0.284,16.836,0.496c0.928,0.208-0.586-3.993,1.963-6.583
					c0,0,3.026-3.207,7.235-3.119c9.223,0.192,8.915,8.044,1.011,11.693c0,0,7.729,1.645,6.82,4.229
					c-0.909,2.585-7.857,10.073-13.886,5.577c-1.765-1.314-2.375-3.276-3.103-4.718c-0.638-1.263-0.183-0.572,0,0
					c0,0,3.272,3.276-18.827,0.559"/>
				<path fill="#F6484B" d="M78.167,143.75c-1.708,0-3.329-0.552-4.784-1.636c-1.316-0.98-2.071-2.245-2.635-3.398
					c-1.888,0.652-6.542,0.96-18.744-0.539c-0.636-0.078-1.089-0.656-1.011-1.292c0.08-0.636,0.661-1.081,1.292-1.009
					c12.552,1.545,16.357,1.053,17.46,0.727c-0.287-0.604-0.4-1.033-0.035-1.529c0.259-0.354,0.694-0.527,1.124-0.459
					c0.268,0.044,0.755,0.124,1.174,1.303c0.104,0.155,0.185,0.33,0.236,0.521c0.068,0.146,0.138,0.299,0.209,0.451
					c0.558,1.224,1.135,2.489,2.314,3.367c1.572,1.173,3.346,1.471,5.274,0.882c3.508-1.069,6.375-4.63,6.826-5.913
					c0.011-0.033,0.017-0.051-0.028-0.131c-0.516-0.922-3.486-2.058-5.942-2.583c-0.487-0.104-0.853-0.509-0.908-1.005
					c-0.055-0.495,0.212-0.971,0.665-1.18c4.104-1.894,5.566-4.711,5.188-6.526c-0.373-1.784-2.517-2.891-5.737-2.957
					c-0.048-0.002-0.099-0.002-0.147-0.002c-3.577,0-6.195,2.73-6.221,2.759c-1.273,1.295-1.283,3.131-1.291,4.472
					c-0.004,0.954-0.008,1.709-0.614,2.19c-0.32,0.254-0.741,0.35-1.154,0.254c-0.854-0.137-10.641-0.359-16.602-0.466
					c-0.639-0.013-1.149-0.54-1.138-1.18s0.525-1.146,1.18-1.138c4.1,0.075,12.898,0.246,16.012,0.429
					c0.001-0.036,0.001-0.069,0.001-0.102c0.009-1.54,0.02-4.119,1.938-6.067c0.121-0.127,3.325-3.469,7.89-3.469
					c0.066,0,0.13,0.002,0.195,0.004c4.375,0.091,7.35,1.885,7.956,4.8c0.558,2.668-1.003,5.545-3.992,7.67
					c1.825,0.615,3.976,1.594,4.743,2.961c0.366,0.651,0.432,1.354,0.192,2.035c-0.681,1.935-4.048,6.053-8.335,7.359
					C79.853,143.618,79,143.75,78.167,143.75z"/>
			</g>
			<g>
				<path fill="#FFFFFF" d="M52.145,135.508c-0.908-0.2,0.965,3.736-1.196,6.142c0,0-2.557,2.983-6.577,2.877
					c-8.809-0.232-9.32-7.572-2.161-10.938c0,0-7.535-1.583-6.933-3.994c0.6-2.41,6.455-9.369,12.662-5.135
					c1.814,1.24,2.598,3.077,3.439,4.43c0.738,1.184,0.231,0.536,0,0"/>
				<path fill="#F6484B" d="M44.583,145.689c-0.08,0-0.16-0.002-0.241-0.004c-4.464-0.118-7.502-1.979-8.132-4.979
					c-0.499-2.383,0.682-4.84,3.084-6.699c-1.826-0.592-4.002-1.536-4.82-2.841c-0.365-0.585-0.477-1.226-0.32-1.852
					c0.475-1.905,3.146-5.418,6.729-6.783c2.642-1.004,5.307-0.667,7.71,0.974c1.677,1.144,2.571,2.704,3.291,3.957
					c0.159,0.278,0.313,0.547,0.47,0.797c0.005,0.011,0.013,0.021,0.02,0.031c0.478,0.769,0.762,1.234,0.386,1.86
					c-0.225,0.373-0.652,0.596-1.072,0.562c-0.382-0.025-0.828-0.15-1.334-1.284c-0.158-0.256-0.314-0.529-0.478-0.812
					c-0.664-1.157-1.352-2.354-2.589-3.197c-1.775-1.213-3.652-1.456-5.578-0.723c-2.871,1.093-5.012,3.994-5.307,5.179
					c0.126,0.612,2.852,1.909,6.049,2.58c0.487,0.104,0.854,0.506,0.911,1c0.059,0.495-0.206,0.971-0.657,1.184
					c-3.395,1.594-4.567,3.959-4.225,5.593c0.387,1.848,2.656,3.052,5.924,3.138c3.42,0.111,5.646-2.452,5.669-2.476
					c1.018-1.134,0.842-2.809,0.715-4.03c-0.098-0.93-0.173-1.663,0.415-2.188c0.321-0.285,0.756-0.393,1.192-0.299
					c0.624,0.139,1.019,0.758,0.88,1.383c-0.039,0.177-0.116,0.335-0.223,0.469c0.012,0.129,0.026,0.271,0.039,0.394
					c0.154,1.468,0.41,3.921-1.282,5.804C51.71,142.542,48.96,145.689,44.583,145.689z"/>
			</g>
		</g>
		<g>
			<path fill="#F6484B" d="M64.873,131.068c0.477-2.341,1.565-9.172,2.772-13.442c2.541-8.993,8.179-21.063,1.981-23.544
				c-8.425-3.37-11.8,27.006-11.8,27.006s-1.692,14.565-1.503,18.958c0.251,5.897,6.214,8.918,7.952,2.573
				C66.072,136.061,63.087,139.839,64.873,131.068z"/>
			<path fill="#FFFFFF" d="M60.883,147.312L60.883,147.312c-2.983,0-5.549-3.237-5.719-7.218c-0.189-4.432,1.441-18.542,1.512-19.14
				c0.523-4.72,3.554-28.292,11.664-28.292c0.568,0,1.147,0.115,1.718,0.345c6.003,2.404,3.157,11.093,0.405,19.494
				c-0.626,1.913-1.218,3.719-1.705,5.44c-0.88,3.117-1.713,7.712-2.265,10.753c-0.197,1.087-0.362,1.995-0.486,2.604
				c-0.87,4.273-0.548,5.313-0.287,6.148c0.378,1.212,0.557,2.246-0.327,5.477C64.309,146.883,61.879,147.312,60.883,147.312z
				 M68.34,94.98c-4.447,0-8.151,15.341-9.362,26.236c-0.019,0.15-1.681,14.528-1.498,18.778c0.126,2.947,1.896,5,3.403,5
				c0.98,0,1.808-0.977,2.276-2.683c0.772-2.818,0.584-3.418,0.349-4.178c-0.431-1.383-0.686-2.799,0.23-7.297
				c0.12-0.597,0.281-1.489,0.477-2.557c0.559-3.085,1.403-7.744,2.314-10.97c0.499-1.766,1.127-3.679,1.731-5.528
				c2.308-7.045,4.924-15.029,0.937-16.627C68.902,95.039,68.613,94.98,68.34,94.98z"/>
		</g>
	</g>
</g>
<g id="圖層_6" display="none">
	<g display="inline">
		<g>
			<g>
				<g>
					<path fill="#F6484B" d="M35.185,147.212c0,0-1.085-4.703-5.427-5.788c-4.34-1.086-2.893,7.009-2.17,9.111
						c0.725,2.104,3.979,6.082,7.597,4.996c3.618-1.085,14.831-14.207,14.831-14.207l-6.238-9.307L35.185,147.212z"/>
					<path fill="#F6484B" d="M63.694,151.088c0,0-1.085-4.703-5.426-5.789c-4.34-1.085-2.895,7.01-2.17,9.112
						c0.723,2.104,3.979,6.082,7.596,4.997c3.618-1.085,14.832-14.209,14.832-14.209l-6.239-9.305L63.694,151.088z"/>
					<g>
						<path fill="#F6484B" d="M34.616,100.324c0,0-27.732,28.739-23.973,35.661c3.758,6.922,10.545-6.267,11.583-7.602
							c1.696-2.185,10.134-16.912,13.995-19.442"/>
						<path fill="#FFFFFF" d="M13.268,138.599c-0.025,0-0.052-0.001-0.078-0.001c-1.234-0.032-2.272-0.813-3.092-2.318
							C6.237,129.165,31.3,102.87,34.17,99.895l0.891,0.858c-7.628,7.902-26.781,29.585-23.875,34.936
							c0.6,1.105,1.266,1.652,2.038,1.675c0.016,0,0.032,0,0.048,0c2.679,0,6.299-5.894,7.668-8.118
							c0.38-0.618,0.631-1.026,0.797-1.241c0.444-0.572,1.408-2.1,2.627-4.033c3.424-5.43,8.598-13.634,11.52-15.548l0.676,1.034
							c-2.695,1.767-7.986,10.158-11.149,15.174c-1.285,2.038-2.215,3.512-2.696,4.132c-0.125,0.16-0.4,0.609-0.719,1.128
							C20.252,132.726,16.642,138.598,13.268,138.599z"/>
					</g>
					<g>
						<path fill="#F6484B" d="M107.11,75.504L79.6,94.65l2.073,47.539c0.056,1.263-0.486,2.329-1.364,2.939
							c9.17-6.382,18.339-12.765,27.509-19.147c0.877-0.609,1.419-1.677,1.365-2.938L107.11,75.504z"/>
					</g>
					<g>
						<path fill="#F6484B" d="M57.956,66.985c-0.8-0.076-1.529,0.127-2.113,0.533c-9.17,6.383-18.338,12.764-27.508,19.146
							c0.584-0.406,1.313-0.609,2.112-0.532l45.339,4.348l27.508-19.146L57.956,66.985z"/>
					</g>
					<g>
						<g>
							<g>
								<path fill="#F6484B" d="M75.786,90.48c2.007,0.191,3.723,2.066,3.814,4.17l2.073,47.539
									c0.091,2.104-1.478,3.664-3.481,3.473l-45.339-4.349c-2.001-0.191-3.72-2.068-3.812-4.17L26.97,89.604
									c-0.092-2.103,1.477-3.664,3.477-3.472L75.786,90.48z"/>
							</g>
						</g>
					</g>
					<g>
						<g>
							<g>
								<path fill="#F6484B" d="M75.786,90.48l27.508-19.146c2.007,0.191,3.725,2.067,3.816,4.17L79.6,94.65
									C79.508,92.546,77.792,90.671,75.786,90.48z"/>
							</g>
						</g>
					</g>
					<g>
						<g>
							<g enable-background="new    ">
								<defs>
									<polygon id="SVGID_7_" enable-background="new    " points="31.975,136.922 30.719,93.132 77.008,99.353 78.264,143.143 
																			"/>
								</defs>
								<clipPath id="SVGID_8_">
									<use xlink:href="#SVGID_7_"  overflow="visible"/>
								</clipPath>
								<g clip-path="url(#SVGID_8_)">
									<g>
										<g>
											<g>
												<path fill="#FFFFFF" d="M54.102,96.275c-0.327-0.044-0.654-0.082-0.983-0.113c-12.767-1.221-22.507,7.632-21.746,19.773
													c0.734,11.824,11.166,22.407,23.523,24.067c0.321,0.043,0.645,0.08,0.968,0.111
													c12.767,1.213,22.499-7.633,21.746-19.773C76.869,108.52,66.444,97.933,54.102,96.275"/>
											</g>
										</g>
									</g>
								</g>
							</g>
						</g>
					</g>
					<path fill="#F6484B" d="M40.562,116.982c0,1.199-0.972,2.17-2.171,2.17l0,0c-1.199,0-2.17-0.971-2.17-2.17l0,0
						c0-1.198,0.971-2.171,2.17-2.171l0,0C39.59,114.811,40.562,115.784,40.562,116.982L40.562,116.982z"/>
					<path fill="#F6484B" d="M70.157,119.152c0,1.2-0.973,2.171-2.172,2.171l0,0c-1.199,0-2.17-0.971-2.17-2.171l0,0
						c0-1.198,0.971-2.17,2.17-2.17l0,0C69.184,116.982,70.157,117.954,70.157,119.152L70.157,119.152z"/>
					<g>
						<path fill="#F6484B" d="M51.731,128.222c-3.663,0-5.229-3.196-5.47-6.187l-0.059-0.725l10.419,0.828l-0.004,0.574
							c-0.006,1.713-0.854,5.057-4.02,5.453C52.302,128.204,52.01,128.222,51.731,128.222z M47.584,122.662
							c0.262,1.571,1.148,4.325,4.146,4.325c0.229,0,0.468-0.017,0.712-0.047c2.229-0.278,2.769-2.568,2.899-3.662L47.584,122.662z"
							/>
						<path fill="#F6484B" d="M51.583,128.119c-1.287,0-3.133-0.616-4.601-3.555l-0.032-0.085c-0.155-0.568-0.249-1.158,0.1-1.625
							c0.453-0.606,1.479-0.74,3.336-0.787c4.115-0.098,4.857,0.697,5.216,2.763c0.087,0.504-0.133,1.101-0.622,1.683
							C54.326,127.29,53.088,128.119,51.583,128.119z M47.832,124.192c0.992,1.963,2.288,2.999,3.751,2.999
							c1.189,0,2.191-0.687,2.688-1.276c0.354-0.422,0.447-0.762,0.418-0.927c-0.225-1.29-0.348-2.001-3.666-2.001
							c-0.195,0-0.4,0.002-0.613,0.008c-0.703,0.017-2.352,0.057-2.615,0.413C47.709,123.519,47.723,123.775,47.832,124.192z"/>
						<g>
							<path fill="#FFFFFF" d="M47.44,122.413l7.75,0.501c0,0-0.046,1.442-2.993,1.483C48.121,124.457,47.52,122.846,47.44,122.413z
								"/>
							<path fill="#F6484B" d="M51.98,124.863c-4.23,0-4.894-1.812-4.995-2.365l-0.107-0.585l8.79,0.566l-0.014,0.448
								c-0.003,0.077-0.101,1.886-3.45,1.933L51.98,124.863z M48.25,122.93c0.449,0.457,1.463,1.006,3.729,1.006l0.211-0.002
								c1.248-0.018,1.929-0.307,2.264-0.604L48.25,122.93z"/>
						</g>
					</g>
					<g>
						
							<ellipse transform="matrix(0.9559 -0.2936 0.2936 0.9559 -32.4957 16.6523)" fill="#FFFFFF" cx="39.22" cy="116.568" rx="0.845" ry="0.653"/>
						<path fill="#F6484B" d="M39.1,117.548c-0.477,0-0.861-0.251-0.982-0.642c-0.154-0.508,0.213-1.071,0.82-1.258
							c0.603-0.185,1.23,0.08,1.385,0.58c0.068,0.216,0.043,0.452-0.071,0.668c-0.146,0.273-0.419,0.488-0.747,0.59
							C39.372,117.528,39.235,117.548,39.1,117.548z M39.341,116.207c-0.073,0-0.147,0.012-0.222,0.033
							c-0.301,0.093-0.459,0.33-0.41,0.487c0.051,0.166,0.341,0.254,0.612,0.17c0.173-0.053,0.315-0.162,0.383-0.289
							c0.026-0.049,0.052-0.123,0.028-0.197C39.695,116.288,39.538,116.207,39.341,116.207z"/>
					</g>
					<g>
						
							<ellipse transform="matrix(0.9559 -0.2938 0.2938 0.9559 -31.8653 25.457)" fill="#FFFFFF" cx="68.814" cy="118.809" rx="0.844" ry="0.652"/>
						<path fill="#F6484B" d="M68.696,119.791c-0.479,0-0.865-0.254-0.984-0.643c-0.155-0.508,0.213-1.071,0.82-1.259
							c0.604-0.184,1.232,0.08,1.385,0.58c0.066,0.217,0.041,0.453-0.072,0.669c-0.145,0.274-0.418,0.489-0.748,0.589
							C68.965,119.768,68.829,119.791,68.696,119.791z M68.936,118.447c-0.074,0-0.148,0.011-0.223,0.034
							c-0.303,0.093-0.459,0.33-0.41,0.485c0.051,0.167,0.338,0.255,0.612,0.171c0.172-0.054,0.314-0.161,0.383-0.288
							c0.026-0.05,0.051-0.122,0.028-0.198C69.289,118.529,69.131,118.447,68.936,118.447z"/>
					</g>
				</g>
				<g>
					<path fill="#F6484B" d="M51.784,120.792c0,0-2.783-2.883-5.976,0c-3.193,2.886-3.503,2.104-4.12,1.619
						c-0.618-0.484,0.824,3.636,4.43,2.296c3.605-1.338,5.047-2.738,5.666-2.296C52.401,122.852,51.784,120.792,51.784,120.792z"/>
					<path fill="#F6484B" d="M51.096,120.792c0,0,2.782-2.883,5.974,0c3.194,2.886,3.503,2.104,4.121,1.619
						s-0.823,3.636-4.429,2.296c-3.605-1.338-5.049-2.738-5.666-2.296C50.479,122.852,51.096,120.792,51.096,120.792z"/>
				</g>
			</g>
			<g>
				<g>
					<g>
						<path fill="#F6484B" d="M98.909,153.305c0,0-1.084-4.703-5.426-5.788s-2.894,7.009-2.17,9.111
							c0.723,2.104,3.979,6.083,7.596,4.997c3.619-1.086,14.833-14.207,14.833-14.207l-6.239-9.307L98.909,153.305z"/>
						<path fill="#F6484B" d="M127.418,157.181c0,0-1.085-4.703-5.426-5.788c-4.342-1.086-2.895,7.01-2.171,9.111
							c0.724,2.104,3.979,6.082,7.597,4.997c3.618-1.085,14.832-14.208,14.832-14.208l-6.24-9.307L127.418,157.181z"/>
						<g>
							<path fill="#F6484B" d="M170.834,81.597l-27.508,19.146l2.07,47.539c0.057,1.263-0.487,2.328-1.363,2.939
								c9.17-6.382,18.34-12.765,27.51-19.147c0.875-0.609,1.42-1.677,1.363-2.938L170.834,81.597z"/>
						</g>
						<g>
							<path fill="#F6484B" d="M121.68,73.078c-0.799-0.075-1.529,0.128-2.112,0.533c-9.17,6.383-18.339,12.764-27.509,19.146
								c0.582-0.406,1.313-0.61,2.112-0.532l45.339,4.348l27.51-19.146L121.68,73.078z"/>
						</g>
						<g>
							<g>
								<g>
									<path fill="#F6484B" d="M139.51,96.573c2.005,0.191,3.723,2.068,3.816,4.17l2.07,47.539
										c0.093,2.103-1.477,3.664-3.482,3.472l-45.338-4.348c-2.001-0.192-3.719-2.068-3.811-4.171l-2.073-47.538
										c-0.089-2.104,1.478-3.664,3.479-3.472L139.51,96.573z"/>
								</g>
							</g>
						</g>
						<g>
							<g>
								<g>
									<path fill="#F6484B" d="M139.51,96.573l27.51-19.146c2.004,0.191,3.723,2.066,3.814,4.17l-27.508,19.146
										C143.233,98.641,141.515,96.764,139.51,96.573z"/>
								</g>
							</g>
						</g>
						<g>
							<g>
								<g enable-background="new    ">
									<defs>
										<polygon id="SVGID_9_" enable-background="new    " points="95.695,143.015 94.438,99.225 140.728,105.447 
											141.985,149.237 										"/>
									</defs>
									<clipPath id="SVGID_10_">
										<use xlink:href="#SVGID_9_"  overflow="visible"/>
									</clipPath>
									<g clip-path="url(#SVGID_10_)">
										<g>
											<g>
												<g>
													<path fill="#FFFFFF" d="M117.815,102.368c-0.321-0.043-0.645-0.08-0.968-0.111
														c-12.768-1.221-22.508,7.632-21.755,19.771c0.742,11.825,11.175,22.408,23.524,24.067
														c0.32,0.044,0.644,0.08,0.968,0.112c12.767,1.212,22.507-7.633,21.746-19.773
														C140.596,114.61,130.164,104.026,117.815,102.368"/>
												</g>
											</g>
										</g>
									</g>
								</g>
							</g>
						</g>
						<path fill="#F6484B" d="M104.287,123.075c0,1.199-0.973,2.17-2.171,2.17l0,0c-1.199,0-2.171-0.971-2.171-2.17l0,0
							c0-1.197,0.972-2.171,2.171-2.171l0,0C103.314,120.904,104.287,121.877,104.287,123.075L104.287,123.075z"/>
						<path fill="#F6484B" d="M133.879,125.245c0,1.199-0.971,2.172-2.17,2.172l0,0c-1.199,0-2.172-0.973-2.172-2.172l0,0
							c0-1.197,0.973-2.17,2.172-2.17l0,0C132.909,123.075,133.879,124.047,133.879,125.245L133.879,125.245z"/>
						<g>
							<path fill="#F6484B" d="M115.456,134.315c-3.663,0-5.227-3.196-5.469-6.187l-0.06-0.725l10.418,0.828l-0.001,0.574
								c-0.008,1.713-0.855,5.057-4.021,5.453C116.026,134.297,115.735,134.315,115.456,134.315z M111.309,128.754
								c0.262,1.571,1.149,4.325,4.146,4.325c0.229,0,0.468-0.017,0.713-0.048c2.205-0.275,2.756-2.571,2.894-3.661L111.309,128.754
								z"/>
							<path fill="#F6484B" d="M115.305,134.211c-1.287,0-3.132-0.616-4.6-3.555l-0.031-0.086c-0.155-0.567-0.248-1.157,0.1-1.624
								c0.452-0.606,1.479-0.741,3.336-0.786c4.104-0.102,4.857,0.696,5.217,2.761c0.088,0.504-0.135,1.102-0.623,1.684
								C118.05,133.381,116.815,134.211,115.305,134.211z M111.556,130.285c0.991,1.962,2.287,2.999,3.749,2.999
								c1.192,0,2.193-0.688,2.689-1.276c0.354-0.421,0.445-0.763,0.418-0.927c-0.225-1.291-0.348-2-3.668-2
								c-0.193,0-0.396,0.001-0.611,0.008c-0.705,0.016-2.352,0.057-2.616,0.412C111.434,129.612,111.448,129.868,111.556,130.285z"
								/>
							<g>
								<path fill="#FFFFFF" d="M111.165,128.506l7.749,0.499c0,0-0.046,1.442-2.992,1.485
									C111.844,130.549,111.246,128.939,111.165,128.506z"/>
								<path fill="#F6484B" d="M115.705,130.956c-4.229,0-4.894-1.81-4.995-2.365l-0.109-0.585l8.792,0.567l-0.015,0.447
									c-0.003,0.078-0.098,1.887-3.449,1.934L115.705,130.956z M111.975,129.022c0.452,0.46,1.464,1.006,3.729,1.006l0.21-0.002
									c1.248-0.018,1.93-0.306,2.264-0.603L111.975,129.022z"/>
							</g>
						</g>
						<g>
							<path fill="#F6484B" d="M164.904,145.618c-0.518-2.076-1.755-8.121-3.001-11.921c-2.623-8.003-8.139-18.827-2.682-20.771
								c7.421-2.641,11.613,24.19,11.613,24.19s2.076,12.867,2.076,16.72c0,5.174-5.228,7.6-7.028,1.957
								C164.022,149.959,166.842,153.395,164.904,145.618z"/>
							<path fill="#FFFFFF" d="M169.166,159.65c-1.716,0-3.128-1.338-3.872-3.669c-0.885-2.773-0.777-3.592-0.496-4.609
								c0.213-0.765,0.475-1.715-0.494-5.604c-0.133-0.538-0.316-1.342-0.533-2.305c-0.614-2.699-1.539-6.782-2.454-9.573
								c-0.505-1.54-1.105-3.153-1.742-4.861c-2.106-5.656-4.284-11.505-2.804-14.677c0.447-0.961,1.202-1.637,2.244-2.008
								c0.407-0.145,0.821-0.218,1.23-0.218c7.105,0,10.803,22.348,11.2,24.896c0.085,0.524,2.083,12.957,2.083,16.815
								C173.528,157.427,171.263,159.65,169.166,159.65z M160.245,113.361c-0.268,0-0.542,0.05-0.816,0.147
								c-0.729,0.259-1.232,0.706-1.539,1.365c-1.26,2.703,0.92,8.557,2.844,13.724c0.613,1.644,1.246,3.345,1.758,4.907
								c0.933,2.846,1.867,6.961,2.484,9.684c0.215,0.953,0.396,1.748,0.528,2.281c1.048,4.203,0.749,5.281,0.485,6.231
								c-0.198,0.716-0.354,1.282,0.482,3.904c0.569,1.786,1.553,2.81,2.694,2.81c1.511,0,3.127-1.84,3.127-4.578
								c0-3.76-2.048-16.493-2.069-16.621C169.186,130.579,165.372,113.361,160.245,113.361z"/>
						</g>
						<g>
							
								<ellipse transform="matrix(0.9559 -0.2936 0.2936 0.9559 -31.4761 35.6302)" fill="#FFFFFF" cx="102.945" cy="122.661" rx="0.845" ry="0.653"/>
							<path fill="#F6484B" d="M102.825,123.641c-0.477,0-0.863-0.252-0.982-0.643c-0.155-0.506,0.213-1.07,0.82-1.256
								c0.604-0.188,1.232,0.08,1.386,0.579c0.065,0.215,0.04,0.453-0.073,0.668c-0.146,0.273-0.418,0.489-0.748,0.591
								C103.094,123.622,102.959,123.641,102.825,123.641z M103.065,122.299c-0.072,0-0.147,0.011-0.222,0.033
								c-0.302,0.093-0.458,0.331-0.409,0.485c0.051,0.169,0.34,0.255,0.612,0.172c0.171-0.054,0.313-0.161,0.382-0.289
								c0.025-0.048,0.051-0.122,0.029-0.197C103.419,122.381,103.262,122.299,103.065,122.299z"/>
						</g>
						<g>
							
								<ellipse transform="matrix(0.956 -0.2933 0.2933 0.956 -30.8025 44.3626)" fill="#FFFFFF" cx="132.54" cy="124.902" rx="0.846" ry="0.653"/>
							<path fill="#F6484B" d="M132.419,125.882c-0.478,0-0.862-0.253-0.983-0.642c-0.156-0.507,0.211-1.072,0.82-1.258
								c0.602-0.187,1.23,0.08,1.385,0.58c0.066,0.215,0.041,0.452-0.072,0.667c-0.145,0.274-0.418,0.489-0.748,0.591
								C132.689,125.862,132.554,125.882,132.419,125.882z M132.659,124.54c-0.072,0-0.146,0.011-0.222,0.033
								c-0.302,0.093-0.457,0.331-0.411,0.486c0.053,0.168,0.343,0.256,0.614,0.171c0.171-0.052,0.314-0.161,0.382-0.289
								c0.025-0.048,0.053-0.123,0.029-0.196C133.013,124.622,132.856,124.54,132.659,124.54z"/>
						</g>
					</g>
					<ellipse fill="#F6484B" cx="132.727" cy="129.751" rx="3.189" ry="1.136"/>
					<ellipse fill="#F6484B" cx="101.439" cy="128.514" rx="3.188" ry="1.137"/>
				</g>
				<g>
					<path fill="#F6484B" d="M101.038,120.956c0.228,0.195,0.256,0.537,0.061,0.765l0,0c-0.193,0.227-0.535,0.255-0.763,0.061
						l-1.09-0.93c-0.228-0.193-0.255-0.535-0.061-0.763l0,0c0.194-0.228,0.536-0.256,0.764-0.061L101.038,120.956z"/>
					<path fill="#F6484B" d="M130.902,123.274c0.228,0.194,0.255,0.537,0.062,0.764l0,0c-0.195,0.228-0.536,0.254-0.763,0.061
						l-1.092-0.93c-0.226-0.193-0.253-0.534-0.06-0.763l0,0c0.193-0.227,0.535-0.255,0.764-0.062L130.902,123.274z"/>
				</g>
			</g>
			<g>
				<g>
					<path fill="#F6484B" d="M70.502,95.063c0,0-0.996-4.326-4.99-5.324c-3.994-0.999-2.664,6.448-1.997,8.383
						c0.665,1.934,3.661,5.594,6.987,4.596c3.328-0.998,13.645-13.07,13.645-13.07l-5.739-8.561L70.502,95.063z"/>
					<path fill="#FFFFFF" d="M69.358,103.504c-3.242,0-5.824-3.431-6.427-5.183c-0.519-1.501-1.484-6.262-0.023-8.312
						c0.608-0.853,1.575-1.166,2.753-0.871c2.876,0.719,4.316,2.965,4.972,4.439l7.731-13.669l6.557,9.783l-0.303,0.356
						c-1.068,1.25-10.533,12.238-13.938,13.26C70.249,103.439,69.804,103.504,69.358,103.504z M64.825,90.264
						c-0.396,0-0.686,0.147-0.91,0.464c-1.001,1.401-0.403,5.486,0.184,7.192c0.538,1.561,2.754,4.35,5.26,4.35
						c0.326,0,0.65-0.049,0.968-0.145c2.499-0.75,9.983-8.975,13.046-12.524l-4.92-7.338l-8.192,14.488l-0.358-1.549
						c-0.01-0.038-0.973-3.973-4.54-4.864C65.167,90.29,64.987,90.264,64.825,90.264z"/>
				</g>
				<g>
					<path fill="#F6484B" d="M96.729,98.629c0,0-0.998-4.327-4.992-5.324c-3.992-1-2.662,6.447-1.996,8.381
						c0.665,1.936,3.66,5.596,6.988,4.598c3.328-0.999,13.644-13.071,13.644-13.071l-5.739-8.561L96.729,98.629z"/>
					<path fill="#FFFFFF" d="M95.583,107.07c-3.241,0-5.825-3.432-6.428-5.183c-0.517-1.503-1.484-6.263-0.021-8.312
						c0.607-0.854,1.573-1.165,2.752-0.87c2.874,0.717,4.314,2.964,4.972,4.439l7.73-13.67l6.558,9.782l-0.305,0.357
						c-1.067,1.249-10.531,12.238-13.937,13.26C96.473,107.005,96.029,107.07,95.583,107.07z M91.051,93.83
						c-0.396,0-0.687,0.149-0.912,0.464c-0.998,1.401-0.402,5.486,0.186,7.191c0.537,1.561,2.754,4.35,5.259,4.35
						c0.325,0,0.65-0.048,0.968-0.143c2.499-0.751,9.984-8.977,13.046-12.525l-4.919-7.338l-8.194,14.489l-0.356-1.55
						c-0.01-0.038-0.973-3.973-4.54-4.863C91.393,93.855,91.213,93.83,91.051,93.83z"/>
				</g>
				<g>
					<path fill="#F6484B" d="M69.979,51.93c0,0-25.512,26.438-22.055,32.803c3.458,6.369,9.703-5.763,10.656-6.99
						c1.561-2.01,9.324-15.559,12.875-17.887"/>
					<path fill="#FFFFFF" d="M50.34,87.19c-0.024,0-0.047-0.001-0.072-0.001c-1.152-0.03-2.125-0.757-2.887-2.159
						c-3.57-6.576,19.51-30.789,22.152-33.529l0.891,0.859c-7.01,7.262-24.616,27.184-21.956,32.08
						c0.542,0.999,1.142,1.494,1.833,1.514c0.015,0,0.029,0,0.045,0c2.435,0,5.756-5.404,7.01-7.446
						c0.351-0.568,0.582-0.944,0.736-1.144c0.408-0.525,1.294-1.929,2.414-3.707c3.152-4.998,7.915-12.551,10.611-14.317
						l0.677,1.034c-2.47,1.619-7.336,9.332-10.241,13.941c-1.186,1.878-2.04,3.234-2.484,3.807c-0.113,0.146-0.367,0.558-0.66,1.034
						C56.802,81.77,53.472,87.189,50.34,87.19z"/>
				</g>
				<g>
					<path fill="#F6484B" d="M136.667,29.098c-0.083-1.935-1.665-3.661-3.509-3.837L91.45,21.26
						c-0.734-0.069-1.406,0.118-1.941,0.491C81.071,27.624,72.637,33.493,64.2,39.365c0.012-0.008,0.023-0.013,0.035-0.021
						c-0.826,0.558-1.342,1.548-1.289,2.724L64.85,85.8c0.086,1.934,1.666,3.659,3.506,3.836l41.708,4
						c0.769,0.074,1.464-0.136,2.011-0.54c-0.021,0.016-0.039,0.035-0.063,0.05c8.438-5.87,16.872-11.742,25.308-17.614
						c0.806-0.56,1.305-1.542,1.255-2.702L136.667,29.098z M64.672,39.103c-0.021,0.011-0.043,0.019-0.064,0.028
						C64.629,39.122,64.652,39.114,64.672,39.103z M65.048,38.969 M112.24,92.965c0.034-0.03,0.066-0.059,0.101-0.09
						C112.306,92.907,112.274,92.935,112.24,92.965z M112.496,92.713c0.026-0.028,0.054-0.057,0.079-0.088
						C112.549,92.657,112.522,92.685,112.496,92.713z"/>
					<g>
						<path fill="#FFFFFF" d="M137.115,28.975c-0.747-4.887-6.032-4.377-9.798-4.737c-6.826-0.654-13.651-1.31-20.477-1.964
							c-4.99-0.479-9.983-0.959-14.976-1.437c-0.663-0.063-1.249-0.011-1.901,0.158c-0.963,0.249-1.922,1.212-2.715,1.765
							c-1.688,1.173-3.375,2.349-5.063,3.521c-6.072,4.229-12.146,8.456-18.219,12.683c-0.485,0.336-0.059,1.102,0.468,0.8
							c0.011-0.006,0.022-0.012,0.033-0.019c-0.188-0.243-0.374-0.485-0.562-0.728c-1.896,1.687-1.382,4.074-1.282,6.346
							c0.178,4.072,0.355,8.144,0.532,12.215c0.381,8.725,0.762,17.447,1.142,26.172c0.102,2.33,0.278,5.542,3.167,6.167
							c2.054,0.444,4.211,0.5,6.297,0.7c9.367,0.899,18.737,1.798,28.105,2.696c2.875,0.274,7.732,1.716,10.44,0.184
							c-0.186-0.243-0.374-0.485-0.562-0.729c-0.02,0.017-0.041,0.033-0.061,0.049c-0.41,0.331,0.132,1.028,0.562,0.729
							c5.736-3.991,11.474-7.983,17.208-11.978c2.654-1.848,5.807-3.531,8.192-5.709c0.917-0.836,1.444-1.791,1.388-3.075
							c-0.174-4.009-0.349-8.018-0.523-12.025c-0.461-10.554-0.922-21.107-1.38-31.661c-0.026-0.596-0.954-0.598-0.928,0
							c0.427,9.797,0.854,19.593,1.281,29.39c0.198,4.549,0.396,9.097,0.595,13.646c0.162,3.719-6.432,6.783-9.092,8.635
							c-5.737,3.993-11.473,7.986-17.209,11.979c0.188,0.243,0.375,0.484,0.562,0.727c0.02-0.016,0.041-0.032,0.062-0.049
							c0.422-0.338-0.117-0.979-0.563-0.729c-2.008,1.138-5.525,0.117-7.617-0.083c-4.595-0.44-9.19-0.882-13.785-1.323
							c-7.325-0.701-14.649-1.404-21.975-2.106c-3.764-0.361-3.226-5.157-3.34-7.774c-0.188-4.303-0.375-8.604-0.563-12.907
							c-0.365-8.38-0.73-16.761-1.096-25.142c-0.061-1.39-0.271-2.471,1.096-3.688c0.402-0.357-0.113-0.983-0.563-0.729
							c-0.008,0.007-0.021,0.014-0.031,0.021c0.156,0.267,0.313,0.533,0.468,0.8c5.399-3.757,10.796-7.514,16.196-11.271
							c2.698-1.88,5.398-3.758,8.098-5.637c0.961-0.67,1.943-1.206,3.136-1.092c4.405,0.423,8.811,0.846,13.214,1.268
							c6.289,0.604,12.576,1.206,18.863,1.81c3.59,0.345,11.541-0.437,12.28,4.38C136.311,29.811,137.204,29.56,137.115,28.975z"/>
						<path fill="#FFFFFF" d="M64.44,38.703c-0.022,0.01-0.045,0.02-0.066,0.029c-0.232,0.1-0.281,0.438-0.167,0.634
							c0.14,0.238,0.402,0.266,0.635,0.166c0.022-0.009,0.044-0.019,0.066-0.028c0.233-0.099,0.282-0.437,0.166-0.634
							C64.934,38.631,64.672,38.604,64.44,38.703c-0.022,0.01-0.045,0.02-0.066,0.029c-0.232,0.1-0.281,0.438-0.167,0.634
							c0.14,0.238,0.402,0.266,0.635,0.166c0.022-0.009,0.044-0.019,0.066-0.028c0.233-0.099,0.282-0.437,0.166-0.634
							C64.934,38.631,64.672,38.604,64.44,38.703z"/>
						<path fill="#FFFFFF" d="M65.048,39.434c0.599,0,0.599-0.928,0-0.928C64.451,38.506,64.451,39.434,65.048,39.434L65.048,39.434
							z"/>
						<path fill="#FFFFFF" d="M112.568,93.293c0.034-0.03,0.067-0.06,0.099-0.09c0.439-0.407-0.217-1.061-0.655-0.655
							c-0.031,0.03-0.065,0.061-0.099,0.089C111.462,93.034,112.121,93.686,112.568,93.293c0.034-0.03,0.067-0.06,0.099-0.09
							c-0.219-0.219-0.438-0.438-0.655-0.655c-0.031,0.03-0.065,0.061-0.099,0.089C111.462,93.032,112.121,93.685,112.568,93.293z"
							/>
						<path fill="#FFFFFF" d="M112.823,93.042c0.027-0.027,0.054-0.057,0.08-0.088c0.392-0.447-0.26-1.106-0.656-0.655
							c-0.025,0.03-0.053,0.06-0.08,0.087C111.76,92.823,112.413,93.48,112.823,93.042c0.027-0.027,0.054-0.057,0.08-0.088
							c0.392-0.447-0.26-1.106-0.656-0.655c-0.025,0.03-0.053,0.06-0.08,0.087C111.76,92.823,112.413,93.48,112.823,93.042z"/>
					</g>
				</g>
				<g>
					<g>
						<g enable-background="new    ">
							<defs>
								<polygon id="SVGID_11_" enable-background="new    " points="67.549,85.599 66.394,45.315 108.978,51.038 110.134,91.322 
																	"/>
							</defs>
							<clipPath id="SVGID_12_">
								<use xlink:href="#SVGID_11_"  overflow="visible"/>
							</clipPath>
							<g clip-path="url(#SVGID_12_)">
								<g>
									<g>
										<g>
											<path fill="#FFFFFF" d="M87.902,48.206c-0.299-0.04-0.599-0.075-0.9-0.104c-11.749-1.118-20.707,7.021-20.006,18.189
												c0.676,10.874,10.271,20.613,21.623,22.139c0.299,0.04,0.599,0.075,0.9,0.104c11.749,1.118,20.707-7.021,20.013-18.188
												C108.849,59.471,99.26,49.732,87.902,48.206"/>
										</g>
									</g>
								</g>
							</g>
						</g>
					</g>
				</g>
				<path fill="#F6484B" d="M75.448,67.253c0,1.104-0.893,1.997-1.995,1.997l0,0c-1.103,0-1.997-0.894-1.997-1.997l0,0
					c0-1.102,0.895-1.996,1.997-1.996l0,0C74.555,65.257,75.448,66.152,75.448,67.253L75.448,67.253z"/>
				<path fill="#F6484B" d="M102.672,69.25c0,1.104-0.894,1.997-1.997,1.997l0,0c-1.103,0-1.996-0.894-1.996-1.997l0,0
					c0-1.103,0.894-1.997,1.996-1.997l0,0C101.779,67.253,102.672,68.148,102.672,69.25L102.672,69.25z"/>
				<g>
					<path fill="#F6484B" d="M85.723,77.643c-3.404,0-4.855-2.964-5.08-5.736l-0.059-0.724l9.688,0.771l-0.003,0.572
						c-0.006,1.592-0.794,4.697-3.741,5.066C86.251,77.625,85.983,77.643,85.723,77.643z M81.969,72.534
						c0.25,1.44,1.073,3.873,3.754,3.873c0.208,0,0.427-0.014,0.65-0.042c1.963-0.245,2.478-2.265,2.612-3.274L81.969,72.534z"/>
					<path fill="#F6484B" d="M85.586,77.537c-1.195,0-2.904-0.571-4.265-3.291L81.29,74.16c-0.138-0.505-0.232-1.082,0.097-1.526
						c0.426-0.571,1.378-0.695,3.1-0.739c0.206-0.004,0.4-0.006,0.587-0.006c3.252,0,3.939,0.796,4.248,2.577
						c0.082,0.476-0.125,1.036-0.582,1.579C88.133,76.766,86.987,77.537,85.586,77.537z M82.172,73.874
						c0.905,1.79,2.085,2.735,3.414,2.735c1.084,0,1.994-0.626,2.443-1.161c0.298-0.354,0.404-0.668,0.377-0.822
						c-0.203-1.168-0.313-1.811-3.334-1.811c-0.18,0-0.367,0.002-0.564,0.007c-0.586,0.015-2.145,0.053-2.378,0.366
						C82.063,73.278,82.077,73.509,82.172,73.874z"/>
					<g>
						<path fill="#FFFFFF" d="M81.777,72.25l7.128,0.459c0,0-0.041,1.328-2.753,1.366C82.402,74.129,81.85,72.648,81.777,72.25z"/>
						<path fill="#F6484B" d="M85.952,74.541c-3.916,0-4.535-1.688-4.63-2.205l-0.11-0.587l8.172,0.527l-0.014,0.448
							c-0.002,0.073-0.095,1.771-3.211,1.814L85.952,74.541z M82.621,72.77c0.439,0.398,1.369,0.843,3.331,0.843l0.193-0.001
							c1.057-0.016,1.666-0.242,1.987-0.486L82.621,72.77z"/>
					</g>
				</g>
				<g>
					<path fill="#F6484B" d="M131.212,87.992c-0.478-1.91-1.614-7.47-2.76-10.966c-2.414-7.362-7.487-17.321-2.468-19.107
						c6.826-2.429,10.683,22.253,10.683,22.253s1.911,11.837,1.911,15.381c0,4.761-4.809,6.991-6.467,1.8
						C130.401,91.987,132.995,95.146,131.212,87.992z"/>
					<path fill="#FFFFFF" d="M135.133,100.95c-1.602,0-2.918-1.242-3.609-3.41c-0.819-2.564-0.719-3.322-0.457-4.268
						c0.193-0.697,0.434-1.565-0.455-5.131c-0.123-0.494-0.289-1.234-0.49-2.117c-0.563-2.484-1.415-6.238-2.258-8.806
						c-0.463-1.415-1.015-2.899-1.6-4.471c-1.941-5.212-3.949-10.603-2.58-13.539c0.418-0.897,1.122-1.528,2.094-1.874
						c0.381-0.135,0.767-0.203,1.148-0.203c6.577,0,9.986,20.596,10.354,22.944c0.076,0.482,1.916,11.924,1.916,15.477
						C139.196,98.885,137.086,100.95,135.133,100.95z M126.926,58.368c-0.24,0-0.486,0.044-0.734,0.133
						c-0.656,0.233-1.111,0.635-1.388,1.23c-1.149,2.467,0.851,7.843,2.617,12.585c0.563,1.514,1.147,3.079,1.618,4.517
						c0.859,2.622,1.719,6.411,2.287,8.918c0.198,0.873,0.365,1.603,0.485,2.092c0.966,3.881,0.69,4.878,0.446,5.759
						c-0.18,0.65-0.322,1.163,0.443,3.563c0.518,1.621,1.402,2.549,2.432,2.549c1.365,0,2.827-1.672,2.827-4.161
						c0-3.454-1.882-15.165-1.902-15.283C135.105,74.175,131.609,58.368,126.926,58.368z"/>
				</g>
				<g>
					<path fill="#FFFFFF" d="M74.958,66.645c0.099,0.316-0.155,0.677-0.564,0.802c-0.412,0.127-0.823-0.029-0.922-0.346
						c-0.096-0.316,0.158-0.676,0.566-0.801C74.45,66.173,74.86,66.329,74.958,66.645z"/>
					<path fill="#F6484B" d="M74.104,67.8c-0.45,0-0.814-0.239-0.928-0.608c-0.146-0.479,0.199-1.011,0.771-1.188
						c0.569-0.176,1.16,0.077,1.305,0.551c0.064,0.203,0.04,0.429-0.068,0.632c-0.135,0.257-0.391,0.46-0.702,0.556
						C74.358,67.78,74.231,67.8,74.104,67.8z M74.327,66.565c-0.065,0-0.132,0.009-0.198,0.031c-0.262,0.08-0.4,0.282-0.36,0.414
						c0.043,0.141,0.299,0.213,0.533,0.142c0.152-0.047,0.279-0.142,0.338-0.254c0.021-0.041,0.043-0.102,0.023-0.162
						C74.631,66.635,74.493,66.565,74.327,66.565z"/>
				</g>
				<g>
					
						<ellipse transform="matrix(0.956 -0.2933 0.2933 0.956 -15.7586 32.7881)" fill="#FFFFFF" cx="101.439" cy="68.935" rx="0.777" ry="0.6"/>
					<path fill="#F6484B" d="M101.33,69.861c-0.45,0-0.815-0.239-0.929-0.607c-0.063-0.206-0.039-0.43,0.069-0.633
						c0.137-0.259,0.392-0.46,0.702-0.556c0.566-0.172,1.158,0.076,1.306,0.551c0.147,0.479-0.199,1.012-0.772,1.188
						C101.583,69.841,101.456,69.861,101.33,69.861z M101.551,68.625c-0.065,0-0.133,0.011-0.197,0.031
						c-0.152,0.045-0.277,0.141-0.338,0.253c-0.021,0.041-0.043,0.102-0.023,0.163c0.043,0.138,0.297,0.215,0.532,0.14
						c0.265-0.081,0.401-0.284,0.362-0.416C101.856,68.696,101.717,68.625,101.551,68.625z"/>
				</g>
			</g>
		</g>
	</g>
</g>
<g id="圖層_7">
	<g>
		<g>
			<g>
				<path fill="#F6484B" d="M74.37,88.258c0,0-47.719-25.669-55.379-18.219c-7.66,7.451,12.057,11.474,14.183,12.339
					c3.476,1.414,25.811,7.027,30.532,11.142"/>
				<path fill="#FFFFFF" d="M62.981,94.352c-3.253-2.833-16.119-6.654-23.808-8.937c-3.146-0.934-5.419-1.607-6.417-2.014
					c-0.244-0.1-0.924-0.293-1.713-0.518c-7.074-2.012-13.765-4.433-14.789-8.491c-0.435-1.722,0.228-3.453,1.967-5.145
					c3.575-3.479,13.967-1.486,31.765,6.092c12.786,5.442,24.788,11.882,24.907,11.945l-1.047,1.946
					c-18.174-9.775-48.928-23.418-54.084-18.399c-1.709,1.66-1.45,2.684-1.366,3.021c0.854,3.382,9.861,5.943,13.253,6.906
					c0.954,0.271,1.583,0.451,1.94,0.597c0.897,0.364,3.243,1.061,6.212,1.942c8.369,2.484,21.016,6.239,24.631,9.389L62.981,94.352
					z"/>
			</g>
			<g>
				<path fill="#FFFFFF" d="M51.186,91.422c-0.987,10.483-4.475,12.69-6.77,12.475c-2.295-0.217-6.412-2.222-5.424-12.706
					c0.987-10.482,6.791-26.373,9.086-26.156C50.374,65.25,52.174,80.939,51.186,91.422z"/>
				<g>
					<g>
						<path fill="#FFFFFF" d="M48.944,55.857c0,0,14.64,14.226-0.982,46.354"/>
						<path fill="#F6484B" d="M47.858,103.31c-0.128-0.012-0.256-0.046-0.378-0.105c-0.549-0.267-0.778-0.928-0.511-1.477
							c15.097-31.051,1.346-44.942,1.205-45.079c-0.438-0.425-0.449-1.124-0.023-1.561c0.426-0.438,1.127-0.447,1.562-0.022
							c0.621,0.603,15.032,15.154-0.757,47.628C48.749,103.12,48.303,103.353,47.858,103.31z"/>
					</g>
					<g>
						<g>
							<path fill="#FFFFFF" d="M48.944,55.857l-17.775,20.86c0,0-16.389,19.585-14.54,30.487
								c1.849,10.903,2.009,22.944,4.415,31.763c1.504,5.513,1.291,10.852,3.736,16.399c0.631,0.252,1.265,0.502,1.904,0.744
								c1.663,0.629,3.333,1.201,5.042,1.671c0.62,0.125,2.249,0.484,2.548,0.539c0.918,0.17,1.837,0.329,2.758,0.479
								c7.381,1.153,15.05,2.251,22.566,2.224c0.66-0.059,3.507-0.204,4.207-0.287c1.903-0.226,3.806-0.479,5.688-0.842
								c1.896-0.366,3.79-0.761,5.656-1.264c0.594-0.155,1.185-0.323,1.774-0.492c0.061-0.021,0.122-0.045,0.183-0.066
								c-11.07-17.242-30.826-27.45-30.826-27.45c5.988-3.899,4.494-31.215,1.682-28.411c-2.449,2.446-5.145,1.531-5.145,1.531"/>
							<path fill="#F6484B" d="M50.243,161.665c-4.529-0.427-9.037-1.096-13.381-1.774c-0.936-0.151-1.862-0.311-2.789-0.483
								c-0.158-0.029-0.715-0.148-1.292-0.272c-0.485-0.104-0.988-0.213-1.274-0.271c-0.023-0.005-0.048-0.011-0.073-0.017
								c-1.581-0.435-3.214-0.977-5.14-1.704c-0.646-0.243-1.285-0.497-1.925-0.751c-0.269-0.107-0.484-0.315-0.601-0.58
								c-1.545-3.51-2.07-6.94-2.576-10.257c-0.315-2.064-0.642-4.199-1.214-6.298c-1.438-5.271-2.074-11.545-2.747-18.186
								c-0.461-4.535-0.936-9.226-1.691-13.682c-1.911-11.277,14.1-30.565,14.783-31.382l17.78-20.868
								c0.395-0.463,1.093-0.521,1.557-0.123c0.464,0.396,0.52,1.092,0.124,1.557L32.008,77.433
								c-0.152,0.186-16.032,19.312-14.291,29.587c0.768,4.53,1.246,9.257,1.711,13.829c0.663,6.547,1.291,12.731,2.681,17.827
								c0.606,2.221,0.942,4.419,1.267,6.546c0.485,3.181,0.946,6.192,2.236,9.288c0.485,0.191,0.973,0.382,1.463,0.567
								c1.845,0.697,3.405,1.215,4.909,1.63c0.296,0.06,0.787,0.166,1.26,0.268c0.548,0.117,1.072,0.23,1.228,0.259
								c0.914,0.17,1.825,0.328,2.737,0.475c7.23,1.131,14.915,2.233,22.34,2.21c0.291-0.023,0.885-0.06,1.544-0.1
								c0.978-0.06,2.193-0.134,2.583-0.181c1.668-0.196,3.638-0.45,5.608-0.829c1.67-0.321,3.641-0.722,5.576-1.245
								c0.168-0.043,0.334-0.088,0.5-0.133c-10.91-16.045-29.398-25.729-29.588-25.828c-0.349-0.181-0.576-0.534-0.596-0.926
								c-0.02-0.393,0.171-0.766,0.5-0.981c1.465-0.954,2.642-4.205,3.229-8.924c0.909-7.312,0.165-15.118-0.684-17.304
								c-2.757,2.3-5.632,1.363-5.761,1.32c-0.578-0.195-0.887-0.823-0.689-1.401c0.194-0.577,0.814-0.888,1.398-0.69
								c0.072,0.023,2.106,0.635,4.012-1.268c0.482-0.481,1.091-0.644,1.672-0.441c0.812,0.28,1.718,1.193,2.29,5.842
								c0.79,6.412,0.573,18.919-3.02,23.541c4.687,2.639,20.35,12.213,29.911,27.104c0.182,0.284,0.225,0.635,0.115,0.955
								c-0.109,0.318-0.358,0.57-0.676,0.684l-0.184,0.066c-0.661,0.192-1.261,0.362-1.863,0.521
								c-1.999,0.538-4.017,0.948-5.727,1.277c-2.039,0.394-4.059,0.652-5.767,0.854c-0.452,0.054-1.599,0.124-2.707,0.191
								c-0.673,0.041-1.274,0.077-1.534,0.101c-0.03,0.002-0.061,0.003-0.093,0.004C56.5,162.138,53.366,161.958,50.243,161.665z"/>
						</g>
						<g>
							<path fill="#FFFFFF" d="M32.242,75.991c0,0,5.725-17.435,13.118-22.345s2.129,22.777,0.557,24.523
								C44.345,79.916,38,81.318,32.242,75.991z"/>
							<path fill="#F6484B" d="M39.937,80.791c-2.099-0.197-5.268-1.05-8.445-3.989c-0.316-0.293-0.435-0.744-0.3-1.154
								c0.24-0.728,5.933-17.856,13.558-22.921c0.86-0.571,1.673-0.826,2.418-0.756c0.759,0.072,1.8,0.506,2.448,2.169
								c2.17,5.565-1.351,23.073-2.879,24.77C45.696,80.066,43.188,81.097,39.937,80.791z M33.526,75.653
								c2.535,2.14,4.975,2.784,6.618,2.938c2.624,0.247,4.429-0.58,4.952-1.16c0.947-1.368,4.453-18.214,2.381-22.682
								c-0.119-0.254-0.303-0.561-0.517-0.58c-0.103-0.01-0.406,0.01-0.989,0.396C39.788,58.673,34.665,72.42,33.526,75.653z"/>
						</g>
					</g>
				</g>
			</g>
			<path fill="#F6484B" d="M93.321,142.047c0,0-0.867-6.491-6.594-8.51c-5.725-2.019-4.801,9.1-4.091,12.031
				c0.71,2.933,4.602,8.723,9.626,7.717c5.025-1.006,21.843-17.304,21.843-17.304l-7.244-13.364L93.321,142.047z"/>
			<path fill="#F6484B" d="M48.749,129.907c0,0,1.838-6.285-2.578-10.451s-8.077,6.372-8.616,9.341
				c-0.54,2.969,0.671,9.839,5.671,10.954c5.002,1.12,34.146-13.51,34.146-13.51l-8.366-8.606L48.749,129.907z"/>
			<g>
				<path fill="#F6484B" d="M151.489,63.025c0.031-0.333,0.08-0.662,0.141-0.984c-0.426-0.006-0.852-0.022-1.28-0.063
					c-3.577-0.338-6.792-1.883-9.282-4.189L124.555,68.08l-3.25,64.477c-0.086,1.713-0.957,3.084-2.217,3.797l38.129-22.5
					c1.26-0.712,2.13-2.084,2.217-3.795l1.72-34.111C155.225,74.774,150.912,69.15,151.489,63.025z"/>
			</g>
			<g>
				<path fill="#F6484B" d="M137.341,45.397c-0.799,0.094-1.614,0.114-2.441,0.037c-6.37-0.601-11.208-6.3-10.858-12.642
					l-25.202-4.836c-1.069-0.205-2.082-0.023-2.921,0.451C82.72,35.862,69.522,43.314,56.324,50.767
					c0.838-0.474,1.851-0.654,2.921-0.449l60.688,11.643l16.899-10.509C136.116,49.511,137.237,47.553,137.341,45.397z"/>
			</g>
			<g>
				<g>
					<g>
						<path fill="#F6484B" d="M119.932,61.96c2.685,0.516,4.768,3.268,4.623,6.119l-3.25,64.477
							c-0.145,2.853-2.463,4.762-5.146,4.247L55.472,125.16c-2.68-0.515-4.762-3.268-4.617-6.117l3.25-64.479
							c0.146-2.852,2.463-4.762,5.14-4.246L119.932,61.96z"/>
					</g>
				</g>
			</g>
			<g>
				<g>
					<g>
						<path fill="#F6484B" d="M136.832,51.452L119.932,61.96c2.685,0.516,4.768,3.268,4.623,6.119l16.512-10.291
							C139.187,56.046,137.723,53.872,136.832,51.452z"/>
					</g>
				</g>
			</g>
			<g>
				<g>
					<g enable-background="new    ">
						<defs>
							<polygon id="SVGID_13_" enable-background="new    " points="57.129,122.111 55.424,62.676 118.162,71.109 119.867,130.543 
															"/>
						</defs>
						<clipPath id="SVGID_14_">
							<use xlink:href="#SVGID_13_"  overflow="visible"/>
						</clipPath>
						<g clip-path="url(#SVGID_14_)">
							<g>
								<g>
									<g>
										<path fill="#FFFFFF" d="M86.303,66.827c-16.41-2.206-29.69,8.027-30.082,23.623
											c-0.406,16.259,13.331,32.192,30.694,35.601c0.698,0.137,1.393,0.251,2.081,0.344
											c16.409,2.206,29.683-8.027,30.074-23.624c0.406-16.259-13.331-32.201-30.686-35.6
											C87.686,67.034,86.992,66.919,86.303,66.827"/>
									</g>
								</g>
							</g>
						</g>
					</g>
				</g>
			</g>
			<path fill="#FFFFFF" d="M127.643,52.349l-0.322-0.098c-3.93-1.195-6.415-3.28-7.387-6.196
				c-2.016-6.052,3.288-13.389,3.516-13.697l1.188,0.87c-0.051,0.069-5.083,7.038-3.305,12.365c0.787,2.359,2.838,4.091,6.1,5.149
				l9.518-5.97l0.783,1.248L127.643,52.349z"/>
			<path fill="#FFFFFF" d="M138.09,73.247l-0.314-0.054c-7.777-1.323-8.223-4.495-8.616-7.293c-0.046-0.325-0.089-0.651-0.147-0.977
				c-0.606-3.406-2.632-5.689-3.02-5.922c-1.771-0.857-2.694-1.949-2.732-3.239c-0.072-2.558,3.508-4.631,3.917-4.858l0.718,1.285
				c-0.834,0.467-3.204,2.118-3.163,3.531c0.021,0.697,0.666,1.357,1.916,1.964c0.774,0.376,3.122,3.092,3.813,6.981
				c0.061,0.344,0.109,0.688,0.156,1.03c0.363,2.589,0.678,4.832,7.092,5.991l13.475-10.233l0.89,1.173L138.09,73.247z"/>
			<path fill="#FFFFFF" d="M145.775,82.925c-1.94-0.183-3.596-0.836-4.946-1.961c-3.629-3.02-3.666-8.275-3.666-8.498l1.473,0.002
				c0,0.047,0.045,4.801,3.142,7.37c1.85,1.533,4.449,2.013,7.731,1.423l11.301-5.967l0.688,1.303l-11.611,6.092
				C148.4,82.965,147.029,83.044,145.775,82.925z"/>
			<g>
				<path fill="#F6484B" d="M105.127,112.117c2.211-1.507,8.794-5.579,12.67-8.689c8.165-6.553,18.107-17.739,23.502-12.131
					c7.335,7.625-22.615,24.155-22.615,24.155s-14.326,8.007-18.964,9.67c-6.229,2.232-12.077-2.896-6.292-7.459
					C99.404,112.949,96.85,117.761,105.127,112.117z"/>
				<path fill="#FFFFFF" d="M95.859,126.358c-2.683-0.253-4.795-1.7-5.381-3.687c-0.324-1.098-0.431-3.281,2.494-5.586
					c2.838-2.239,3.876-2.465,5.249-2.571c1.1-0.083,2.348-0.18,6.492-3.006c0.57-0.39,1.432-0.948,2.463-1.62
					c2.91-1.891,7.309-4.747,10.16-7.036c1.569-1.259,3.176-2.665,4.876-4.153c5.657-4.953,11.506-10.073,16.131-9.637
					c1.334,0.125,2.507,0.705,3.487,1.724c1.101,1.146,1.537,2.525,1.299,4.103c-1.293,8.537-23.16,20.695-24.09,21.208
					c-0.584,0.327-14.429,8.054-19.07,9.718C98.624,126.297,97.203,126.484,95.859,126.358z M138.205,90.528
					c-3.993-0.376-9.601,4.531-15.021,9.279c-1.638,1.433-3.331,2.915-4.925,4.194c-2.91,2.334-7.345,5.215-10.28,7.122
					c-1.02,0.663-1.872,1.217-2.437,1.601c-4.469,3.049-5.924,3.16-7.208,3.26c-0.982,0.074-1.759,0.134-4.449,2.258
					c-1.663,1.311-2.37,2.735-1.993,4.012c0.408,1.387,2.059,2.445,4.106,2.639c1.13,0.105,2.33-0.054,3.475-0.464
					c4.527-1.623,18.71-9.539,18.853-9.618c0.225-0.124,22.164-12.319,23.349-20.142c0.169-1.117-0.127-2.054-0.904-2.861
					C140.03,91.039,139.192,90.621,138.205,90.528z"/>
			</g>
			<g>
				<g>
					<path fill="#FFFFFF" d="M88.163,100.212c0,0-0.177,1.414-3.957,1.061c-5.233-0.49-5.872-2.155-5.939-2.592"/>
					<path fill="#F6484B" d="M84.106,102.189c-5.707-0.538-6.621-2.535-6.749-3.369l1.819-0.279c0.003,0.01,0.418,1.374,5.102,1.815
						c0.005,0,0.009,0.001,0.014,0.001c2.539,0.236,2.99-0.393,2.994-0.399c0,0-0.022,0.039-0.035,0.142l1.825,0.229
						c-0.048,0.384-0.513,2.277-4.956,1.862C84.12,102.19,84.111,102.189,84.106,102.189z"/>
				</g>
				<path fill="#F6484B" d="M87.85,109.32L87.85,109.32c-0.654-0.062-1.246-0.368-1.715-0.887c-1.253-1.39-3.768-2.078-5.543-2.245
					c-0.824-0.077-1.578-0.056-2.065,0.061c-0.368,0.088-0.741,0.115-1.106,0.081c-1.42-0.134-2.587-1.172-2.971-2.642
					c-0.514-1.962,0.452-4.013,2.581-5.485c2.241-1.551,4.394-2.242,6.397-2.054c4.527,0.427,6.608,5.096,6.841,5.649
					c1.716,3.322,0.749,5.396,0.252,6.135C89.872,108.898,88.873,109.417,87.85,109.32z M80.764,104.355
					c2.205,0.208,5.133,1.064,6.738,2.844c0.156,0.174,0.331,0.271,0.52,0.289l0,0c0.337,0.031,0.709-0.191,0.974-0.582
					c0.245-0.367,0.944-1.757-0.38-4.294c-0.014-0.028-0.025-0.056-0.037-0.084c-0.017-0.041-1.74-4.208-5.323-4.546
					c-1.561-0.147-3.302,0.438-5.177,1.734c-1.467,1.015-2.157,2.325-1.849,3.506c0.235,0.896,1.026,1.439,1.87,1.235
					C78.786,104.295,79.732,104.258,80.764,104.355z"/>
			</g>
			<g>
				<g>
					<path fill="#F6484B" d="M104.046,95.096c-0.3,0.211-0.374,0.623-0.161,0.923l0,0c0.21,0.296,0.62,0.37,0.92,0.16l1.43-1.006
						c0.3-0.207,0.37-0.619,0.161-0.919l0,0c-0.21-0.298-0.622-0.372-0.921-0.16L104.046,95.096z"/>
					<path fill="#F6484B" d="M68.017,89.051c-0.298,0.209-0.37,0.622-0.162,0.919l0,0c0.21,0.299,0.623,0.371,0.92,0.161
						l1.432-1.004c0.297-0.209,0.368-0.621,0.16-0.919l0,0c-0.208-0.298-0.621-0.372-0.921-0.162L68.017,89.051z"/>
				</g>
				<g>
					<path fill="#FFFFFF" d="M68.825,91.722c-0.137,1.456-1.431,2.524-2.887,2.388l0,0c-1.455-0.138-2.525-1.429-2.389-2.885l0,0
						c0.137-1.454,1.431-2.524,2.885-2.388l0,0C67.891,88.974,68.961,90.268,68.825,91.722L68.825,91.722z"/>
					<path fill="#F6484B" d="M65.869,94.843c-1.856-0.176-3.228-1.83-3.052-3.687c0.175-1.858,1.83-3.228,3.687-3.053
						c1.859,0.175,3.229,1.829,3.055,3.688C69.383,93.649,67.728,95.018,65.869,94.843z M66.366,89.57
						c-1.05-0.099-1.984,0.675-2.083,1.725c-0.099,1.049,0.674,1.983,1.724,2.082c1.052,0.1,1.986-0.674,2.086-1.723
						C68.191,90.603,67.417,89.669,66.366,89.57z"/>
				</g>
				<g>
					<path fill="#FFFFFF" d="M104.524,97.746c-0.137,1.455-1.43,2.526-2.885,2.389l0,0c-1.456-0.137-2.527-1.431-2.39-2.886l0,0
						c0.137-1.454,1.431-2.524,2.887-2.388l0,0C103.59,94.999,104.661,96.291,104.524,97.746L104.524,97.746z"/>
					<path fill="#F6484B" d="M101.571,100.868c-1.859-0.175-3.229-1.829-3.055-3.688c0.175-1.857,1.83-3.227,3.689-3.051
						c1.857,0.175,3.227,1.828,3.051,3.686C105.082,99.673,103.427,101.042,101.571,100.868z M102.067,95.594
						c-1.051-0.099-1.985,0.675-2.084,1.724c-0.1,1.05,0.675,1.984,1.726,2.084c1.049,0.099,1.983-0.676,2.082-1.726
						C103.889,96.627,103.117,95.693,102.067,95.594z"/>
				</g>
			</g>
			<g>
				<path fill="#FFFFFF" d="M117.692,84.547c-0.213,2.266-1.939,3.956-3.857,3.775c-1.915-0.181-3.296-2.164-3.082-4.429
					c0.213-2.267,3.36-7.663,4.214-7.583C115.69,76.379,117.906,82.281,117.692,84.547z"/>
				<path fill="#F6484B" d="M113.765,89.056c-2.316-0.219-3.997-2.565-3.746-5.231c0.19-2.017,3.367-8.401,5.017-8.247
					c1.598,0.151,3.574,7.072,3.39,9.039C118.174,87.283,116.083,89.274,113.765,89.056z M114.858,77.237
					c-0.959,1.019-3.203,4.921-3.373,6.726c-0.175,1.858,0.911,3.484,2.419,3.627c1.51,0.143,2.88-1.253,3.056-3.111
					C117.122,82.756,115.618,78.472,114.858,77.237z"/>
			</g>
			<g>
				<path fill="#FFFFFF" d="M122.268,71.12c-0.145,1.534-1.313,2.678-2.609,2.556c-1.298-0.122-2.232-1.464-2.088-2.998
					c0.145-1.532,2.275-5.186,2.854-5.131C120.913,65.592,122.413,69.587,122.268,71.12z"/>
				<path fill="#F6484B" d="M119.589,74.409c-1.7-0.16-2.934-1.866-2.752-3.801c0.115-1.217,2.218-5.931,3.655-5.795
					c1.318,0.124,2.627,5.11,2.508,6.376C122.819,73.124,121.288,74.568,119.589,74.409z M120.308,66.591
					c-0.688,0.896-1.904,3.092-2.004,4.155c-0.106,1.126,0.532,2.112,1.423,2.195c0.891,0.084,1.701-0.765,1.808-1.892
					C121.63,70.034,120.826,67.631,120.308,66.591z"/>
			</g>
			<g>
				<path fill="#FFFFFF" d="M147.25,40.524c1.603-1.167,3.514-1.268,4.272-0.229c0.757,1.042,0.075,2.827-1.526,3.995
					c-1.603,1.166-6.625,2.652-6.961,2.188C142.75,46.087,145.651,41.689,147.25,40.524z"/>
				<path fill="#F6484B" d="M144.087,47.235c-0.612,0.099-1.295,0.163-1.647-0.321c-0.856-1.176,3.356-6.241,4.378-6.984
					c0.747-0.546,1.575-0.902,2.393-1.033c1.253-0.202,2.314,0.151,2.908,0.967c1.01,1.39,0.268,3.596-1.688,5.022
					C149.069,45.876,145.697,46.977,144.087,47.235z M149.444,40.349c-0.581,0.094-1.206,0.367-1.76,0.77
					c-1.089,0.794-2.877,3.307-3.611,4.625c1.638-0.311,4.475-1.31,5.49-2.05c1.355-0.987,1.809-2.356,1.365-2.965
					C150.676,40.384,150.121,40.24,149.444,40.349z"/>
			</g>
			<g>
				<path fill="#FFFFFF" d="M170.648,50.779c2.718-0.066,4.952,1.156,4.992,2.728c0.037,1.573-2.133,2.901-4.851,2.97
					c-2.719,0.067-9.54-1.911-9.557-2.611C161.218,53.271,167.929,50.847,170.648,50.779z"/>
				<path fill="#F6484B" d="M169.743,57.167c-0.745-0.07-9.203-1.479-9.246-3.285c-0.012-0.429-0.025-1.018,4.181-2.454
					c0.915-0.313,4.052-1.338,5.952-1.386c0.364-0.009,0.729,0.004,1.083,0.037c2.702,0.255,4.619,1.656,4.664,3.408
					c0.048,2.009-2.397,3.645-5.567,3.725C170.503,57.22,170.145,57.205,169.743,57.167z M162.517,53.853
					c1.485,0.623,4.925,1.619,7.363,1.849c0.344,0.032,0.645,0.046,0.893,0.039c2.464-0.062,4.154-1.218,4.131-2.217
					c-0.027-1.087-2.038-2.061-4.239-2.009C168.662,51.566,164.27,53.025,162.517,53.853z"/>
			</g>
			<g>
				<g>
					<path fill="#FFFFFF" d="M177.124,129.267c-1.448-5.559-5.378-7.484-9.111-13.184c-6.191-9.45-8.773-16.755-8.773-16.755
						l-7.975-12.618l-6.844-8c0,0-20.024-7.237-19.422,17.754c0,0-0.998,17.365,4.32,25.547c4.437,6.823,7.486,8.854,10.158,8.651
						l0,0c0,0,0.334,10.036,5.102,18.294c0,0,26.48,12.805,35.896-3.397L177.124,129.267z"/>
					<path fill="#F6484B" d="M161.112,154.707c-0.002,0-0.002,0-0.002,0c-8.813-0.832-16.681-4.596-17.012-4.756
						c-0.198-0.096-0.365-0.251-0.476-0.443c-4.003-6.929-4.964-14.939-5.187-17.768c-3.077-0.365-6.183-3.189-10.043-9.126
						c-5.368-8.258-4.564-24.957-4.499-26.167c-0.177-7.617,1.519-13.145,5.04-16.428c3.51-3.273,8.068-3.6,11.273-3.297
						c2.619,0.246,4.51,0.921,4.587,0.95c0.181,0.063,0.341,0.175,0.464,0.32l6.845,7.999c0.034,0.041,0.066,0.084,0.095,0.129
						l7.976,12.618c0.043,0.069,0.078,0.144,0.106,0.222c0.024,0.071,2.62,7.305,8.656,16.518c1.389,2.119,2.785,3.679,4.136,5.185
						c2.233,2.492,4.161,4.644,5.12,8.327l3.364,16.348c0.054,0.266,0.01,0.542-0.127,0.777
						C177.641,152.63,170.616,155.602,161.112,154.707z M145.364,148.103c1.52,0.691,8.488,3.701,15.952,4.404h0.003
						c8.527,0.804,14.575-1.601,17.986-7.146l-3.264-15.871c-0.812-3.109-2.49-4.981-4.615-7.353
						c-1.34-1.495-2.858-3.189-4.338-5.448c-5.838-8.91-8.475-15.851-8.848-16.873l-7.868-12.449l-6.592-7.704
						c-0.565-0.176-1.988-0.572-3.781-0.741c-2.755-0.26-6.649-0.001-9.56,2.714c-3.046,2.84-4.505,7.82-4.336,14.802
						c0,0.03,0,0.061-0.003,0.09c-0.008,0.171-0.915,17.102,4.145,24.883c3.421,5.263,6.214,7.928,8.539,8.146
						c0.202,0.019,0.407,0.021,0.61,0.005c0.295-0.022,0.595,0.078,0.819,0.279s0.356,0.485,0.365,0.785
						C140.584,130.722,140.958,140.249,145.364,148.103z"/>
				</g>
				<g>
					<path fill="#FFFFFF" d="M159.239,99.329c0,0-8.103-18.655-14.818-20.618c-6.717-1.963-11.274,9.76-8.063,17.543
						C139.569,104.038,146.45,114.731,159.239,99.329z"/>
					<path fill="#F6484B" d="M146.515,108.245L146.515,108.245c-4.423-0.417-8.184-4.31-11.178-11.569
						c-2.037-4.937-1.243-11.808,1.843-15.983c2.023-2.735,4.781-3.85,7.55-3.042c7.011,2.048,14.672,19.28,15.521,21.239
						c0.167,0.382,0.104,0.824-0.162,1.145C155.24,105.875,150.672,108.636,146.515,108.245z M143.305,79.615
						c-1.993-0.188-3.466,1.196-4.348,2.391c-2.299,3.107-3.518,9.129-1.579,13.827c2.658,6.443,5.802,9.88,9.343,10.214
						c3.273,0.309,7.049-2.014,11.229-6.902c-2.447-5.457-8.938-17.941-13.84-19.375C143.84,79.691,143.569,79.639,143.305,79.615z"
						/>
				</g>
			</g>
			
				<path fill="#FFFFFF" stroke="#F6484B" stroke-width="3" stroke-linecap="round" stroke-linejoin="round" stroke-miterlimit="10" d="
				M42.791,48.624"/>
		</g>
	</g>
</g>
</svg>
