<?xml version="1.0" encoding="UTF-8" standalone="no"?>
<!-- Created with Inkscape (http://www.inkscape.org/) -->

<svg
   xmlns:dc="http://purl.org/dc/elements/1.1/"
   xmlns:cc="http://creativecommons.org/ns#"
   xmlns:rdf="http://www.w3.org/1999/02/22-rdf-syntax-ns#"
   xmlns:svg="http://www.w3.org/2000/svg"
   xmlns="http://www.w3.org/2000/svg"
   xmlns:sodipodi="http://sodipodi.sourceforge.net/DTD/sodipodi-0.dtd"
   xmlns:inkscape="http://www.inkscape.org/namespaces/inkscape"
   id="svg2"
   version="1.1"
   inkscape:version="0.48.5 r10040"
   width="276.42249"
   height="395.82269"
   xml:space="preserve"
   sodipodi:docname="New document 1"><metadata
     id="metadata8"><rdf:RDF><cc:Work
         rdf:about=""><dc:format>image/svg+xml</dc:format><dc:type
           rdf:resource="http://purl.org/dc/dcmitype/StillImage" /><dc:title></dc:title></cc:Work></rdf:RDF></metadata><defs
     id="defs6"><clipPath
       clipPathUnits="userSpaceOnUse"
       id="clipPath16"><path
         d="M 0,330 680,330 680,0 0,0 0,330 z"
         id="path18"
         inkscape:connector-curvature="0" /></clipPath></defs><sodipodi:namedview
     pagecolor="#ffffff"
     bordercolor="#666666"
     borderopacity="1"
     objecttolerance="10"
     gridtolerance="10"
     guidetolerance="10"
     inkscape:pageopacity="0"
     inkscape:pageshadow="2"
     inkscape:window-width="1201"
     inkscape:window-height="913"
     id="namedview4"
     showgrid="false"
     fit-margin-top="0"
     fit-margin-left="0"
     fit-margin-right="0"
     fit-margin-bottom="0"
     inkscape:zoom="0.35058824"
     inkscape:cx="192.40788"
     inkscape:cy="197.91144"
     inkscape:window-x="0"
     inkscape:window-y="0"
     inkscape:window-maximized="0"
     inkscape:current-layer="g10" /><g
     id="g10"
     inkscape:groupmode="layer"
     inkscape:label="笑臉"
     transform="matrix(1.25,0,0,-1.25,-232.59212,404.16125)"><g
       id="g12"><g
         id="g14"
         clip-path="url(#clipPath16)"><g
           id="g20"
           transform="translate(328.7334,62.7671)"><path
             d="m 0,0 c -5.137,-11.872 -17.16,-19.542 -30.631,-19.542 -13.762,0 -25.853,7.71 -30.81,19.642 -0.852,2.043 0.117,4.387 2.164,5.237 0.504,0.207 1.023,0.307 1.535,0.307 1.57,0 3.06,-0.928 3.703,-2.471 3.709,-8.932 12.896,-14.699 23.408,-14.699 10.272,0 19.406,5.773 23.274,14.709 0.877,2.032 3.236,2.968 5.267,2.088 C -0.061,4.392 0.879,2.032 0,0 m -19.586,33.931 c 0,4.572 3.713,8.283 8.287,8.283 4.572,0 8.285,-3.709 8.285,-8.283 0,-4.578 -3.709,-8.287 -8.285,-8.287 -4.574,0 -8.287,3.709 -8.287,8.287 m -37.559,0 c 0,4.572 3.707,8.283 8.282,8.283 4.572,0 8.283,-3.709 8.283,-8.283 0,-4.578 -3.711,-8.287 -8.283,-8.287 -4.575,0 -8.282,3.709 -8.282,8.287 M 11.674,-27.64 c -23.371,-23.369 -61.397,-23.373 -84.77,-0.002 -23.375,23.375 -23.375,61.407 0,84.778 23.373,23.369 61.399,23.371 84.774,-0.002 C 35.049,33.763 35.047,-4.269 11.674,-27.64 m 7.736,92.5 c -27.639,27.639 -72.605,27.639 -100.236,0.006 -27.637,-27.635 -27.635,-72.601 0.004,-100.238 27.627,-27.633 72.593,-27.633 100.228,0.004 27.635,27.633 27.631,72.597 0.004,100.228"
             style="fill:#ff343b;fill-opacity:1;fill-rule:nonzero;stroke:none"
             id="path22"
             inkscape:connector-curvature="0" /></g><g
           id="g24"
           transform="translate(302.5186,277.3521)"><path
             d="M 0,0 11.635,1.293 -3.877,-107.287 0,0 z"
             style="fill:#ff343b;fill-opacity:1;fill-rule:nonzero;stroke:none"
             id="path26"
             inkscape:connector-curvature="0" /></g><g
           id="g28"
           transform="translate(341.2979,235.9888)"><path
             d="M 0,0 7.754,-6.463 -28.438,-65.924 0,0 z"
             style="fill:#ff343b;fill-opacity:1;fill-rule:nonzero;stroke:none"
             id="path30"
             inkscape:connector-curvature="0" /></g><g
           id="g32"
           transform="translate(374.7686,232.5991)"><path
             d="M 0,0 -45.162,-72.876 11.291,-6.158 0,0 z"
             style="fill:#ff343b;fill-opacity:1;fill-rule:nonzero;stroke:none"
             id="path34"
             inkscape:connector-curvature="0" /></g><g
           id="g36"
           transform="translate(281.835,247.6216)"><path
             d="M 0,0 -11.631,-2.585 9.049,-77.557 0,0 z"
             style="fill:#ff343b;fill-opacity:1;fill-rule:nonzero;stroke:none"
             id="path38"
             inkscape:connector-curvature="0" /></g><g
           id="g40"
           transform="translate(236.5967,248.9146)"><path
             d="M 0,0 -10.342,-5.17 38.777,-76.265 0,0 z"
             style="fill:#ff343b;fill-opacity:1;fill-rule:nonzero;stroke:none"
             id="path42"
             inkscape:connector-curvature="0" /></g><g
           id="g44"
           transform="translate(227.5479,210.1353)"><path
             d="M 0,0 -7.756,-6.463 36.193,-46.533 0,0 z"
             style="fill:#ff343b;fill-opacity:1;fill-rule:nonzero;stroke:none"
             id="path46"
             inkscape:connector-curvature="0" /></g><g
           id="g48"
           transform="translate(265.0342,251.4995)"><path
             d="m 0,0 c 0,-3.569 -2.895,-6.463 -6.465,-6.463 -3.57,0 -6.463,2.894 -6.463,6.463 0,3.57 2.893,6.464 6.463,6.464 C -2.895,6.464 0,3.57 0,0"
             style="fill:#ff343b;fill-opacity:1;fill-rule:nonzero;stroke:none"
             id="path50"
             inkscape:connector-curvature="0" /></g><g
           id="g52"
           transform="translate(215.0498,217.8911)"><path
             d="m 0,0 c 0,-3.57 -2.893,-6.465 -6.465,-6.465 -3.57,0 -6.461,2.895 -6.461,6.465 0,3.568 2.891,6.461 6.461,6.461 C -2.893,6.461 0,3.568 0,0"
             style="fill:#ff343b;fill-opacity:1;fill-rule:nonzero;stroke:none"
             id="path54"
             inkscape:connector-curvature="0" /></g><g
           id="g56"
           transform="translate(236.5947,264.4263)"><path
             d="m 0,0 c 0,-3.568 -2.893,-6.463 -6.463,-6.463 -3.572,0 -6.463,2.895 -6.463,6.463 0,3.57 2.891,6.463 6.463,6.463 C -2.893,6.463 0,3.57 0,0"
             style="fill:#ff343b;fill-opacity:1;fill-rule:nonzero;stroke:none"
             id="path58"
             inkscape:connector-curvature="0" /></g><g
           id="g60"
           transform="translate(348.6279,270.4575)"><path
             d="m 0,0 c 0,-3.568 -2.895,-6.462 -6.465,-6.462 -3.568,0 -6.463,2.894 -6.463,6.462 0,3.57 2.895,6.465 6.463,6.465 C -2.895,6.465 0,3.57 0,0"
             style="fill:#ff343b;fill-opacity:1;fill-rule:nonzero;stroke:none"
             id="path62"
             inkscape:connector-curvature="0" /></g><g
           id="g64"
           transform="translate(288.3018,303.2075)"><path
             d="m 0,0 c 0,-3.57 -2.893,-6.465 -6.463,-6.465 -3.572,0 -6.463,2.895 -6.463,6.465 0,3.569 2.891,6.463 6.463,6.463 C -2.893,6.463 0,3.569 0,0"
             style="fill:#ff343b;fill-opacity:1;fill-rule:nonzero;stroke:none"
             id="path66"
             inkscape:connector-curvature="0" /></g><g
           id="g68"
           transform="translate(365.8623,241.1587)"><path
             d="m 0,0 c 0,-3.57 -2.895,-6.463 -6.463,-6.463 -3.568,0 -6.463,2.893 -6.463,6.463 0,3.57 2.895,6.463 6.463,6.463 C -2.895,6.463 0,3.57 0,0"
             style="fill:#ff343b;fill-opacity:1;fill-rule:nonzero;stroke:none"
             id="path70"
             inkscape:connector-curvature="0" /></g><g
           id="g72"
           transform="translate(307.1318,320.229)"><path
             d="m 0,0 c 0,-1.711 -1.387,-3.098 -3.1,-3.098 -1.711,0 -3.099,1.387 -3.099,3.098 0,1.713 1.388,3.1 3.099,3.1 C -1.387,3.1 0,1.713 0,0"
             style="fill:#ff343b;fill-opacity:1;fill-rule:nonzero;stroke:none"
             id="path74"
             inkscape:connector-curvature="0" /></g><g
           id="g76"
           transform="translate(226.9854,295.2388)"><path
             d="m 0,0 c 0,-1.713 -1.387,-3.1 -3.098,-3.1 -1.713,0 -3.099,1.387 -3.099,3.1 0,1.711 1.386,3.098 3.099,3.098 C -1.387,3.098 0,1.711 0,0"
             style="fill:#ff343b;fill-opacity:1;fill-rule:nonzero;stroke:none"
             id="path78"
             inkscape:connector-curvature="0" /></g><g
           id="g80"
           transform="translate(296.7881,271.1079)"><path
             d="m 0,0 c 0,-1.711 -1.387,-3.099 -3.098,-3.099 -1.711,0 -3.099,1.388 -3.099,3.099 0,1.711 1.388,3.099 3.099,3.099 C -1.387,3.099 0,1.711 0,0"
             style="fill:#ff343b;fill-opacity:1;fill-rule:nonzero;stroke:none"
             id="path82"
             inkscape:connector-curvature="0" /></g><g
           id="g84"
           transform="translate(329.665,292.8638)"><path
             d="m 0,0 -6.889,4.259 -7.412,-3.261 1.92,7.867 -5.39,6.042 8.076,0.605 4.082,6.994 3.066,-7.494 L 5.369,13.291 -0.811,8.058 0,0 z"
             style="fill:#ff343b;fill-opacity:1;fill-rule:nonzero;stroke:none"
             id="path86"
             inkscape:connector-curvature="0" /></g><g
           id="g88"
           transform="translate(261.585,272.1802)"><path
             d="M 0,0 -6.889,4.258 -14.303,1 l 1.922,7.865 -5.39,6.043 8.076,0.604 4.078,6.994 3.07,-7.494 L 5.367,13.293 -0.811,8.059 0,0 z"
             style="fill:#ff343b;fill-opacity:1;fill-rule:nonzero;stroke:none"
             id="path90"
             inkscape:connector-curvature="0" /></g><g
           id="g92"
           transform="translate(203.8447,242.8794)"><path
             d="m 0,0 -6.889,4.259 -7.414,-3.261 1.92,7.868 -5.388,6.042 8.074,0.604 4.082,6.994 3.068,-7.494 L 5.367,13.293 -0.811,8.059 0,0 z"
             style="fill:#ff343b;fill-opacity:1;fill-rule:nonzero;stroke:none"
             id="path94"
             inkscape:connector-curvature="0" /></g><g
           id="g96"
           transform="translate(401.8447,235.8794)"><path
             d="m 0,0 -6.889,4.259 -7.414,-3.261 1.92,7.868 -5.388,6.042 8.074,0.604 4.082,6.994 3.068,-7.494 L 5.367,13.293 -0.811,8.059 0,0 z"
             style="fill:#ff343b;fill-opacity:1;fill-rule:nonzero;stroke:none"
             id="path98"
             inkscape:connector-curvature="0" /></g><g
           id="g100"
           transform="translate(367.9932,307.8169)"><path
             d="M 0,0 -3.611,2.231 -7.494,0.523 -6.49,4.646 -9.314,7.814 -5.082,8.131 -2.943,11.797 -1.334,7.869 2.814,6.967 -0.424,4.224 0,0 z"
             style="fill:#ff343b;fill-opacity:1;fill-rule:nonzero;stroke:none"
             id="path102"
             inkscape:connector-curvature="0" /></g><g
           id="g104"
           transform="translate(378.335,259.5571)"><path
             d="m 0,0 -3.609,2.23 -3.889,-1.707 1.008,4.123 -2.826,3.168 4.234,0.315 2.139,3.668 1.609,-3.93 4.15,-0.9 L -0.424,4.223 0,0 z"
             style="fill:#ff343b;fill-opacity:1;fill-rule:nonzero;stroke:none"
             id="path106"
             inkscape:connector-curvature="0" /></g></g></g></g></svg>