<?xml version="1.0" encoding="UTF-8" standalone="no"?>
<!-- Created with Inkscape (http://www.inkscape.org/) -->

<svg
   xmlns:dc="http://purl.org/dc/elements/1.1/"
   xmlns:cc="http://creativecommons.org/ns#"
   xmlns:rdf="http://www.w3.org/1999/02/22-rdf-syntax-ns#"
   xmlns:svg="http://www.w3.org/2000/svg"
   xmlns="http://www.w3.org/2000/svg"
   xmlns:sodipodi="http://sodipodi.sourceforge.net/DTD/sodipodi-0.dtd"
   xmlns:inkscape="http://www.inkscape.org/namespaces/inkscape"
   id="svg2"
   version="1.1"
   inkscape:version="0.48.5 r10040"
   width="274.42001"
   height="359.82001"
   xml:space="preserve"
   sodipodi:docname="sad.svg"><metadata
     id="metadata8"><rdf:RDF><cc:Work
         rdf:about=""><dc:format>image/svg+xml</dc:format><dc:type
           rdf:resource="http://purl.org/dc/dcmitype/StillImage" /><dc:title /></cc:Work></rdf:RDF></metadata><defs
     id="defs6"><clipPath
       clipPathUnits="userSpaceOnUse"
       id="clipPath16"><path
         d="M 0,330 680,330 680,0 0,0 0,330 z"
         id="path18"
         inkscape:connector-curvature="0" /></clipPath></defs><sodipodi:namedview
     pagecolor="#ffffff"
     bordercolor="#666666"
     borderopacity="1"
     objecttolerance="10"
     gridtolerance="10"
     guidetolerance="10"
     inkscape:pageopacity="0"
     inkscape:pageshadow="2"
     inkscape:window-width="1920"
     inkscape:window-height="948"
     id="namedview4"
     showgrid="false"
     fit-margin-top="0"
     fit-margin-left="0"
     fit-margin-right="0"
     fit-margin-bottom="0"
     inkscape:zoom="1.4023529"
     inkscape:cx="99.937886"
     inkscape:cy="114.51845"
     inkscape:window-x="0"
     inkscape:window-y="0"
     inkscape:window-maximized="1"
     inkscape:current-layer="g10" /><g
     id="g10"
     inkscape:groupmode="layer"
     inkscape:label="笑臉"
     transform="matrix(1.25,0,0,-1.25,-283.07419,416.48906)"><g
       id="g12"
       transform="translate(41.107202,0)"><g
         id="g14"
         clip-path="url(#clipPath16)"><g
           id="g20"
           transform="translate(283.6621,102.7295)"><path
             d="m 0,0 c 2.279,5.271 7.621,8.679 13.604,8.679 6.113,0 11.482,-3.424 13.683,-8.724 0.379,-0.907 -0.053,-1.949 -0.959,-2.326 -0.224,-0.092 -0.455,-0.136 -0.683,-0.136 -0.698,0 -1.36,0.412 -1.645,1.097 C 22.354,2.557 18.271,5.119 13.604,5.119 9.043,5.119 4.984,2.555 3.268,-1.414 2.879,-2.316 1.83,-2.732 0.93,-2.342 0.025,-1.951 -0.391,-0.903 0,0 m 24.764,32.633 c 0,4.572 3.713,8.283 8.287,8.283 4.572,0 8.285,-3.709 8.285,-8.283 0,-4.578 -3.709,-8.287 -8.285,-8.287 -4.574,0 -8.287,3.709 -8.287,8.287 m -37.561,0 c 0,4.572 3.709,8.283 8.283,8.283 4.573,0 8.284,-3.709 8.284,-8.283 0,-4.578 -3.711,-8.287 -8.284,-8.287 -4.574,0 -8.283,3.709 -8.283,8.287 m 68.82,-61.571 c -23.371,-23.369 -61.396,-23.373 -84.769,-0.001 -23.375,23.375 -23.375,61.406 0,84.777 C -5.373,79.207 32.652,79.209 56.027,55.836 79.398,32.465 79.396,-5.566 56.023,-28.938 M 63.76,63.563 C 36.121,91.201 -8.846,91.201 -36.477,63.568 -64.113,35.934 -64.111,-9.033 -36.473,-36.67 -8.846,-64.303 36.121,-64.303 63.756,-36.666 91.391,-9.033 91.387,35.932 63.76,63.563"
             style="fill:#ff343b;fill-opacity:1;fill-rule:nonzero;stroke:none"
             id="path22"
             inkscape:connector-curvature="0" /></g><g
           id="g24"
           transform="translate(301.9258,283.7813)"><path
             d="M 0,0 7.951,0.884 -2.648,-73.326 0,0 z"
             style="fill:#ff343b;fill-opacity:1;fill-rule:nonzero;stroke:none"
             id="path26"
             inkscape:connector-curvature="0" /></g><g
           id="g28"
           transform="translate(328.4297,255.5117)"><path
             d="M 0,0 5.301,-4.417 -19.436,-45.057 0,0 z"
             style="fill:#ff343b;fill-opacity:1;fill-rule:nonzero;stroke:none"
             id="path30"
             inkscape:connector-curvature="0" /></g><g
           id="g32"
           transform="translate(351.3047,253.1953)"><path
             d="M 0,0 -30.865,-49.808 7.719,-4.208 0,0 z"
             style="fill:#ff343b;fill-opacity:1;fill-rule:nonzero;stroke:none"
             id="path34"
             inkscape:connector-curvature="0" /></g><g
           id="g36"
           transform="translate(287.791,263.4629)"><path
             d="M 0,0 -7.951,-1.767 6.186,-53.008 0,0 z"
             style="fill:#ff343b;fill-opacity:1;fill-rule:nonzero;stroke:none"
             id="path38"
             inkscape:connector-curvature="0" /></g><g
           id="g40"
           transform="translate(256.8711,264.3457)"><path
             d="M 0,0 -7.066,-3.532 26.504,-52.123 0,0 z"
             style="fill:#ff343b;fill-opacity:1;fill-rule:nonzero;stroke:none"
             id="path42"
             inkscape:connector-curvature="0" /></g><g
           id="g44"
           transform="translate(250.6875,237.8428)"><path
             d="M 0,0 -5.303,-4.418 24.734,-31.804 0,0 z"
             style="fill:#ff343b;fill-opacity:1;fill-rule:nonzero;stroke:none"
             id="path46"
             inkscape:connector-curvature="0" /></g></g></g></g></svg>